<?xml version="1.0" encoding="UTF-8"?>
<svg width="139px" height="80px" viewBox="0 0 139 80" version="1.1" xmlns="http://www.w3.org/2000/svg" xmlns:xlink="http://www.w3.org/1999/xlink">
    <title>Group</title>
    <g id="Page-1" stroke="none" stroke-width="1" fill="none" fill-rule="evenodd">
        <g id="Artboard" transform="translate(-133.000000, -195.000000)">
            <g id="Group" transform="translate(133.000000, 195.000000)">
                <path d="M40,0 L99,0 C121.09139,-4.05812251e-15 139,17.90861 139,40 C139,62.09139 121.09139,80 99,80 L40,80 C17.90861,80 2.705415e-15,62.09139 0,40 C-2.705415e-15,17.90861 17.90861,4.05812251e-15 40,0 Z" id="Button" fill="#000000"></path>
                <path d="M98.2253269,18.9285714 C109.898748,18.9285714 119.361925,28.3625713 119.361925,40 C119.361925,51.6374287 109.898748,61.0714286 98.2253269,61.0714286 C86.5519062,61.0714286 77.088729,51.6374287 77.088729,40 C77.088729,28.3625713 86.5519062,18.9285714 98.2253269,18.9285714 Z M49.3344037,25.4286206 L49.728948,25.4341663 L49.728948,25.4341663 L50.0283511,25.4467494 L50.0283511,25.4467494 L50.2515782,25.4610424 L50.2515782,25.4610424 L50.4923108,25.4812058 L50.4923108,25.4812058 L50.7493536,25.5082223 L50.7493536,25.5082223 L51.0215113,25.543075 L51.0215113,25.543075 L51.3075885,25.5867468 L51.3075885,25.5867468 L51.6063899,25.6402207 C53.5365693,26.0120035 56.1604069,27.0326846 58.1114656,29.825942 L57.7816705,30.0448895 L57.7816705,30.0448895 L57.5615203,30.1984802 L57.5615203,30.1984802 L57.3000245,30.392072 C57.2689409,30.4158285 57.237226,30.4403378 57.2049244,30.4656038 L57.0044334,30.6263135 C56.9699643,30.6546227 56.9349981,30.6836966 56.8995795,30.7135394 L56.6819975,30.9018534 C55.2741332,32.1533424 53.3422967,34.526527 53.3422967,38.2411206 C53.3422967,42.006678 55.2424227,44.3811327 56.8888386,45.7266111 L57.1463766,45.9305568 C57.1888435,45.9631401 57.2310562,45.9950241 57.2729755,46.0262153 L57.5206556,46.2051018 L57.5206556,46.2051018 L57.7594087,46.3676781 C57.7983523,46.3934326 57.8368455,46.4185207 57.8748489,46.442949 L58.0966788,46.581654 L58.0966788,46.581654 L58.3048714,46.7048408 L58.3048714,46.7048408 L58.587469,46.8612173 L58.587469,46.8612173 L58.8287847,46.9844596 L58.8287847,46.9844596 L58.9635873,47.0487413 L58.9635873,47.0487413 L59.1621351,47.1358183 L59.1621351,47.1358183 L59.2533792,47.169692 L59.2533792,47.169692 L59.2423438,47.2184604 L59.2423438,47.2184604 L59.2161811,47.3132324 L59.1030739,47.6737798 L59.1030739,47.6737798 L58.9899012,48.0027565 L58.9899012,48.0027565 L58.8437841,48.4003907 L58.8437841,48.4003907 L58.7276488,48.7001502 L58.7276488,48.7001502 L58.5962396,49.025215 L58.5962396,49.025215 L58.4493034,49.3735012 L58.4493034,49.3735012 L58.2865875,49.7429251 L58.2865875,49.7429251 L58.107839,50.1314032 L58.107839,50.1314032 L57.9128052,50.5368515 C57.8789284,50.6057247 57.8443625,50.6752182 57.8091022,50.7452885 L57.5891662,51.1722855 L57.5891662,51.1722855 L57.3523126,51.6110436 C57.0251172,52.2029691 56.6521341,52.8207011 56.2306666,53.4420134 L55.69648,54.1946639 L55.4191105,54.5774095 L55.4191105,54.5774095 L55.1387498,54.9553957 L55.1387498,54.9553957 L54.8547989,55.3268017 C54.8071412,55.3880532 54.759309,55.4489546 54.7112898,55.5094681 L54.4208299,55.8675893 C53.0051269,57.5730712 51.4111261,58.888442 49.3344037,58.888442 C48.1253187,58.888442 47.274481,58.6062992 46.4680661,58.2677277 L45.6648355,57.9187066 C44.7178881,57.5090769 43.6890214,57.1250492 42.0798934,57.1250492 C40.4916632,57.1250492 39.3812952,57.5187992 38.3710507,57.9387992 L37.5208367,58.2966563 C36.6775223,58.6437992 35.8284759,58.9330849 34.7358212,58.9330849 C32.7342179,58.9330849 31.1748293,57.6221325 29.6381738,55.7362389 L29.3409278,55.3642456 L29.3409278,55.3642456 L29.0435737,54.9790796 L29.0435737,54.9790796 L28.7454356,54.5819268 L28.7454356,54.5819268 L28.4458376,54.1739731 L28.4458376,54.1739731 L27.9922248,53.5443848 C27.9414719,53.4733769 27.8905878,53.4020425 27.8395583,53.3304063 C25.264655,49.6920134 23.2047323,44.044692 23.2047323,38.6875492 C23.2047323,30.1161206 28.8023483,25.5625492 34.3327929,25.5625492 C35.7299578,25.5625492 37.01363,25.999692 38.1763808,26.4543206 L39.2985493,26.8992349 C40.1095326,27.2139777 40.8511047,27.4598706 41.5201318,27.4598706 C42.0621354,27.4598706 42.6990257,27.264233 43.419425,26.9943879 L43.9119381,26.8048302 L43.9119381,26.8048302 L44.6954629,26.4967571 C46.0449224,25.9720585 47.6087938,25.4286206 49.3344037,25.4286206 Z M98.2253273,22.8571429 C88.7283071,22.8571429 81.029451,30.5322614 81.029451,40 C81.029451,49.4677386 88.7283071,57.1428571 98.2253273,57.1428571 C107.722348,57.1428571 115.421204,49.4677386 115.421204,40 C115.421204,30.5322614 107.722348,22.8571429 98.2253273,22.8571429 Z M98.0429466,29.0401786 C99.1749089,29.0401786 99.933144,29.7956778 99.9877568,30.9479003 L99.990917,31.0825893 L99.990917,42.2433036 L99.8901599,44.6540179 L101.547054,42.6785714 L104.054786,40.1785714 C104.413034,39.8102679 104.849648,39.5424107 105.45419,39.5424107 C106.495347,39.5424107 107.290208,40.3013393 107.290208,41.4174107 C107.290208,41.8739854 107.123668,42.3213363 106.790586,42.6923819 L106.685666,42.8013393 L99.4759363,50 C99.1288841,50.3459821 98.5691225,50.5691964 98.0429466,50.5691964 C97.5646049,50.5691964 97.0585064,50.3847218 96.7096962,50.0912395 L96.6099569,50 L89.4002275,42.8013393 C89.0083944,42.4107143 88.795685,41.9196429 88.795685,41.4174107 C88.795685,40.3013393 89.5905465,39.5424107 90.6428983,39.5424107 C91.1868,39.5424107 91.6084093,39.7674851 91.9508421,40.0886851 L92.0423023,40.1785714 L94.5276438,42.6785714 L96.1957333,44.6540179 L96.083781,42.2433036 L96.083781,31.0825893 C96.083781,29.8549107 96.8674472,29.0401786 98.0429466,29.0401786 Z M50.0285081,14.7589777 C50.073289,15.0045134 50.0956795,15.3170134 50.0956795,15.6295134 C50.0956795,17.9062992 49.1328895,20.1607634 47.7670712,21.8125492 C46.2669101,23.6205849 43.7591782,24.9598706 41.7664269,24.9598706 C41.6022302,24.9598706 41.4479847,24.9400293 41.3235933,24.9201881 L41.1618844,24.8929063 L41.1618844,24.8929063 L41.1287133,24.7143349 C41.1021765,24.5556047 41.0723225,24.3274301 41.0723225,24.0893349 C41.0723225,21.8938629 42.1549471,19.698391 43.3766177,18.2634603 L43.5128831,18.107192 C45.102606,16.232192 47.7894617,14.8482634 50.0285081,14.7589777 Z" id="Shape" fill="#FFFFFF" fill-rule="nonzero"></path>
            </g>
        </g>
    </g>
</svg>