<?xml version="1.0" encoding="UTF-8"?>
<svg width="104px" height="60px" viewBox="0 0 104 60" version="1.1" xmlns="http://www.w3.org/2000/svg" xmlns:xlink="http://www.w3.org/1999/xlink">
    <title>Group</title>
    <g id="Page-1" stroke="none" stroke-width="1" fill="none" fill-rule="evenodd">
        <g id="Artboard" transform="translate(-150.000000, -205.000000)">
            <g id="Group" transform="translate(150.000000, 205.000000)">
                <path d="M30,0 L74,0 C90.5685425,-3.04359188e-15 104,13.4314575 104,30 C104,46.5685425 90.5685425,60 74,60 L30,60 C13.4314575,60 -1.52365243e-15,46.5685425 0,30 C-5.58177493e-15,13.4314575 13.4314575,3.04359188e-15 30,0 Z" id="Button" fill="#000000"></path>
                <path d="M73.679381,14.1964286 C82.4134512,14.1964286 89.493814,21.2719285 89.493814,30 C89.493814,38.7280715 82.4134512,45.8035714 73.679381,45.8035714 C64.9453108,45.8035714 57.864948,38.7280715 57.864948,30 C57.864948,21.2719285 64.9453108,14.1964286 73.679381,14.1964286 Z M36.9120718,19.0714654 L37.2072704,19.0756247 L37.2072704,19.0756247 L37.4312843,19.085062 L37.4312843,19.085062 L37.5983031,19.0957818 L37.5983031,19.0957818 L37.7784196,19.1109043 L37.7784196,19.1109043 L37.9707394,19.1311667 L37.9707394,19.1311667 L38.1743681,19.1573062 L38.1743681,19.1573062 L38.3884115,19.1900601 L38.3884115,19.1900601 L38.6119752,19.2301655 C40.0561382,19.5090026 42.0192972,20.2745135 43.4790821,22.3694565 L43.232329,22.5336671 L43.232329,22.5336671 L43.0676123,22.6488602 L43.0676123,22.6488602 L42.8719607,22.794054 C42.848704,22.8118714 42.8249748,22.8302533 42.8008068,22.8492029 L42.6507991,22.9697351 C42.6250093,22.990967 42.5988475,23.0127725 42.5723473,23.0351545 L42.4095521,23.17639 C41.356186,24.1150068 39.9107832,25.8948952 39.9107832,28.6808404 C39.9107832,31.5050085 41.3324601,33.2858495 42.5643109,34.2949583 L42.7570012,34.4479176 C42.788775,34.4723551 42.8203586,34.4962681 42.8517227,34.5196615 L43.0370373,34.6538264 L43.0370373,34.6538264 L43.2156727,34.7757586 C43.2448104,34.7950745 43.273611,34.8138905 43.3020452,34.8322117 L43.4680186,34.9362405 L43.4680186,34.9362405 L43.6237887,35.0286306 L43.6237887,35.0286306 L43.8352286,35.145913 L43.8352286,35.145913 L44.0157814,35.2383447 L44.0157814,35.2383447 L44.1166409,35.286556 L44.1166409,35.286556 L44.2651946,35.3518637 L44.2651946,35.3518637 L44.3334636,35.377269 L44.3334636,35.377269 L44.3252068,35.4138453 L44.3252068,35.4138453 L44.3056319,35.4849243 L44.2210049,35.7553349 L44.2210049,35.7553349 L44.1363289,36.0020674 L44.1363289,36.0020674 L44.0270039,36.300293 L44.0270039,36.300293 L43.9401114,36.5251127 L43.9401114,36.5251127 L43.8417907,36.7689112 L43.8417907,36.7689112 L43.7318529,37.0301259 L43.7318529,37.0301259 L43.6101086,37.3071938 L43.6101086,37.3071938 L43.4763688,37.5985524 L43.4763688,37.5985524 L43.3304442,37.9026387 C43.3050975,37.9542935 43.2792352,38.0064136 43.2528534,38.0589663 L43.088297,38.3792141 L43.088297,38.3792141 L42.9110828,38.7082827 C42.6662747,39.1522268 42.3872083,39.6155258 42.0718657,40.0815101 L41.6721865,40.645998 L41.4646582,40.9330571 L41.4646582,40.9330571 L41.254892,41.2165468 L41.254892,41.2165468 L41.0424394,41.4951013 C41.0067819,41.5410399 40.9709938,41.586716 40.9350657,41.6321011 L40.7177432,41.900692 C39.6585122,43.1798034 38.4658785,44.1663315 36.9120718,44.1663315 C36.0074327,44.1663315 35.3708347,43.9547244 34.7674739,43.7007958 L34.1664957,43.4390299 C33.4579882,43.1318077 32.6881887,42.8437869 31.4842368,42.8437869 C30.2959206,42.8437869 29.4651417,43.1390994 28.7092754,43.4540994 L28.073144,43.7224922 C27.4421749,43.9828494 26.8069172,44.1998137 25.9893914,44.1998137 C24.4917889,44.1998137 23.3250521,43.2165994 22.1753243,41.8021792 L21.9529244,41.5231842 L21.9529244,41.5231842 L21.7304437,41.2343097 L21.7304437,41.2343097 L21.5073763,40.9364451 L21.5073763,40.9364451 L21.2832166,40.6304798 L21.2832166,40.6304798 L20.9438229,40.1582886 C20.9058495,40.1050327 20.8677779,40.0515319 20.8295976,39.9978047 C18.9030512,37.2690101 17.3618141,33.033519 17.3618141,29.0156619 C17.3618141,22.5870904 21.5499584,19.1719119 25.687845,19.1719119 C26.7332059,19.1719119 27.6936512,19.499769 28.563623,19.8407404 L29.4032311,20.1744262 C30.01001,20.4104833 30.5648553,20.5949029 31.0654224,20.5949029 C31.4709503,20.5949029 31.9474724,20.4481747 32.4864763,20.245791 L32.8549753,20.1036226 L32.8549753,20.1036226 L33.4412097,19.8725678 C34.4508772,19.4790438 35.620968,19.0714654 36.9120718,19.0714654 Z M73.6793814,17.1428571 C66.5736972,17.1428571 60.813402,22.8991961 60.813402,30 C60.813402,37.1008039 66.5736972,42.8571429 73.6793814,42.8571429 C80.7850656,42.8571429 86.5453608,37.1008039 86.5453608,30 C86.5453608,22.8991961 80.7850656,17.1428571 73.6793814,17.1428571 Z M73.5429244,21.7801339 C74.3898603,21.7801339 74.9571729,22.3467583 74.9980343,23.2109253 L75.0003987,23.311942 L75.0003987,31.6824777 L74.9250121,33.4905134 L76.1647028,32.0089286 L78.0409914,30.1339286 C78.3090327,29.8577009 78.6357079,29.656808 79.0880275,29.656808 C79.8670224,29.656808 80.4617389,30.2260045 80.4617389,31.063058 C80.4617389,31.405489 80.3371329,31.7410023 80.087921,32.0192864 L80.0094193,32.1010045 L74.6150894,37.5 C74.3554244,37.7594866 73.93661,37.9268973 73.5429244,37.9268973 C73.1850285,37.9268973 72.8063648,37.7885414 72.5453846,37.5684296 L72.4707595,37.5 L67.0764296,32.1010045 C66.7832595,31.8080357 66.62411,31.4397321 66.62411,31.063058 C66.62411,30.2260045 67.2188265,29.656808 68.0061976,29.656808 C68.4131457,29.656808 68.7285944,29.8256138 68.9848031,30.0665138 L69.0532337,30.1339286 L70.9127698,32.0089286 L72.1608368,33.4905134 L72.0770739,31.6824777 L72.0770739,23.311942 C72.0770739,22.391183 72.6634141,21.7801339 73.5429244,21.7801339 Z M37.4314017,11.0692333 C37.4649069,11.2533851 37.4816595,11.4877601 37.4816595,11.7221351 C37.4816595,13.4297244 36.7612986,15.1205726 35.7393914,16.3594119 C34.6169687,17.7154387 32.7406801,18.7199029 31.2497007,18.7199029 C31.1268485,18.7199029 31.0114418,18.705022 30.918372,18.690141 L30.7973811,18.6696797 L30.7973811,18.6696797 L30.7725625,18.5357512 C30.7527076,18.4167035 30.7303708,18.2455726 30.7303708,18.0670012 C30.7303708,16.4203972 31.5403921,14.7737932 32.4544477,13.6975952 L32.5564017,13.580394 C33.7458347,12.174144 35.756144,11.1361976 37.4314017,11.0692333 Z" id="Shape" fill="#FFFFFF" fill-rule="nonzero"></path>
            </g>
        </g>
    </g>
</svg>