<?xml version="1.0" encoding="UTF-8"?>
<svg width="62px" height="62px" viewBox="0 0 62 62" version="1.1" xmlns="http://www.w3.org/2000/svg" xmlns:xlink="http://www.w3.org/1999/xlink">
    <title>filibaba</title>
    <g id="Page-1" stroke="none" stroke-width="1" fill="none" fill-rule="evenodd">
        <g id="Filibaba-dot-com-assets-Light" transform="translate(-23.000000, -87.000000)" fill="#7DCC2D">
            <g id="filibaba-avatar" transform="translate(23.000000, 87.000000)">
                <path d="M49.2260625,47.0144063 C48.5624688,47.6787266 47.7143281,47.8182266 47.1197578,47.8182266 C46.1745,47.8182266 45.1996953,47.4801328 44.3396875,46.8727266 C46.2587812,45.6276406 47.9293906,44.1209922 49.2757109,42.41575 C50.2592344,44.0352578 50.2960469,45.9436953 49.2260625,47.0144063 Z M51.1981953,39.4177109 C52.3340547,37.1752969 52.9642266,34.7074062 52.9642266,32.1172109 C52.9642266,31.7626484 52.6769922,31.4754141 52.3224297,31.4754141 L49.2418047,31.4754141 C48.8872422,31.4754141 48.6000078,31.7626484 48.6000078,32.1172109 C48.6000078,39.9568203 40.7114766,46.3350703 31.0152578,46.3350703 C21.3190391,46.3350703 13.4305078,39.9568203 13.4305078,32.1172109 C13.4305078,31.7626484 13.1432734,31.4754141 12.7887109,31.4754141 L9.70808594,31.4754141 C9.35376563,31.4754141 9.06628906,31.7626484 9.06628906,32.1172109 C9.06628906,42.3634375 18.9126641,50.6992891 31.0152578,50.6992891 C34.6882734,50.6992891 38.1527656,49.9303438 41.1980312,48.5743359 C42.8369141,50.2146719 44.9952891,51.1553281 47.1197578,51.1553281 L47.12,51.1553281 C48.8523672,51.1553281 50.4389375,50.5224922 51.5871484,49.3733125 C54.1080781,46.8499609 53.8971328,42.4927656 51.1981953,39.4177109 L51.1981953,39.4177109 Z" id="Fill-1"></path>
                <path d="M12.6496953,26.2497344 C12.7676406,26.3720391 12.9296641,26.4427578 13.0999219,26.4459063 C13.1037969,26.4459063 13.1076719,26.4459063 13.1117891,26.4459063 C13.2776875,26.4459063 13.4372891,26.3814844 13.5569297,26.2662031 C13.9819688,25.8569063 14.9214141,25.1698203 16.4411406,25.1698203 C17.9659531,25.1698203 18.8104609,25.8188828 19.1783438,26.2058984 C19.4222266,26.4626172 19.8288594,26.4727891 20.0855781,26.2289062 L21.9463047,24.4604531 C22.0698203,24.3432344 22.1415078,24.1816953 22.145625,24.0114375 C22.1502266,23.8411797 22.0867734,23.67625 21.9693125,23.5529766 C21.1763906,22.7188828 19.4038203,21.3190391 16.4411406,21.3190391 C13.5695234,21.3190391 11.7274453,22.6818281 10.884875,23.4938828 C10.6296094,23.7399453 10.6221016,24.1463359 10.8681641,24.4016016 L12.6496953,26.2497344" id="Fill-2"></path>
                <path d="M41.8986797,26.2497344 C42.0246172,26.3805156 42.1926953,26.4463906 42.3610156,26.4463906 C42.5211016,26.4463906 42.6816719,26.3865703 42.8061563,26.2666875 C43.2311953,25.8571484 44.1713672,25.1698203 45.6906094,25.1698203 C47.2151797,25.1698203 48.0599297,25.8188828 48.4275703,26.2061406 C48.5450313,26.3294141 48.7065703,26.4011016 48.8765859,26.4054609 C49.0526563,26.4103047 49.2115313,26.346125 49.3350469,26.2289062 L51.1957734,24.4599688 C51.3190469,24.3429922 51.3909766,24.1812109 51.3950938,24.0111953 C51.3994531,23.8409375 51.336,23.6760078 51.2185391,23.5527344 C50.4256172,22.7186406 48.6525625,21.3190391 45.6906094,21.3190391 C42.8199609,21.3190391 40.9771563,22.6815859 40.1341016,23.4933984 C40.0115547,23.6115859 39.9408359,23.7738516 39.9375773,23.9438672 C39.9345391,24.1138828 39.9989609,24.2785703 40.1171484,24.4011172 L41.8986797,26.2497344" id="Fill-3"></path>
            </g>
        </g>
    </g>
</svg>