<?xml version="1.0" encoding="UTF-8"?>
<svg width="313px" height="90px" viewBox="0 0 313 90" version="1.1" xmlns="http://www.w3.org/2000/svg" xmlns:xlink="http://www.w3.org/1999/xlink">
    <title>handla logo</title>
    <g id="Page-1" stroke="none" stroke-width="1" fill="none" fill-rule="evenodd">
        <g id="Filibaba-dot-com-assets-Light" transform="translate(-1045.000000, -1767.000000)" fill="#000000" fill-rule="nonzero">
            <g id="Group-2" transform="translate(1016.000000, 1741.000000)">
                <g id="Group" transform="translate(30.343257, 26.964286)">
                    <path d="M89.9166226,78.934778 C91.8742945,78.934778 92.6573633,78.228804 93.0488977,76.267765 L96.6510141,55.3238689 L119.908157,55.3238689 L116.227734,76.267765 C115.914506,78.228804 116.462654,78.934778 118.420326,78.934778 L122.883818,78.934778 C124.84149,78.934778 125.702866,78.228804 126.016093,76.267765 L134.943078,25.9082845 C135.334612,23.9472456 134.786464,23.2412715 132.672178,23.2412715 L128.208686,23.2412715 C126.251014,23.2412715 125.467945,23.9472456 125.076411,25.9082845 L121.552601,46.1462066 L98.3737654,46.1462066 L101.897575,25.9082845 C102.289109,23.9472456 101.662654,23.2412715 99.7049823,23.2412715 L95.1631834,23.2412715 C93.2055114,23.2412715 92.4224427,23.9472456 92.0309083,25.9082845 L83.182231,76.267765 C82.8690035,78.228804 83.4171517,78.934778 85.3748236,78.934778 L89.9166226,78.934778 Z M147.628792,80.1114014 C153.031966,80.1114014 158.278527,79.4838689 163.446781,78.228804 C165.404453,77.6797131 166.030908,77.0521806 166.344136,75.2480248 L171.903924,43.8714014 C172.295459,41.3612715 172.060538,40.7337391 169.789638,39.5571157 C166.579056,37.909843 161.958951,37.1254274 156.007628,37.1254274 C143.870062,37.1254274 137.527205,41.8319209 135.726146,52.4999728 L133.768474,63.1680248 C131.889109,73.4438689 136.744136,80.1114014 147.628792,80.1114014 Z M149.821384,71.7965962 C144.183289,71.7965962 141.834083,69.1295832 142.695459,63.8739988 L144.496517,53.6765962 C145.514506,47.7934793 148.881702,45.4402326 155.224559,45.4402326 C157.573765,45.4402326 159.688051,45.7539988 161.567416,46.3030897 C162.115564,46.5384144 162.350485,46.8521806 162.193871,47.32283 L158.043607,70.7768559 C155.146252,71.48283 152.405511,71.7965962 149.821384,71.7965962 Z M177.933554,78.934778 C179.577998,78.934778 180.517681,78.1503624 180.752601,76.5030897 L185.842548,47.2443884 C186.077469,46.8521806 186.31239,46.5384144 186.54731,46.4599728 C189.131437,45.7539988 191.715564,45.4402326 194.299691,45.4402326 C200.016093,45.4402326 202.3653,48.028804 201.425617,53.1275053 L197.35366,76.5030897 C196.962125,78.3072456 197.431966,78.934778 199.233025,78.934778 L203.539903,78.934778 C205.340961,78.934778 206.045723,78.3072456 206.437257,76.5030897 L210.430908,53.5981546 C212.231966,43.2438689 207.846781,37.1254274 196.962125,37.1254274 C191.167416,37.1254274 185.920855,37.9882845 181.144136,39.7924404 C178.560009,40.8121806 177.855247,41.7534793 177.307099,44.2636092 L171.669004,76.5030897 C171.355776,78.3072456 171.825617,78.934778 173.626675,78.934778 L177.933554,78.934778 Z M229.302866,80.1114014 C234.549427,80.1114014 239.639374,79.2485443 244.416093,77.6012715 C247.156834,76.5815313 247.861596,75.7971157 248.25313,73.2869858 L257.023501,23.3197131 C257.336728,21.5155572 256.866887,20.8880248 255.065829,20.8880248 L250.758951,20.8880248 C249.114506,20.8880248 248.174824,21.6724404 247.939903,23.3197131 L245.277469,38.1451676 C241.75366,37.4391936 238.699691,37.1254274 236.193871,37.1254274 C225.309215,37.1254274 218.966358,42.3025702 217.1653,52.6568559 L215.285935,63.4033494 C213.40657,73.7576352 218.026675,80.1114014 229.302866,80.1114014 Z M231.573765,71.7965962 C225.70075,71.7965962 223.273236,69.2080248 224.212919,63.9524404 L226.013977,53.7550378 C227.031966,47.8719209 230.242548,45.4402326 236.507099,45.4402326 C238.464771,45.4402326 240.892284,45.7539988 243.867945,46.4599728 L239.717681,70.0708819 C239.561067,70.4630897 239.326146,70.7768559 239.012919,70.9337391 C236.820326,71.48283 234.314506,71.7965962 231.573765,71.7965962 Z M259.920855,78.934778 C261.721914,78.934778 262.426675,78.3072456 262.81821,76.5030897 L272.136728,23.3197131 C272.449956,21.5155572 271.980115,20.8880248 270.179056,20.8880248 L265.950485,20.8880248 C264.07112,20.8880248 263.366358,21.5155572 263.05313,23.3197131 L253.734612,76.5030897 C253.343078,78.3072456 253.812919,78.934778 255.692284,78.934778 L259.920855,78.934778 Z M285.918739,80.1114014 C291.321914,80.1114014 296.568474,79.4838689 301.736728,78.228804 C303.6944,77.6797131 304.320855,77.0521806 304.634083,75.2480248 L310.193871,43.8714014 C310.585406,41.3612715 310.350485,40.7337391 308.079586,39.5571157 C304.869004,37.909843 300.248898,37.1254274 294.297575,37.1254274 C282.160009,37.1254274 275.817152,41.8319209 274.016093,52.4999728 L272.058421,63.1680248 C270.179056,73.4438689 275.034083,80.1114014 285.918739,80.1114014 Z M288.111332,71.7965962 C282.473236,71.7965962 280.12403,69.1295832 280.985406,63.8739988 L282.786464,53.6765962 C283.804453,47.7934793 287.171649,45.4402326 293.514506,45.4402326 C295.863713,45.4402326 297.977998,45.7539988 299.857363,46.3030897 C300.405511,46.5384144 300.640432,46.8521806 300.483818,47.32283 L296.333554,70.7768559 C293.436199,71.48283 290.695459,71.7965962 288.111332,71.7965962 Z" id="Combined-Shape"></path>
                    <path d="M57.7106365,14.8046242 L57.8881705,14.8032862 L57.8881705,14.8032862 C65.7265963,14.7450159 72.1283803,21.0626782 72.1880362,28.9145854 C72.1941198,29.8673938 72.1055404,30.8181 71.9229364,31.7523963 L71.8238052,32.2181107 L65.5703373,59.3595126 C65.05515,61.5955369 64.8220435,63.8866338 64.8758645,66.1791637 L64.8976604,66.8043944 L65.1841241,72.9977032 C65.537587,80.6335939 59.8101308,87.1414368 52.2821799,87.8164676 L51.9718094,87.8409129 L51.6636548,87.8585249 L51.3880473,87.8686396 L51.1122956,87.873388 L14.3002086,88.1501501 C6.4617828,88.2076261 0.0599987919,81.8899638 0.00031698415,74.0380567 C-0.00845083092,72.720274 0.164707534,71.4083297 0.515166771,70.1397842 L0.654889542,69.6661873 L3.16169467,61.6795351 C3.850362,59.4854489 4.26081775,57.2141698 4.38402382,54.9191593 L4.41049679,54.2926992 L5.19456672,28.871264 C5.42336794,21.4454374 11.3094802,15.4867782 18.6469096,15.1111343 L18.9622471,15.0984654 L19.2748735,15.0927373 L22.6097131,15.0682314 C22.9201953,15.065942 23.1957527,14.8688034 23.2981687,14.5756902 C23.3621048,14.392706 23.4157395,14.2433091 23.4590729,14.1274995 C26.2370348,6.70332309 32.4201559,1.20787801 40.1543565,0.183314434 C49.762273,-1.08946369 55.8653759,4.35423615 56.9340785,13.7533672 C56.9458925,13.8572702 56.9589718,13.9855996 56.9733165,14.1383556 C57.0089707,14.5181215 57.3292115,14.807499 57.7106365,14.8046242 Z M57.9540004,23.6278151 L19.3407035,23.9171662 C16.520093,23.9382803 14.2074116,26.1329185 14.0108191,28.9273882 L13.9998975,29.143504 L13.1792003,55.7795292 C13.1083361,58.0794538 12.7491396,60.3604947 12.1106628,62.5691183 L11.9296153,63.1696345 L9.05856797,72.3138182 C8.89013949,72.8502569 8.8065067,73.4097838 8.81028072,73.9721135 C8.83237077,76.8777814 11.144162,79.2295362 14.0178272,79.3221439 L14.2343787,79.3248269 L51.0464657,79.048959 L51.2556019,79.0433213 C54.1532485,78.9087284 56.4093715,76.5033424 56.389815,73.6233214 L56.3840558,73.4064579 L56.0413931,66.0038846 C55.935269,63.7112769 56.1165792,61.4152159 56.5804765,59.1693597 L56.7139966,58.5581386 L63.2399309,30.2335899 C63.3345916,29.8227334 63.3808229,29.4021736 63.3780893,28.9805285 C63.3560083,26.0748606 61.0442171,23.7231058 58.1705519,23.6304981 L57.9540004,23.6278151 Z M41.6011876,8.33441558 C37.6858437,8.33441558 34.8915484,11.1486909 32.9857179,14.3394973 C32.9857179,14.3394973 32.9857179,14.3394973 32.9857179,14.3394973 C32.8645445,14.5423699 32.9307748,14.805061 33.1336474,14.9262344 C33.2009112,14.9664103 33.2779151,14.9873458 33.3562614,14.986718 L47.651431,14.8794521 C47.9220158,14.8773732 48.1397224,14.6563747 48.137692,14.3857896 C48.1374678,14.3559129 48.1345113,14.3261194 48.1288594,14.2967814 C48.1146923,14.223243 48.1017769,14.1595038 48.0901133,14.1055638 C47.3147275,10.5196711 46.0059495,8.33441558 41.6011876,8.33441558 Z" id="Shape"></path>
                </g>
            </g>
        </g>
    </g>
</svg>