<?xml version="1.0" encoding="UTF-8"?>
<svg width="352px" height="90px" viewBox="0 0 352 90" version="1.1" xmlns="http://www.w3.org/2000/svg" xmlns:xlink="http://www.w3.org/1999/xlink">
    <title>plantry logo@2x</title>
    <g id="Page-1" stroke="none" stroke-width="1" fill="none" fill-rule="evenodd">
        <g id="Filibaba-dot-com-assets-Light" transform="translate(-1263.000000, -1255.000000)">
            <g id="plantry-logo" transform="translate(1263.000000, 1255.000000)">
                <rect id="padding" x="0" y="0" width="352" height="90"></rect>
                <path d="M185.567205,15.9261711 L187.423803,16.0744511 L188.240707,16.2968712 L189.131874,16.5934312 L189.874513,17.0382714 L190.617152,17.5572515 L191.285528,18.2245116 L191.805375,18.8917718 L192.325223,19.633172 L192.770806,20.4487122 L193.067862,21.3383924 L193.290654,22.2280726 L193.513446,24.8971133 L193.439182,25.8609335 L193.364918,26.7506137 L193.142126,27.6402939 L192.993598,28.5299742 L192.770806,29.4196544 L192.176695,31.0507348 L191.805375,31.866275 L191.434056,32.6076752 L191.062736,33.4232154 L190.76568,34.1646155 L190.320097,34.9801557 L189.42893,36.4629561 L188.909082,37.1302163 L188.389235,37.8716164 L186.829692,39.8733969 L186.23558,40.5406571 L185.047358,41.8010374 L183.190759,43.6545379 L182.44812,44.173518 L181.779745,44.6924981 L181.037105,45.1373382 L179.700355,46.1752985 L178.957715,46.6201386 L178.215076,47.1391187 L177.5467,47.5839588 L176.655533,48.102939 L174.576143,49.1408992 L174.13056,49.5115993 L173.907768,49.9564394 L173.833504,50.6236996 L173.684976,51.4392398 L173.610712,52.32892 L173.313656,53.9600004 L173.239392,54.8496806 L173.090865,56.480761 L173.090865,57.3704412 L173.239392,59.0015216 L173.38792,59.8170618 L173.684976,60.632602 L174.13056,61.3740022 L174.724671,61.9671223 L175.393046,62.3378224 L176.20995,62.5602425 L177.026853,62.5602425 L177.91802,62.4119625 L178.734923,62.2636824 L179.626091,62.0412624 L180.36873,61.7447023 L181.037105,61.2998622 L182.967968,59.8912018 L183.859135,59.2980817 L184.453246,58.7049615 L185.047358,58.0377014 L186.23558,56.8514611 L187.275276,55.5169408 L187.869387,54.7755406 L188.537762,53.8858604 L189.05761,52.8479001 L189.471708,52.077611 L189.557755,51.7357998 L189.85481,50.8461196 L190.59745,49.2150392 L191.043033,48.399499 L191.414353,47.5839588 L192.454048,46.1011585 L192.973896,45.4338983 L194.087855,43.9510979 L194.607702,43.2096978 L195.276077,42.5424376 L197.949579,40.169957 L199.434858,39.1319968 L200.251761,38.6871566 L201.811303,37.7233364 L202.553943,37.2784963 L203.370846,36.9077962 L204.262013,36.6112361 L205.227444,36.3146761 L205.821556,36.166396 L206.861251,35.869836 L207.752418,35.7215559 L208.717849,35.6474159 L209.311961,35.5732759 L211.985462,35.5732759 L213.767796,35.7215559 L214.5847,35.869836 L216.29277,36.2405361 L217.926577,36.6853762 L218.817744,36.9077962 L219.560383,37.2784963 L220.377286,37.7233364 L221.045662,38.1681765 L221.788301,38.6871566 L223.125052,39.7251169 L223.570635,40.3923771 L223.644899,40.9854972 L223.422108,41.6527574 L222.90226,42.3941576 L222.233885,43.1355577 L221.416981,43.7286779 L220.600078,43.9510979 L219.708911,43.6545379 L218.74348,43.1355577 L218.223632,42.8389977 L217.183937,42.3941576 L216.367034,42.0234575 L215.475867,41.6527574 L214.5847,41.3561973 L213.693533,41.1337772 L212.728101,40.9854972 L211.836934,40.9113572 L210.871503,40.9113572 L209.906072,41.0596372 L208.123738,41.3561973 L207.23257,41.6527574 L205.598764,42.3941576 L204.781861,42.9131377 L204.039221,43.4321178 L203.370846,44.025238 L202.553943,44.7666381 L201.959831,45.4338983 L201.439984,46.0270184 L200.845872,46.6942786 L200.326025,47.4356788 L199.806177,48.251219 L199.360594,48.9926192 L198.989274,49.8081594 L198.54369,50.6236996 L198.172371,51.4392398 L197.875315,52.25478 L197.429731,53.8858604 L197.20694,54.7755406 L196.984148,55.5910808 L196.83562,56.406621 L196.761356,57.2963012 L196.761356,58.1118414 L196.83562,59.0015216 L196.909884,59.8170618 L197.132676,60.706742 L197.503995,61.4481422 L198.098107,62.0412624 L198.91501,62.3378224 L199.806177,62.4119625 L200.697344,62.1154024 L201.439984,61.5964223 L202.182623,61.0033021 L202.850998,60.410182 L204.187749,59.0756616 L204.707597,58.4084015 L205.227444,57.5928613 L206.712723,55.2203807 L207.158307,54.4048405 L207.529626,53.5893003 L207.97521,52.7737601 L208.792113,51.1426797 L209.163433,50.3271395 L209.534752,49.4374593 L209.757544,48.5477791 L210.128864,47.6580988 L210.42592,46.8425586 L211.020031,45.0631982 L211.317087,44.321798 L211.985462,43.8769579 L212.876629,43.7286779 L213.693533,43.7286779 L214.436172,43.8028179 L215.253075,43.9510979 L216.218506,44.173518 L217.035409,44.5442181 L217.778049,44.9149182 L218.223632,45.5821783 L218.297896,46.3977185 L218.075104,47.2873988 L217.778049,48.177079 L217.480993,49.1408992 L217.035409,50.9202596 L216.738354,51.8099399 L216.441298,52.7737601 L216.218506,53.6634403 L216.069978,54.6272606 L215.624395,56.406621 L215.475867,57.2963012 L215.327339,58.1118414 L215.253075,58.9273816 L215.178811,59.6687818 L215.178811,60.484322 L215.401603,61.2998622 L215.847187,61.8929823 L216.515562,62.1895424 L217.332465,62.1154024 L218.075104,61.9671223 L218.892008,61.5222822 L219.560383,61.0774421 L220.228758,60.484322 L221.416981,59.1498017 L222.011093,58.5566815 L223.050788,57.2221612 L223.570635,56.480761 L224.016219,55.7393608 L224.461803,54.9238206 L224.684594,54.6272606 L225.204442,53.8858604 L225.724289,52.8479001 L226.244137,51.8840799 L226.615457,51.1426797 L226.948708,50.856611 L227.06104,50.5495596 L227.283832,49.6598793 L227.580888,48.8443391 L227.80368,48.0287989 L228.026471,47.1391187 L228.249263,46.3235785 L228.546319,45.5080383 L228.769111,44.6924981 L229.214694,42.9131377 L229.660278,41.2820573 L229.88307,40.3923771 L230.105861,39.5768369 L230.402917,38.7612967 L230.625709,37.8716164 L230.922765,37.0560762 L231.442612,36.3888161 L232.408043,36.018116 L233.373474,35.869836 L234.338905,35.7956959 L236.269768,35.7956959 L237.160935,35.943976 L238.052102,36.3146761 L238.869005,36.7595162 L239.017533,37.6491964 L238.720477,39.2802768 L238.497686,40.021677 L238.274894,40.8372172 L238.052102,41.5786174 L238.052102,41.9493174 L238.423422,41.8010374 L239.017533,41.2079173 L239.537381,40.6147971 L241.542507,38.8354367 L242.210882,38.3164566 L242.879258,37.8716164 L243.621897,37.3526363 L244.364536,36.9077962 L245.181439,36.5370961 L245.998343,36.2405361 L246.740982,35.943976 L247.632149,35.6474159 L248.449052,35.5732759 L249.34022,35.5732759 L251.196818,35.7215559 L252.087985,35.943976 L252.904888,36.2405361 L253.721792,36.6853762 L254.315903,37.3526363 L254.984278,38.0198965 L255.355598,38.7612967 L255.652654,39.6509769 L255.94971,41.4303373 L255.94971,43.2096978 L255.801182,44.173518 L255.652654,45.0631982 L255.355598,45.9528784 L255.132806,46.8425586 L254.835751,47.8063789 L254.612959,48.6960591 L254.390167,49.6598793 L253.499,52.32892 L253.053416,54.2565605 L252.830624,55.1462407 L252.533569,56.1100609 L252.310777,56.9997411 L252.236513,57.8152813 L252.087985,58.6308215 L251.865193,59.3722217 L251.716665,60.1136219 L251.642402,60.9291621 L251.790929,61.7447023 L252.087985,62.4119625 L252.830624,62.6343825 L253.721792,62.4861025 L254.464431,62.1154024 L255.20707,61.6705623 L255.94971,61.0774421 L256.766613,60.1877619 L257.806308,59.1498017 L258.326155,58.4825415 L260.405545,55.5169408 L261.519504,53.8858604 L262.039352,52.8479001 L262.559199,51.8840799 L262.930519,51.1426797 L263.209708,50.902611 L263.227575,50.6978396 L263.450367,49.8081594 L263.598895,48.9926192 L263.821686,48.102939 L264.118742,46.3235785 L264.564326,44.5442181 L264.861381,43.7286779 L265.084173,42.8389977 L265.306965,42.0234575 L265.529757,41.1337772 L265.604021,40.3923771 L265.529757,40.021677 L264.712853,39.7992569 L264.044478,39.7251169 L263.004783,39.4285568 L262.484936,38.8354367 L262.262144,38.0940365 L262.18788,37.2043563 L262.262144,36.3888161 L262.484936,35.6474159 L262.856255,34.9060157 L263.450367,34.5353156 L264.341534,34.4611756 L265.306965,34.4611756 L265.901076,34.5353156 L266.71798,34.5353156 L267.163563,34.3870356 L267.460619,34.0163355 L267.757675,33.3490753 L267.980466,32.5335351 L268.574578,30.9024547 L268.79737,30.0127745 L269.094425,29.1972343 L269.317217,28.3816941 L269.614273,27.5661539 L269.911329,26.6764737 L270.208384,25.8609335 L270.579704,25.1195333 L270.87676,24.2298531 L272.659094,19.3366119 L273.030414,18.5210717 L273.550261,17.9279516 L274.367165,17.5572515 L275.109804,17.4089714 L276.000971,17.3348314 L277.11493,17.3348314 L278.897264,17.6313915 L279.788432,17.9279516 L280.605335,18.2986517 L281.125182,18.8917718 L281.125182,19.707312 L280.828127,20.5228522 L280.456807,21.4125324 L280.234015,22.3022126 L279.936959,23.1918929 L279.56564,24.0074331 L278.674473,26.6764737 L278.303153,27.4920139 L277.560514,29.2713743 L277.337722,30.1610546 L276.149499,33.7197754 L276.000971,34.3870356 L276.000971,34.7577357 L276.372291,34.9801557 L277.040666,34.9801557 L278.006097,35.0542958 L279.862696,35.0542958 L281.719294,34.9060157 L282.684725,34.9060157 L283.427364,35.1284358 L283.947212,35.5732759 L284.170004,36.3146761 L284.09574,37.1302163 L284.021476,37.8716164 L283.72442,38.6871566 L283.427364,39.3544168 L282.833253,39.8733969 L282.090613,40.169957 L281.27371,40.244097 L277.931833,40.4665171 L275.926707,40.4665171 L275.332596,40.3923771 L274.441429,40.3923771 L274.070109,40.6147971 L273.698789,40.9854972 L273.475997,41.6527574 L273.253206,42.5424376 L272.95615,43.3579778 L272.287775,46.0270184 L272.139247,46.8425586 L271.916455,47.7322389 L271.619399,48.5477791 L271.396607,49.4374593 L271.248079,50.3271395 L271.025288,51.2168197 L270.87676,52.0323599 L270.728232,52.9220401 L270.579704,53.7375803 L270.50544,54.6272606 L270.356912,55.4428008 L270.282648,56.332481 L270.282648,58.0377014 L270.356912,58.8532416 L270.50544,59.6687818 L270.728232,60.484322 L271.099552,61.2257222 L271.693663,61.8188423 L272.362038,62.2636824 L273.178942,62.4861025 L273.995845,62.5602425 L274.887012,62.4861025 L275.703915,62.2636824 L276.520819,61.8929823 L277.263458,61.4481422 L278.006097,60.9291621 L279.342848,59.7429218 L279.936959,59.1498017 L280.531071,58.4825415 L281.125182,57.8894213 L281.64503,57.2221612 L282.164877,56.480761 L282.758989,55.8135008 L283.278836,55.0721007 L284.170004,53.8858604 L284.689851,52.8479001 L284.772708,52.693611 L284.986907,52.1064999 L285.506754,51.1426797 L285.80381,50.6236996 L286.249394,49.6598793 L286.546449,48.8443391 L287.140561,47.3615388 L287.51188,46.4718586 L288.25452,44.8407782 L289.145687,42.3941576 L289.368479,41.5044773 L289.96259,39.8733969 L290.185382,39.0578567 L290.408174,38.1681765 L290.482438,37.3526363 L290.33391,36.5370961 L290.036854,35.7215559 L289.665534,34.8318757 L289.442743,34.0163355 L289.219951,33.1266553 L289.219951,32.2369751 L289.294215,31.3472949 L289.591271,30.5317547 L289.96259,29.7162145 L290.556702,29.0489543 L291.299341,28.4558341 L292.116244,28.0851341 L292.933147,27.788574 L293.824315,27.788574 L294.641218,28.010994 L295.309593,28.4558341 L295.755177,29.1972343 L296.052233,30.0127745 L296.20076,30.9024547 L296.20076,31.792135 L296.052233,32.6818152 L295.903705,33.4232154 L295.903705,33.9421955 L296.126497,34.3870356 L297.314719,35.4991359 L299.171318,37.3526363 L299.839693,37.8716164 L300.508069,38.4647366 L301.770555,39.6509769 L302.958778,40.9854972 L303.404362,41.6527574 L303.849945,42.4682976 L304.221265,43.2096978 L304.518321,44.025238 L304.666849,44.9149182 L304.592585,45.7304584 L304.295529,46.5459986 L303.924209,47.2873988 L303.404362,48.0287989 L302.81025,48.6960591 L300.211013,52.40306 L299.765429,53.2186002 L299.02279,54.8496806 L298.725734,55.6652208 L298.428678,56.554901 L298.205887,57.3704412 L298.057359,58.2601214 L297.983095,59.1498017 L298.057359,59.9653419 L298.280151,60.8550221 L298.725734,61.5964223 L299.319846,62.1895424 L300.136749,62.4861025 L301.027916,62.5602425 L301.844819,62.4861025 L302.884514,62.1154024 L303.701418,61.7447023 L304.295529,61.3740022 L305.038168,60.9291621 L305.63228,60.484322 L306.300655,59.8912018 L307.043294,59.2239417 L307.71167,58.5566815 L308.231517,57.8894213 L308.899893,57.0738811 L309.271212,56.629041 L309.865324,55.8135008 L310.385171,54.9238206 L311.202075,53.8858604 L311.721922,52.8479001 L312.200708,51.960611 L312.390298,51.1426797 L312.613089,50.2529995 L312.835881,49.4374593 L313.132937,48.5477791 L313.429993,47.7322389 L313.652784,46.9166987 L313.94984,46.0270184 L314.543952,44.395938 L314.841007,43.5062578 L315.063799,42.6907176 L315.286591,41.8010374 L315.509383,40.9854972 L315.806438,40.169957 L316.02923,39.2802768 L316.326286,38.4647366 L316.549078,37.5750564 L316.920397,36.9077962 L317.663037,36.3888161 L318.554204,36.166396 L319.445371,36.018116 L320.336538,35.943976 L321.227705,35.943976 L322.193137,36.092256 L323.01004,36.2405361 L323.826943,36.6112361 L324.346791,37.1302163 L324.346791,37.9457565 L324.272527,38.7612967 L324.049735,39.6509769 L323.826943,40.4665171 L323.381359,42.2458775 L323.084304,43.1355577 L322.861512,43.9510979 L322.415928,45.6563184 L322.118873,46.5459986 L321.821817,47.3615388 L321.524761,48.251219 L321.301969,49.0667592 L321.004914,50.1047194 L320.856386,50.6978396 L320.633594,51.7357998 L320.336538,52.6996201 L320.18801,53.2927402 L319.890955,54.2565605 L319.668163,55.1462407 L319.371107,56.9256011 L319.148315,57.7411413 L318.999787,58.6308215 L318.925524,59.4463617 L318.925524,60.3360419 L319.148315,61.1515821 L319.593899,61.8188423 L320.262274,62.1154024 L321.153441,62.1895424 L322.044609,61.9671223 L323.678415,61.0774421 L324.346791,60.410182 L325.163694,59.6687818 L325.609277,59.2239417 L326.351917,58.4084015 L326.946028,57.6670013 L327.465876,56.8514611 L327.985723,55.9617809 L328.282779,55.3686607 L328.87689,54.4789805 L329.322474,53.6634403 L329.768058,52.7737601 L330.882017,50.3271395 L331.253336,49.5857393 L331.476128,48.7701991 L331.69892,48.102939 L331.995975,47.2873988 L332.293031,46.3977185 L333.481254,43.1355577 L333.704046,42.3941576 L334.372421,39.947537 L334.669477,39.1319968 L334.892269,38.3164566 L335.189325,37.5009164 L335.560644,36.7595162 L336.22902,36.3146761 L337.045923,36.018116 L337.93709,35.869836 L339.793688,35.869836 L340.684855,36.018116 L341.576023,36.2405361 L342.46719,36.6112361 L342.912773,37.2043563 L342.987037,38.0198965 L342.764246,38.8354367 L342.541454,39.7251169 L342.244398,40.5406571 L341.947342,41.4303373 L341.724551,42.2458775 L341.427495,43.1355577 L341.204703,44.099378 L341.056175,44.6924981 L340.759119,45.6563184 L340.536328,46.5459986 L339.942216,48.177079 L339.719424,49.0667592 L339.496633,49.8822994 L339.051049,51.6616598 L338.753993,52.4772 L338.531201,53.3668802 L338.30841,54.1824204 L338.085618,55.0721007 L337.862826,55.8876409 L337.640034,56.7773211 L337.342979,57.5928613 L337.045923,58.4825415 L336.823131,59.2980817 L336.600339,60.1877619 L336.451811,61.0033021 L336.303284,61.8929823 L336.080492,62.7826625 L335.783436,63.6723428 L335.560644,64.487883 L335.189325,65.9706833 L335.263588,66.2672434 L335.560644,66.3413834 L336.154756,66.0448233 L337.120187,65.5258432 L338.159882,64.8585831 L339.125313,64.1913229 L340.684855,62.7826625 L341.130439,62.4119625 L341.873078,61.6705623 L342.46719,61.0033021 L342.987037,60.3360419 L343.506885,59.7429218 L344.026732,59.0015216 L344.620844,58.1859814 L345.140691,57.3704412 L345.586275,56.629041 L346.106122,55.8135008 L347.368609,53.8858604 L347.888457,52.8479001 L348.408304,51.8840799 L348.779624,51.1426797 L349.299472,50.6978396 L350.042111,50.6978396 L350.859014,51.1426797 L351.304598,51.8099399 L351.304598,52.6254801 L351.007542,53.4410203 L350.487694,54.1824204 L350.042111,54.8496806 L349.596527,55.5910808 L348.928152,56.9997411 L347.442873,59.5946418 L346.403178,61.1515821 L345.734803,61.9671223 L345.363483,62.4861025 L344.695108,63.3016427 L344.17526,63.9689028 L342.987037,65.3034232 L341.650287,66.4896635 L340.907647,67.0827836 L339.496633,68.1948839 L338.753993,68.713864 L338.011354,69.1587041 L337.120187,69.6776842 L334.818005,70.7897845 L334.223893,71.1604846 L333.77831,71.5311847 L333.481254,71.9760248 L333.258462,72.643285 L333.035671,73.5329652 L332.738615,74.3485054 L332.515823,75.2381856 L332.293031,76.0537258 L331.995975,76.943406 L331.69892,77.7589462 L331.476128,78.6486264 L331.179072,79.4641666 L330.807753,80.2797068 L330.362169,81.169387 L329.916585,81.9849272 L329.545266,82.8004674 L328.505571,84.2832678 L327.985723,84.950528 L327.391612,85.6177881 L326.723236,86.2850483 L326.054861,86.8781684 L325.237958,87.3971486 L324.495318,87.8419887 L323.604151,88.2126888 L322.787248,88.5092488 L321.896081,88.6575289 L320.93065,88.8058089 L320.039483,88.954089 L318.257148,88.954089 L317.291717,88.8058089 L316.697606,88.6575289 L315.732174,88.4351088 L314.098368,87.8419887 L313.429993,87.3230086 L312.761617,86.7298884 L311.721922,85.3953681 L311.350603,84.6539679 L311.127811,83.8384277 L310.979283,82.9487475 L310.979283,82.0590673 L311.053547,81.169387 L311.202075,80.2797068 L311.424866,79.4641666 L311.796186,78.5744864 L312.167506,77.8330862 L312.613089,77.017546 L313.207201,76.2761458 L313.801312,75.6088857 L314.469688,75.0157655 L315.435119,74.2743654 L317.440245,72.939845 L318.182884,72.4950049 L319.816691,71.7536047 L321.524761,71.1604846 L322.490192,70.7897845 L323.084304,70.4932244 L324.049735,70.1225243 L324.866638,69.8259643 L326.426181,69.3069841 L326.871764,69.0104241 L327.243084,68.565584 L327.465876,67.8983238 L327.688667,67.0086436 L327.911459,66.1931034 L328.134251,65.3034232 L329.025418,62.8568026 L329.322474,61.9671223 L329.916585,60.3360419 L329.990849,59.8170618 L329.768058,59.8912018 L329.322474,60.410182 L328.87689,61.0033021 L328.282779,61.6705623 L327.688667,62.4119625 L325.683541,64.4137429 L324.940902,65.0068631 L324.198263,65.5258432 L323.381359,66.0448233 L322.564456,66.4896635 L321.673289,66.8603635 L319.890955,67.4534837 L318.999787,67.6759037 L318.10862,67.7500438 L317.143189,67.7500438 L316.623342,67.6759037 L315.583647,67.6017637 L314.543952,67.3793437 L313.727048,67.0827836 L312.984409,66.6379435 L312.390298,66.0448233 L311.87045,65.3775632 L311.424866,64.710303 L311.053547,63.9689028 L310.756491,63.1533626 L310.607963,62.2636824 L310.533699,61.4481422 L310.533699,60.558462 L310.576708,60.078611 L310.088116,60.706742 L309.642532,61.4481422 L309.122685,62.1154024 L308.454309,62.8568026 L307.860198,63.4499227 L307.34035,64.0430429 L306.746239,64.636163 L306.003599,65.1551431 L305.335224,65.5999832 L304.444057,66.1189634 L303.255834,66.7120835 L302.216139,67.1569236 L301.399236,67.3793437 L299.616901,67.6759037 L298.725734,67.7500438 L296.9434,67.6017637 L295.977969,67.4534837 L295.086802,67.2310636 L294.195634,66.8603635 L293.378731,66.4155234 L292.636092,65.8224033 L291.967716,65.2292831 L291.299341,64.487883 L290.853757,63.7464828 L290.408174,62.8568026 L290.111118,62.0412624 L289.888326,61.0774421 L289.814062,60.1877619 L289.739798,59.2239417 L289.888326,58.4084015 L290.036854,57.3704412 L290.259646,56.554901 L290.482438,55.8876409 L290.70523,55.0721007 L291.076549,54.2565605 L292.858884,51.2909597 L293.378731,50.4012795 L293.675787,49.8822994 L294.195634,48.9926192 L294.641218,48.251219 L295.086802,47.5839588 L295.532385,46.9908387 L296.052233,46.2494385 L296.57208,45.4338983 L296.869136,44.6924981 L296.869136,43.8769579 L296.646344,43.1355577 L296.275024,42.3941576 L295.755177,41.7268974 L295.235329,41.1337772 L294.641218,40.6147971 L294.12137,40.021677 L293.675787,39.6509769 L293.452995,39.5768369 L293.230203,39.7992569 L293.007411,40.3923771 L291.819189,43.9510979 L291.596397,44.8407782 L291.002285,46.6201386 L290.556702,47.5839588 L290.259646,48.177079 L289.814062,49.1408992 L289.442743,50.0305794 L289.071423,50.8461196 L288.700103,51.7357998 L288.25452,52.4772 L287.970708,52.995611 L287.808936,53.4410203 L287.289089,54.1824204 L286.992033,54.8496806 L286.026602,56.7773211 L285.581018,57.5187213 L285.061171,58.3342615 L284.021476,59.8170618 L283.427364,60.558462 L282.387669,62.0412624 L281.793558,62.7085225 L281.125182,63.3757827 L280.531071,64.0430429 L279.862696,64.636163 L279.120056,65.2292831 L277.634778,66.2672434 L276.817874,66.7120835 L275.926707,67.0827836 L275.109804,67.3052037 L274.218637,67.5276237 L273.475997,67.7500438 L272.58483,67.8983238 L271.545135,67.9724638 L269.688537,67.8241838 L268.871634,67.6017637 L267.980466,67.3052037 L267.163563,66.9345036 L266.420924,66.4896635 L265.678285,65.9706833 L265.009909,65.3775632 L264.490062,64.636163 L264.044478,63.8947628 L263.301839,62.2636824 L263.079047,61.3740022 L262.781991,59.5946418 L262.707727,58.7049615 L262.707727,57.8152813 L262.680708,57.492611 L262.039352,58.4084015 L261.593768,59.1498017 L260.554073,60.632602 L260.034226,61.2998622 L258.846003,62.6343825 L258.251891,63.3757827 L257.65778,63.9689028 L256.989405,64.562023 L256.321029,65.0810031 L255.801182,65.4517032 L254.835751,66.1189634 L254.018847,66.5638035 L253.201944,66.9345036 L252.385041,67.2310636 L251.568138,67.4534837 L250.67697,67.6759037 L248.9689,67.8241838 L248.077733,67.8241838 L247.186566,67.6759037 L246.369662,67.3793437 L245.552759,67.0086436 L244.81012,66.4896635 L244.141744,65.8965433 L243.696161,65.1551431 L243.399105,64.2654629 L243.250577,63.3757827 L243.176313,62.4861025 L243.250577,61.5964223 L243.250577,60.706742 L243.324841,59.8170618 L243.547633,59.0015216 L243.770425,58.1118414 L243.918953,57.2221612 L244.587328,54.7755406 L244.81012,53.8858604 L244.958648,52.9961802 L245.255703,52.18064 L245.478495,51.3650998 L245.701287,50.7719796 L245.998343,49.6598793 L246.221135,48.7701991 L246.369662,47.9546589 L246.666718,47.1391187 L246.963774,46.1752985 L247.186566,45.2856183 L247.26083,44.247658 L247.26083,43.2096978 L246.88951,42.3941576 L246.146871,41.7268974 L245.255703,41.5786174 L244.364536,41.6527574 L243.547633,41.9493174 L242.804994,42.3200175 L242.136618,42.7648576 L241.393979,43.2096978 L240.725604,43.6545379 L239.388853,44.6924981 L238.794741,45.2114782 L237.606518,46.3977185 L236.566823,47.7322389 L236.12124,48.473639 L235.675656,49.5857393 L235.452864,50.1788595 L235.007281,51.9582199 L234.635961,53.1444602 L234.413169,53.7375803 L234.190378,54.6272606 L233.893322,55.5169408 L233.67053,56.406621 L233.522002,57.2963012 L233.29921,58.1859814 L233.002155,59.0756616 L232.779363,59.9653419 L232.482307,60.8550221 L232.259515,61.7447023 L231.813932,63.5982027 L231.368348,65.3775632 L231.071292,66.1931034 L230.625709,66.7862235 L229.957334,67.0827836 L229.14043,67.3793437 L227.506624,67.6759037 L226.689721,67.6759037 L225.055914,67.3793437 L224.313275,67.2310636 L223.570635,66.9345036 L222.90226,66.4155234 L222.753732,65.6741233 L222.90226,64.8585831 L223.125052,63.9689028 L223.570635,62.3378224 L223.867691,61.4481422 L224.058708,60.713611 L223.27358,61.5964223 L222.753732,62.2636824 L222.085357,62.9309426 L221.491245,63.5982027 L220.154495,64.784443 L219.411855,65.3034232 L217.926577,66.1931034 L217.109673,66.6379435 L216.29277,67.0086436 L215.475867,67.3052037 L214.5847,67.4534837 L213.693533,67.5276237 L212.802365,67.5276237 L211.985462,67.3793437 L211.168559,67.0827836 L210.42592,66.7120835 L209.757544,66.1189634 L209.311961,65.5258432 L208.866377,64.710303 L208.643585,63.9689028 L208.420793,63.1533626 L208.346529,62.2636824 L208.346529,61.4481422 L208.495057,59.8170618 L208.495057,59.2239417 L208.346529,59.1498017 L207.97521,59.6687818 L207.084043,61.1515821 L206.564195,61.8929823 L205.375972,63.2275027 L204.856125,63.8947628 L204.262013,64.562023 L203.593638,65.2292831 L202.925262,65.7482633 L201.959831,66.3413834 L200.771608,66.9345036 L199.806177,67.3052037 L198.91501,67.5276237 L198.023843,67.6759037 L197.20694,67.8241838 L196.315773,67.8241838 L195.498869,67.7500438 L194.681966,67.6017637 L193.790799,67.3793437 L193.04816,67.0827836 L192.231256,66.7120835 L191.562881,66.1931034 L190.968769,65.5999832 L190.448922,65.0068631 L189.929074,64.2654629 L189.483491,63.5982027 L189.112171,62.7826625 L188.889379,62.0412624 L188.666588,61.1515821 L188.443796,60.3360419 L188.376708,59.611611 L188.092179,60.0394819 L187.572331,60.7808821 L187.052484,61.4481422 L185.864261,62.7826625 L185.270149,63.3757827 L184.601774,63.9689028 L183.933399,64.487883 L183.339287,64.8585831 L182.596648,65.3775632 L181.705481,65.8965433 L180.962841,66.2672434 L180.145938,66.6379435 L179.180507,66.9345036 L177.620964,67.3793437 L174.204824,67.6759037 L173.313656,67.6759037 L172.273961,67.4534837 L171.754114,67.3793437 L170.714419,67.0827836 L169.897516,66.7120835 L169.154876,66.2672434 L168.412237,65.7482633 L167.818125,65.1551431 L167.224014,64.487883 L166.852694,63.6723428 L166.481375,62.7085225 L166.184319,61.8188423 L166.035791,61.0774421 L165.887263,60.2619019 L165.812999,59.3722217 L165.812999,58.4825415 L165.738735,57.5928613 L165.738735,55.8135008 L165.887263,54.0341404 L166.204444,52.1283011 C163.393732,52.7990649 161.820749,52.7882143 161.485496,52.0957491 C161.107293,51.3145705 162.921757,49.9062548 166.928886,47.870802 L167.372542,46.1011585 L167.52107,45.2114782 L167.743862,44.395938 L168.040917,42.6165776 L168.263709,41.8010374 L168.783557,40.095817 L169.006348,39.2802768 L169.303404,38.3905966 L169.526196,37.5750564 L169.823252,36.6853762 L170.194571,35.869836 L170.491627,35.0542958 L170.788683,34.3128956 L171.085738,33.4973554 L171.382794,32.6076752 L172.273961,30.1610546 L172.645281,29.3455144 L173.016601,28.6041142 L173.75924,26.9730338 L174.13056,26.2316336 L174.724671,25.3419534 L175.021727,24.8229733 L175.541574,24.0074331 L175.987158,23.1918929 L176.432742,22.4504927 L176.952589,21.7832325 L177.472437,21.0418323 L178.066548,20.3745722 L178.660659,19.781452 L179.254771,19.1141919 L179.923146,18.5210717 L180.591522,18.0020916 L181.334161,17.4831115 L182.299592,16.9641313 L182.81944,16.6675713 L183.784871,16.2968712 L184.676038,16.0744511 L185.567205,15.9261711 Z M325.609277,74.2743654 L325.163694,74.2743654 L324.569582,74.5709254 L323.901207,74.9416255 L323.084304,75.3864656 L322.341664,75.8313057 L321.524761,76.3502859 L320.782122,76.869266 L319.445371,78.2037863 L318.85126,78.9451865 L318.257148,79.7607267 L317.885828,80.6504069 L317.811565,81.6142272 L318.10862,82.5039074 L318.776996,83.1711675 L319.593899,83.4677276 L320.485066,83.4677276 L321.376233,83.0970275 L322.118873,82.5780474 L322.787248,81.9849272 L323.307095,81.2435271 L323.826943,80.4279869 L324.272527,79.6124467 L324.866638,77.9813663 L325.015166,77.2399661 L325.237958,76.4985659 L325.386486,75.6830257 L325.609277,74.7933455 L325.609277,74.2743654 Z M54.2457808,3.42180775 C67.4801588,3.42180775 79.9262585,5.58246644 89.3385742,9.50598172 C100.30032,14.0753756 107.201906,21.0210291 107.201906,29.9817271 C107.201906,30.8235767 107.140977,31.6476388 107.021476,32.4536145 C107.017496,32.5086346 107.012878,32.5637603 107.007616,32.6189848 C105.850073,44.7668711 100.488303,56.1879867 91.7086564,64.9046495 C76.5547008,79.9498935 53.7749479,84.4490867 33.9826477,76.3113475 C15.9920537,68.9143921 3.57536522,52.3324794 1.54601224,33.1962545 L1.48770113,32.6155939 L1.47841488,32.5093833 C1.35341615,31.6856632 1.28965517,30.8430044 1.28965517,29.9817271 C1.28965517,21.0204967 8.19114494,14.0746798 19.1529586,9.50545006 C28.565013,5.58220882 41.0110033,3.42180775 54.2457808,3.42180775 Z M96.9598914,44.2582347 C89.1626768,51.857515 72.8858596,56.8080017 54.2458505,56.8080017 C35.6103317,56.8080017 19.3387285,51.8617383 11.5390477,44.2665239 C16.00491,55.5814371 24.9503942,64.9002497 36.6975885,69.7301887 C53.8368179,76.7770998 73.5645742,72.8807016 86.6814109,59.8579625 C91.247388,55.3247408 94.6992672,49.9964256 96.9598914,44.2582347 Z M146.552876,15.629611 L148.33521,15.777891 L149.152114,15.8520311 L150.043281,15.9261711 L151.751351,16.2968712 L152.642518,16.4451512 L153.459422,16.5934312 L154.350589,16.8158513 L155.984395,17.4089714 L156.875562,17.7796715 L157.989521,18.2245116 L158.954953,18.8176318 L159.84612,19.2624719 L160.588759,19.781452 L161.92551,20.8194123 L162.593885,21.4125324 L163.782108,22.5987727 L164.37622,23.2660329 L164.896067,24.0074331 L165.415915,24.6746932 L165.861498,25.4902334 L166.158554,26.2316336 L166.529874,27.0471738 L166.826929,27.862714 L167.049721,28.6782542 L167.198249,29.4937944 L167.346777,31.2731548 L167.346777,32.9783753 L167.272513,33.8680555 L167.198249,34.6835957 L166.901193,36.4629561 L166.678401,37.3526363 L166.232818,38.9837167 L165.490178,40.6147971 L165.044595,41.4303373 L164.673275,42.1717375 L164.227692,42.9872777 L163.187997,44.4700781 L162.593885,45.1373382 L161.92551,45.7304584 L161.405662,46.1752985 L159.994648,47.4356788 L159.177744,48.0287989 L157.692466,48.9184792 L155.241756,50.0305794 L154.350589,50.2529995 L153.533686,50.4754195 L152.642518,50.6978396 L151.751351,50.8461196 L150.78592,50.9943997 L150.191809,50.9943997 L149.152114,51.1426797 L148.112419,51.0685397 L146.924196,51.0685397 L145.735973,50.9943997 L144.844806,50.9202596 L143.953638,50.7719796 L142.913943,50.6236996 L141.354401,50.2529995 L140.686025,50.1047194 L140.091914,50.2529995 L139.794858,50.5495596 L139.497802,51.2909597 L139.275011,52.18064 L139.126483,53.0703202 L138.829427,53.9600004 L138.606635,54.8496806 L138.383843,55.8135008 L138.161052,56.7031811 L137.93826,57.6670013 L137.715468,58.5566815 L137.418412,59.4463617 L136.972829,61.2257222 L136.824301,62.1895424 L135.636078,65.7482633 L135.190494,66.5638035 L134.447855,67.0827836 L133.556688,67.4534837 L132.591257,67.6017637 L131.625826,67.6017637 L130.660395,67.5276237 L129.694963,67.3052037 L128.87806,66.9345036 L128.209685,66.3413834 L127.986893,65.5258432 L128.135421,64.636163 L128.729532,62.8568026 L129.026588,62.0412624 L129.24938,61.1515821 L129.6207,60.3360419 L129.917755,59.4463617 L130.140547,58.6308215 L130.363339,57.8894213 L130.586131,56.9997411 L130.808922,55.9617809 L130.95745,55.1462407 L131.180242,54.2565605 L131.32877,53.3668802 L131.625826,52.4772 L131.848617,51.6616598 L132.071409,50.7719796 L132.219937,49.8822994 L132.442729,48.9926192 L132.665521,48.177079 L132.962576,47.2873988 L133.111104,46.3977185 L133.333896,45.5080383 L133.630952,44.6924981 L133.853744,43.8028179 L134.150799,42.9131377 L134.373591,41.8751774 L134.522119,41.3561973 L134.744911,40.318237 L135.041967,39.5026968 L135.413286,38.4647366 L135.561814,37.9457565 L135.933134,36.9077962 L136.155926,36.018116 L136.452981,35.2025758 L136.824301,34.3128956 L137.195621,33.4973554 L137.93826,31.940415 L138.30958,31.0507348 L138.680899,30.2351946 L139.126483,29.4937944 L139.572066,28.6782542 L140.760289,27.3437339 L142.09704,26.1574936 L142.839679,25.6385135 L143.656583,25.1195333 L144.54775,24.8229733 L145.513181,24.7488332 L146.478612,24.8229733 L147.444043,25.0453933 L148.33521,25.4160934 L149.003586,26.0092135 L149.152114,26.6764737 L148.558002,27.2695939 L147.889627,27.862714 L147.295515,28.5299742 L146.701404,29.2713743 L146.25582,30.0869145 L145.141861,32.5335351 L144.770542,33.4232154 L144.473486,34.2387556 L144.17643,35.1284358 L143.879374,35.943976 L143.210999,38.6130166 L142.913943,39.4285568 L142.616888,40.318237 L142.394096,41.2079173 L142.09704,42.0975975 L141.874248,42.9131377 L141.577193,43.8028179 L141.502929,44.5442181 L141.577193,44.9890582 L141.948512,45.2856183 L142.616888,45.4338983 L144.473486,45.8045984 L145.364653,45.8787384 L146.25582,45.8787384 L147.072723,45.8045984 L147.963891,45.7304584 L149.003586,45.6563184 L149.894753,45.4338983 L150.78592,45.1373382 L151.677087,44.7666381 L152.49399,44.395938 L153.979269,43.3579778 L155.31602,42.1717375 L155.910131,41.5044773 L156.504243,40.7630772 L156.949826,39.947537 L157.39541,39.2061368 L157.76673,38.3164566 L158.063785,37.5009164 L158.435105,36.4629561 L158.583633,35.869836 L158.806425,34.8318757 L159.029216,33.9421955 L159.10348,33.1266553 L159.10348,32.2369751 L159.029216,31.3472949 L158.880689,30.4576146 L158.732161,29.6420744 L158.509369,28.7523942 L158.212313,27.936854 L157.840994,27.1213138 L157.39541,26.3799136 L156.875562,25.6385135 L156.355715,24.9712533 L155.68734,24.3781331 L154.9447,23.859153 L154.202061,23.4143129 L153.162366,22.8211928 L151.899879,22.3022126 L151.008712,21.9315125 L150.117545,21.7090925 L149.300641,21.4866724 L148.409474,21.2642524 L147.518307,21.1159723 L146.62714,21.0418323 L145.735973,21.0418323 L143.953638,21.1901124 L142.839679,21.2642524 L142.319832,21.3383924 L141.205873,21.5608125 L140.314706,21.7090925 L139.497802,21.9315125 L138.458107,22.2280726 L137.269885,22.6729127 L136.155926,23.1177528 L135.190494,23.5625929 L134.447855,24.0815731 L133.630952,24.5264132 L132.145673,25.5643734 L131.403034,26.1574936 L130.808922,26.8247537 L129.769227,28.3075541 L129.026588,29.9386345 L128.729532,30.7541747 L128.506741,31.6438549 L128.358213,32.5335351 L128.358213,33.4232154 L128.432477,34.3870356 L128.581005,35.1284358 L128.87806,35.943976 L129.175116,36.9819362 L129.546436,37.7974764 L129.769227,38.6130166 L129.694963,39.4285568 L129.175116,40.095817 L128.581005,40.6889371 L127.912629,41.1337772 L127.095726,41.4303373 L126.278823,41.5786174 L125.461919,41.5044773 L124.71928,41.1337772 L124.125169,40.6889371 L123.456793,40.095817 L122.936946,39.4285568 L122.342834,38.7612967 L121.451667,37.4267763 L121.080347,36.6112361 L120.783292,35.869836 L120.5605,35.0542958 L120.411972,34.1646155 L120.337708,33.3490753 L120.337708,32.4593951 L120.411972,31.5697149 L120.5605,30.6800347 L121.006083,28.9006743 L121.303139,28.0851341 L122.045779,26.4540537 L122.491362,25.7126535 L122.936946,24.8971133 L123.531057,24.1557131 L124.125169,23.4884529 L124.793544,22.8953328 L125.461919,22.2280726 L126.278823,21.5608125 L127.244254,20.8935523 L129.323644,19.559032 L130.363339,19.0400518 L131.403034,18.5952117 L132.368465,18.1503716 L133.259632,17.7796715 L134.150799,17.4831115 L134.967703,17.1865514 L136.007398,16.8899913 L138.383843,16.2968712 L139.423539,16.1485911 L142.988207,15.777891 L144.770542,15.629611 L146.552876,15.629611 Z M54.2457808,10.5392495 C29.0923239,10.5392495 8.4189926,18.8161197 8.4189926,29.9817271 C8.4189926,41.1466196 29.0959296,49.4242048 54.2457808,49.4242048 C79.3934896,49.4242048 100.072569,41.1449536 100.072569,29.9817271 C100.072569,18.817428 79.3988984,10.5392495 54.2457808,10.5392495 Z M186.087053,21.9315125 L185.270149,21.9315125 L184.453246,22.3022126 L183.784871,22.9694728 L183.116495,23.710873 L182.596648,24.4522732 L182.151064,25.2678134 L181.705481,26.1574936 L181.334161,27.0471738 L180.888577,27.936854 L180.517258,28.7523942 L180.145938,29.6420744 L179.848882,30.5317547 L179.551827,31.3472949 L179.254771,32.2369751 L178.883451,33.0525153 L177.398173,37.1302163 L177.101117,37.8716164 L176.507005,39.5026968 L176.20995,40.3923771 L175.541574,42.8389977 L175.46731,43.4321178 L175.541574,43.7286779 L175.764366,43.6545379 L176.284214,43.3579778 L176.952589,42.8389977 L178.734923,41.0596372 L179.403299,40.4665171 L179.923146,39.8733969 L180.517258,39.2061368 L180.962841,38.4647366 L181.482689,37.7974764 L182.002536,37.0560762 L182.522384,36.3888161 L182.967968,35.6474159 L183.339287,34.9060157 L183.784871,34.1646155 L184.601774,32.5335351 L184.824566,32.014555 L185.270149,31.1248748 L185.567205,30.3834746 L185.789997,29.5679344 L186.012789,28.8265342 L186.309844,28.010994 L186.97822,25.5643734 L187.052484,24.7488332 L187.052484,23.933293 L186.97822,23.1177528 L186.681164,22.3763527 L186.087053,21.9315125 Z" id="Plantry" fill="#000000" fill-rule="nonzero"></path>
            </g>
        </g>
    </g>
</svg>