<?xml version="1.0" encoding="UTF-8"?>
<svg width="185px" height="62px" viewBox="0 0 185 62" version="1.1" xmlns="http://www.w3.org/2000/svg" xmlns:xlink="http://www.w3.org/1999/xlink">
    <!-- Generator: Sketch 62 (91390) - https://sketch.com -->
    <title>app_store_se</title>
    <desc>Created with Sketch.</desc>
    <g id="Plantry.app" stroke="none" stroke-width="1" fill="none" fill-rule="evenodd">
        <g id="Artboard" transform="translate(-323.000000, -95.000000)">
            <g id="Download_on_the_App_Store_Badge_SE" transform="translate(314.000000, 95.000000)">
                <g id="Download_on_the_App_Store_Badge_US-UK_RGB_blk_092917" transform="translate(10.730769, 2.384615)">
                    <g id="Group" fill-rule="nonzero">
                        <g fill="#000000" id="Shape">
                            <path d="M11.41489,57.1189904 C10.9600365,57.1189904 10.5161706,57.1131779 10.064885,57.1030433 C9.13001043,57.0908828 8.19732087,57.0096335 7.27446561,56.8599615 C6.41394965,56.7120083 5.58034098,56.4367884 4.80113592,56.0433798 C4.02907575,55.6532309 3.32489481,55.1416567 2.71556934,54.5282548 C2.09742402,53.9220785 1.5827898,53.2190174 1.19206071,52.4469327 C0.797026129,51.66983 0.523638687,50.8368696 0.381421736,49.9770673 C0.227839774,49.0532001 0.144745569,48.1190245 0.13285564,47.1825962 C0.123390721,46.868274 0.110999738,45.821726 0.110999738,45.821726 L0.110999738,11.3930067 C0.110999738,11.3930067 0.124196881,10.3625399 0.132930284,10.0597981 C0.144314801,9.12485305 0.226925811,8.19212721 0.380048277,7.26969375 C0.522527742,6.40753618 0.79612683,5.57217379 1.19137399,4.79252548 C1.58066704,4.02097401 2.09244412,3.31738794 2.7068658,2.70904231 C3.32059688,2.09491654 4.02703035,1.58070806 4.80040441,1.18516875 C5.57781863,0.79302412 6.40985188,0.51974562 7.26862841,0.374488942 C8.19451448,0.223313476 9.13044197,0.141580703 10.0685575,0.129976442 L11.4156216,0.111778846 L164.837707,0.111778846 L166.200864,0.130706731 C167.130447,0.141734381 168.057872,0.22273799 168.97525,0.373028365 C169.84272,0.520107073 170.683425,0.795292383 171.469719,1.18953558 C173.019067,1.9866619 174.279742,3.24779093 175.075047,4.79616202 C175.463986,5.5704281 175.733365,6.39897642 175.874042,7.25368702 C176.028987,8.18368908 176.115706,9.12374464 176.133506,10.0663558 C176.137835,10.4884327 176.137835,10.9418077 176.137835,11.3930067 C176.149629,11.951901 176.149629,12.4838639 176.149629,13.0201938 L176.149629,44.2119615 C176.149629,44.7534183 176.149629,45.2817596 176.137835,45.8144231 C176.137835,46.2990962 176.137835,46.7430817 176.132013,47.2000337 C176.114598,48.1258243 176.029326,49.0491006 175.876878,49.9624615 C175.737576,50.8284661 175.465677,51.6679282 175.070718,52.4514038 C174.677227,53.2151084 174.165548,53.9120794 173.554539,54.5166298 C172.944666,55.1333281 172.239242,55.6478954 171.46539,56.0405481 C170.681274,56.436981 169.841807,56.7132187 168.97525,56.8599615 C168.052465,57.0104322 167.119686,57.0916868 166.184741,57.1030433 C165.747474,57.1131779 165.289605,57.1189904 164.845022,57.1189904 L163.22673,57.1219712 L11.41489,57.1189904 Z"></path>
                        </g>
                        <g id="_Group_" transform="translate(13.331417, 11.730769)" fill="#FFFFFF">
                            <g id="_Group_2">
                                <g id="_Group_3">
                                    <path d="M22.4534755,17.3327442 C22.4861056,14.8043501 23.8138605,12.4688831 25.9715591,11.1445779 C24.6041808,9.19499499 22.3960172,8.00323216 20.0131984,7.92880481 C17.5062787,7.66610962 15.0759293,9.42638798 13.7984488,9.42638798 C12.4962461,9.42638798 10.5293643,7.95488654 8.41135721,7.99839087 C5.62461219,8.0882736 3.08959021,9.63169663 1.73378207,12.0639663 C-1.15346615,17.0544 1.00016126,24.3886572 3.76590321,28.4225471 C5.14966245,30.3978284 6.76687975,32.6042683 8.88297592,32.5260231 C10.9537032,32.4402812 11.7270796,31.2078077 14.2266245,31.2078077 C16.7029698,31.2078077 17.4285589,32.5260231 19.5875905,32.476274 C21.8095774,32.4402663 23.2095344,30.4922144 24.5447449,28.4982288 C25.5389737,27.0907688 26.3040311,25.535219 26.8115781,23.8891995 C24.1725326,22.7748856 22.4565557,20.1933204 22.4534755,17.3327442 L22.4534755,17.3327442 Z" id="_Path_"></path>
                                    <path d="M18.3754539,5.27584567 C19.5869734,3.82390092 20.1838431,1.95767193 20.039309,0.0734793269 C18.1883766,0.267557938 16.4786336,1.15069904 15.2507466,2.54693654 C14.0382647,3.92451249 13.4240241,5.72675063 13.543314,7.55670048 C15.4190652,7.57598124 17.2000514,6.73532451 18.3754539,5.27584567 L18.3754539,5.27584567 Z" id="_Path_2"></path>
                                </g>
                            </g>
                            <g id="Group" transform="translate(36.234517, 13.501181)">
                                <path d="M12.3943714,14.0242591 L5.32792842,14.0242591 L3.63093111,19.0266605 L0.637866881,19.0266605 L7.3310875,0.519064356 L10.4407763,0.519064356 L17.1339969,19.0266605 L14.0898908,19.0266605 L12.3943714,14.0242591 Z M6.05978762,11.7159067 L11.6611089,11.7159067 L8.89984561,3.59737926 L8.82257365,3.59737926 L6.05978762,11.7159067 Z" id="Shape"></path>
                                <path d="M31.5890783,12.2806283 C31.5890783,16.4737956 29.3409957,19.1678297 25.9484641,19.1678297 C24.1948942,19.2594059 22.5431271,18.3424707 21.6957744,16.8070605 L21.6315802,16.8070605 L21.6315802,23.4905115 L18.8571944,23.4905115 L18.8571944,5.53313551 L21.5426935,5.53313551 L21.5426935,7.77744609 L21.5937205,7.77744609 C22.4787178,6.25166173 24.132266,5.33512128 25.8974372,5.39195137 C29.3278135,5.39196628 31.5890783,8.09910089 31.5890783,12.2806283 Z M28.7374205,12.2806283 C28.7374205,9.5487533 27.3232511,7.7527057 25.165563,7.7527057 C23.0457794,7.7527057 21.6199506,9.58657926 21.6199506,12.2806283 C21.6199506,14.9994177 23.0457794,16.8201908 25.165563,16.8201908 C27.323266,16.8201908 28.7374205,15.0372586 28.7374205,12.2806283 Z" id="Shape"></path>
                                <path d="M46.4654829,12.2806283 C46.4654829,16.4737956 44.2174004,19.1678297 40.8248688,19.1678297 C39.0712988,19.2594059 37.4195318,18.3424707 36.5721791,16.8070605 L36.5079848,16.8070605 L36.5079848,23.4905115 L33.733599,23.4905115 L33.733599,5.53313551 L36.4190385,5.53313551 L36.4190385,7.77744609 L36.4700654,7.77744609 C37.3550691,6.25166266 39.0086237,5.33512759 40.773797,5.39196628 C44.2042779,5.39196628 46.4654829,8.09910089 46.4654829,12.2806283 Z M43.6138401,12.2806283 C43.6138401,9.5487533 42.1996558,7.7527057 40.0419677,7.7527057 C37.9221841,7.7527057 36.4963552,9.58657926 36.4963552,12.2806283 C36.4963552,14.9994177 37.9221841,16.8201908 40.0419677,16.8201908 C42.1996707,16.8201908 43.6138401,15.0372586 43.6138401,12.2806283 L43.6138401,12.2806283 Z" id="Shape"></path>
                                <path d="M56.2975633,13.8699745 C56.5031342,15.7053086 58.2890779,16.9103591 60.7295789,16.9103591 C63.0680559,16.9103591 64.7504677,15.705249 64.7504677,14.0503855 C64.7504677,12.6138485 63.7357656,11.7537028 61.3331541,11.1642259 L58.9305426,10.5864038 C55.5263516,9.76552974 53.9459788,8.17616868 53.9459788,5.59710282 C53.9459788,2.40383455 56.733487,0.210465317 60.6916745,0.210465317 C64.6090164,0.210465317 67.2945006,2.40383455 67.3848951,5.59710282 L64.5842344,5.59710282 C64.416583,3.75012878 62.8872371,2.63526147 60.6522771,2.63526147 C58.4173171,2.63526147 56.8879862,3.76324416 56.8879862,5.40499224 C56.8879862,6.71344561 57.8647838,7.4833783 60.2542728,8.0727807 L62.2967844,8.57346051 C66.1004428,9.47147686 67.6808156,10.9968259 67.6808156,13.7039307 C67.6808156,17.1664519 64.9180893,19.3350807 60.5239782,19.3350807 C56.412695,19.3350807 53.6368611,17.2173932 53.4575352,13.8698403 L56.2975633,13.8699745 Z" id="Shape"></path>
                                <path d="M73.668437,2.33986724 L73.668437,5.53313551 L76.2387149,5.53313551 L76.2387149,7.72650474 L73.668437,7.72650474 L73.668437,15.1653273 C73.668437,16.3209567 74.1830808,16.8594773 75.3129443,16.8594773 C75.6180781,16.8541655 75.9227182,16.8327736 76.2255924,16.7953908 L76.2255924,18.9756595 C75.7176044,19.0704175 75.2012774,19.1133331 74.6845871,19.1037432 C71.9481207,19.1037432 70.8809287,18.0776432 70.8809287,15.4607365 L70.8809287,7.72650474 L68.915689,7.72650474 L68.915689,5.53313551 L70.8808988,5.53313551 L70.8808988,2.33986724 L73.668437,2.33986724 Z" id="Shape"></path>
                                <path d="M77.7272899,12.2806283 C77.7272899,8.03507397 80.2319554,5.36722589 84.1376826,5.36722589 C88.0565175,5.36722589 90.5495234,8.03501436 90.5495234,12.2806283 C90.5495234,16.5378374 88.06964,19.1940307 84.1376826,19.1940307 C80.2071137,19.1940307 77.7272899,16.5378225 77.7272899,12.2806283 Z M87.7226477,12.2806283 C87.7226477,9.36826772 86.3857502,7.64937734 84.1376677,7.64937734 C81.8895852,7.64937734 80.5541508,9.3813682 80.5541508,12.2806283 C80.5541508,15.2046288 81.8895852,16.9104336 84.1376677,16.9104336 C86.3857502,16.9104336 87.7226477,15.2046288 87.7226477,12.2806283 L87.7226477,12.2806283 Z" id="Shape"></path>
                                <path d="M92.8368988,5.53313551 L95.4830006,5.53313551 L95.4830006,7.8298182 L95.5471949,7.8298182 C95.9162014,6.35133938 97.273173,5.33379889 98.798305,5.39193647 C99.1180283,5.39082201 99.4368694,5.42548614 99.7488576,5.49527974 L99.7488576,8.08598551 C99.3452265,7.96285488 98.92417,7.90632157 98.5022949,7.91861532 C97.6866521,7.8855816 96.8972908,8.21009689 96.3414739,8.80695307 C95.7856571,9.40380925 95.5189144,10.2133765 95.6112846,11.0230865 L95.6112846,19.0266307 L92.8368988,19.0266307 L92.8368988,5.53313551 Z" id="Shape"></path>
                                <path d="M112.540427,15.0634446 C112.167205,17.5129663 109.777701,19.1940158 106.720487,19.1940158 C102.78853,19.1940158 100.348014,16.5640086 100.348014,12.3446552 C100.348014,8.11220137 102.801652,5.36721099 106.603863,5.36721099 C110.343372,5.36721099 112.694971,7.9317158 112.694971,12.0230004 L112.694971,12.9719581 L103.148645,12.9719581 L103.148645,13.1393283 C103.059515,14.1438947 103.406977,15.138276 104.102646,15.869534 C104.798315,16.6007919 105.775141,16.9984457 106.784652,16.9613451 C108.131002,17.087282 109.400348,16.3154686 109.906015,15.0634297 L112.540427,15.0634446 Z M103.161741,11.0362168 L109.919122,11.0362168 C109.969471,10.1335318 109.640335,9.25081511 109.011013,8.60072195 C108.38169,7.95062879 107.509242,7.59210247 106.603863,7.61152157 C105.691322,7.60608498 104.814412,7.96477943 104.168043,8.60787833 C103.521673,9.25097723 103.159403,10.1251937 103.161741,11.0362168 L103.161741,11.0362168 Z" id="Shape"></path>
                            </g>
                        </g>
                    </g>
                    <g id="_Group_4" transform="translate(52.058824, 10.730769)" fill="#FFFFFF" fill-rule="nonzero">
                        <g id="Group">
                            <path d="M3.21918927,1.08947115 C4.39699928,1.00509181 5.55063813,1.45245049 6.36257447,2.30841473 C7.1745108,3.16437896 7.55916207,4.33872541 7.41065559,5.50822308 C7.41065559,8.34926875 5.87257636,9.98235769 3.21918927,9.98235769 L0.00160939884,9.98235769 L0.00160939884,1.08947115 L3.21918927,1.08947115 Z M1.38514471,8.72471154 L3.06464536,8.72471154 C3.9063692,8.77494049 4.72595742,8.44386198 5.29584108,7.82340411 C5.86572475,7.20294624 6.12523239,6.35916475 6.00230846,5.52634615 C6.11628909,4.69698368 5.85304427,3.86016503 5.28457359,3.24476699 C4.71610292,2.62936895 3.90189609,2.29979208 3.06464536,2.34617837 L1.38514471,2.34617837 L1.38514471,8.72471154 Z" id="Shape"></path>
                            <path d="M8.97351678,6.62377596 C8.8582465,5.42086426 9.43601941,4.25670529 10.4645191,3.61954415 C11.4930188,2.98238302 12.7944208,2.98238302 13.8229205,3.61954415 C14.8514202,4.25670529 15.4291931,5.42086426 15.3139228,6.62377596 C15.4313863,7.8279803 14.8541407,8.9943972 13.8247291,9.63293001 C12.7953174,10.2714628 11.4921222,10.2714628 10.4627105,9.63293001 C9.43329889,8.9943972 8.85605334,7.8279803 8.97351678,6.62377596 Z M13.9493323,6.62377596 C13.9493323,5.16905625 13.2947152,4.31834471 12.1459069,4.31834471 C10.9927095,4.31834471 10.3439893,5.16905625 10.3439893,6.62379087 C10.3439893,8.09016538 10.9927543,8.93431923 12.1459069,8.93431923 C13.294745,8.93431923 13.9493323,8.08432308 13.9493323,6.62377596 L13.9493323,6.62377596 Z" id="Shape"></path>
                            <polygon id="Shape" points="23.7420452 9.98222356 22.3657952 9.98222356 20.9764227 5.03949712 20.8714577 5.03949712 19.4879074 9.98222356 18.124765 9.98222356 16.2717756 3.27112596 17.6174214 3.27112596 18.8216458 8.3920875 18.9207886 8.3920875 20.3028758 3.27112596 21.5756238 3.27112596 22.957711 8.3920875 23.062676 8.3920875 24.2610632 3.27112596 25.5877493 3.27112596"></polygon>
                            <path d="M27.1462363,3.27112596 L28.4233584,3.27112596 L28.4233584,4.33724279 L28.5225012,4.33724279 C28.8672614,3.55229885 29.6728664,3.07214094 30.5285714,3.14158173 C31.1911409,3.09185023 31.840412,3.34560033 32.2930634,3.83118578 C32.7457149,4.31677122 32.9526254,4.98149695 32.855374,5.63767788 L32.855374,9.98214904 L31.528688,9.98214904 L31.528688,5.97027212 C31.528688,4.8917851 31.0592489,4.35544038 30.0780771,4.35544038 C29.6286664,4.33454388 29.1925252,4.51062306 28.8839964,4.8375154 C28.5754675,5.16440774 28.4253216,5.60951112 28.4729224,6.05613317 L28.4729224,9.98222356 L27.1462363,9.98222356 L27.1462363,3.27112596 Z" id="Shape"></path>
                            <polygon id="Shape" points="34.9693354 0.651298077 36.2960214 0.651298077 36.2960214 9.98220865 34.9693354 9.98220865"></polygon>
                            <path d="M38.1402624,6.62377596 C38.0250807,5.42078556 38.6029447,4.25659713 39.6315208,3.61942617 C40.6600968,2.98225521 41.9615656,2.98225521 42.9901417,3.61942617 C44.0187177,4.25659713 44.5965818,5.42078556 44.4814,6.62377596 C44.5987143,7.82802341 44.021363,8.99440735 42.9919002,9.63291204 C41.9624375,10.2714167 40.659225,10.2714167 39.6297622,9.63291204 C38.6002995,8.99440735 38.0229482,7.82802341 38.1402624,6.62377596 L38.1402624,6.62377596 Z M43.116078,6.62377596 C43.116078,5.16905625 42.4614609,4.31834471 41.3126526,4.31834471 C40.1594552,4.31834471 39.510735,5.16905625 39.510735,6.62379087 C39.510735,8.09016538 40.1594999,8.93431923 41.3126526,8.93431923 C42.4614758,8.93431923 43.116078,8.08432308 43.116078,6.62377596 L43.116078,6.62377596 Z" id="Shape"></path>
                            <path d="M45.8780728,8.08432308 C45.8780728,6.87629183 46.7790614,6.1798649 48.378364,6.08088846 L50.1992861,5.97609952 L50.1992861,5.39683173 C50.1992861,4.68801971 49.729847,4.28777692 48.8230361,4.28777692 C48.0824285,4.28777692 47.5692478,4.55922067 47.4219892,5.03369952 L46.1375817,5.03369952 C46.273166,3.88097644 47.3593028,3.14161154 48.8842595,3.14161154 C50.5695973,3.14161154 51.5201499,3.97920769 51.5201499,5.39683173 L51.5201499,9.98223846 L50.2430278,9.98223846 L50.2430278,9.03910817 L50.1380627,9.03910817 C49.7043016,9.72785415 48.9329331,10.1303875 48.11887,10.0928101 C47.5481923,10.1520705 46.9790357,9.96755916 46.5521061,9.58489066 C46.1251765,9.20222217 45.8803212,8.65711263 45.8780728,8.08432308 L45.8780728,8.08432308 Z M50.1992861,7.51086779 L50.1992861,6.9497976 L48.5576899,7.05458654 C47.6319193,7.1164375 47.2120441,7.43081923 47.2120441,8.02245721 C47.2120441,8.62646538 47.7368844,8.97795769 48.4586068,8.97795769 C48.885851,9.02113393 49.3123551,8.88936186 49.6404832,8.61280689 C49.9686114,8.33625192 50.1702667,7.93859485 50.1992861,7.51086779 Z" id="Shape"></path>
                            <path d="M53.2637851,6.62377596 C53.2637851,4.50318221 54.3557591,3.15979423 56.0542045,3.15979423 C56.9118348,3.12034395 57.7150851,3.57911822 58.1156758,4.33719808 L58.2148186,4.33719808 L58.2148186,0.651298077 L59.5415047,0.651298077 L59.5415047,9.98220865 L58.2702198,9.98220865 L58.2702198,8.92190433 L58.1652547,8.92190433 C57.7343832,9.67369454 56.9212367,10.124714 56.0542194,10.0928101 C54.3440996,10.0928846 53.2637851,8.74946683 53.2637851,6.62377596 Z M54.6342576,6.62377596 C54.6342576,8.0472125 55.3063564,8.90375144 56.4303977,8.90375144 C57.5485719,8.90375144 58.2396454,8.03485721 58.2396454,6.62960337 C58.2396454,5.23090721 57.5413165,4.34962788 56.4303977,4.34962788 C55.313597,4.34962788 54.6342128,5.21197933 54.6342128,6.62377596 L54.6342576,6.62377596 Z" id="Shape"></path>
                            <path d="M65.030501,6.62377596 C64.9152307,5.42086426 65.4930036,4.25670529 66.5215033,3.61954415 C67.550003,2.98238302 68.851405,2.98238302 69.8799047,3.61954415 C70.9084044,4.25670529 71.4861773,5.42086426 71.370907,6.62377596 C71.4883705,7.8279803 70.9111249,8.9943972 69.8817133,9.63293001 C68.8523016,10.2714628 67.5491064,10.2714628 66.5196947,9.63293001 C65.4902831,8.9943972 64.9130375,7.8279803 65.030501,6.62377596 L65.030501,6.62377596 Z M70.0063016,6.62377596 C70.0063016,5.16905625 69.3516994,4.31834471 68.2028911,4.31834471 C67.0496937,4.31834471 66.4009735,5.16905625 66.4009735,6.62379087 C66.4009735,8.09016538 67.0497385,8.93431923 68.2028911,8.93431923 C69.3517143,8.93431923 70.0063016,8.08432308 70.0063016,6.62377596 Z" id="Shape"></path>
                            <path d="M73.1509986,3.27112596 L74.4281207,3.27112596 L74.4281207,4.33724279 L74.5272635,4.33724279 C74.8720237,3.55229885 75.6776287,3.07214094 76.5333337,3.14158173 C77.1959031,3.09185023 77.8451743,3.34560033 78.2978257,3.83118578 C78.7504771,4.31677122 78.9573877,4.98149695 78.8601363,5.63767788 L78.8601363,9.98214904 L77.5334502,9.98214904 L77.5334502,5.97027212 C77.5334502,4.8917851 77.0640111,4.35544038 76.0828394,4.35544038 C75.6334287,4.33454388 75.1972875,4.51062306 74.8887586,4.8375154 C74.5802298,5.16440774 74.4300839,5.60951112 74.4776846,6.05613317 L74.4776846,9.98222356 L73.1509986,9.98222356 L73.1509986,3.27112596 Z" id="Shape"></path>
                            <path d="M86.3566658,1.60027067 L86.3566658,3.30169375 L87.8131138,3.30169375 L87.8131138,4.41730625 L86.3566658,4.41730625 L86.3566658,7.8681875 C86.3566658,8.57117212 86.646794,8.87899615 87.3072184,8.87899615 C87.4762964,8.87845595 87.6452048,8.86824998 87.8131138,8.84842837 L87.8131138,9.95165577 C87.5748629,9.99420732 87.3334718,10.0168453 87.0914511,10.0193341 C85.6160583,10.0193341 85.0285167,9.50118702 85.0285167,8.20729471 L85.0285167,4.41724663 L83.9613396,4.41724663 L83.9613396,3.30163413 L85.0285167,3.30163413 L85.0285167,1.60027067 L86.3566658,1.60027067 Z" id="Shape"></path>
                            <path d="M89.6252727,0.651298077 L90.9402993,0.651298077 L90.9402993,4.34961298 L91.0452643,4.34961298 C91.406585,3.5577993 92.2262894,3.07702951 93.0950016,3.14740913 C93.7538086,3.11162095 94.3942906,3.37095746 94.8419946,3.85478122 C95.2896987,4.33860499 95.4979936,4.99652282 95.4101447,5.64933269 L95.4101447,9.98222356 L94.0821299,9.98222356 L94.0821299,5.97606971 C94.0821299,4.90412548 93.582012,4.36123798 92.6446416,4.36123798 C92.1830834,4.32344729 91.7283495,4.49096249 91.4020087,4.81899993 C91.0756679,5.14703738 90.9109967,5.60214758 90.9520184,6.06266106 L90.9520184,9.98222356 L89.6253324,9.98222356 L89.6252727,0.651298077 Z" id="Shape"></path>
                            <path d="M103.145835,8.17018413 C102.773818,9.43608625 101.546725,10.2539997 100.232954,10.1117529 C99.3365693,10.1353758 98.4750936,9.7644496 97.8770971,9.0973899 C97.2791006,8.43033021 97.0050379,7.53457376 97.1276244,6.64778606 C97.0082939,5.75853388 97.2813297,4.8613421 97.8759962,4.1886469 C98.4706628,3.51595171 99.3284451,3.13394612 100.227117,3.14159663 C102.097603,3.14159663 103.226018,4.41736587 103.226018,6.52476971 L103.226018,6.98692308 L98.4790925,6.98692308 L98.4790925,7.06114423 C98.4370856,7.55914156 98.6074522,8.05172501 98.9482939,8.41775297 C99.2891356,8.78378092 99.7688264,8.98929046 100.269395,8.98374038 C100.918462,9.06153054 101.550283,8.74011175 101.868713,8.17013942 L103.145835,8.17018413 Z M98.4790626,6.00738269 L101.874505,6.00738269 C101.908324,5.5519218 101.747906,5.10338256 101.432785,4.77229961 C101.117663,4.44121666 100.677145,4.25838091 100.219787,4.26884904 C99.7562325,4.26303492 99.309972,4.44435857 98.9822356,4.77168824 C98.6544991,5.0990179 98.4730659,5.54460893 98.4790925,6.00738269 L98.4790626,6.00738269 Z" id="Shape"></path>
                        </g>
                    </g>
                </g>
                <g id="Download_on_the_App_Store_Badge_SE_RGB_blk_100317" transform="translate(9.538462, 0.192308)">
                    <path d="M12.2124362,61.3045552 C11.7357665,61.3045552 11.2706114,61.2983951 10.8024619,61.2877284 C9.80568208,61.2746019 8.81123191,61.1868982 7.82253537,61.0245349 C6.87865099,60.860234 5.96427289,60.5546246 5.10941417,60.1176642 C4.25901817,59.6825972 3.48336165,59.1121581 2.81683002,58.4327802 C2.13572633,57.756577 1.56863941,56.9723205 1.13851414,56.1118406 C0.70514913,55.2487572 0.405213393,54.3236415 0.249261336,53.3691009 C0.0855484518,52.3720718 -0.00302779659,51.3639181 -0.0155203382,50.3619278 C-0.0254214989,50.0290385 -0.0384273502,48.9206709 -0.0384615385,48.914824 L-0.0384215377,12.6742215 C-0.0384215377,12.6742215 -0.0245908924,11.5835946 -0.0156275975,11.2714061 C-0.0034910615,10.2623348 0.0845777242,9.25565863 0.247757492,8.26044174 C0.4040142,7.30318447 0.704089761,6.37568579 1.13713151,5.51088836 C1.56583636,4.65068275 2.12945851,3.86627864 2.80421741,3.18991266 C3.47913139,2.50618482 4.25601101,1.93373142 5.10898004,1.49207943 C5.96217956,1.05636692 6.87532845,0.752747968 7.82066778,0.590874157 C8.80806251,0.427655347 9.80616579,0.33941216 10.8060258,0.326891004 L12.2131966,0.307692308 L171.70932,0.307741705 L173.125359,0.327648892 C174.117101,0.339559927 175.106542,0.42705162 176.088041,0.589849923 C177.039099,0.753101705 177.96082,1.05852706 178.827545,1.49852083 C180.530397,2.38549387 181.916228,3.78856491 182.79236,5.51550517 C183.218877,6.37511653 183.514304,7.29498806 183.668417,8.24295541 C183.833401,9.24549242 183.925738,10.258867 183.944752,11.2792554 C183.949253,11.7234737 183.949278,12.2005132 183.94928,12.6754354 C183.961505,13.2652791 183.961538,13.8268753 183.961538,14.3930682 L183.961538,47.220638 C183.961538,47.7923295 183.961499,48.3502174 183.949278,48.9126708 C183.949278,49.4228102 183.949243,49.890466 183.943139,50.3747031 C183.924588,51.3731904 183.833745,52.3689657 183.671808,53.3511718 C183.519013,54.3128416 183.220758,55.2450291 182.785574,56.1189675 C182.352716,56.9695008 181.789816,57.7456884 181.121503,58.4151004 C180.449798,59.1027493 179.672833,59.6764813 178.81988,60.1146393 C177.959625,60.5549631 177.038638,60.861763 176.084892,61.025265 C175.100717,61.1877371 174.105884,61.2754717 173.114323,61.2876342 C172.655935,61.2983901 172.175951,61.3045552 171.710828,61.3045543 L170.027599,61.3076923 L12.2124362,61.3045552 Z" id="Shape" stroke-opacity="0.5" stroke="#FFFFFF" fill="#000000" fill-rule="nonzero"></path>
                    <g id="Group" transform="translate(13.827783, 12.177885)" fill="#FFFFFF" fill-rule="nonzero">
                        <path d="M23.4078483,19.0966086 C23.4418012,16.4628647 24.823384,14.0300866 27.0685569,12.650602 C25.6457443,10.6197864 23.3480606,9.37836683 20.868641,9.30083834 C18.2600894,9.02719752 15.7312123,10.8608208 14.4019421,10.8608208 C13.0469474,10.8608208 11.0003271,9.32800681 8.79645491,9.37332382 C5.89673374,9.46695167 3.25894059,11.074684 1.84816726,13.6082983 C-1.15613156,18.8066667 1.08480507,26.4465179 3.96267169,30.6484866 C5.40252928,32.7060712 7.08530944,35.0044461 9.2871933,34.9229407 C11.441869,34.8336263 12.2465985,33.5497997 14.8474762,33.5497997 C17.4242139,33.5497997 18.1792188,34.9229407 20.4257788,34.8711188 C22.7378461,34.8336108 24.1945582,32.80439 25.5838989,30.7273217 C26.6184342,29.2612175 27.4145074,27.6408531 27.9426307,25.9262495 C25.1965969,24.7655058 23.4110533,22.0763754 23.4078483,19.0966086 L23.4078483,19.0966086 Z" id="Shape"></path>
                        <path d="M19.1645014,6.53733924 C20.4251366,5.02489679 21.0462037,3.08090826 20.8958102,1.11820763 C18.96984,1.32037285 17.190783,2.24031149 15.9131169,3.69472556 C14.6514803,5.12970051 14.0123381,7.0070319 14.136464,8.91322967 C16.0882592,8.93331379 17.9414475,8.0576297 19.1645014,6.53733924 L19.1645014,6.53733924 Z" id="Shape"></path>
                        <path d="M50.6444269,29.7139999 L43.2915065,29.7139999 L41.525712,34.9248347 L38.4113073,34.9248347 L45.3758747,15.6460887 L48.6116319,15.6460887 L55.5761993,34.9248347 L52.4086835,34.9248347 L50.6444269,29.7139999 Z M44.0530356,27.3094661 L49.8814375,27.3094661 L47.0082311,18.8526668 L46.9278265,18.8526668 L44.0530356,27.3094661 Z" id="Shape"></path>
                        <path d="M70.6172975,27.8977178 C70.6172975,32.2656005 68.2780765,35.071886 64.7480098,35.071886 C62.9233492,35.1672778 61.2046186,34.212137 60.3229138,32.6127514 L60.2561171,32.6127514 L60.2561171,39.5746795 L57.3692562,39.5746795 L57.3692562,20.8690795 L60.1636269,20.8690795 L60.1636269,23.206903 L60.2167225,23.206903 C61.1375981,21.6175443 62.858182,20.6628147 64.6949142,20.7220127 C68.2643599,20.7220282 70.6172975,23.5419601 70.6172975,27.8977178 L70.6172975,27.8977178 Z M67.650032,27.8977178 C67.650032,25.0520147 66.1785314,23.1811318 63.9333695,23.1811318 C61.7276487,23.1811318 60.244016,25.0914168 60.244016,27.8977178 C60.244016,30.7297902 61.7276487,32.6264288 63.9333695,32.6264288 C66.1785469,32.6264288 67.650032,30.7692077 67.650032,27.8977178 Z" id="Shape"></path>
                        <path d="M86.0967996,27.8977178 C86.0967996,32.2656005 83.7575786,35.071886 80.227512,35.071886 C78.4028513,35.1672778 76.6841208,34.212137 75.8024159,32.6127514 L75.7356192,32.6127514 L75.7356192,39.5746795 L72.8487583,39.5746795 L72.8487583,20.8690795 L75.6430669,20.8690795 L75.6430669,23.206903 L75.6961625,23.206903 C76.6170448,21.6175453 78.3376353,20.6628213 80.1743697,20.7220282 C83.7439241,20.7220282 86.0967996,23.5419601 86.0967996,27.8977178 Z M83.1295497,27.8977178 C83.1295497,25.0520147 81.6580335,23.1811318 79.4128716,23.1811318 C77.2071509,23.1811318 75.7235181,25.0914168 75.7235181,27.8977178 C75.7235181,30.7297902 77.2071509,32.6264288 79.4128716,32.6264288 C81.6580491,32.6264288 83.1295497,30.7692077 83.1295497,27.8977178 L83.1295497,27.8977178 Z" id="Shape"></path>
                        <path d="M96.3274779,29.5532868 C96.5413827,31.4650931 98.3997295,32.7203541 100.93917,32.7203541 C103.37245,32.7203541 105.123068,31.465031 105.123068,29.7412149 C105.123068,28.2448222 104.067229,27.3488371 101.567214,26.7347987 L99.0671996,26.1329006 C95.5250008,25.2778235 93.8805588,23.6222391 93.8805588,20.9357121 C93.8805588,17.609391 96.7810742,15.3246314 100.899729,15.3246314 C104.975882,15.3246314 107.770237,17.609391 107.864296,20.9357121 L104.950095,20.9357121 C104.775647,19.0117808 103.184301,17.8504607 100.858734,17.8504607 C98.5331676,17.8504607 96.9418368,19.0254427 96.9418368,20.735597 C96.9418368,22.0985692 97.9582343,22.9005824 100.444594,23.5145433 L102.569911,24.0360847 C106.527771,24.9715184 108.172213,26.5604237 108.172213,29.3803245 C108.172213,32.9871174 105.297485,35.2461058 100.725234,35.2461058 C96.447277,35.2461058 93.5589094,33.0401813 93.3723135,29.553147 L96.3274779,29.5532868 Z" id="Shape"></path>
                        <path d="M114.402576,17.5427584 L114.402576,20.8690795 L117.077055,20.8690795 L117.077055,23.1538391 L114.402576,23.1538391 L114.402576,30.9026127 C114.402576,32.1063932 114.938084,32.6673523 116.113753,32.6673523 C116.431257,32.6618191 116.748247,32.6395358 117.0634,32.6005955 L117.0634,34.8717087 C116.534818,34.970415 115.997559,35.0151186 115.459922,35.0051292 C112.612517,35.0051292 111.502061,33.936275 111.502061,31.2103305 L111.502061,23.1538391 L109.457149,23.1538391 L109.457149,20.8690795 L111.50203,20.8690795 L111.50203,17.5427584 L114.402576,17.5427584 Z" id="Shape"></path>
                        <path d="M118.625977,27.8977178 C118.625977,23.4752654 121.232183,20.696257 125.296251,20.696257 C129.373957,20.696257 131.968031,23.4752033 131.968031,27.8977178 C131.968031,32.3323107 129.387612,35.0991787 125.296251,35.0991787 C121.206334,35.0991787 118.625977,32.3322952 118.625977,27.8977178 Z M129.026552,27.8977178 C129.026552,24.8640089 127.635456,23.0734981 125.296235,23.0734981 C122.957014,23.0734981 121.567441,24.8776552 121.567441,27.8977178 C121.567441,30.9435517 122.957014,32.7204317 125.296235,32.7204317 C127.635456,32.7204317 129.026552,30.9435517 129.026552,27.8977178 L129.026552,27.8977178 Z" id="Shape"></path>
                        <path d="M134.348138,20.8690795 L137.101514,20.8690795 L137.101514,23.2614573 L137.168311,23.2614573 C137.552277,21.7213752 138.964261,20.6614372 140.551223,20.7219972 C140.883908,20.7208363 141.215675,20.7569448 141.540311,20.8296464 L141.540311,23.5282983 C141.120317,23.4000372 140.68219,23.3411483 140.243212,23.3539543 C139.394503,23.3195442 138.57314,23.657581 137.99479,24.2793061 C137.41644,24.9010313 137.138884,25.7443306 137.234999,26.5877784 L137.234999,34.9248037 L134.348138,34.9248037 L134.348138,20.8690795 Z" id="Shape"></path>
                        <path d="M154.850458,30.7964849 C154.462105,33.3480699 151.975729,35.0991632 148.794574,35.0991632 C144.703213,35.0991632 142.163758,32.3595723 142.163758,27.9644126 C142.163758,23.5556065 144.716868,20.6962415 148.673222,20.6962415 C152.564332,20.6962415 155.011267,23.3676007 155.011267,27.6293555 L155.011267,28.6178531 L145.077927,28.6178531 L145.077927,28.792197 C144.985185,29.8386203 145.346732,30.8744342 146.070604,31.6361612 C146.794476,32.3978883 147.810903,32.812111 148.86134,32.7734645 C150.262273,32.9046488 151.583078,32.1006765 152.109245,30.7964694 L154.850458,30.7964849 Z M145.091555,26.6014558 L152.122884,26.6014558 C152.175273,25.661159 151.832794,24.7416624 151.177959,24.0644821 C150.523124,23.3873017 149.615305,23.0138368 148.673222,23.034065 C147.723686,23.0284019 146.811226,23.4020419 146.138652,24.0719366 C145.466079,24.7418313 145.089122,25.6524735 145.091555,26.6014558 L145.091555,26.6014558 Z" id="Shape"></path>
                        <polygon id="Shape" points="46.5432017 10.3981495 46.5432017 6.33425881 41.7828482 6.33425881 41.7828482 10.3981651 40.3432081 10.3981651 40.3432081 1.13486579 41.7828482 1.13486579 41.7828482 5.02517328 46.5432017 5.02517328 46.5432017 1.13486579 47.9752456 1.13486579 47.9752456 10.3982272"></polygon>
                        <path d="M49.9367389,8.42116987 C49.9367389,7.16280399 50.8742542,6.43735927 52.5383934,6.33425881 L54.4331366,6.22510367 L54.4331366,5.62169972 C54.4331366,4.88335387 53.9446662,4.46643429 53.0010927,4.46643429 C52.2304605,4.46643429 51.6964751,4.7491882 51.5432466,5.243437 L50.2067686,5.243437 C50.3478494,4.04268379 51.4780188,3.27251202 53.0647981,3.27251202 C54.8184605,3.27251202 55.807549,4.14500801 55.807549,5.62169972 L55.807549,10.3981651 L54.4786516,10.3981651 L54.4786516,9.41573768 L54.3694312,9.41573768 C53.9180851,10.1331814 53.115445,10.552487 52.2683793,10.5133439 C51.674566,10.5750734 51.0823355,10.3828741 50.638098,9.98426111 C50.1938604,9.58564809 49.9390785,9.01782565 49.9367389,8.42116987 L49.9367389,8.42116987 Z M50.8363198,1.59039563 C50.8384122,1.11820269 51.2224609,0.736755589 51.69494,0.737590486 C52.1674191,0.738428129 52.5501135,1.12123234 52.5505327,1.59342972 C52.5509512,2.06562711 52.1689365,2.44910881 51.6964596,2.45078225 C51.4673026,2.45375387 51.2466721,2.36403375 51.0846932,2.20200537 C50.9227142,2.03997699 50.8331396,1.81939745 50.8363198,1.59038011 L50.8363198,1.59039563 Z M54.4331366,7.82383614 L54.4331366,7.23938802 L52.7249892,7.34854317 C51.7616874,7.41297125 51.3247902,7.74045222 51.3247902,8.35674179 C51.3247902,8.98591697 51.8709078,9.35205479 52.6218893,9.35205479 C53.0664567,9.39703 53.5102537,9.25976535 53.8516848,8.97168394 C54.1931159,8.68360252 54.4029448,8.26937241 54.4331366,7.82382061 L54.4331366,7.82383614 Z M53.5790707,1.59039563 C53.5758552,1.28223396 53.7385127,0.996095729 54.005025,0.841079758 C54.2715374,0.686063787 54.6008252,0.686063787 54.8673376,0.841079758 C55.1338499,0.996095729 55.2965074,1.28223396 55.2932919,1.59039563 C55.2932919,2.06348195 54.9095504,2.44699419 54.4361813,2.44699419 C53.9628122,2.44699419 53.5790707,2.06348195 53.5790707,1.59039563 L53.5790707,1.59039563 Z" id="Shape"></path>
                        <path d="M57.9692771,3.40742288 L59.2981745,3.40742288 L59.2981745,4.53084685 L59.4013366,4.53084685 C59.7411502,3.76568735 60.5001478,3.27245885 61.3377889,3.27245885 C62.17543,3.27245885 62.9344276,3.76568735 63.2742413,4.53084685 L63.3834617,4.53084685 C63.7823404,3.72917405 64.6151744,3.23641924 65.5103002,3.27248097 C66.1310324,3.22167851 66.7418534,3.45170079 67.1746906,3.89925518 C67.6075278,4.34680956 67.8167736,4.96473789 67.7448523,5.58301182 L67.7448523,10.3981651 L66.3643816,10.3981651 L66.3643816,5.94311048 C66.3643816,4.99933994 65.9138921,4.53693259 65.0082529,4.53693259 C64.6138291,4.52001393 64.2302415,4.668403 63.9500061,4.94631045 C63.6697708,5.22421791 63.518327,5.60641572 63.5322009,6.00072316 L63.5322009,10.3981651 L62.1760722,10.3981651 L62.1760722,5.80816857 C62.193672,5.45220373 62.0544132,5.10638928 61.7949905,4.86184759 C61.5355679,4.6173059 61.1820036,4.49856641 60.827462,4.53691707 C60.418471,4.54363444 60.0298462,4.71648821 59.751093,5.01566781 C59.4723399,5.31484741 59.3274896,5.71456073 59.3499031,6.1227484 L59.3499031,10.3981651 L57.9692771,10.3981651 L57.9692771,3.40742288 Z" id="Shape"></path>
                        <path d="M71.748228,1.66694862 L71.748228,3.43926432 L73.2637213,3.43926432 L73.2637213,4.60136068 L71.748228,4.60136068 L71.748228,8.19602865 C71.748228,8.92830429 72.0501181,9.24895433 72.7373165,9.24895433 C72.9132491,9.24839161 73.0890051,9.23776039 73.2637213,9.21711288 L73.2637213,10.3663081 C73.0158115,10.4106326 72.7646343,10.4342138 72.5128019,10.4368064 C70.9775959,10.4368064 70.366235,9.89706981 70.366235,8.54926532 L70.366235,4.60129858 L69.255794,4.60129858 L69.255794,3.43920222 L70.366235,3.43920222 L70.366235,1.66694862 L71.748228,1.66694862 Z" id="Shape"></path>
                        <path d="M74.6866622,8.42116987 C74.6866622,7.16280399 75.6241774,6.43735927 77.2883166,6.33425881 L79.1830599,6.22510367 L79.1830599,5.62169972 C79.1830599,4.88335387 78.6945895,4.46643429 77.7510159,4.46643429 C76.9803838,4.46643429 76.4463984,4.7491882 76.2931698,5.243437 L74.9566918,5.243437 C75.0977727,4.04268379 76.2279421,3.27251202 77.8147214,3.27251202 C79.5683837,3.27251202 80.5574722,4.14500801 80.5574722,5.62169972 L80.5574722,10.3981651 L79.2285748,10.3981651 L79.2285748,9.41573768 L79.1193544,9.41573768 C78.6680084,10.1331814 77.8653682,10.552487 77.0183026,10.5133439 C76.4244893,10.5750734 75.8322587,10.3828741 75.3880212,9.98426111 C74.9437837,9.58564809 74.6890018,9.01782565 74.6866622,8.42116987 L74.6866622,8.42116987 Z M79.1830599,7.82382061 L79.1830599,7.2393725 L77.4749125,7.34852764 C76.5116106,7.41295573 76.0747135,7.7404367 76.0747135,8.35672626 C76.0747135,8.98590144 76.620831,9.35203926 77.3718125,9.35203926 C77.8163774,9.39701451 78.2601722,9.25975193 78.6016028,8.97167384 C78.9430335,8.68359575 79.152864,8.26936963 79.1830599,7.82382061 L79.1830599,7.82382061 Z" id="Shape"></path>
                        <path d="M86.3334619,1.34022837 C86.3116779,0.97459683 86.5153123,0.632688141 86.8472882,0.477497654 C87.179264,0.322307167 87.5723822,0.385248762 87.8392348,0.636316805 C88.1060874,0.887384847 88.1926576,1.27575778 88.0576755,1.61628973 C87.9226935,1.95682168 87.5934825,2.18058168 87.2269845,2.18089844 C86.9956536,2.19268736 86.7695233,2.10964397 86.6008691,1.95096577 C86.4322148,1.79228757 86.335637,1.57171123 86.3334619,1.34022837 Z M86.5382638,3.40742288 L87.9141829,3.40742288 L87.9141829,10.3981495 L86.5382638,10.3981495 L86.5382638,3.40742288 Z" id="Shape"></path>
                    </g>
                </g>
            </g>
        </g>
    </g>
</svg>