<?xml version="1.0" encoding="UTF-8"?>
<svg width="170px" height="50px" viewBox="0 0 170 50" version="1.1" xmlns="http://www.w3.org/2000/svg" xmlns:xlink="http://www.w3.org/1999/xlink">
    <!-- Generator: Sketch 50.2 (55047) - http://www.bohemiancoding.com/sketch -->
    <title>Download_on_the_App_Store_Badge_US-UK_135x40</title>
    <desc>Created with Sketch.</desc>
    <defs></defs>
    <g id="Download_on_the_App_Store_Badge_US-UK_135x40" stroke="none" stroke-width="1" fill="none" fill-rule="evenodd">
        <g transform="translate(-1.000000, -1.000000)" fill-rule="nonzero">
            <path d="M171,46 C171,48.7570142 168.81151,51 166,51 L6,51 C3.19615148,51 1,48.7570142 1,46 L1,6 C1,3.25083752 3.19615148,1 6,1 L166,1 C168.81151,1 170.998723,3.25083752 171,6 L171,46 L171,46 Z" id="Shape" fill="#000000"></path>
            <g id="Group" transform="translate(15.360000, 7.800000)" fill="#FFFFFF">
                <path d="M23.20384,17.9192 C23.16672,13.7293 26.58176,11.6909 26.73792,11.596 C24.80384,8.7321 21.80608,8.3408 20.75264,8.3096 C18.23488,8.0405 15.79264,9.8397 14.51008,9.8397 C13.20192,9.8397 11.22688,8.3356 9.09824,8.3798 C6.35904,8.4227 3.79648,10.0334 2.39104,12.5346 C-0.50944,17.6345 1.65376,25.129 4.43264,29.2513 C5.82272,31.2702 7.44704,33.5244 9.57312,33.4451 C11.65312,33.358 12.43008,32.0983 14.94016,32.0983 C17.4272,32.0983 18.1568,33.4451 20.32512,33.3944 C22.55744,33.358 23.96288,31.3664 25.30432,29.3293 C26.91072,27.0153 27.55584,24.7364 27.58144,24.6194 C27.52896,24.6012 23.24608,22.9411 23.20384,17.9192 Z" id="Shape"></path>
                <path d="M19.10784,5.5978 C20.22656,4.1769 20.992,2.2438 20.77952,0.2821 C19.16032,0.3549 17.13536,1.4196 15.96928,2.8093 C14.9376,4.0339 14.016,6.0411 14.25408,7.9287 C16.07296,8.0665 17.94048,6.9966 19.10784,5.5978 Z" id="Shape"></path>
            </g>
            <g id="Group" transform="translate(53.760000, 23.400000)" fill="#FFFFFF">
                <path d="M14.9056,17.5552 L11.99872,17.5552 L10.4064,12.4735 L4.87168,12.4735 L3.35488,17.5552 L0.5248,17.5552 L6.00832,0.2548 L9.3952,0.2548 L14.9056,17.5552 Z M9.9264,10.3415 L8.4864,5.824 C8.33408,5.3625 8.04864,4.2757 7.62752,2.5649 L7.57632,2.5649 C7.40864,3.3007 7.13856,4.3875 6.76736,5.824 L5.35296,10.3415 L9.9264,10.3415 L9.9264,10.3415 Z" id="Shape"></path>
                <path d="M29.00736,11.1644 C29.00736,13.286 28.44288,14.963 27.31392,16.1941 C26.30272,17.29 25.04704,17.8373 23.54816,17.8373 C21.93024,17.8373 20.768,17.2471 20.06016,16.0667 L20.00896,16.0667 L20.00896,22.6382 L17.28,22.6382 L17.28,9.1871 C17.28,7.8533 17.24544,6.4844 17.17888,5.0804 L19.57888,5.0804 L19.7312,7.0577 L19.7824,7.0577 C20.69248,5.5679 22.0736,4.8243 23.92704,4.8243 C25.376,4.8243 26.5856,5.4054 27.55328,6.5689 C28.52352,7.7337 29.00736,9.2651 29.00736,11.1644 Z M26.2272,11.2658 C26.2272,10.0516 25.9584,9.0506 25.41824,8.2628 C24.82816,7.4412 24.03584,7.0304 23.04256,7.0304 C22.36928,7.0304 21.75744,7.2592 21.21088,7.7103 C20.66304,8.1653 20.30464,8.7594 20.13696,9.4952 C20.05248,9.8384 20.01024,10.1192 20.01024,10.3402 L20.01024,12.4202 C20.01024,13.3276 20.28416,14.0933 20.832,14.7186 C21.37984,15.3439 22.09152,15.6559 22.96704,15.6559 C23.99488,15.6559 24.79488,15.2529 25.36704,14.4495 C25.94048,13.6448 26.2272,12.584 26.2272,11.2658 Z" id="Shape"></path>
                <path d="M43.13472,11.1644 C43.13472,13.286 42.57024,14.963 41.44,16.1941 C40.43008,17.29 39.1744,17.8373 37.67552,17.8373 C36.0576,17.8373 34.89536,17.2471 34.1888,16.0667 L34.1376,16.0667 L34.1376,22.6382 L31.40864,22.6382 L31.40864,9.1871 C31.40864,7.8533 31.37408,6.4844 31.30752,5.0804 L33.70752,5.0804 L33.85984,7.0577 L33.91104,7.0577 C34.81984,5.5679 36.20096,4.8243 38.05568,4.8243 C39.50336,4.8243 40.71296,5.4054 41.6832,6.5689 C42.6496,7.7337 43.13472,9.2651 43.13472,11.1644 Z M40.35456,11.2658 C40.35456,10.0516 40.08448,9.0506 39.54432,8.2628 C38.95424,7.4412 38.16448,7.0304 37.16992,7.0304 C36.49536,7.0304 35.8848,7.2592 35.33696,7.7103 C34.78912,8.1653 34.432,8.7594 34.26432,9.4952 C34.18112,9.8384 34.1376,10.1192 34.1376,10.3402 L34.1376,12.4202 C34.1376,13.3276 34.41152,14.0933 34.9568,14.7186 C35.50464,15.3426 36.21632,15.6559 37.0944,15.6559 C38.12224,15.6559 38.92224,15.2529 39.4944,14.4495 C40.06784,13.6448 40.35456,12.584 40.35456,11.2658 Z" id="Shape"></path>
                <path d="M58.92992,12.7036 C58.92992,14.1752 58.42688,15.3725 57.41696,16.2968 C56.3072,17.3069 54.76224,17.8113 52.77696,17.8113 C50.944,17.8113 49.47456,17.4525 48.36224,16.7336 L48.99456,14.4235 C50.19264,15.1593 51.5072,15.5285 52.93952,15.5285 C53.96736,15.5285 54.76736,15.2919 55.34208,14.8213 C55.91424,14.3507 56.19968,13.7189 56.19968,12.9311 C56.19968,12.2291 55.96416,11.6376 55.49184,11.1579 C55.02208,10.6782 54.23744,10.2323 53.14176,9.8202 C50.15936,8.6905 48.66944,7.0356 48.66944,4.8594 C48.66944,3.4372 49.19168,2.2711 50.23744,1.3637 C51.27936,0.455 52.66944,0.0013 54.40768,0.0013 C55.95776,0.0013 57.24544,0.2756 58.27328,0.8229 L57.59104,3.0823 C56.63104,2.5519 55.5456,2.2867 54.33088,2.2867 C53.37088,2.2867 52.6208,2.5272 52.0832,3.0056 C51.6288,3.4333 51.40096,3.9546 51.40096,4.5721 C51.40096,5.2559 51.6608,5.8214 52.18304,6.266 C52.63744,6.6768 53.46304,7.1214 54.66112,7.6011 C56.12672,8.2004 57.2032,8.9011 57.89568,9.7045 C58.5856,10.5053 58.92992,11.5076 58.92992,12.7036 Z" id="Shape"></path>
                <path d="M67.95264,7.1604 L64.94464,7.1604 L64.94464,13.2171 C64.94464,14.7576 65.47456,15.5272 66.53696,15.5272 C67.02464,15.5272 67.42912,15.4843 67.74912,15.3985 L67.82464,17.5032 C67.28704,17.7073 66.5792,17.81 65.7024,17.81 C64.62464,17.81 63.7824,17.4759 63.1744,16.809 C62.56896,16.1408 62.26432,15.0202 62.26432,13.4459 L62.26432,7.1578 L60.47232,7.1578 L60.47232,5.0778 L62.26432,5.0778 L62.26432,2.7937 L64.94464,1.9721 L64.94464,5.0778 L67.95264,5.0778 L67.95264,7.1604 Z" id="Shape"></path>
                <path d="M81.52448,11.2151 C81.52448,13.1326 80.98432,14.7069 79.90656,15.938 C78.77632,17.2055 77.27616,17.8373 75.40608,17.8373 C73.60384,17.8373 72.16896,17.2302 71.09888,16.016 C70.0288,14.8018 69.49376,13.2691 69.49376,11.4218 C69.49376,9.4887 70.04416,7.9053 71.1488,6.6742 C72.25088,5.4418 73.73824,4.8256 75.60832,4.8256 C77.41056,4.8256 78.8608,5.4327 79.9552,6.6482 C81.00224,7.8273 81.52448,9.3496 81.52448,11.2151 Z M78.69312,11.3048 C78.69312,10.1543 78.4512,9.1676 77.96096,8.3447 C77.3888,7.3489 76.57088,6.8523 75.51104,6.8523 C74.41408,6.8523 73.5808,7.3502 73.00864,8.3447 C72.5184,9.1689 72.27648,10.1712 72.27648,11.3568 C72.27648,12.5073 72.5184,13.494 73.00864,14.3156 C73.59872,15.3114 74.42304,15.808 75.48672,15.808 C76.52864,15.808 77.34656,15.301 77.93664,14.2896 C78.43968,13.4511 78.69312,12.454 78.69312,11.3048 Z" id="Shape"></path>
                <path d="M90.39488,7.5179 C90.1248,7.4672 89.8368,7.4412 89.53472,7.4412 C88.57472,7.4412 87.83232,7.8091 87.31008,8.5462 C86.85568,9.1962 86.62784,10.0178 86.62784,11.0097 L86.62784,17.5552 L83.90016,17.5552 L83.92576,9.009 C83.92576,7.5712 83.8912,6.2621 83.82336,5.0817 L86.20032,5.0817 L86.30016,7.4685 L86.37568,7.4685 C86.66368,6.6482 87.11808,5.9878 87.74016,5.4925 C88.34816,5.0466 89.0048,4.8243 89.71264,4.8243 C89.9648,4.8243 90.19264,4.8425 90.39488,4.875 L90.39488,7.5179 Z" id="Shape"></path>
                <path d="M102.59968,10.7276 C102.59968,11.2242 102.56768,11.6428 102.49984,11.9847 L94.31296,11.9847 C94.34496,13.2171 94.74048,14.1596 95.5008,14.8096 C96.19072,15.3907 97.08288,15.6819 98.17856,15.6819 C99.39072,15.6819 100.49664,15.4856 101.4912,15.0917 L101.91872,17.0157 C100.75648,17.5305 99.38432,17.7866 97.80096,17.7866 C95.89632,17.7866 94.40128,17.2172 93.31328,16.0797 C92.22784,14.9422 91.68384,13.4147 91.68384,11.4985 C91.68384,9.6174 92.18944,8.0509 93.20192,6.8016 C94.26176,5.4678 95.69408,4.8009 97.49632,4.8009 C99.26656,4.8009 100.60672,5.4678 101.5168,6.8016 C102.23744,7.8611 102.59968,9.1715 102.59968,10.7276 Z M99.99744,10.0087 C100.01536,9.1871 99.83744,8.4773 99.46752,7.878 C98.9952,7.1071 98.26944,6.7223 97.2928,6.7223 C96.40064,6.7223 95.67488,7.098 95.12064,7.852 C94.66624,8.4513 94.39616,9.1702 94.31296,10.0074 L99.99744,10.0074 L99.99744,10.0087 Z" id="Shape"></path>
            </g>
            <g id="Group" transform="translate(55.040000, 7.800000)" fill="#FFFFFF">
                <path d="M7.744,5.2117 C7.744,6.7418 7.29216,7.8936 6.38976,8.6671 C5.55392,9.3808 4.36608,9.7383 2.82752,9.7383 C2.06464,9.7383 1.41184,9.7045 0.86528,9.6369 L0.86528,1.2766 C1.57824,1.1596 2.34624,1.0998 3.17568,1.0998 C4.64128,1.0998 5.74592,1.4235 6.49088,2.0709 C7.32544,2.8028 7.744,3.8493 7.744,5.2117 Z M6.3296,5.2494 C6.3296,4.2575 6.07104,3.497 5.55392,2.9666 C5.0368,2.4375 4.2816,2.1723 3.28704,2.1723 C2.86464,2.1723 2.50496,2.2009 2.20672,2.2607 L2.20672,8.6164 C2.37184,8.6424 2.67392,8.6541 3.11296,8.6541 C4.13952,8.6541 4.93184,8.3642 5.48992,7.7844 C6.048,7.2046 6.3296,6.3596 6.3296,5.2494 Z" id="Shape"></path>
                <path d="M15.24352,6.5481 C15.24352,7.4906 14.97856,8.2628 14.44864,8.8686 C13.89312,9.4913 13.15712,9.802 12.23808,9.802 C11.35232,9.802 10.64704,9.5043 10.12096,8.9063 C9.59616,8.3096 9.33376,7.5569 9.33376,6.6495 C9.33376,5.7005 9.60384,4.9218 10.14656,4.3173 C10.68928,3.7128 11.41888,3.4099 12.33792,3.4099 C13.22368,3.4099 13.93536,3.7076 14.47424,4.3043 C14.98624,4.8841 15.24352,5.6329 15.24352,6.5481 Z M13.85216,6.5923 C13.85216,6.0268 13.73184,5.5419 13.49248,5.1376 C13.21088,4.6488 12.81024,4.4044 12.28928,4.4044 C11.7504,4.4044 11.3408,4.6488 11.0592,5.1376 C10.81856,5.5419 10.69952,6.0346 10.69952,6.617 C10.69952,7.1825 10.81984,7.6674 11.0592,8.0717 C11.34976,8.5605 11.75424,8.8049 12.27648,8.8049 C12.78848,8.8049 13.1904,8.5566 13.47968,8.0587 C13.728,7.6466 13.85216,7.1578 13.85216,6.5923 Z" id="Shape"></path>
                <path d="M25.2992,3.5347 L23.4112,9.6629 L22.1824,9.6629 L21.40032,7.0018 C21.20192,6.3375 21.04064,5.6771 20.9152,5.0219 L20.89088,5.0219 C20.7744,5.6953 20.61312,6.3544 20.40576,7.0018 L19.57504,9.6629 L18.33216,9.6629 L16.5568,3.5347 L17.93536,3.5347 L18.6176,6.448 C18.78272,7.137 18.9184,7.7935 19.0272,8.4149 L19.05152,8.4149 C19.15136,7.9027 19.31648,7.2501 19.54944,6.461 L20.40576,3.536 L21.49888,3.536 L22.31936,6.3986 C22.51776,7.0967 22.67904,7.7688 22.8032,8.4162 L22.84032,8.4162 C22.9312,7.7857 23.06816,7.1136 23.24992,6.3986 L23.98208,3.536 L25.2992,3.536 L25.2992,3.5347 Z" id="Shape"></path>
                <path d="M32.25344,9.6629 L30.912,9.6629 L30.912,6.1529 C30.912,5.0713 30.50752,4.5305 29.696,4.5305 C29.29792,4.5305 28.97664,4.6787 28.72704,4.9764 C28.48,5.2741 28.35456,5.6251 28.35456,6.0268 L28.35456,9.6616 L27.01312,9.6616 L27.01312,5.2858 C27.01312,4.7476 26.99648,4.1639 26.96448,3.5321 L28.14336,3.5321 L28.20608,4.4902 L28.2432,4.4902 C28.39936,4.1925 28.63232,3.9468 28.93824,3.7505 C29.30176,3.5217 29.7088,3.406 30.15424,3.406 C30.71744,3.406 31.18592,3.5906 31.5584,3.9611 C32.02176,4.4148 32.25344,5.0921 32.25344,5.9917 L32.25344,9.6629 L32.25344,9.6629 Z" id="Shape"></path>
                <polygon id="Shape" points="35.95264 9.6629 34.61248 9.6629 34.61248 0.7228 35.95264 0.7228"></polygon>
                <path d="M43.85024,6.5481 C43.85024,7.4906 43.58528,8.2628 43.05536,8.8686 C42.49984,9.4913 41.76256,9.802 40.8448,9.802 C39.95776,9.802 39.25248,9.5043 38.72768,8.9063 C38.20288,8.3096 37.94048,7.5569 37.94048,6.6495 C37.94048,5.7005 38.21056,4.9218 38.75328,4.3173 C39.296,3.7128 40.0256,3.4099 40.94336,3.4099 C41.8304,3.4099 42.5408,3.7076 43.08096,4.3043 C43.59296,4.8841 43.85024,5.6329 43.85024,6.5481 Z M42.4576,6.5923 C42.4576,6.0268 42.33728,5.5419 42.09792,5.1376 C41.8176,4.6488 41.41568,4.4044 40.896,4.4044 C40.35584,4.4044 39.94624,4.6488 39.66592,5.1376 C39.42528,5.5419 39.30624,6.0346 39.30624,6.617 C39.30624,7.1825 39.42656,7.6674 39.66592,8.0717 C39.95648,8.5605 40.36096,8.8049 40.8832,8.8049 C41.3952,8.8049 41.79584,8.5566 42.08512,8.0587 C42.33472,7.6466 42.4576,7.1578 42.4576,6.5923 Z" id="Shape"></path>
                <path d="M50.3424,9.6629 L49.13792,9.6629 L49.03808,8.957 L49.00096,8.957 C48.5888,9.5199 48.00128,9.802 47.2384,9.802 C46.6688,9.802 46.208,9.6161 45.86112,9.2469 C45.54624,8.9115 45.3888,8.4942 45.3888,7.9989 C45.3888,7.2501 45.696,6.6794 46.31424,6.2842 C46.9312,5.889 47.79904,5.6953 48.91648,5.7044 L48.91648,5.59 C48.91648,4.7827 48.4992,4.3797 47.66336,4.3797 C47.06816,4.3797 46.54336,4.5318 46.09024,4.8334 L45.8176,3.939 C46.37824,3.5867 47.07072,3.4099 47.88736,3.4099 C49.46432,3.4099 50.25536,4.2549 50.25536,5.9449 L50.25536,8.2017 C50.25536,8.814 50.2848,9.3015 50.3424,9.6629 Z M48.94976,7.5569 L48.94976,6.6118 C47.47008,6.5858 46.73024,6.9979 46.73024,7.8468 C46.73024,8.1666 46.81472,8.4058 46.98752,8.5657 C47.16032,8.7256 47.38048,8.8049 47.64288,8.8049 C47.93728,8.8049 48.21248,8.71 48.46336,8.5215 C48.71552,8.3317 48.8704,8.0912 48.928,7.7961 C48.94208,7.7298 48.94976,7.6492 48.94976,7.5569 Z" id="Shape"></path>
                <path d="M57.9648,9.6629 L56.7744,9.6629 L56.71168,8.6788 L56.67456,8.6788 C56.2944,9.4276 55.64672,9.802 54.73664,9.802 C54.0096,9.802 53.40416,9.5121 52.92416,8.9323 C52.44416,8.3525 52.2048,7.5998 52.2048,6.6755 C52.2048,5.6836 52.46464,4.8802 52.98688,4.2666 C53.49248,3.6946 54.112,3.4086 54.84928,3.4086 C55.65952,3.4086 56.22656,3.6855 56.54912,4.2406 L56.57472,4.2406 L56.57472,0.7228 L57.91744,0.7228 L57.91744,8.0119 C57.91744,8.6086 57.9328,9.1585 57.9648,9.6629 Z M56.57472,7.0785 L56.57472,6.0567 C56.57472,5.8799 56.56192,5.7369 56.5376,5.6277 C56.46208,5.3001 56.29952,5.0245 56.05248,4.8022 C55.80288,4.5799 55.50208,4.4681 55.1552,4.4681 C54.65472,4.4681 54.26304,4.6696 53.97504,5.0739 C53.6896,5.4782 53.54496,5.9943 53.54496,6.6248 C53.54496,7.2306 53.68192,7.722 53.95712,8.1003 C54.24768,8.5033 54.63936,8.7048 55.1296,8.7048 C55.56992,8.7048 55.92192,8.5371 56.18944,8.2004 C56.448,7.8897 56.57472,7.5153 56.57472,7.0785 Z" id="Shape"></path>
                <path d="M69.43744,6.5481 C69.43744,7.4906 69.17248,8.2628 68.64256,8.8686 C68.08704,9.4913 67.35232,9.802 66.432,9.802 C65.54752,9.802 64.84224,9.5043 64.31488,8.9063 C63.79008,8.3096 63.52768,7.5569 63.52768,6.6495 C63.52768,5.7005 63.79776,4.9218 64.34048,4.3173 C64.8832,3.7128 65.6128,3.4099 66.53312,3.4099 C67.4176,3.4099 68.13056,3.7076 68.66816,4.3043 C69.18016,4.8841 69.43744,5.6329 69.43744,6.5481 Z M68.04736,6.5923 C68.04736,6.0268 67.92704,5.5419 67.68768,5.1376 C67.4048,4.6488 67.00544,4.4044 66.4832,4.4044 C65.9456,4.4044 65.536,4.6488 65.25312,5.1376 C65.01248,5.5419 64.89344,6.0346 64.89344,6.617 C64.89344,7.1825 65.01376,7.6674 65.25312,8.0717 C65.54368,8.5605 65.94816,8.8049 66.4704,8.8049 C66.9824,8.8049 67.3856,8.5566 67.67488,8.0587 C67.92192,7.6466 68.04736,7.1578 68.04736,6.5923 Z" id="Shape"></path>
                <path d="M76.65024,9.6629 L75.31008,9.6629 L75.31008,6.1529 C75.31008,5.0713 74.9056,4.5305 74.0928,4.5305 C73.69472,4.5305 73.37344,4.6787 73.12512,4.9764 C72.8768,5.2741 72.75264,5.6251 72.75264,6.0268 L72.75264,9.6616 L71.40992,9.6616 L71.40992,5.2858 C71.40992,4.7476 71.39456,4.1639 71.36256,3.5321 L72.54016,3.5321 L72.60288,4.4902 L72.64,4.4902 C72.79744,4.1925 73.0304,3.9468 73.33504,3.7505 C73.69984,3.5217 74.1056,3.406 74.55232,3.406 C75.11424,3.406 75.58272,3.5906 75.9552,3.9611 C76.41984,4.4148 76.65024,5.0921 76.65024,5.9917 L76.65024,9.6629 L76.65024,9.6629 Z" id="Shape"></path>
                <path d="M85.67808,4.5552 L84.20096,4.5552 L84.20096,7.5322 C84.20096,8.2888 84.46336,8.6671 84.98304,8.6671 C85.22368,8.6671 85.42336,8.6463 85.5808,8.6034 L85.61536,9.6369 C85.3504,9.7383 85.00224,9.789 84.57344,9.789 C84.04352,9.789 83.63136,9.6252 83.33312,9.2976 C83.0336,8.97 82.88512,8.4188 82.88512,7.6453 L82.88512,4.5552 L82.0032,4.5552 L82.0032,3.5347 L82.88512,3.5347 L82.88512,2.4115 L84.19968,2.0085 L84.19968,3.5334 L85.6768,3.5334 L85.6768,4.5552 L85.67808,4.5552 Z" id="Shape"></path>
                <path d="M92.77952,9.6629 L91.4368,9.6629 L91.4368,6.1789 C91.4368,5.0804 91.03232,4.5305 90.22208,4.5305 C89.6,4.5305 89.17504,4.849 88.94208,5.486 C88.9024,5.6199 88.87936,5.7837 88.87936,5.9761 L88.87936,9.6616 L87.5392,9.6616 L87.5392,0.7228 L88.87936,0.7228 L88.87936,4.4161 L88.90496,4.4161 C89.32736,3.744 89.9328,3.4086 90.71744,3.4086 C91.27296,3.4086 91.73248,3.5932 92.09728,3.9637 C92.55168,4.4252 92.77952,5.1116 92.77952,6.019 L92.77952,9.6629 L92.77952,9.6629 Z" id="Shape"></path>
                <path d="M100.10496,6.3089 C100.10496,6.5533 100.08704,6.7587 100.05504,6.9264 L96.032,6.9264 C96.04992,7.5322 96.24192,7.9937 96.6144,8.3135 C96.95488,8.5995 97.39392,8.7425 97.93152,8.7425 C98.52672,8.7425 99.06944,8.6463 99.5584,8.4526 L99.76832,9.399 C99.19616,9.6512 98.52288,9.7773 97.74336,9.7773 C96.80896,9.7773 96.07296,9.4978 95.54048,8.9388 C95.00544,8.3798 94.74048,7.6297 94.74048,6.6885 C94.74048,5.7642 94.98752,4.9946 95.48544,4.381 C96.00512,3.7258 96.70784,3.3982 97.59488,3.3982 C98.46272,3.3982 99.12192,3.7258 99.56736,4.381 C99.92704,4.901 100.10496,5.5445 100.10496,6.3089 Z M98.82496,5.9566 C98.8352,5.5523 98.74688,5.2039 98.56512,4.9101 C98.33216,4.5318 97.9776,4.342 97.4976,4.342 C97.05984,4.342 96.70272,4.5266 96.43008,4.8971 C96.20736,5.1922 96.07552,5.5445 96.032,5.9566 L98.82496,5.9566 Z" id="Shape"></path>
            </g>
        </g>
    </g>
</svg>