<?xml version="1.0" encoding="UTF-8"?>
<svg width="231px" height="75px" viewBox="0 0 231 75" version="1.1" xmlns="http://www.w3.org/2000/svg" xmlns:xlink="http://www.w3.org/1999/xlink">
    <!-- Generator: Sketch 50.2 (55047) - http://www.bohemiancoding.com/sketch -->
    <title>app_store_se</title>
    <desc>Created with Sketch.</desc>
    <defs></defs>
    <g id="2.0-app" stroke="none" stroke-width="1" fill="none" fill-rule="evenodd">
        <g id="iphone-assets-se" transform="translate(-29.000000, -401.000000)">
            <g id="Download_on_the_App_Store_Badge_SE" transform="translate(17.000000, 401.000000)">
                <g id="Download_on_the_App_Store_Badge_US-UK_RGB_blk_092917" transform="translate(13.515411, 1.498893)">
                    <g id="Group" fill-rule="nonzero">
                        <g fill="#000000" id="Shape">
                            <path d="M14.3770619,71.8063488 C13.8041735,71.8063488 13.2451241,71.7990417 12.6767296,71.7863011 C11.4992544,71.7710138 10.3245313,71.6688722 9.16219445,71.4807142 C8.078374,71.2947169 7.02844331,70.948728 6.047034,70.4541598 C5.07462368,69.9636895 4.1877073,69.320571 3.42026146,68.5494414 C2.641707,67.7873952 1.99352484,66.9035517 1.50140129,65.9329361 C1.00385496,64.9560121 0.659523287,63.9088675 0.480400939,62.827979 C0.286964352,61.666552 0.182307144,60.4921662 0.16733177,59.3149482 C0.155410698,58.9198025 0.139804247,57.6041491 0.139804247,57.6041491 L0.139804247,14.3225608 C0.139804247,14.3225608 0.156426057,13.0271237 0.167425785,12.646536 C0.181764591,11.4711828 0.285813216,10.2986194 0.478671067,9.13899495 C0.658124051,8.05514548 1.00272229,7.00498122 1.50053635,6.02485712 C1.99085123,5.05491186 2.63543481,4.17040836 3.40929933,3.40563507 C4.18229405,2.63359535 5.07204751,1.98716528 6.04611266,1.4899185 C7.02526641,0.996939304 8.07321286,0.653391018 9.15484249,0.470783594 C10.3209966,0.280735447 11.499798,0.177986222 12.6813551,0.163398087 L14.3779832,0.14052123 L207.613206,0.14052123 L209.330103,0.164316159 C210.500913,0.178179417 211.669006,0.280011983 212.824444,0.46894745 C213.917023,0.653845413 214.975891,0.999790819 215.966229,1.4954082 C217.917635,2.49750453 219.505456,4.08291545 220.507143,6.02942875 C220.997011,7.00278664 221.336294,8.0443847 221.513477,9.11887231 C221.708631,10.2880115 221.817853,11.4697894 221.840272,12.6547799 C221.845725,13.1853881 221.845725,13.7553422 221.845725,14.3225608 C221.860579,15.025167 221.860579,15.6939169 221.860579,16.3681565 L221.860579,55.580456 C221.860579,56.2611408 221.860579,56.9253378 221.845725,57.5949683 C221.845725,58.2042684 221.845725,58.7624187 221.838392,59.3368695 C221.816458,60.5007144 221.709057,61.6613984 221.517049,62.8096175 C221.341598,63.8983032 220.999141,64.9536214 220.50169,65.9385569 C220.006087,66.8986376 219.361627,67.774825 218.592062,68.5348272 C217.823926,69.3101008 216.935444,69.956982 215.960777,70.4505999 C214.973182,70.9489701 213.915872,71.2962385 212.824444,71.4807142 C211.662195,71.6698764 210.487359,71.7720244 209.309796,71.7863011 C208.759058,71.7990417 208.182371,71.8063488 207.622419,71.8063488 L205.584179,71.810096 L14.3770619,71.8063488 Z"></path>
                        </g>
                        <g id="_Group_" transform="translate(15.420945, 13.490038)" fill="#FFFFFF">
                            <g id="_Group_2">
                                <g id="_Group_3">
                                    <path d="M29.6501511,23.0467559 C29.6912487,19.8682202 31.3635569,16.9322202 34.0811798,15.2673881 C32.3589658,12.816497 29.5777823,11.3182888 26.5766204,11.2247235 C23.4191533,10.8944798 20.3581265,13.1073894 18.749139,13.1073894 C17.1090138,13.1073894 14.6317248,11.2575118 11.9640934,11.3122026 C8.45418614,11.4251975 5.2613242,13.3654904 3.55368292,16.4231846 C-0.0828082053,22.6968393 2.629687,31.9169993 6.11314089,36.9881482 C7.85598661,39.4713457 9.89287291,42.2451411 12.5580975,42.1467762 C15.1661799,42.0389871 16.1402481,40.4896 19.2884265,40.4896 C22.4073852,40.4896 23.3212651,42.1467762 26.040567,42.0842349 C28.8391609,42.0389683 30.6024078,39.5900018 32.2841063,37.0832904 C33.5363381,35.3139215 34.4999285,33.3583835 35.1391843,31.2891129 C31.8153047,29.8882686 29.6540306,26.6428896 29.6501511,23.0467559 Z" id="_Path_"></path>
                                    <path d="M24.51388,7.88959259 C26.0397897,6.06430032 26.7915474,3.71819636 26.6095067,1.34950969 C24.2782561,1.59349293 22.1248336,2.70372155 20.5783091,4.45898221 C19.0511873,6.19078277 18.2775509,8.45644151 18.4277966,10.7569377 C20.7903064,10.7811762 23.0334597,9.72435622 24.51388,7.88959259 Z" id="_Path_2"></path>
                                </g>
                            </g>
                            <g id="Group" transform="translate(47.007383, 16.862548)">
                                <path d="M15.6107193,18.9978146 L6.71052951,18.9978146 L4.57316023,25.2865144 L0.803393776,25.2865144 L9.23350976,2.01994585 L13.1501649,2.01994585 L21.5802809,25.2865144 L17.7462271,25.2865144 L15.6107193,18.9978146 Z M7.63230668,16.0959013 L14.6871747,16.0959013 L11.2093617,5.88980685 L11.1120376,5.88980685 L7.63230668,16.0959013 Z" id="Shape"></path>
                                <path d="M39.7864658,16.8058333 C39.7864658,22.0772156 36.9550043,25.4639833 32.6821085,25.4639833 C30.4734859,25.579107 28.3930842,24.4263946 27.3258428,22.4961749 L27.2449901,22.4961749 L27.2449901,30.8981829 L23.7506493,30.8981829 L23.7506493,8.32331605 L27.1330373,8.32331605 L27.1330373,11.1447201 L27.1973058,11.1447201 C28.3119605,9.22660135 30.3946056,8.0743852 32.61784,8.14582837 C36.9384013,8.14584711 39.7864658,11.5490839 39.7864658,16.8058333 Z M36.1948009,16.8058333 C36.1948009,13.3714944 34.4136536,11.113618 31.696044,11.113618 C29.0261751,11.113618 27.2303426,13.4190468 27.2303426,16.8058333 C27.2303426,20.2237218 29.0261751,22.5126815 31.696044,22.5126815 C34.4136724,22.5126815 36.1948009,20.2712929 36.1948009,16.8058333 Z" id="Shape"></path>
                                <path d="M58.5233077,16.8058333 C58.5233077,22.0772156 55.6918462,25.4639833 51.4189503,25.4639833 C49.2103278,25.579107 47.1299261,24.4263946 46.0626847,22.4961749 L45.981832,22.4961749 L45.981832,30.8981829 L42.4874912,30.8981829 L42.4874912,8.32331605 L45.869804,8.32331605 L45.869804,11.1447201 L45.9340725,11.1447201 C47.0487353,9.22660252 49.1313884,8.07439314 51.3546254,8.14584711 C55.6753184,8.14584711 58.5233077,11.5490839 58.5233077,16.8058333 Z M54.9316428,16.8058333 C54.9316428,13.3714944 53.1504955,11.113618 50.4328859,11.113618 C47.763017,11.113618 45.9671845,13.4190468 45.9671845,16.8058333 C45.9671845,20.2237218 47.763017,22.5126815 50.4328859,22.5126815 C53.1505143,22.5126815 54.9316616,20.2712929 54.9316616,16.8058333 L54.9316428,16.8058333 Z" id="Shape"></path>
                                <path d="M70.9068198,18.8038578 C71.1657365,21.1111227 73.4151337,22.6260353 76.4889465,22.6260353 C79.4342599,22.6260353 81.5532587,21.1110478 81.5532587,19.0306591 C81.5532587,17.2247364 80.2752407,16.1434162 77.2491499,15.4023634 L74.223059,14.6759624 C69.935478,13.6440119 67.9449974,11.6459687 67.9449974,8.40373167 C67.9449974,4.38935863 71.455866,1.63199483 76.4412058,1.63199483 C81.3751007,1.63199483 84.7574699,4.38935863 84.8713218,8.40373167 L81.3438878,8.40373167 C81.1327306,6.0818338 79.2065185,4.68029378 76.3915848,4.68029378 C73.5766511,4.68029378 71.6504578,6.09832162 71.6504578,8.16222251 C71.6504578,9.80712656 72.880735,10.7750368 75.8902981,11.5159959 L78.4628429,12.1454186 C83.2535533,13.2743474 85.2440339,15.1919189 85.2440339,18.5951182 C85.2440339,22.9479788 81.7643782,25.6742406 76.2299922,25.6742406 C71.0518282,25.6742406 67.5556635,23.012019 67.3298024,18.8036892 L70.9068198,18.8038578 Z" id="Shape"></path>
                                <path d="M92.7854471,4.30894301 L92.7854471,8.32331605 L96.0227139,8.32331605 L96.0227139,11.0806798 L92.7854471,11.0806798 L92.7854471,20.4322928 C92.7854471,21.8850762 93.4336413,22.56207 94.8567052,22.56207 C95.2410215,22.5553924 95.6247159,22.5284998 96.0061861,22.4815045 L96.0061861,25.2223992 C95.3663749,25.3415229 94.7160607,25.3954736 94.0652889,25.3834178 C90.6187076,25.3834178 89.2745785,24.0934704 89.2745785,20.8036623 L89.2745785,11.0806798 L86.7993578,11.0806798 L86.7993578,8.32331605 L89.2745409,8.32331605 L89.2745409,4.30894301 L92.7854471,4.30894301 Z" id="Shape"></path>
                                <path d="M97.8975752,16.8058333 C97.8975752,11.4685934 101.052203,8.11474507 105.971469,8.11474507 C110.907244,8.11474507 114.047187,11.4685184 114.047187,16.8058333 C114.047187,22.1577249 110.923772,25.4969215 105.971469,25.4969215 C101.020915,25.4969215 97.8975752,22.1577061 97.8975752,16.8058333 Z M110.486735,16.8058333 C110.486735,13.1445995 108.802912,10.9837202 105.97145,10.9837202 C103.139989,10.9837202 101.458008,13.1610686 101.458008,16.8058333 C101.458008,20.4817001 103.139989,22.626129 105.97145,22.626129 C108.802912,22.626129 110.48666,20.4817001 110.48666,16.8058333 L110.486735,16.8058333 Z" id="Shape"></path>
                                <path d="M116.928157,8.32331605 L120.260905,8.32331605 L120.260905,11.2105589 L120.341758,11.2105589 C120.806522,9.35190973 122.515628,8.07272277 124.436533,8.14580963 C124.839225,8.1444086 125.240805,8.18798614 125.633755,8.27572619 L125.633755,11.5325961 C125.125381,11.3778042 124.59506,11.3067341 124.063708,11.322189 C123.036406,11.2806611 122.042204,11.688621 121.342153,12.4389505 C120.642101,13.18928 120.306138,14.2070163 120.422479,15.224932 L120.422479,25.2864769 L116.928138,25.2864769 L116.928157,8.32331605 Z" id="Shape"></path>
                                <path d="M141.744746,20.3042124 C141.274672,23.3835946 138.26509,25.4969028 134.414527,25.4969028 C129.462224,25.4969028 126.388393,22.1906256 126.388393,16.8863238 C126.388393,11.565553 129.478752,8.11472634 134.267638,8.11472634 C138.977553,8.11472634 141.939394,11.3386581 141.939394,16.48196 L141.939394,17.674929 L129.915789,17.674929 L129.915789,17.8853361 C129.80353,19.1482128 130.241158,20.3982856 131.117354,21.3175764 C131.99355,22.2368672 133.223863,22.7367722 134.495342,22.6901317 C136.191072,22.8484516 137.789813,21.8781769 138.426701,20.3041936 L141.744746,20.3042124 Z M129.932284,15.2414385 L138.44321,15.2414198 C138.506624,14.1066406 138.092077,12.9969455 137.299446,12.1796899 C136.506814,11.3624343 135.407964,10.9117179 134.267638,10.9361303 C133.118292,10.9292958 132.013824,11.3802236 131.199721,12.1886865 C130.385619,12.9971493 129.929339,14.0961585 129.932284,15.2414385 Z" id="Shape"></path>
                            </g>
                        </g>
                    </g>
                    <g id="_Group_4" transform="translate(64.308623, 13.490038)" fill="#FFFFFF" fill-rule="nonzero">
                        <g id="Group">
                            <path d="M5.3140718,1.36961359 C6.7975243,1.26353727 8.25053324,1.82592805 9.27316761,2.90199165 C10.295802,3.97805525 10.7802705,5.45436864 10.5932265,6.92458646 C10.5932265,10.4961677 8.65601466,12.5491829 5.3140718,12.5491829 L1.26152773,12.5491829 L1.26152773,1.36961359 L5.3140718,1.36961359 Z M3.0040914,10.9681504 L5.11942363,10.9681504 C6.17957538,11.0312951 7.21184731,10.6150843 7.92961618,9.83508428 C8.64738505,9.05508425 8.9742351,7.99433602 8.81941232,6.94736963 C8.96297102,5.90474807 8.63141397,4.85275308 7.91542477,4.07911395 C7.19943557,3.30547481 6.1739415,2.89115181 5.11942363,2.94946568 L3.0040914,2.94946568 L3.0040914,10.9681504 Z" id="Shape"></path>
                            <path d="M12.5616513,8.32698834 C12.4164683,6.81476453 13.1441736,5.35125818 14.4395697,4.55025987 C15.7349658,3.74926156 17.3740825,3.74926156 18.6694786,4.55025987 C19.9648747,5.35125818 20.6925801,6.81476453 20.547397,8.32698834 C20.6953423,9.84083716 19.9683012,11.307182 18.6717565,12.1099047 C17.3752118,12.9126274 15.7338365,12.9126274 14.4372918,12.1099047 C13.1407471,11.307182 12.413706,9.84083716 12.5616513,8.32698834 Z M18.8286755,8.32698834 C18.8286755,6.49820757 18.0042036,5.42874733 16.5572788,5.42874733 C15.1048259,5.42874733 14.2877623,6.49820757 14.2877623,8.32700708 C14.2877623,10.1704395 15.1048823,11.2316559 16.5572788,11.2316559 C18.0042412,11.2316371 18.8286943,10.1630949 18.8286943,8.32698834 L18.8286755,8.32698834 Z" id="Shape"></path>
                            <polygon id="Shape" points="31.162623 12.5490143 29.4292352 12.5490143 27.6793195 6.3353341 27.547116 6.3353341 25.8045335 12.5490143 24.0876547 12.5490143 21.7538133 4.11225076 23.4486551 4.11225076 24.9653765 10.5499967 25.0902469 10.5499967 26.8309867 4.11225076 28.4340137 4.11225076 30.1747535 10.5499967 30.306957 10.5499967 31.8163265 4.11225076 33.4872885 4.11225076"></polygon>
                            <path d="M35.4502228,4.11225076 L37.0587402,4.11225076 L37.0587402,5.45250478 L37.1836106,5.45250478 C37.6178364,4.46572337 38.6324964,3.8620995 39.7102574,3.94939602 C40.5447641,3.88687676 41.3625216,4.20587519 41.9326363,4.81632221 C42.5027511,5.42676923 42.7633551,6.26241999 42.6408669,7.08732878 L42.6408669,12.5489206 L40.9699049,12.5489206 L40.9699049,7.50544502 C40.9699049,6.14963998 40.378646,5.47538164 39.1428595,5.47538164 C38.5768264,5.44911189 38.0275063,5.6704674 37.638914,6.08141558 C37.2503217,6.49236376 37.0612129,7.05191932 37.121166,7.61338406 L37.121166,12.5490143 L35.450204,12.5490143 L35.4502228,4.11225076 Z" id="Shape"></path>
                            <polygon id="Shape" points="45.3034027 0.81877037 46.9743647 0.81877037 46.9743647 12.5489955 45.3034027 12.5489955"></polygon>
                            <path d="M49.2971875,8.32698834 C49.152116,6.8146656 49.8799362,5.35112221 51.1754284,4.55011155 C52.4709206,3.74910089 54.1101215,3.74910089 55.4056138,4.55011155 C56.701106,5.35112221 57.4289261,6.8146656 57.2838547,8.32698834 C57.431612,9.84089136 56.7044377,11.3071948 55.4078286,12.1098821 C54.1112196,12.9125695 52.4698226,12.9125695 51.1732135,12.1098821 C49.8766045,11.3071948 49.1494301,9.84089136 49.2971875,8.32698834 Z M55.5642118,8.32698834 C55.5642118,6.49820757 54.7397399,5.42874733 53.292815,5.42874733 C51.8403621,5.42874733 51.0232986,6.49820757 51.0232986,8.32700708 C51.0232986,10.1704395 51.8404185,11.2316559 53.292815,11.2316559 C54.7397587,11.2316371 55.5642306,10.1630949 55.5642306,8.32698834 L55.5642118,8.32698834 Z" id="Shape"></path>
                            <path d="M59.0429649,10.1630949 C59.0429649,8.64443517 60.1777607,7.76893169 62.1920835,7.64450483 L64.4855361,7.51277086 L64.4855361,6.78455237 C64.4855361,5.89347914 63.8942772,5.39031946 62.7521483,5.39031946 C61.8193526,5.39031946 61.1730011,5.73156121 60.9875287,6.32804573 L59.3698167,6.32804573 C59.5405851,4.87891586 60.9085751,3.9494335 62.8292592,3.9494335 C64.9519434,3.9494335 66.149165,5.00240592 66.149165,6.78455237 L66.149165,12.549033 L64.5406288,12.549033 L64.5406288,11.3633898 L64.4084252,11.3633898 C63.8621028,12.2292373 62.8905637,12.7352765 61.8652506,12.6880366 C61.1464816,12.762535 60.4296285,12.5305791 59.8919104,12.0495127 C59.3541923,11.5684463 59.0457968,10.8831694 59.0429649,10.1630949 Z M64.4855361,9.44218356 L64.4855361,8.73684193 L62.4179446,8.8685759 C61.2519359,8.94633098 60.7231028,9.34155162 60.7231028,10.0853211 C60.7231028,10.8446416 61.3841394,11.2865153 62.2931494,11.2865153 C62.8312637,11.3407938 63.3684459,11.1751383 63.7817235,10.8274711 C64.1950011,10.4798038 64.4489862,9.97989471 64.4855361,9.44218356 Z" id="Shape"></path>
                            <path d="M68.3452747,8.32698834 C68.3452747,5.66111324 69.7206167,3.97229162 71.8598099,3.97229162 C72.9399958,3.92269724 73.9516902,4.49943896 74.4562344,5.45244858 L74.5811049,5.45244858 L74.5811049,0.81877037 L76.2520669,0.81877037 L76.2520669,12.5489955 L74.6508826,12.5489955 L74.6508826,11.2160486 L74.518679,11.2160486 C73.9759961,12.1611513 72.9518375,12.7281441 71.8598287,12.6880366 C69.7059316,12.6881303 68.3452747,10.9992712 68.3452747,8.32698834 Z M70.0713858,8.32698834 C70.0713858,10.1164419 70.9178947,11.193228 72.3336255,11.193228 C73.7419667,11.193228 74.6123742,10.1009096 74.6123742,8.33431418 C74.6123742,6.57596265 73.7328284,5.46807454 72.3336255,5.46807454 C70.9270142,5.46807454 70.0713294,6.55216773 70.0713294,8.32698834 L70.0713858,8.32698834 Z" id="Shape"></path>
                            <path d="M83.1654615,8.32698834 C83.0202785,6.81476453 83.7479838,5.35125818 85.0433799,4.55025987 C86.338776,3.74926156 87.9778927,3.74926156 89.2732888,4.55025987 C90.5686849,5.35125818 91.2963903,6.81476453 91.1512072,8.32698834 C91.2991525,9.84083716 90.5721114,11.307182 89.2755667,12.1099047 C87.979022,12.9126274 86.3376467,12.9126274 85.041102,12.1099047 C83.7445573,11.307182 83.0175162,9.84083716 83.1654615,8.32698834 Z M89.4324857,8.32698834 C89.4324857,6.49820757 88.6080138,5.42874733 87.161089,5.42874733 C85.7086361,5.42874733 84.8915725,6.49820757 84.8915725,8.32700708 C84.8915725,10.1704395 85.7086925,11.2316559 87.161089,11.2316559 C88.6080326,11.2316371 89.4324857,10.1630949 89.4324857,8.32698834 Z" id="Shape"></path>
                            <path d="M93.3932338,4.11225076 L95.00177,4.11225076 L95.00177,5.45250478 L95.1266404,5.45250478 C95.5608661,4.46572337 96.5755261,3.8620995 97.6532872,3.94939602 C98.4877939,3.88687676 99.3055513,4.20587519 99.8756661,4.81632221 C100.445781,5.42676923 100.706385,6.26241999 100.583897,7.08732878 L100.583897,12.5489206 L98.9129347,12.5489206 L98.9129347,7.50544502 C98.9129347,6.14963998 98.3216758,5.47538164 97.0858893,5.47538164 C96.5198562,5.44911189 95.9705361,5.6704674 95.5819438,6.08141558 C95.1933515,6.49236376 95.0042427,7.05191932 95.0641958,7.61338406 L95.0641958,12.5490143 L93.3932338,12.5490143 L93.3932338,4.11225076 Z" id="Shape"></path>
                            <path d="M110.025781,2.01175814 L110.025781,4.15067863 L111.860178,4.15067863 L111.860178,5.55315546 L110.025781,5.55315546 L110.025781,9.89138309 C110.025781,10.7751305 110.391197,11.1621072 111.223002,11.1621072 C111.435956,11.1614281 111.648696,11.1485978 111.860178,11.1236793 L111.860178,12.5105864 C111.560101,12.5640795 111.256069,12.5925385 110.951243,12.5956673 C109.092985,12.5956673 108.352976,11.9442859 108.352976,10.317687 L108.352976,5.55308051 L107.008866,5.55308051 L107.008866,4.15060369 L108.352976,4.15060369 L108.352976,2.01175814 L110.025781,2.01175814 Z" id="Shape"></path>
                            <path d="M114.142593,0.81877037 L115.79887,0.81877037 L115.79887,5.4680558 L115.931074,5.4680558 C116.386157,4.47263818 117.418576,3.86824509 118.512719,3.95672186 C119.342487,3.91173124 120.149175,4.23775255 120.713058,4.8459849 C121.276942,5.45421726 121.539289,6.28130956 121.428644,7.10198046 L121.428644,12.5490143 L119.756008,12.5490143 L119.756008,7.51273339 C119.756008,6.16515352 119.126109,5.48267001 117.945491,5.48267001 C117.364158,5.43516197 116.79142,5.64575138 116.380394,6.05813911 C115.969367,6.47052685 115.761964,7.04266235 115.813631,7.6215905 L115.813631,12.5489768 L114.142669,12.5489768 L114.142593,0.81877037 Z" id="Shape"></path>
                            <path d="M131.171751,10.271034 C130.703195,11.8624453 129.157671,12.8906739 127.502975,12.7118503 C126.373978,12.7415475 125.288949,12.2752428 124.535772,11.4366579 C123.782595,10.598073 123.437413,9.47198519 123.591811,8.3571723 C123.441514,7.23926123 123.785402,6.11136899 124.534385,5.26569952 C125.283368,4.42003006 126.363746,3.93979702 127.495623,3.94941476 C129.851502,3.94941476 131.272742,5.5532304 131.272742,8.202524 L131.272742,8.78351371 L125.293986,8.78351371 L125.293986,8.87681981 C125.241078,9.50287026 125.455655,10.1221147 125.884945,10.5822617 C126.314235,11.0424087 126.918406,11.3007622 127.548873,11.293785 C128.366373,11.3915778 129.162153,10.9875106 129.563215,10.2709778 L131.171751,10.271034 Z M125.293948,7.55209807 L129.57051,7.55209807 C129.613104,6.97952171 129.411058,6.4156468 129.014163,5.99943045 C128.617267,5.5832141 128.062434,5.35336467 127.486391,5.36652453 C126.902544,5.35921539 126.340479,5.58716391 125.927695,5.99866187 C125.51491,6.41015983 125.286395,6.97032843 125.293986,7.55209807 L125.293948,7.55209807 Z" id="Shape"></path>
                        </g>
                    </g>
                </g>
                <g id="Download_on_the_App_Store_Badge_SE_RGB_blk_100317" transform="translate(12.013699, 0.000000)">
                    <path d="M14.9599157,74.79828 C14.3638021,74.79828 13.7820886,74.7906684 13.1906511,74.777397 C11.9654404,74.7614727 10.7430934,74.6550753 9.53363476,74.4590773 C8.40587565,74.2653301 7.3133802,73.904925 6.29218403,73.3897498 C5.28035167,72.8788432 4.35747922,72.2089281 3.5589207,71.4056681 C2.74880323,70.61187 2.07434342,69.6911997 1.56226891,68.6801417 C1.04455178,67.6625126 0.686260718,66.5717369 0.499876652,65.4458114 C0.298598042,64.2359917 0.189697974,63.0126731 0.17411549,61.7864044 C0.161711131,61.3747943 0.145471986,60.0043219 0.145471986,60.0043219 L0.145471986,14.9193342 C0.145471986,14.9193342 0.162767654,13.5699205 0.174213317,13.173475 C0.189133426,11.9491488 0.297400238,10.7277286 0.498076651,9.51978641 C0.684804756,8.39077655 1.04337319,7.29685543 1.56136891,6.27589284 C2.07156141,5.26553319 2.74227676,4.34417538 3.54751417,3.54753653 C4.35184651,2.74332849 5.27767105,2.06996383 6.29122533,1.55199844 C7.3100745,1.03847844 8.40050527,0.680615644 9.52598476,0.490399578 C10.7394154,0.292432758 11.966006,0.185402315 13.1954641,0.17020634 L14.9608744,0.146376282 L216.029957,0.146376282 L217.816459,0.171162665 C219.034734,0.185603559 220.250182,0.291679149 221.452462,0.488486927 C222.589335,0.681088972 223.69113,1.04144877 224.721617,1.55771687 C226.752133,2.60156722 228.404326,4.25303693 229.446621,6.28065495 C229.956349,7.29456942 230.309387,8.3795674 230.493753,9.49882533 C230.696819,10.7166787 230.810469,11.9476973 230.833797,13.1820624 C230.83947,13.7347793 230.83947,14.3284815 230.83947,14.9193342 C230.854927,15.6512156 230.854927,16.3478301 230.854927,17.050163 L230.854927,57.8963083 C230.854927,58.605355 230.854927,59.2972269 230.83947,59.9947587 C230.83947,60.6294462 230.83947,61.2108528 230.83184,61.8092391 C230.809017,63.0215775 230.697262,64.2306233 230.49747,65.4266849 C230.314906,66.5607325 229.958566,67.6600223 229.440947,68.6859968 C228.925253,69.6860808 228.254666,70.5987761 227.453902,71.390445 C226.654625,72.1980217 225.730124,72.8718563 224.715943,73.3860416 C223.688311,73.9051771 222.588138,74.2669151 221.452462,74.4590773 C220.243095,74.6561212 219.02063,74.7625254 217.795328,74.777397 C217.222263,74.7906684 216.622197,74.79828 216.039544,74.79828 L213.918673,74.8021833 L14.9599157,74.79828 Z" id="Shape" fill="#000000" fill-rule="nonzero"></path>
                    <g id="Group" transform="translate(16.046119, 14.052123)" fill="#FFFFFF" fill-rule="nonzero">
                        <path d="M30.8521842,24.0070374 C30.8949479,20.6960627 32.6350524,17.6377293 35.4628492,15.9035293 C33.6708158,13.3505177 30.7768816,11.7898842 27.6540509,11.6924203 C24.3685784,11.3484165 21.183456,13.6535307 19.5092393,13.6535307 C17.8026225,13.6535307 15.2249028,11.7265748 12.4491242,11.7835444 C8.79692341,11.9012474 5.47462113,13.9223858 3.69775115,17.107484 C-0.0861652948,23.6425409 2.73629594,33.2468742 6.36097093,38.529321 C8.17447256,41.1159851 10.2939353,44.0053553 13.0672096,43.9028919 C15.781025,43.7906115 16.7945825,42.1766667 20.0703898,42.1766667 C23.3157927,42.1766667 24.2667218,43.9028919 27.0962656,43.8377447 C30.0083161,43.790592 31.843046,41.2395852 33.5929215,38.6284275 C34.8959194,36.7853349 35.8985742,34.7483162 36.5637459,32.592826 C33.1051143,31.1336131 30.856221,27.75301 30.8521842,24.0070374 Z" id="Shape"></path>
                        <path d="M25.5076859,8.21832561 C27.0954568,6.3169795 27.8776912,3.8731212 27.6882705,1.40573926 C25.2625097,1.65988847 23.0217863,2.81637661 21.4125649,4.64477314 C19.8235327,6.44873205 19.0185327,8.80879324 19.1748694,11.2051434 C21.6331567,11.2303919 23.9672487,10.1295377 25.5076859,8.21832561 Z" id="Shape"></path>
                        <path d="M65.1566737,37.354544 L55.8956654,37.354544 L53.671646,43.905273 L49.7490512,43.905273 L58.5209286,19.6692641 L62.5963671,19.6692641 L71.3682445,43.905273 L67.3787561,43.905273 L65.1566737,37.354544 Z M56.8548119,34.3317177 L64.1956881,34.3317177 L60.5768826,23.7003693 L60.475613,23.7003693 L56.8548119,34.3317177 Z" id="Shape"></path>
                        <path d="M90.312518,35.0712302 C90.312518,40.5622534 87.3662676,44.0901364 82.9201462,44.0901364 C80.6219849,44.2100569 78.4572425,43.0093148 77.3467347,40.9986694 L77.2626042,40.9986694 L77.2626042,49.750761 L73.6266009,49.750761 L73.6266009,26.2352747 L77.1461127,26.2352747 L77.1461127,29.1742372 L77.2129867,29.1742372 C78.3728301,27.1761969 80.5399067,25.9759717 82.8532722,26.0503917 C87.3489915,26.0504112 90.312518,29.5954496 90.312518,35.0712302 Z M86.5752451,35.0712302 C86.5752451,31.4937938 84.7218891,29.1418392 81.8941061,29.1418392 C79.1159993,29.1418392 77.2473628,31.5433276 77.2473628,35.0712302 C77.2473628,38.6315307 79.1159993,41.0158637 81.8941061,41.0158637 C84.7219087,41.0158637 86.5752451,38.6810839 86.5752451,35.0712302 Z" id="Shape"></path>
                        <path d="M109.808962,35.0712302 C109.808962,40.5622534 106.862711,44.0901364 102.41659,44.0901364 C100.118428,44.2100569 97.9536861,43.0093148 96.8431783,40.9986694 L96.7590477,40.9986694 L96.7590477,49.750761 L93.1230445,49.750761 L93.1230445,26.2352747 L96.6424781,26.2352747 L96.6424781,29.1742372 L96.709352,29.1742372 C97.8692039,27.1761981 100.036289,25.97598 102.349657,26.0504112 C106.845513,26.0504112 109.808962,29.5954496 109.808962,35.0712302 Z M106.071689,35.0712302 C106.071689,31.4937938 104.218333,29.1418392 101.39055,29.1418392 C98.6124429,29.1418392 96.7438064,31.5433276 96.7438064,35.0712302 C96.7438064,38.6315307 98.6124429,41.0158637 101.39055,41.0158637 C104.218352,41.0158637 106.071708,38.6810839 106.071708,35.0712302 L106.071689,35.0712302 Z" id="Shape"></path>
                        <path d="M122.694508,37.1525057 C122.963921,39.5559067 125.30451,41.1339406 128.502937,41.1339406 C131.567655,41.1339406 133.772559,39.5558286 133.772559,37.388757 C133.772559,35.5075876 132.44273,34.3812124 129.29396,33.6092824 L126.145189,32.8526146 C121.683788,31.7776662 119.612612,29.6963712 119.612612,26.319041 C119.612612,22.1374024 123.265813,19.2651484 128.453261,19.2651484 C133.587179,19.2651484 137.106671,22.1374024 137.225138,26.319041 L133.5547,26.319041 C133.334983,23.9003974 131.330681,22.4404598 128.401628,22.4404598 C125.472576,22.4404598 123.468293,23.9175722 123.468293,26.0674689 C123.468293,27.7809106 124.748447,28.7891505 127.880019,29.5609829 L130.556856,30.2166315 C135.541785,31.392599 137.612961,33.3900693 137.612961,36.9350686 C137.612961,41.4692984 133.992238,44.3091544 128.233485,44.3091544 C122.845395,44.3091544 119.207494,41.5360069 118.972476,37.1523301 L122.694508,37.1525057 Z" id="Shape"></path>
                        <path d="M145.460107,22.0536361 L145.460107,26.2352747 L148.828614,26.2352747 L148.828614,29.1075286 L145.460107,29.1075286 L145.460107,38.8487921 C145.460107,40.3621082 146.134579,41.0673101 147.615335,41.0673101 C148.015231,41.0603542 148.414481,41.0323411 148.811416,40.9833877 L148.811416,43.8384863 C148.145667,43.9625735 147.468988,44.0187721 146.791834,44.006214 C143.205526,44.006214 141.806906,42.6625188 141.806906,39.2356354 L141.806906,29.1075286 L139.231338,29.1075286 L139.231338,26.2352747 L141.806866,26.2352747 L141.806866,22.0536361 L145.460107,22.0536361 Z" id="Shape"></path>
                        <path d="M150.779483,35.0712302 C150.779483,29.5116053 154.062001,26.0180133 159.180697,26.0180133 C164.316571,26.0180133 167.583809,29.5115272 167.583809,35.0712302 C167.583809,40.6461172 164.333769,44.124447 159.180697,44.124447 C154.029445,44.124447 150.779483,40.6460977 150.779483,35.0712302 Z M163.879015,35.0712302 C163.879015,31.2574449 162.126928,29.006529 159.180678,29.006529 C156.234427,29.006529 154.484258,31.2746002 154.484258,35.0712302 C154.484258,38.900258 156.234427,41.1340382 159.180678,41.1340382 C162.126928,41.1340382 163.878936,38.900258 163.878936,35.0712302 L163.879015,35.0712302 Z" id="Shape"></path>
                        <path d="M170.581575,26.2352747 L174.049435,26.2352747 L174.049435,29.2428194 L174.133565,29.2428194 C174.617171,27.3067264 176.395566,25.97424 178.394345,26.0503722 C178.813362,26.0489128 179.231223,26.094306 179.640103,26.1857019 L179.640103,29.5782748 C179.111119,29.4170331 178.559299,29.3430018 178.006405,29.3591007 C176.937455,29.3158425 175.902949,29.7408007 175.174517,30.5223939 C174.446084,31.3039871 174.096502,32.3641291 174.217559,33.4244579 L174.217559,43.9052339 L170.581555,43.9052339 L170.581575,26.2352747 Z" id="Shape"></path>
                        <path d="M196.404242,38.715375 C195.915111,41.9230649 192.783519,44.1244275 188.776852,44.1244275 C183.62378,44.1244275 180.425334,40.6803888 180.425334,35.1550745 C180.425334,29.6126049 183.640978,26.0179937 188.624008,26.0179937 C193.524865,26.0179937 196.606781,29.376256 196.606781,34.7338621 L196.606781,35.9765382 L184.095733,35.9765382 L184.095733,36.1957123 C183.978923,37.5112088 184.434293,38.813368 185.34601,39.7709626 C186.257727,40.7285571 187.537918,41.2492915 188.860943,41.2007077 C190.625419,41.3656242 192.288974,40.3549214 192.951682,38.7153555 L196.404242,38.715375 Z M184.112896,33.4416523 L192.96886,33.4416328 C193.034845,32.2595711 192.603492,31.1036387 191.778727,30.2523308 C190.953961,29.4010229 189.810563,28.9315266 188.624008,28.9569562 C187.428067,28.9498369 186.278823,29.4195534 185.431716,30.2617022 C184.58461,31.103851 184.109832,32.2486522 184.112896,33.4416523 Z" id="Shape"></path>
                        <polygon id="Shape" points="59.9911778 13.0718899 59.9911778 7.96302586 53.9955093 7.96302586 53.9955093 13.0719094 52.1822816 13.0719094 52.1822816 1.42668083 53.9955093 1.42668083 53.9955093 6.31732708 59.9911778 6.31732708 59.9911778 1.42668083 61.7948381 1.42668083 61.7948381 13.0719875"></polygon>
                        <path d="M64.2653403,10.5865572 C64.2653403,9.00461997 65.4461414,8.09263718 67.5421259,7.96302586 L69.9285563,7.82580298 L69.9285563,7.06724205 C69.9285563,6.13904077 69.3133275,5.6149161 68.1248959,5.6149161 C67.1542842,5.6149161 66.4817293,5.97037626 66.2887378,6.5917143 L64.6054428,6.5917143 C64.7831343,5.08220402 66.2065834,4.11399322 68.205133,4.11399322 C70.4138719,4.11399322 71.6596296,5.2108395 71.6596296,7.06724205 L71.6596296,13.0719094 L69.9858824,13.0719094 L69.9858824,11.8368644 L69.8483192,11.8368644 C69.2798486,12.7387889 68.2689228,13.2659131 67.2020429,13.2167048 C66.4541347,13.2943073 65.7082199,13.0526866 65.1487025,12.5515758 C64.589185,12.0504649 64.268287,11.3366348 64.2653403,10.5865572 Z M65.3983631,1.99934387 C65.4009984,1.40573304 65.884708,0.926202099 66.4797958,0.927253404 C67.0748835,0.928304709 67.5568873,1.40954172 67.5574149,2.00315814 C67.5579424,2.59677456 67.0767946,3.07886326 66.4817097,3.08096701 C66.1930863,3.08470274 65.9152021,2.97191233 65.7111894,2.76822059 C65.5071768,2.56452886 65.3943576,2.28723034 65.3983631,1.99932436 L65.3983631,1.99934387 Z M69.9285563,9.83562739 L69.9285563,9.10089653 L67.7771435,9.23811941 C66.5638641,9.31911429 66.0135919,9.73080246 66.0135919,10.5055624 C66.0135919,11.2965212 66.7014273,11.7568063 67.647289,11.7568063 C68.2072219,11.8133463 68.7661846,11.6407859 69.1962173,11.2786284 C69.6262501,10.9164708 69.8905296,10.3957272 69.9285563,9.83560788 L69.9285563,9.83562739 Z M68.8528596,1.99934387 C68.8488098,1.61194269 69.053677,1.25222797 69.3893494,1.05735179 C69.7250219,0.862475602 70.1397602,0.862475602 70.4754326,1.05735179 C70.8111051,1.25222797 71.0159723,1.61194269 71.0119225,1.99934387 C71.0119225,2.5940778 70.5285998,3.0762049 69.932391,3.0762049 C69.3361823,3.0762049 68.8528596,2.5940778 68.8528596,1.99934387 Z" id="Shape"></path>
                        <path d="M74.3823277,4.28359454 L76.0560748,4.28359454 L76.0560748,5.69589146 L76.1860075,5.69589146 C76.6140031,4.73398177 77.5699611,4.11392639 78.6249706,4.11392639 C79.6799801,4.11392639 80.6359381,4.73398177 81.0639337,5.69589146 L81.2014968,5.69589146 C81.7038849,4.68807958 82.7528399,4.06861969 83.8802514,4.11395419 C84.6620641,4.05008859 85.4313936,4.33925791 85.9765523,4.90189472 C86.521711,5.46453152 86.7852562,6.24135157 86.6946713,7.01860609 L86.6946713,13.0718704 L84.9559676,13.0718704 L84.9559676,7.47129914 C84.9559676,6.28485107 84.3885758,5.70354206 83.2479226,5.70354206 C82.7511454,5.68227299 82.2680166,5.86881826 81.91506,6.21818578 C81.5621033,6.56755329 81.3713598,7.04802799 81.3888339,7.54372612 L81.3888339,13.0719094 L79.6807889,13.0719094 L79.6807889,7.30165879 C79.7029559,6.85416251 79.5275593,6.41942666 79.2008163,6.11200446 C78.8740734,5.80458225 78.4287588,5.65531055 77.9822135,5.70352254 C77.4670891,5.7119672 76.9776158,5.92926792 76.626526,6.30537741 C76.2754363,6.68148691 76.0929972,7.18398099 76.121227,7.69712847 L76.121227,13.0718899 L74.3823277,13.0719094 L74.3823277,4.28359454 Z" id="Shape"></path>
                        <path d="M91.7369258,2.0955814 L91.7369258,4.32362358 L93.6456906,4.32362358 L93.6456906,5.78453694 L91.7369258,5.78453694 L91.7369258,10.3035241 C91.7369258,11.2240943 92.1171566,11.627195 92.9826835,11.627195 C93.2042707,11.6264876 93.4256354,11.6131227 93.6456906,11.587166 L93.6456906,13.0318608 C93.3334481,13.0875828 93.0170902,13.1172276 92.6999071,13.1204868 C90.7663141,13.1204868 89.9963047,12.4419644 89.9963047,10.7475907 L89.9963047,5.78445887 L88.5977035,5.78445887 L88.5977035,4.32354551 L89.9963047,4.32354551 L89.9963047,2.0955814 L91.7369258,2.0955814 Z" id="Shape"></path>
                        <path d="M95.4378857,10.5865572 C95.4378857,9.00461997 96.6186867,8.09263718 98.7146712,7.96302586 L101.101102,7.82580298 L101.101102,7.06724205 C101.101102,6.13904077 100.485873,5.6149161 99.2974413,5.6149161 C98.3268296,5.6149161 97.6542746,5.97037626 97.4612832,6.5917143 L95.7779882,6.5917143 C95.9556796,5.08220402 97.3791287,4.11399322 99.3776784,4.11399322 C101.586417,4.11399322 102.832175,5.2108395 102.832175,7.06724205 L102.832175,13.0719094 L101.158428,13.0719094 L101.158428,11.8368644 L101.020865,11.8368644 C100.452394,12.7387889 99.4414682,13.2659131 98.3745883,13.2167048 C97.6266801,13.2943073 96.8807653,13.0526866 96.3212478,12.5515758 C95.7617304,12.0504649 95.4408324,11.3366348 95.4378857,10.5865572 Z M101.101102,9.83560788 L101.101102,9.10087701 L98.9496888,9.23809989 C97.7364095,9.31909477 97.1861373,9.73078294 97.1861373,10.5055428 C97.1861373,11.2965017 97.8739727,11.7567868 98.8198344,11.7567868 C99.3797641,11.8133268 99.938724,11.6407691 100.368756,11.2786157 C100.798788,10.9164623 101.06307,10.3957237 101.101102,9.83560788 Z" id="Shape"></path>
                        <path d="M110.107038,1.68484955 C110.079601,1.22520093 110.336079,0.795375146 110.754202,0.600279572 C111.172326,0.405183997 111.667459,0.484310153 112.00356,0.79993687 C112.339661,1.11556359 112.448696,1.60380125 112.278686,2.03189628 C112.108676,2.45999131 111.694035,2.7412881 111.23243,2.74168631 C110.941069,2.75650659 110.656258,2.65210974 110.443837,2.45262963 C110.231417,2.25314953 110.109778,1.97585504 110.107038,1.68484955 Z M110.364986,4.28359454 L112.097957,4.28359454 L112.097957,13.0718899 L110.364986,13.0718899 L110.364986,4.28359454 Z" id="Shape"></path>
                    </g>
                </g>
            </g>
        </g>
    </g>
</svg>