<?xml version="1.0" encoding="UTF-8"?>
<svg width="231px" height="75px" viewBox="0 0 231 75" version="1.1" xmlns="http://www.w3.org/2000/svg" xmlns:xlink="http://www.w3.org/1999/xlink">
    <!-- Generator: Sketch 50.2 (55047) - http://www.bohemiancoding.com/sketch -->
    <title>app_store</title>
    <desc>Created with Sketch.</desc>
    <defs></defs>
    <g id="2.0-app" stroke="none" stroke-width="1" fill="none" fill-rule="evenodd">
        <g id="iphone-assets-se" transform="translate(-29.000000, -556.000000)">
            <g id="Download_on_the_App_Store_Badge_US-UK_135x40" transform="translate(17.000000, 556.000000)">
                <g id="Group-2" transform="translate(12.013699, 0.000000)">
                    <path d="M14.9599157,74.79828 C14.3638021,74.79828 13.7820886,74.7906684 13.1906511,74.777397 C11.9654404,74.7614727 10.7430934,74.6550753 9.53363476,74.4590773 C8.40587565,74.2653301 7.3133802,73.904925 6.29218403,73.3897498 C5.28035167,72.8788432 4.35747922,72.2089281 3.5589207,71.4056681 C2.74880323,70.61187 2.07434342,69.6911997 1.56226891,68.6801417 C1.04455178,67.6625126 0.686260718,66.5717369 0.499876652,65.4458114 C0.298598042,64.2359917 0.189697974,63.0126731 0.17411549,61.7864044 C0.161711131,61.3747943 0.145471986,60.0043219 0.145471986,60.0043219 L0.145471986,14.9193342 C0.145471986,14.9193342 0.162767654,13.5699205 0.174213317,13.173475 C0.189133426,11.9491488 0.297400238,10.7277286 0.498076651,9.51978641 C0.684804756,8.39077655 1.04337319,7.29685543 1.56136891,6.27589284 C2.07156141,5.26553319 2.74227676,4.34417538 3.54751417,3.54753653 C4.35184651,2.74332849 5.27767105,2.06996383 6.29122533,1.55199844 C7.3100745,1.03847844 8.40050527,0.680615644 9.52598476,0.490399578 C10.7394154,0.292432758 11.966006,0.185402315 13.1954641,0.17020634 L14.9608744,0.146376282 L216.029957,0.146376282 L217.816459,0.171162665 C219.034734,0.185603559 220.250182,0.291679149 221.452462,0.488486927 C222.589335,0.681088972 223.69113,1.04144877 224.721617,1.55771687 C226.752133,2.60156722 228.404326,4.25303693 229.446621,6.28065495 C229.956349,7.29456942 230.309387,8.3795674 230.493753,9.49882533 C230.696819,10.7166787 230.810469,11.9476973 230.833797,13.1820624 C230.83947,13.7347793 230.83947,14.3284815 230.83947,14.9193342 C230.854927,15.6512156 230.854927,16.3478301 230.854927,17.050163 L230.854927,57.8963083 C230.854927,58.605355 230.854927,59.2972269 230.83947,59.9947587 C230.83947,60.6294462 230.83947,61.2108528 230.83184,61.8092391 C230.809017,63.0215775 230.697262,64.2306233 230.49747,65.4266849 C230.314906,66.5607325 229.958566,67.6600223 229.440947,68.6859968 C228.925253,69.6860808 228.254666,70.5987761 227.453902,71.390445 C226.654625,72.1980217 225.730124,72.8718563 224.715943,73.3860416 C223.688311,73.9051771 222.588138,74.2669151 221.452462,74.4590773 C220.243095,74.6561212 219.02063,74.7625254 217.795328,74.777397 C217.222263,74.7906684 216.622197,74.79828 216.039544,74.79828 L213.918673,74.8021833 L14.9599157,74.79828 Z" id="Shape" fill="#000000" fill-rule="nonzero"></path>
                    <g id="_Group_" transform="translate(16.046119, 14.052123)" fill="#FFFFFF" fill-rule="nonzero">
                        <g id="_Group_2">
                            <g id="_Group_3">
                                <path d="M30.8521842,24.0070374 C30.8949479,20.6960627 32.6350524,17.6377293 35.4628492,15.9035293 C33.6708158,13.3505177 30.7768816,11.7898842 27.6540509,11.6924203 C24.3685784,11.3484165 21.183456,13.6535307 19.5092393,13.6535307 C17.8026225,13.6535307 15.2249028,11.7265748 12.4491242,11.7835444 C8.79692341,11.9012474 5.47462113,13.9223858 3.69775115,17.107484 C-0.0861652948,23.6425409 2.73629594,33.2468742 6.36097093,38.529321 C8.17447256,41.1159851 10.2939353,44.0053553 13.0672096,43.9028919 C15.781025,43.7906115 16.7945825,42.1766667 20.0703898,42.1766667 C23.3157927,42.1766667 24.2667218,43.9028919 27.0962656,43.8377447 C30.0083161,43.790592 31.843046,41.2395852 33.5929215,38.6284275 C34.8959194,36.7853349 35.8985742,34.7483162 36.5637459,32.592826 C33.1051143,31.1336131 30.856221,27.75301 30.8521842,24.0070374 Z" id="_Path_"></path>
                                <path d="M25.5076859,8.21832561 C27.0954568,6.3169795 27.8776912,3.8731212 27.6882705,1.40573926 C25.2625097,1.65988847 23.0217863,2.81637661 21.4125649,4.64477314 C19.8235327,6.44873205 19.0185327,8.80879324 19.1748694,11.2051434 C21.6331567,11.2303919 23.9672487,10.1295377 25.5076859,8.21832561 Z" id="_Path_2"></path>
                            </g>
                        </g>
                        <g id="Group" transform="translate(48.913087, 17.565154)">
                            <path d="M16.2435863,19.7893902 L6.98257801,19.7893902 L4.75855862,26.3401191 L0.835963794,26.3401191 L9.60784124,2.10411026 L13.6832797,2.10411026 L22.4551571,26.3401191 L18.4656688,26.3401191 L16.2435863,19.7893902 Z M7.94172452,16.7665638 L15.2826007,16.7665638 L11.6637953,6.13521547 L11.5625256,6.13521547 L7.94172452,16.7665638 Z" id="Shape"></path>
                            <path d="M41.3994306,17.5060763 C41.3994306,22.9970996 38.4531802,26.5249826 34.0070588,26.5249826 C31.7088975,26.6449031 29.5441551,25.444161 28.4336473,23.4335156 L28.3495168,23.4335156 L28.3495168,32.1856072 L24.7135135,32.1856072 L24.7135135,8.67012089 L28.2330253,8.67012089 L28.2330253,11.6090834 L28.2998993,11.6090834 C29.4597427,9.61104308 31.6268193,8.41081791 33.9401848,8.48523788 C38.4359041,8.4852574 41.3994306,12.0302958 41.3994306,17.5060763 Z M37.6621577,17.5060763 C37.6621577,13.92864 35.8088017,11.5766854 32.9810187,11.5766854 C30.2029119,11.5766854 28.3342754,13.9781738 28.3342754,17.5060763 C28.3342754,21.0663769 30.2029119,23.4507099 32.9810187,23.4507099 C35.8088213,23.4507099 37.6621577,21.1159301 37.6621577,17.5060763 Z" id="Shape"></path>
                            <path d="M60.8958742,17.5060763 C60.8958742,22.9970996 57.9496238,26.5249826 53.5035024,26.5249826 C51.2053411,26.6449031 49.0405987,25.444161 47.9300909,23.4335156 L47.8459603,23.4335156 L47.8459603,32.1856072 L44.2099571,32.1856072 L44.2099571,8.67012089 L47.7293907,8.67012089 L47.7293907,11.6090834 L47.7962647,11.6090834 C48.9561165,9.61104429 51.1232014,8.41082618 53.4365697,8.4852574 C57.9324259,8.4852574 60.8958742,12.0302958 60.8958742,17.5060763 Z M57.1586013,17.5060763 C57.1586013,13.92864 55.3052453,11.5766854 52.4774623,11.5766854 C49.6993555,11.5766854 47.830719,13.9781738 47.830719,17.5060763 C47.830719,21.0663769 49.6993555,23.4507099 52.4774623,23.4507099 C55.3052649,23.4507099 57.1586209,21.1159301 57.1586209,17.5060763 L57.1586013,17.5060763 Z" id="Shape"></path>
                            <path d="M73.7814206,19.5873519 C74.0508339,21.9907529 76.3914229,23.5687868 79.5898497,23.5687868 C82.6545677,23.5687868 84.8594718,21.9906748 84.8594718,19.8236032 C84.8594718,17.9424338 83.5296424,16.8160586 80.3808722,16.0441286 L77.232102,15.2874608 C72.7707001,14.2125124 70.6995243,12.1312173 70.6995243,8.75388715 C70.6995243,4.57224857 74.3527255,1.69999462 79.5401736,1.69999462 C84.6740912,1.69999462 88.1935835,4.57224857 88.312051,8.75388715 L84.641613,8.75388715 C84.4218954,6.33524354 82.4175936,4.87530602 79.4885409,4.87530602 C76.5594883,4.87530602 74.5552061,6.35241836 74.5552061,8.50231512 C74.5552061,10.2157568 75.8353594,11.2239967 78.9669318,11.995829 L81.643769,12.6514777 C86.6286973,13.8274452 88.6998731,15.8249155 88.6998731,19.3699148 C88.6998731,23.9041446 85.0791503,26.7440006 79.3203973,26.7440006 C73.9323077,26.7440006 70.2944066,23.9708531 70.059389,19.5871762 L73.7814206,19.5873519 Z" id="Shape"></path>
                            <path d="M96.5470193,4.4884823 L96.5470193,8.67012089 L99.9155267,8.67012089 L99.9155267,11.5423748 L96.5470193,11.5423748 L96.5470193,21.2836383 C96.5470193,22.7969544 97.2214916,23.5021563 98.7022473,23.5021563 C99.102144,23.4952004 99.5013935,23.4671873 99.8983288,23.4182339 L99.8983288,26.2733325 C99.2325793,26.3974197 98.5559009,26.4536183 97.8787466,26.4410602 C94.292439,26.4410602 92.8938182,25.097365 92.8938182,21.6704816 L92.8938182,11.5423748 L90.3182507,11.5423748 L90.3182507,8.67012089 L92.8937791,8.67012089 L92.8937791,4.4884823 L96.5470193,4.4884823 Z" id="Shape"></path>
                            <path d="M101.866396,17.5060763 C101.866396,11.9464514 105.148914,8.45285945 110.26761,8.45285945 C115.403484,8.45285945 118.670722,11.9463734 118.670722,17.5060763 C118.670722,23.0809634 115.420682,26.5592932 110.26761,26.5592932 C105.116357,26.5592932 101.866396,23.0809439 101.866396,17.5060763 Z M114.965927,17.5060763 C114.965927,13.6922911 113.213841,11.4413752 110.26759,11.4413752 C107.32134,11.4413752 105.571171,13.7094464 105.571171,17.5060763 C105.571171,21.3351042 107.32134,23.5688843 110.26759,23.5688843 C113.213841,23.5688843 114.965849,21.3351042 114.965849,17.5060763 L114.965927,17.5060763 Z" id="Shape"></path>
                            <path d="M121.668488,8.67012089 L125.136347,8.67012089 L125.136347,11.6776656 L125.220478,11.6776656 C125.704083,9.74157264 127.482478,8.40908622 129.481258,8.48521837 C129.900275,8.48375896 130.318135,8.52915223 130.727015,8.62054812 L130.727015,12.013121 C130.198032,11.8518793 129.646211,11.777848 129.093318,11.7939469 C128.024368,11.7506887 126.989861,12.1756469 126.261429,12.9572401 C125.532997,13.7388333 125.183414,14.7989753 125.304471,15.8593041 L125.304471,26.3400801 L121.668468,26.3400801 L121.668488,8.67012089 Z" id="Shape"></path>
                            <path d="M147.491154,21.1502212 C147.002023,24.3579111 143.870431,26.5592737 139.863765,26.5592737 C134.710693,26.5592737 131.512246,23.115235 131.512246,17.5899207 C131.512246,12.0474511 134.727891,8.45283993 139.710921,8.45283993 C144.611778,8.45283993 147.693693,11.8111022 147.693693,17.1687083 L147.693693,18.4113844 L135.182645,18.4113844 L135.182645,18.6305585 C135.065836,19.946055 135.521205,21.2482142 136.432922,22.2058088 C137.344639,23.1634033 138.62483,23.6841377 139.947856,23.6355539 C141.712332,23.8004704 143.375887,22.7897676 144.038595,21.1502017 L147.491154,21.1502212 Z M135.199809,15.8764985 L144.055773,15.876479 C144.121757,14.6944173 143.690405,13.5384849 142.865639,12.687177 C142.040874,11.8358691 140.897476,11.3663728 139.710921,11.3918024 C138.51498,11.3846831 137.365736,11.8543996 136.518629,12.6965484 C135.671522,13.5386972 135.196745,14.6834984 135.199809,15.8764985 Z" id="Shape"></path>
                        </g>
                    </g>
                    <g id="Group" transform="translate(66.915730, 14.052123)" fill="#FFFFFF" fill-rule="nonzero">
                        <path d="M5.52950714,1.42668083 C7.07309961,1.31618465 8.58501431,1.90200839 9.64910684,3.02290797 C10.7131994,4.14380755 11.2173085,5.681634 11.0226816,7.2131109 C11.0226816,10.9335081 9.00693417,13.0720655 5.52950714,13.0720655 L1.31267074,13.0720655 L1.31267074,1.42668083 L5.52950714,1.42668083 Z M3.12587889,11.4251567 L5.32696783,11.4251567 C6.43009871,11.4909324 7.5042195,11.0573795 8.25108711,10.2448795 C8.99795472,9.43237942 9.33805545,8.32743335 9.17695607,7.23684337 C9.32633471,6.15077924 8.98133616,5.05495113 8.23632037,4.24907703 C7.49130458,3.44320293 6.42423642,3.01161646 5.32696783,3.07236009 L3.12587889,3.07236009 L3.12587889,11.4251567 Z" id="Shape"></path>
                        <path d="M13.0709074,8.67394619 C12.9198386,7.09871305 13.6770455,5.57422727 15.0249577,4.73985403 C16.3728699,3.9054808 18.0784372,3.9054808 19.4263493,4.73985403 C20.7742615,5.57422727 21.5314684,7.09871305 21.3803996,8.67394619 C21.5343427,10.250872 20.7778269,11.7783146 19.4287196,12.6144841 C18.0796123,13.4506536 16.3716947,13.4506536 15.0225874,12.6144841 C13.6734801,11.7783146 12.9169643,10.250872 13.0709074,8.67394619 Z M19.5920002,8.67394619 C19.5920002,6.76896622 18.7341038,5.65494513 17.2285198,5.65494513 C15.7171837,5.65494513 14.866996,6.76896622 14.866996,8.6739657 C14.866996,10.5942078 15.7172424,11.6996415 17.2285198,11.6996415 C18.7341429,11.699622 19.5920198,10.5865572 19.5920198,8.67394619 L19.5920002,8.67394619 Z" id="Shape"></path>
                        <polygon id="Shape" points="32.4259726 13.0718899 30.6223123 13.0718899 28.8014541 6.59930635 28.663891 6.59930635 26.8506632 13.0718899 25.0641812 13.0718899 22.6357247 4.28359454 24.3992763 4.28359454 25.9774864 10.9895799 26.1074191 10.9895799 27.9187294 4.28359454 29.586744 4.28359454 31.3980543 10.9895799 31.5356174 10.9895799 33.1061776 4.28359454 34.8448813 4.28359454"></polygon>
                        <path d="M36.887394,4.28359454 L38.5611216,4.28359454 L38.5611216,5.67969248 L38.6910543,5.67969248 C39.1428838,4.65179518 40.1986786,4.02302031 41.3201328,4.11395419 C42.1884707,4.04882996 43.0393806,4.38111999 43.6326081,5.0170023 C44.2258356,5.65288462 44.4970047,6.52335416 44.3695507,7.38263415 L44.3695507,13.0717923 L42.630847,13.0717923 L42.630847,7.81817189 C42.630847,6.40587498 42.0156182,5.70352254 40.7297322,5.70352254 C40.1407518,5.67615822 39.569162,5.90673687 39.1648159,6.33480789 C38.7604699,6.76287891 38.5636945,7.3457493 38.6260782,7.93060839 L38.6260782,13.0718899 L36.8873744,13.0718899 L36.887394,4.28359454 Z" id="Shape"></path>
                        <polygon id="Shape" points="47.1400271 0.852885802 48.8787308 0.852885802 48.8787308 13.0718704 47.1400271 13.0718704"></polygon>
                        <path d="M51.2957221,8.67394619 C51.1447694,7.09861 51.9020957,5.57408563 53.2501079,4.73969953 C54.5981201,3.90531342 56.3037751,3.90531342 57.6517873,4.73969953 C58.9997995,5.57408563 59.7571259,7.09861 59.6061731,8.67394619 C59.7599206,10.2509285 59.0032662,11.7783279 57.654092,12.6144606 C56.3049177,13.4505932 54.5969775,13.4505932 53.2478033,12.6144606 C51.898629,11.7783279 51.1419746,10.2509285 51.2957221,8.67394619 Z M57.816815,8.67394619 C57.816815,6.76896622 56.9589185,5.65494513 55.4533346,5.65494513 C53.9419984,5.65494513 53.0918107,6.76896622 53.0918107,8.6739657 C53.0918107,10.5942078 53.9420571,11.6996415 55.4533346,11.6996415 C56.9589381,11.699622 57.8168345,10.5865572 57.8168345,8.67394619 L57.816815,8.67394619 Z" id="Shape"></path>
                        <path d="M61.4365986,10.5865572 C61.4365986,9.00461997 62.6173997,8.09263718 64.7133842,7.96302586 L67.0998146,7.82580298 L67.0998146,7.06724205 C67.0998146,6.13904077 66.4845858,5.6149161 65.2961543,5.6149161 C64.3255425,5.6149161 63.6529876,5.97037626 63.4599961,6.5917143 L61.7767011,6.5917143 C61.9543926,5.08220402 63.3778417,4.11399322 65.3763913,4.11399322 C67.5851302,4.11399322 68.8308879,5.2108395 68.8308879,7.06724205 L68.8308879,13.0719094 L67.1571407,13.0719094 L67.1571407,11.8368644 L67.0195776,11.8368644 C66.4511069,12.7387889 65.4401811,13.2659131 64.3733013,13.2167048 C63.625393,13.2943073 62.8794783,13.0526866 62.3199608,12.5515758 C61.7604433,12.0504649 61.4395453,11.3366348 61.4365986,10.5865572 Z M67.0998146,9.83560788 L67.0998146,9.10087701 L64.9484018,9.23809989 C63.7351224,9.31909477 63.1848502,9.73078294 63.1848502,10.5055428 C63.1848502,11.2965017 63.8726856,11.7567868 64.8185473,11.7567868 C65.3784771,11.8133268 65.9374369,11.6407691 66.367469,11.2786157 C66.7975012,10.9164623 67.0617829,10.3957237 67.0998146,9.83560788 Z" id="Shape"></path>
                        <path d="M71.1160291,8.67394619 C71.1160291,5.89699295 72.5471282,4.13780377 74.7730454,4.13780377 C75.8970227,4.08614296 76.9497317,4.68691559 77.4747304,5.67963393 L77.6046632,5.67963393 L77.6046632,0.852885802 L79.3433669,0.852885802 L79.3433669,13.0718704 L77.6772697,13.0718704 L77.6772697,11.683384 L77.5397066,11.683384 C76.9750229,12.6678659 75.9093444,13.2584835 74.773065,13.2167048 C72.5318477,13.2168024 71.1160291,11.4575742 71.1160291,8.67394619 Z M72.9121176,8.67394619 C72.9121176,10.5379603 73.7929445,11.6596125 75.2660698,11.6596125 C76.7315058,11.6596125 77.6372001,10.5217809 77.6372001,8.68157727 C77.6372001,6.8499611 76.7219971,5.69591098 75.2660698,5.69591098 C73.8024337,5.69591098 72.9120589,6.82517471 72.9120589,8.67394619 L72.9121176,8.67394619 Z" id="Shape"></path>
                        <path d="M86.5370342,8.67394619 C86.3859654,7.09871305 87.1431724,5.57422727 88.4910845,4.73985403 C89.8389967,3.9054808 91.544564,3.9054808 92.8924762,4.73985403 C94.2403883,5.57422727 94.9975953,7.09871305 94.8465265,8.67394619 C95.0004695,10.250872 94.2439537,11.7783146 92.8948464,12.6144841 C91.5457391,13.4506536 89.8378216,13.4506536 88.4887143,12.6144841 C87.139607,11.7783146 86.3830912,10.250872 86.5370342,8.67394619 Z M93.058127,8.67394619 C93.058127,6.76896622 92.2002306,5.65494513 90.6946466,5.65494513 C89.1833105,5.65494513 88.3331228,6.76896622 88.3331228,8.6739657 C88.3331228,10.5942078 89.1833692,11.6996415 90.6946466,11.6996415 C92.2002502,11.699622 93.058127,10.5865572 93.058127,8.67394619 Z" id="Shape"></path>
                        <path d="M97.1794459,4.28359454 L98.8531931,4.28359454 L98.8531931,5.67969248 L98.9831258,5.67969248 C99.4349553,4.65179518 100.49075,4.02302031 101.612204,4.11395419 C102.480542,4.04882996 103.331452,4.38111999 103.92468,5.0170023 C104.517907,5.65288462 104.789076,6.52335416 104.661622,7.38263415 L104.661622,13.0717923 L102.922918,13.0717923 L102.922918,7.81817189 C102.922918,6.40587498 102.30769,5.70352254 101.021804,5.70352254 C100.432823,5.67615822 99.8612335,5.90673687 99.4568874,6.33480789 C99.0525414,6.76287891 98.855766,7.3457493 98.9181497,7.93060839 L98.9181497,13.0718899 L97.1794459,13.0718899 L97.1794459,4.28359454 Z" id="Shape"></path>
                        <path d="M114.486285,2.0955814 L114.486285,4.32362358 L116.39505,4.32362358 L116.39505,5.78453694 L114.486285,5.78453694 L114.486285,10.3035241 C114.486285,11.2240943 114.866516,11.627195 115.732043,11.627195 C115.95363,11.6264876 116.174995,11.6131227 116.39505,11.587166 L116.39505,13.0318608 C116.082808,13.0875828 115.76645,13.1172276 115.449267,13.1204868 C113.515674,13.1204868 112.745664,12.4419644 112.745664,10.7475907 L112.745664,5.78445887 L111.347063,5.78445887 L111.347063,4.32354551 L112.745664,4.32354551 L112.745664,2.0955814 L114.486285,2.0955814 Z" id="Shape"></path>
                        <path d="M118.769996,0.852885802 L120.493419,0.852885802 L120.493419,5.69589146 L120.630982,5.69589146 C121.104515,4.6589981 122.178788,4.02942197 123.317289,4.12158527 C124.180696,4.07472004 125.020087,4.41432557 125.606831,5.04790094 C126.193575,5.68147631 126.466558,6.54303079 126.351426,7.39789631 L126.351426,13.0718899 L124.610981,13.0718899 L124.610981,7.82576394 C124.610981,6.42203492 123.955546,5.71111459 122.727065,5.71111459 C122.122164,5.66162705 121.526207,5.88099102 121.098518,6.31056158 C120.670828,6.74013214 120.455016,7.33610661 120.508778,7.93915677 L120.508778,13.0718508 L118.770074,13.0718508 L118.769996,0.852885802 Z" id="Shape"></path>
                        <path d="M136.489525,10.6989937 C136.001973,12.3567139 134.393792,13.4277853 132.672015,13.2415107 C131.497247,13.2724453 130.368231,12.7867112 129.584519,11.9131853 C128.800808,11.0396594 128.441632,9.86665124 128.602289,8.70538781 C128.445899,7.54089711 128.80373,6.36600936 129.583077,5.48510367 C130.362424,4.60419798 131.4866,4.10395523 132.664365,4.11397371 C135.115752,4.11397371 136.59461,5.784615 136.59461,8.54429583 L136.59461,9.14949345 L130.373471,9.14949345 L130.373471,9.2466873 C130.318419,9.89882319 130.541695,10.5438695 130.988389,11.0231893 C131.435083,11.5025091 132.063747,11.7716273 132.719774,11.7643593 C133.570415,11.8662269 134.398456,11.4453235 134.815778,10.6989352 L136.489525,10.6989937 Z M130.373432,7.86676882 L134.823369,7.86676882 C134.86769,7.27033511 134.657453,6.68296542 134.244467,6.24940672 C133.831481,5.81584802 133.254154,5.57642153 132.654758,5.59012972 C132.047242,5.58251603 131.46239,5.81996241 131.032871,6.24860612 C130.603353,6.67724983 130.365573,7.26075879 130.373471,7.86676882 L130.373432,7.86676882 Z" id="Shape"></path>
                    </g>
                </g>
            </g>
        </g>
    </g>
</svg>