<?xml version="1.0" encoding="UTF-8"?>
<svg width="185px" height="62px" viewBox="0 0 185 62" version="1.1" xmlns="http://www.w3.org/2000/svg" xmlns:xlink="http://www.w3.org/1999/xlink">
    <!-- Generator: Sketch 62 (91390) - https://sketch.com -->
    <title>app_store</title>
    <desc>Created with Sketch.</desc>
    <g id="Plantry.app" stroke="none" stroke-width="1" fill="none" fill-rule="evenodd">
        <g id="Artboard" transform="translate(-323.000000, -250.000000)">
            <g id="Download_on_the_App_Store_Badge_US-UK_135x40" transform="translate(314.000000, 250.000000)">
                <g id="Group-2" transform="translate(9.538462, 0.192308)">
                    <path d="M12.2124362,61.3045552 C11.7357665,61.3045552 11.2706114,61.2983951 10.8024619,61.2877284 C9.80568208,61.2746019 8.81123191,61.1868982 7.82253537,61.0245349 C6.87865099,60.860234 5.96427289,60.5546246 5.10941417,60.1176642 C4.25901817,59.6825972 3.48336165,59.1121581 2.81683002,58.4327802 C2.13572633,57.756577 1.56863941,56.9723205 1.13851414,56.1118406 C0.70514913,55.2487572 0.405213393,54.3236415 0.249261336,53.3691009 C0.0855484518,52.3720718 -0.00302779659,51.3639181 -0.0155203382,50.3619278 C-0.0254214989,50.0290385 -0.0384273502,48.9206709 -0.0384615385,48.914824 L-0.0384215377,12.6742215 C-0.0384215377,12.6742215 -0.0245908924,11.5835946 -0.0156275975,11.2714061 C-0.0034910615,10.2623348 0.0845777242,9.25565863 0.247757492,8.26044174 C0.4040142,7.30318447 0.704089761,6.37568579 1.13713151,5.51088836 C1.56583636,4.65068275 2.12945851,3.86627864 2.80421741,3.18991266 C3.47913139,2.50618482 4.25601101,1.93373142 5.10898004,1.49207943 C5.96217956,1.05636692 6.87532845,0.752747968 7.82066778,0.590874157 C8.80806251,0.427655347 9.80616579,0.33941216 10.8060258,0.326891004 L12.2131966,0.307692308 L171.70932,0.307741705 L173.125359,0.327648892 C174.117101,0.339559927 175.106542,0.42705162 176.088041,0.589849923 C177.039099,0.753101705 177.96082,1.05852706 178.827545,1.49852083 C180.530397,2.38549387 181.916228,3.78856491 182.79236,5.51550517 C183.218877,6.37511653 183.514304,7.29498806 183.668417,8.24295541 C183.833401,9.24549242 183.925738,10.258867 183.944752,11.2792554 C183.949253,11.7234737 183.949278,12.2005132 183.94928,12.6754354 C183.961505,13.2652791 183.961538,13.8268753 183.961538,14.3930682 L183.961538,47.220638 C183.961538,47.7923295 183.961499,48.3502174 183.949278,48.9126708 C183.949278,49.4228102 183.949243,49.890466 183.943139,50.3747031 C183.924588,51.3731904 183.833745,52.3689657 183.671808,53.3511718 C183.519013,54.3128416 183.220758,55.2450291 182.785574,56.1189675 C182.352716,56.9695008 181.789816,57.7456884 181.121503,58.4151004 C180.449798,59.1027493 179.672833,59.6764813 178.81988,60.1146393 C177.959625,60.5549631 177.038638,60.861763 176.084892,61.025265 C175.100717,61.1877371 174.105884,61.2754717 173.114323,61.2876342 C172.655935,61.2983901 172.175951,61.3045552 171.710828,61.3045543 L170.027599,61.3076923 L12.2124362,61.3045552 Z" id="Shape" stroke-opacity="0.5" stroke="#FFFFFF" fill="#000000" fill-rule="nonzero"></path>
                    <g id="_Group_" transform="translate(13.827783, 13.265604)" fill="#FFFFFF" fill-rule="nonzero">
                        <g id="_Group_2">
                            <g id="_Group_3">
                                <path d="M23.4078483,18.0088893 C23.4418012,15.3751454 24.823384,12.9423673 27.0685569,11.5628827 C25.6457443,9.53206715 23.3480606,8.29064754 20.868641,8.21311904 C18.2600894,7.93947822 15.7312123,9.77310152 14.4019421,9.77310152 C13.0469474,9.77310152 11.0003271,8.24028751 8.79645491,8.28560452 C5.89673374,8.37923237 3.25894059,9.98696469 1.84816726,12.520579 C-1.15613156,17.7189474 1.08480507,25.3587986 3.96267169,29.5607673 C5.40252928,31.6183519 7.08530944,33.9167268 9.2871933,33.8352214 C11.441869,33.745907 12.2465985,32.4620804 14.8474762,32.4620804 C17.4242139,32.4620804 18.1792188,33.8352214 20.4257788,33.7833995 C22.7378461,33.7458915 24.1945582,31.7166707 25.5838989,29.6396024 C26.6184342,28.1734982 27.4145074,26.5531338 27.9426307,24.8385302 C25.1965969,23.6777865 23.4110533,20.9886561 23.4078483,18.0088893 L23.4078483,18.0088893 Z" id="_Path_"></path>
                                <path d="M19.1645014,5.44961994 C20.4251366,3.93717749 21.0462037,1.99318896 20.8958102,0.030488334 C18.96984,0.232653554 17.190783,1.1525922 15.9131169,2.60700626 C14.6514803,4.04198121 14.0123381,5.9193126 14.136464,7.82551037 C16.0882592,7.84559449 17.9414475,6.9699104 19.1645014,5.44961994 L19.1645014,5.44961994 Z" id="_Path_2"></path>
                            </g>
                        </g>
                        <g id="Group" transform="translate(37.747581, 13.972356)">
                            <path d="M12.8968459,14.6539248 L5.54392552,14.6539248 L3.77813102,19.8647597 L0.663726349,19.8647597 L7.62829375,0.586013675 L10.864051,0.586013675 L17.8286184,19.8647597 L14.6611025,19.8647597 L12.8968459,14.6539248 Z M6.30545469,12.2493911 L12.1338565,12.2493911 L9.26065016,3.7925917 L9.18024555,3.7925917 L6.30545469,12.2493911 Z" id="Shape"></path>
                            <path d="M32.8697166,12.8376428 C32.8697166,17.2055254 30.5304956,20.011811 27.0004289,20.011811 C25.1757683,20.1072027 23.4570377,19.1520619 22.5753328,17.5526763 L22.5085361,17.5526763 L22.5085361,24.5146044 L19.6216752,24.5146044 L19.6216752,5.80900446 L22.416046,5.80900446 L22.416046,8.14682798 L22.4691416,8.14682798 C23.3900171,6.55746928 25.1106011,5.60273963 26.9473333,5.66193765 C30.5167789,5.66195318 32.8697166,8.48188507 32.8697166,12.8376428 Z M29.9024511,12.8376428 C29.9024511,9.99193966 28.4309505,8.12105674 26.1857886,8.12105674 C23.9800678,8.12105674 22.496435,10.0313417 22.496435,12.8376428 C22.496435,15.6697151 23.9800678,17.5663537 26.1857886,17.5663537 C28.430966,17.5663537 29.9024511,15.7091327 29.9024511,12.8376428 Z" id="Shape"></path>
                            <path d="M48.3492187,12.8376428 C48.3492187,17.2055254 46.0099977,20.011811 42.479931,20.011811 C40.6552704,20.1072027 38.9365398,19.1520619 38.054835,17.5526763 L37.9880383,17.5526763 L37.9880383,24.5146044 L35.1011774,24.5146044 L35.1011774,5.80900446 L37.895486,5.80900446 L37.895486,8.14682798 L37.9485816,8.14682798 C38.8694638,6.55747024 40.5900544,5.60274621 42.4267888,5.66195318 C45.9963432,5.66195318 48.3492187,8.48188507 48.3492187,12.8376428 Z M45.3819687,12.8376428 C45.3819687,9.99193966 43.9104526,8.12105674 41.6652907,8.12105674 C39.4595699,8.12105674 37.9759372,10.0313417 37.9759372,12.8376428 C37.9759372,15.6697151 39.4595699,17.5663537 41.6652907,17.5663537 C43.9104681,17.5663537 45.3819687,15.7091327 45.3819687,12.8376428 L45.3819687,12.8376428 Z" id="Shape"></path>
                            <path d="M58.579897,14.4932117 C58.7938018,16.4050181 60.6521486,17.660279 63.1915889,17.660279 C65.624869,17.660279 67.3754866,16.404956 67.3754866,14.6811399 C67.3754866,13.1847471 66.319648,12.2887621 63.8196334,11.6747236 L61.3196187,11.0728256 C57.7774199,10.2177485 56.1329779,8.56216402 56.1329779,5.87563707 C56.1329779,2.54931596 59.0334933,0.264556343 63.1521477,0.264556343 C67.2283009,0.264556343 70.0226561,2.54931596 70.1167151,5.87563707 L67.2025142,5.87563707 C67.0280661,3.95170578 65.4367197,2.79038567 63.1111532,2.79038567 C60.7855867,2.79038567 59.1942559,3.96536764 59.1942559,5.67552189 C59.1942559,7.03849414 60.2106534,7.84050736 62.6970136,8.4544682 L64.8223297,8.97600967 C68.7801905,9.91144336 70.4246325,11.5003486 70.4246325,14.3202495 C70.4246325,17.9270423 67.5499037,20.1860307 62.977653,20.1860307 C58.6996961,20.1860307 55.8113284,17.9801062 55.6247326,14.493072 L58.579897,14.4932117 Z" id="Shape"></path>
                            <path d="M76.6549952,2.48268335 L76.6549952,5.80900446 L79.3294736,5.80900446 L79.3294736,8.09376408 L76.6549952,8.09376408 L76.6549952,15.8425376 C76.6549952,17.0463182 77.1905029,17.6072772 78.3661718,17.6072772 C78.6836759,17.6017441 79.0006662,17.5794608 79.3158191,17.5405204 L79.3158191,19.8116337 C78.787237,19.9103399 78.2499778,19.9550436 77.7123406,19.9450541 C74.8649364,19.9450541 73.7544799,18.8762 73.7544799,16.1502555 L73.7544799,8.09376408 L71.7095683,8.09376408 L71.7095683,5.80900446 L73.7544488,5.80900446 L73.7544488,2.48268335 L76.6549952,2.48268335 Z" id="Shape"></path>
                            <path d="M80.8783963,12.8376428 C80.8783963,8.41519036 83.4846022,5.63618194 87.5486698,5.63618194 C91.6263763,5.63618194 94.2204501,8.41512826 94.2204501,12.8376428 C94.2204501,17.2722356 91.6400308,20.0391036 87.5486698,20.0391036 C83.4587534,20.0391036 80.8783963,17.2722201 80.8783963,12.8376428 Z M91.2789712,12.8376428 C91.2789712,9.80393385 89.8878752,8.01342303 87.5486542,8.01342303 C85.2094332,8.01342303 83.8198596,9.81758018 83.8198596,12.8376428 C83.8198596,15.8834766 85.2094332,17.6603566 87.5486542,17.6603566 C89.8878752,17.6603566 91.2789712,15.8834766 91.2789712,12.8376428 L91.2789712,12.8376428 Z" id="Shape"></path>
                            <path d="M96.6005569,5.80900446 L99.3539331,5.80900446 L99.3539331,8.20138226 L99.4207298,8.20138226 C99.804696,6.66130016 101.21668,5.60136215 102.803642,5.66192213 C103.136327,5.66076123 103.468094,5.6968697 103.79273,5.76957137 L103.79273,8.46822321 C103.372736,8.33996214 102.934609,8.28107327 102.495631,8.29387926 C101.646922,8.25946914 100.825559,8.59750589 100.247209,9.21923108 C99.6688594,9.84095627 99.3913028,10.6842555 99.4874178,11.5277034 L99.4874178,19.8647286 L96.6005569,19.8647286 L96.6005569,5.80900446 Z" id="Shape"></path>
                            <path d="M117.102877,15.7364098 C116.714524,18.2879948 114.228148,20.0390881 111.046993,20.0390881 C106.955632,20.0390881 104.416177,17.2994972 104.416177,12.9043375 C104.416177,8.4955314 106.969287,5.63616642 110.925641,5.63616642 C114.816752,5.63616642 117.263686,8.30752559 117.263686,12.5692804 L117.263686,13.557778 L107.330346,13.557778 L107.330346,13.7321219 C107.237604,14.7785452 107.599151,15.8143592 108.323023,16.5760862 C109.046895,17.3378132 110.063322,17.7520359 111.113759,17.7133895 C112.514692,17.8445738 113.835497,17.0406014 114.361664,15.7363943 L117.102877,15.7364098 Z M107.343974,11.5413808 L114.375303,11.5413808 C114.427692,10.6010839 114.085213,9.68158737 113.430378,9.004407 C112.775543,8.32722663 111.867724,7.95376171 110.925641,7.97398994 C109.976105,7.96832683 109.063645,8.34196687 108.391071,9.01186156 C107.718498,9.68175625 107.341541,10.5923984 107.343974,11.5413808 L107.343974,11.5413808 Z" id="Shape"></path>
                        </g>
                    </g>
                    <g id="Group" transform="translate(54.128776, 12.177885)" fill="#FFFFFF" fill-rule="nonzero">
                        <path d="M3.39023749,1.13486579 C4.61579654,1.04697063 5.81620454,1.51296926 6.66105722,2.40459867 C7.50590989,3.29622809 7.90615513,4.51950563 7.75162811,5.73773237 C7.75162811,8.69715495 6.15119432,10.3982893 3.39023749,10.3982893 L0.0422151853,10.3982893 L0.0422151853,1.13486579 L3.39023749,1.13486579 Z M1.48183976,9.08824119 L3.22942828,9.08824119 C4.10527606,9.14056301 4.95809083,8.79568956 5.55107789,8.14937928 C6.14406494,7.503069 6.41409316,6.62412995 6.28618582,5.75661058 C6.4047873,4.89269133 6.13087038,4.02100524 5.5393536,3.37996562 C4.94783682,2.73892599 4.1006216,2.39561675 3.22942828,2.4439358 L1.48183976,2.4439358 L1.48183976,9.08824119 Z" id="Shape"></path>
                        <path d="M9.37784854,6.89976663 C9.25790514,5.6467336 9.85910127,4.43406801 10.9292969,3.77035849 C11.9994926,3.10664898 13.353654,3.10664898 14.4238497,3.77035849 C15.4940454,4.43406801 16.0952415,5.6467336 15.9752981,6.89976663 C16.0975236,8.15414614 15.4968762,9.36916375 14.4257316,10.0343021 C13.3545871,10.6994404 11.9985596,10.6994404 10.927415,10.0343021 C9.85627046,9.36916375 9.25562307,8.15414614 9.37784854,6.89976663 Z M14.5553863,6.89976663 C14.5553863,5.38443359 13.8742307,4.49827574 12.6788491,4.49827574 C11.4789004,4.49827574 10.8038808,5.38443359 10.8038808,6.89978215 C10.8038808,8.42725561 11.478947,9.30658253 12.6788491,9.30658253 C13.8742617,9.30658253 14.5553863,8.42116987 14.5553863,6.89976663 L14.5553863,6.89976663 Z" id="Shape"></path>
                        <polygon id="Shape" points="24.7451011 10.3981495 23.3130572 10.3981495 21.8673588 5.24947616 21.7581384 5.24947616 20.3184983 10.3981495 18.9000933 10.3981495 16.9719828 3.40742288 18.3721817 3.40742288 19.625226 8.74175781 19.7283881 8.74175781 21.1665059 3.40742288 22.4908517 3.40742288 23.9289695 8.74175781 24.0381899 8.74175781 25.2851603 3.40742288 26.665631 3.40742288"></polygon>
                        <path d="M28.2872999,3.40742288 L29.6161973,3.40742288 L29.6161973,4.51796124 L29.7193594,4.51796124 C30.0780964,3.7003113 30.916361,3.20014682 31.8067568,3.27248097 C32.4961871,3.22067733 33.1717801,3.48500035 33.6427822,3.99081852 C34.1137844,4.49663669 34.3290832,5.18905932 34.2278892,5.87258113 L34.2278892,10.3980719 L32.8474185,10.3980719 L32.8474185,6.21903345 C32.8474185,5.09560948 32.3589481,4.53691707 31.3379992,4.53691707 C30.8703691,4.51514987 30.4165465,4.69856569 30.0955097,5.03907854 C29.7744729,5.37959139 29.6182401,5.84324075 29.6677706,6.30847206 L29.6677706,10.3981495 L28.2872999,10.3981495 L28.2872999,3.40742288 Z" id="Shape"></path>
                        <polygon id="Shape" points="36.4275517 0.678435497 37.8080223 0.678435497 37.8080223 10.398134 36.4275517 10.398134"></polygon>
                        <path d="M39.7270298,6.89976663 C39.6071786,5.64665163 40.2084695,4.43395534 41.2787446,3.77023559 C42.3490197,3.10651584 43.7032507,3.10651584 44.7735258,3.77023559 C45.8438009,4.43395534 46.4450918,5.64665163 46.3252406,6.89976663 C46.4473108,8.15419105 45.8465534,9.36917432 44.7753556,10.0342834 C43.7041579,10.6993924 42.3481125,10.6993924 41.2769148,10.0342834 C40.2057171,9.36917432 39.6049596,8.15419105 39.7270298,6.89976663 L39.7270298,6.89976663 Z M44.9045676,6.89976663 C44.9045676,5.38443359 44.223412,4.49827574 43.0280304,4.49827574 C41.8280817,4.49827574 41.1530621,5.38443359 41.1530621,6.89978215 C41.1530621,8.42725561 41.8281283,9.30658253 43.0280304,9.30658253 C44.2234275,9.30658253 44.9045676,8.42116987 44.9045676,6.89976663 L44.9045676,6.89976663 Z" id="Shape"></path>
                        <path d="M47.7785352,8.42116987 C47.7785352,7.16280399 48.7160504,6.43735927 50.3801896,6.33425881 L52.2749328,6.22510367 L52.2749328,5.62169972 C52.2749328,4.88335387 51.7864624,4.46643429 50.8428889,4.46643429 C50.0722567,4.46643429 49.5382714,4.7491882 49.3850428,5.243437 L48.0485648,5.243437 C48.1896457,4.04268379 49.319815,3.27251202 50.9065943,3.27251202 C52.6602567,3.27251202 53.6493452,4.14500801 53.6493452,5.62169972 L53.6493452,10.3981651 L52.3204478,10.3981651 L52.3204478,9.41573768 L52.2112274,9.41573768 C51.7598814,10.1331814 50.9572412,10.552487 50.1101755,10.5133439 C49.5163622,10.5750734 48.9241317,10.3828741 48.4798942,9.98426111 C48.0356567,9.58564809 47.7808747,9.01782565 47.7785352,8.42116987 L47.7785352,8.42116987 Z M52.2749328,7.82382061 L52.2749328,7.2393725 L50.5667854,7.34852764 C49.6034836,7.41295573 49.1665865,7.7404367 49.1665865,8.35672626 C49.1665865,8.98590144 49.712704,9.35203926 50.4636855,9.35203926 C50.9082504,9.39701451 51.3520451,9.25975193 51.6934758,8.97167384 C52.0349064,8.68359575 52.244737,8.26936963 52.2749328,7.82382061 Z" id="Shape"></path>
                        <path d="M55.4636683,6.89976663 C55.4636683,4.6908148 56.5999115,3.29145232 58.3672128,3.29145232 C59.2596119,3.25035828 60.0954264,3.72824814 60.5122573,4.51791466 L60.6154194,4.51791466 L60.6154194,0.678435497 L61.99589,0.678435497 L61.99589,10.398134 L60.6730665,10.398134 L60.6730665,9.29365034 L60.5638461,9.29365034 C60.1155068,10.0767651 59.2693949,10.5465771 58.3672283,10.5133439 C56.5877793,10.5134215 55.4636683,9.11402794 55.4636683,6.89976663 Z M56.8897005,6.89976663 C56.8897005,8.38251302 57.5890466,9.27474109 58.7586571,9.27474109 C59.9221627,9.27474109 60.6412526,8.36964293 60.6412526,6.90583684 C60.6412526,5.44886168 59.9146131,4.53086238 58.7586571,4.53086238 C57.5965806,4.53086238 56.8896539,5.42914513 56.8896539,6.89976663 L56.8897005,6.89976663 Z" id="Shape"></path>
                        <path d="M67.7074132,6.89976663 C67.5874698,5.6467336 68.1886659,4.43406801 69.2588616,3.77035849 C70.3290572,3.10664898 71.6832187,3.10664898 72.7534143,3.77035849 C73.82361,4.43406801 74.4248061,5.6467336 74.3048627,6.89976663 C74.4270882,8.15414614 73.8264408,9.36916375 72.7552962,10.0343021 C71.6841517,10.6994404 70.3281242,10.6994404 69.2569796,10.0343021 C68.1858351,9.36916375 67.5851877,8.15414614 67.7074132,6.89976663 L67.7074132,6.89976663 Z M72.8849354,6.89976663 C72.8849354,5.38443359 72.2037953,4.49827574 71.0084137,4.49827574 C69.8084651,4.49827574 69.1334454,5.38443359 69.1334454,6.89978215 C69.1334454,8.42725561 69.8085117,9.30658253 71.0084137,9.30658253 C72.2038108,9.30658253 72.8849354,8.42116987 72.8849354,6.89976663 Z" id="Shape"></path>
                        <path d="M76.1571201,3.40742288 L77.4860175,3.40742288 L77.4860175,4.51796124 L77.5891796,4.51796124 C77.9479166,3.7003113 78.7861812,3.20014682 79.676577,3.27248097 C80.3660073,3.22067733 81.0416003,3.48500035 81.5126024,3.99081852 C81.9836046,4.49663669 82.1989034,5.18905932 82.0977094,5.87258113 L82.0977094,10.3980719 L80.7172387,10.3980719 L80.7172387,6.21903345 C80.7172387,5.09560948 80.2287683,4.53691707 79.2078194,4.53691707 C78.7401893,4.51514987 78.2863667,4.69856569 77.9653299,5.03907854 C77.6442932,5.37959139 77.4880603,5.84324075 77.5375908,6.30847206 L77.5375908,10.3981495 L76.1571201,10.3981495 L76.1571201,3.40742288 Z" id="Shape"></path>
                        <path d="M89.8981523,1.66694862 L89.8981523,3.43926432 L91.4136455,3.43926432 L91.4136455,4.60136068 L89.8981523,4.60136068 L89.8981523,8.19602865 C89.8981523,8.92830429 90.2000424,9.24895433 90.8872408,9.24895433 C91.0631733,9.24839161 91.2389293,9.23776039 91.4136455,9.21711288 L91.4136455,10.3663081 C91.1657357,10.4106326 90.9145585,10.4342138 90.6627261,10.4368064 C89.1275201,10.4368064 88.5161593,9.89706981 88.5161593,8.54926532 L88.5161593,4.60129858 L87.4057182,4.60129858 L87.4057182,3.43920222 L88.5161593,3.43920222 L88.5161593,1.66694862 L89.8981523,1.66694862 Z" id="Shape"></path>
                        <path d="M93.2992702,0.678435497 L94.6676087,0.678435497 L94.6676087,4.53084685 L94.7768291,4.53084685 C95.1527979,3.70604093 96.0057336,3.20523907 96.9096638,3.27855118 C97.5951792,3.24127182 98.2616267,3.51141402 98.7274809,4.01539711 C99.1933351,4.5193802 99.4100745,5.20471127 99.3186641,5.88472155 L99.3186641,10.3981495 L97.9368109,10.3981495 L97.9368109,6.22507262 C97.9368109,5.10846404 97.4164178,4.54295623 96.441046,4.54295623 C95.960776,4.50359093 95.4876069,4.67808592 95.148036,5.0197916 C94.8084652,5.36149727 94.6371182,5.83557039 94.679803,6.31527194 L94.679803,10.3981495 L93.2993323,10.3981495 L93.2992702,0.678435497 Z" id="Shape"></path>
                        <path d="M107.367964,8.51060847 C106.980864,9.82925651 105.704025,10.6812497 104.336993,10.5330759 C103.404268,10.5576831 102.507868,10.1713017 101.885628,9.47644782 C101.263388,8.78159397 100.978215,7.84851433 101.105771,6.92477714 C100.981603,5.99847279 101.265708,5.06389802 101.884483,4.36317386 C102.503257,3.66244969 103.395814,3.26452721 104.330919,3.27249649 C106.277235,3.27249649 107.451397,4.60142278 107.451397,6.79663512 L107.451397,7.27804487 L102.512029,7.27804487 L102.512029,7.35535857 C102.468319,7.87410579 102.645592,8.38721355 103.000252,8.76849267 C103.354911,9.14977179 103.854049,9.36384423 104.374911,9.3580629 C105.050291,9.43909431 105.707727,9.10428307 106.039066,8.5105619 L107.367964,8.51060847 Z M102.511998,6.2576903 L106.045093,6.2576903 C106.080283,5.78325188 105.913362,5.3160235 105.585465,4.97114543 C105.257569,4.62626736 104.799191,4.43581345 104.323292,4.44671775 C103.840945,4.44066137 103.376592,4.62954018 103.035569,4.97050858 C102.694546,5.31147698 102.505758,5.7756343 102.512029,6.2576903 L102.511998,6.2576903 Z" id="Shape"></path>
                    </g>
                </g>
            </g>
        </g>
    </g>
</svg>