<?xml version="1.0" encoding="UTF-8"?>
<svg width="256px" height="256px" viewBox="0 0 256 256" version="1.1" xmlns="http://www.w3.org/2000/svg" xmlns:xlink="http://www.w3.org/1999/xlink">
    <!-- Generator: Sketch 50.2 (55047) - http://www.bohemiancoding.com/sketch -->
    <title>favicon svg</title>
    <desc>Created with Sketch.</desc>
    <defs></defs>
    <g id="favicon-svg" stroke="none" stroke-width="1" fill="none" fill-rule="evenodd">
        <path d="M71.7887856,-2.90035286e-15 L184.211214,2.90035286e-15 C209.173739,-1.68518854e-15 218.225754,2.59911711 227.35168,7.47971571 C236.477606,12.3603143 243.639686,19.5223944 248.520284,28.6483203 C253.400883,37.7742462 256,46.8262609 256,71.7887856 L256,184.211214 C256,209.173739 253.400883,218.225754 248.520284,227.35168 C243.639686,236.477606 236.477606,243.639686 227.35168,248.520284 C218.225754,253.400883 209.173739,256 184.211214,256 L71.7887856,256 C46.8262609,256 37.7742462,253.400883 28.6483203,248.520284 C19.5223944,243.639686 12.3603143,236.477606 7.47971571,227.35168 C2.59911711,218.225754 1.12345902e-15,209.173739 -1.93356857e-15,184.211214 L1.93356857e-15,71.7887856 C-1.12345902e-15,46.8262609 2.59911711,37.7742462 7.47971571,28.6483203 C12.3603143,19.5223944 19.5223944,12.3603143 28.6483203,7.47971571 C37.7742462,2.59911711 46.8262609,1.68518854e-15 71.7887856,-2.90035286e-15 Z M216.300036,131.300862 C202.29958,148.941887 167.860608,160.689454 128.006067,160.689454 C88.1561413,160.689454 53.7247983,148.948971 39.7199768,131.313166 C47.039476,158.965247 66.426064,182.202213 92.9992685,193.515958 C127.190094,208.072964 166.544737,200.024063 192.711344,173.122619 C204.236166,161.274145 212.202987,146.796275 216.300032,131.300867 Z M128.006067,66.3358564 C77.8277644,66.3358564 36.5868056,84.2168034 36.5868056,108.338437 C36.5868056,132.458527 77.8349573,150.341018 128.006067,150.341018 C178.172904,150.341018 219.425329,132.454928 219.425329,108.338437 C219.425329,84.2196298 178.183694,66.3358564 128.006067,66.3358564 Z" id="Combined-Shape" fill="#000000"></path>
    </g>
</svg>