<?xml version="1.0" encoding="UTF-8"?>
<svg width="32px" height="32px" viewBox="0 0 32 32" version="1.1" xmlns="http://www.w3.org/2000/svg" xmlns:xlink="http://www.w3.org/1999/xlink">
    <!-- Generator: Sketch 50.2 (55047) - http://www.bohemiancoding.com/sketch -->
    <title>favicon</title>
    <desc>Created with Sketch.</desc>
    <defs></defs>
    <g id="favicon" stroke="none" stroke-width="1" fill="none" fill-rule="evenodd">
        <path d="M8.9735982,-3.62544108e-16 L23.0264018,3.62544108e-16 C26.1467174,-2.10648567e-16 27.2782192,0.324889639 28.41896,0.934964463 C29.5597007,1.54503929 30.4549607,2.4402993 31.0650355,3.58104004 C31.6751104,4.72178078 32,5.85328261 32,8.9735982 L32,23.0264018 C32,26.1467174 31.6751104,27.2782192 31.0650355,28.41896 C30.4549607,29.5597007 29.5597007,30.4549607 28.41896,31.0650355 C27.2782192,31.6751104 26.1467174,32 23.0264018,32 L8.9735982,32 C5.85328261,32 4.72178078,31.6751104 3.58104004,31.0650355 C2.4402993,30.4549607 1.54503929,29.5597007 0.934964463,28.41896 C0.324889639,27.2782192 1.40432378e-16,26.1467174 -2.41696072e-16,23.0264018 L2.41696072e-16,8.9735982 C-1.40432378e-16,5.85328261 0.324889639,4.72178078 0.934964463,3.58104004 C1.54503929,2.4402993 2.4402993,1.54503929 3.58104004,0.934964463 C4.72178078,0.324889639 5.85328261,2.10648567e-16 8.9735982,-3.62544108e-16 Z M27.0375046,16.4126077 C25.2874475,18.6177359 20.982576,20.0861818 16.0007584,20.0861818 C11.0195177,20.0861818 6.71559978,18.6186214 4.9649971,16.4141457 C5.8799345,19.8706558 8.303258,22.7752766 11.6249086,24.1894948 C15.8987617,26.0091205 20.8180922,25.0030078 24.088918,21.6403273 C25.5295207,20.1592681 26.5253733,18.3495344 27.037504,16.4126084 Z M16.0007584,8.29198205 C9.72847054,8.29198205 4.57335069,10.5271004 4.57335069,13.5423047 C4.57335069,16.5573158 9.72936966,18.7926273 16.0007584,18.7926273 C22.2716129,18.7926273 27.4281661,16.556866 27.4281661,13.5423047 C27.4281661,10.5274537 22.2729617,8.29198205 16.0007584,8.29198205 Z" id="Combined-Shape" fill="#000000"></path>
    </g>
</svg>