<?xml version="1.0" encoding="UTF-8"?>
<svg width="142px" height="25px" viewBox="0 0 142 25" version="1.1" xmlns="http://www.w3.org/2000/svg" xmlns:xlink="http://www.w3.org/1999/xlink">
    <!-- Generator: Sketch 52.4 (67378) - http://www.bohemiancoding.com/sketch -->
    <title>Fivestars</title>
    <desc>Created with Sketch.</desc>
    <g id="2.4-app" stroke="none" stroke-width="1" fill="none" fill-rule="evenodd">
        <g id="Plantry-Website" transform="translate(-216.000000, -5501.000000)" fill="#FFC800">
            <g id="Footer" transform="translate(205.000000, 5258.000000)">
                <g transform="translate(0.000000, 243.000000)" id="Group-23">
                    <g transform="translate(10.000000, 0.000000)">
                        <g id="Fivestars">
                            <g id="Icon-/-Rate">
                                <g>
                                    <polygon id="Star-1" points="42.5000002 18.1110501 34.7241234 24.455739 38.0509785 14.6183537 29.9183673 9.34126107 39.0018621 9.3412614 42.5 0 46.0193306 9.3412614 55.0816327 9.34126107 47.1652523 14.6183537 50.2758766 24.455739"></polygon>
                                    <polygon id="Star-1" points="13.5000002 18.1110501 5.72412339 24.455739 9.0509785 14.6183537 0.918367347 9.34126107 10.0018621 9.3412614 13.5 0 17.0193306 9.3412614 26.0816327 9.34126107 18.1652523 14.6183537 21.2758766 24.455739"></polygon>
                                    <polygon id="Star-1" points="71.5816328 18.1110501 63.805756 24.455739 67.1326112 14.6183537 59 9.34126107 68.0834947 9.3412614 71.5816327 0 75.1009632 9.3412614 84.1632653 9.34126107 76.246885 14.6183537 79.3575093 24.455739"></polygon>
                                    <polygon id="Star-1" points="100.581633 18.1110501 92.805756 24.455739 96.1326112 14.6183537 88 9.34126107 97.0834947 9.3412614 100.581633 0 104.100963 9.3412614 113.163265 9.34126107 105.246885 14.6183537 108.357509 24.455739"></polygon>
                                    <polygon id="Star-1" points="129.581633 18.1110501 121.805756 24.455739 125.132611 14.6183537 117 9.34126107 126.083495 9.3412614 129.581633 0 133.100963 9.3412614 142.163265 9.34126107 134.246885 14.6183537 137.357509 24.455739"></polygon>
                                </g>
                            </g>
                        </g>
                    </g>
                </g>
            </g>
        </g>
    </g>
</svg>