<svg height="64" viewBox="0 0 64 64" width="64" xmlns="http://www.w3.org/2000/svg"><path d="m56.8797171 35.1359942c-1.3301723 14.5043936-13.5283549 25.8640058-28.3797171 25.8640058-14.6940821 0-26.7908828-11.1202832-28.33380944-25.4042567l3.95019225.3826313 1.06275323.1101996c1.88439552.4402974 3.5253824 1.013667 4.92211696 1.7162581 4.873265 2.4513695 8.4028468 3.2962635 11.7400224 2.8410332l.1752032.0955953c6.6251401 3.7416674 10.7795748 3.2534253 16.9862037-.3414447l1.4995449-.8830674.8496787-.4881745c.9533007-.5360943 1.6276552-.8665327 2.3908755-1.1718208 2.7997058-1.1198823 5.8546794-1.9971986 9.1660112-2.6302758zm-14.0488183.4619434 1.3961274-.0681717-.4448153.1656693-.61157.2367144-.1706409.0678504c-.2202151.088086-.4377319.1807695-.652909.2773569l-.4436737.2059938-.2349699.1143969-.4151643.2103822-.4107381.2175299c-.3524954.1903379-.7006455.3872598-1.0462449.5872938l-1.1279867.6634583c-.4337381.2569318-.8668436.5129431-1.3026677.7607618l-.3688669.2072245-.2538992.139332c-.1434579.0778777-.2871577.1544005-.4314585.2294487l-.305617.156182-.4899303.2378802-.3561315.1622732-.5141057.2169405-.2564869.1001056c-.268299.1017954-.5403746.1957168-.8168115.2803617l-.4832532.1370573-.4483738.1073395-.4676295.0913005-.2950513.0466822-.4419031.0540859-.3284267.0279336-.4308897.0208964-.245741.0039792-.2069069-.0010788-.3172493-.0094454-.5528635-.0386619-.3740008-.0418432-.3105574-.0441627c-.2068814-.0322354-.416381-.070445-.6289643-.1149755l-.2931323-.064978-.3271818-.0808567-.4382597-.1217602-.4080969-.1268669-.5423913-.1881029-.4966076-.191065-.3617707-.1501447-.3923844-.1729744.2928638-.1087221.2923621-.1140699.2934625-.1201591.3070167-.1315825c.1498412-.0656447.3002381-.1336037.4512953-.2038486l.4562568-.218544 2.2815988-1.1598614c.6910732-.3497108 1.2657524-.6240217 1.8312133-.8683303l.2824585-.1198642.0832521-.0330083.1578516-.055293.1675403-.0512661.4045376-.1037968.3449817-.074061.333563-.0631781.6392856-.1049564.4811824-.0688787.8602388-.1078636 1.3440124-.1411553.7722143-.0702527 2.0550564-.1599033 2.1122323-.1347433zm-17.3700252-7.0549634.4986434.2374112.4575496.2270257 2.0038192 1.0267161.6544478.3228825.6530684.3063841.221812.0997676.2247868.0986805c.1066466.0462269.2152586.0924328.3249992.1381581l.18453.0710679.2533069.0833209.2306829.0660239.2459276.0629257.2572325.0595116.4184844.0863585.5388112.0970239.6279044.0984626.5646194.078492.659357.0823552.4055963.0465682 1.0663183.1104761 1.3821233.1230473.6104724.0486293 1.4152072.1019406 1.370308.0868182 1.7786327.0987525c.7360573.038038 1.5039841.0744675 2.3041234.1093063l1.4478718.0599242 1.9644189.0723242 3.5388628.1087905 2.8712597.0717479 2.7248577.0568894 2.9285087.0508224c1.6681661.0261992 3.4050269.0490061 5.2105825.0684207l-4.2014395.0555559c-1.0173864.0154952-2.0100427.0321949-2.9779689.0500993l-3.2064201.0657604-2.4069221.0578314-4.2485048.1292029-3.1671706.1214758-2.1685744.0999584-1.6158946.0857191-1.6170749.0977068-1.4016166.0965671-1.2001283.0938587-1.4209478.1281968-.5607113.05704-1.160526.1332075-.2942951.0377953-.5904453.0820599-.4835414.0747187-.4970213.0858735-.3853046.0747934-.5347436.1204413-.3081581.082013-.3680607.1171928-.0953867.0353861-.0891433.0356902-.5392584.2321064-.4300953.195172-.3269752.1537738-.3216571.1553181-.3882821.1920643-1.8324112.9372914-.7048898.3514518-.3809987.1820909-.2772233.1278474-.3711132.1639281-.4286077.1775615-.361033.1386121c-.2112402.077983-.4245737.1511307-.6408083.2187223l-.3525653.1044125-.3410473.0897657-.2554138.0598537-.3432328.0703943.0004132-.0019352-.0689489.0146086c-2.6948048.4892677-5.9976523.0215983-11.1358518-2.5630397-1.44382032-.7262763-3.10478826-1.3214761-4.98290381-1.7855993l-.80956342-.1889841-.45009365-.0959493-.45966469-.0916302-.56738844-.1048656-.60267391-.1019356-.40856238-.0637515-.77303673-.109721-.24131923-.0314202c-.55067228-.0702153-1.11513221-.1321079-1.69337977-.1856779l-.60907826-.0529341-.74065507-.0552915-.57686773-.0365014-.69890232-.0369052-.2740699-.0123662c-.46476269-.0199874-.93720806-.0353375-1.41733583-.0460502-.55431091-.012371-1.11928057-.018561-1.69450486-.018561.42236025 0 .83919194-.0033171 1.25049507-.0099514l.61280827-.0124393c.36829479-.0090322.73203516-.0207971 1.0912211-.0352946l.47520327-.0208669.47001897-.0241354.59205607-.0354977.58329475-.0407545.96189231-.0804571.50577549-.0492969 1.10114897-.1252475.54000519-.0709579.51389512-.0737689.66010766-.1041748.78124905-.1378943.75886117-.1503025.40861145-.0880951.4749068-.1090955.5725656-.141688.43962358-.116803.44057257-.1244872.36602351-.1094044c1.24426793-.3816444 2.37649112-.8278006 3.39966403-1.3393871 4.0308321-2.0154161 6.9283491-2.7427392 9.2845208-2.7327566l.317121.0059689c1.158013.0380293 2.1865367.2553629 3.1603118.582473l.4106671.1453951c.4362011.1621658.8632799.3449728 1.2882529.5418938zm3.0391264-24.5429742c15.1934425 0 27.6100733 11.8889445 28.4542347 26.871176l-2.0217127-.0428128c-.6606986-.0149326-1.3081979-.0305191-1.9425168-.0467365-3.2872171-.6574846-6.317666-1.6815251-9.095578-3.0704811-.2864198-.1432099-.5860293-.3064798-.9069352-.4934544-.3230578-.1882285-.6624238-.3971042-1.0573003-.6494984l-1.6361598-1.0690831c-6.4954814-4.2512334-11.1002257-5.1565299-17.9138793-1.4420332l-.3606751.1997724c-.6245965.3513356-1.2558815.6845038-1.8953091 1.0006122-2.8452023-.0001959-5.9650975.9269355-10.0185956 2.9536845-.90919434.4545972-1.92184316.8547853-3.03762394 1.1997037-2.19072806.4086026-4.51121128.7392407-6.99204166 1.0151663 1.06073398-14.7718679 13.3814274-26.4260156 28.4240928-26.4260156zm1.736779 19.8185882.2863468.0012788.3612429.0121302.5364893.0398729.2237323.024402.3140859.0420176.4090967.0683559.5747593.1221033.3144301.0796496.3800452.1083188c.1988996.0601118.3958537.125028.5905387.1941531.1321554.0469204.2635031.0958733.3938489.1466306.2078052.080925.4128214.1663284.6154887.2557332l.420905.1928138.7272629.3652146.5121441.279515.0995157.056269c.2943804.1673473.5845132.3401623.8711079.5163221l.7269557.4573171.4814272.3117557 1.0832653.7112365c.1788865.1171965.3570814.2333234.5347901.3477836l.6263548.3966001.4677026.2844481.422826.2457256-.1368107-.0781763c.308093.1775424.6162942.3452532.9256696.4999409l.6915303.3363309.6800026.3128114.689782.2998675.1870451.0783736-1.7955546-.0809162c-1.7372432-.0833903-3.2992481-.174154-4.6832752-.2718481l-1.5103217-.1151558-1.017679-.0893683-.7287894-.0710732-.450205-.047948-.683876-.0793859-.5497509-.0714092-.5231849-.075894-.4011992-.0651852-.5748364-.1081132-.3888918-.0878028-.2886897-.077407-.1922184-.0605487-.1140941-.0410141-.0765629-.0304675c-.5643599-.23515-1.1199383-.4928071-1.7729005-.8182015l-2.6862096-1.3652766-.0976773-.0476457-.4466027-.20984-.5869516-.257573-.3588508-.1466726-.4970191-.1888625c-.1413987-.0513023-.2825362-.1004056-.4235027-.1472862l-.4678574-.1475509-.4014309-.1135354.1796429-.0945389c.162116-.0837589.3228665-.1642174.4822771-.2414513.4165471-.2018197.8240777-.3816751 1.2229056-.540854l.2981222-.1157623.4759158-.1712772.3996597-.1307191.4914349-.1439456.1609661-.0430518.2576115-.0646317.482794-.1067762.3093044-.0584108.4103776-.065233.2939938-.0380092.3634564-.0367805.2981734-.021637.2843119-.0133887z" fill="#1f1c32" class="path-name"/></svg>