<?xml version="1.0" encoding="UTF-8"?>
<svg width="64px" height="64px" viewBox="0 0 64 64" version="1.1" xmlns="http://www.w3.org/2000/svg" xmlns:xlink="http://www.w3.org/1999/xlink">
    <!-- Generator: Sketch 62 (91390) - https://sketch.com -->
    <title>icon-nutrition</title>
    <desc>Created with Sketch.</desc>
    <defs>
        <path d="M27.5,0 L46.9454365,8.05456352 L55,27.5 L46.9454365,46.9454365 L27.5,55 L8.05456352,46.9454365 L0,27.5 L8.05456352,8.05456352 L27.5,0 Z M27,7 L26.7141914,7.00448962 L26.4107357,7.01912737 C23.5889986,7.20275086 21.0698564,8.69615402 19.5380626,10.9660865 L19.5380626,10.9660865 L19.42,11.146 L19.2863649,11.1182944 L18.9691331,11.0667917 C18.6502429,11.022515 18.3265829,11 18,11 L18,11 L17.7593502,11.004059 L17.5153387,11.0165163 C14.0337719,11.254607 11.2516081,14.0384478 11.0161492,17.520737 L11.0161492,17.520737 L11.008,17.669 L10.9351176,17.7044898 L10.7027857,17.8231039 C8.48208511,19.0098164 7,21.3500275 7,24 C7,27.8659932 10.1340068,31 14,31 L14,31 L14.2480043,30.995663 L14.5820932,30.9760119 C15.2463528,30.9210442 15.8863192,30.7727123 16.4878824,30.5423396 C17.8378625,33.9009743 18.6529387,38.1538159 18.9107678,43.3002253 C19.0707274,46.4932372 21.7062317,49.0000132 24.9032523,49.0000132 L24.9032523,49.0000132 L28.3724248,49.0000132 L28.6237549,48.9943781 L28.863035,48.9778947 C31.7186511,48.7259661 33.9948647,46.5374351 34.3306462,43.7068024 C34.9552533,38.4413754 36.0177026,34.0511137 37.5018465,30.5401496 C38.2802971,30.8377443 39.1232093,31 40,31 C43.8659932,31 47,27.8659932 47,24 L47,24 L46.9956527,23.7516996 L46.9808771,23.4800202 C46.794663,20.9562661 45.2638521,18.7753906 43.0643457,17.7048202 L43.0643457,17.7048202 L42.991,17.67 L42.9838508,17.520737 L42.9638598,17.2842907 C42.6053898,13.7544981 39.6243687,11 36,11 L36,11 L35.6743383,11.007483 L35.3510393,11.0298203 C35.1363868,11.049626 34.9235876,11.0792228 34.7131981,11.1183871 L34.7131981,11.1183871 L34.58,11.146 L34.4621767,10.9655129 L34.2946101,10.7258398 C32.6390614,8.43806677 29.9557969,7 27,7 L27,7 Z" id="path-1"></path>
    </defs>
    <g id="3.7" stroke="none" stroke-width="1" fill="none" fill-rule="evenodd">
        <g id="Icons/Advanced">
            <g transform="translate(0.000000, 3.000000)">
                <path d="M58.0823922,29.5 L49.7108033,49.7108033 L29.5,58.0823922 L9.28919665,49.7108033 L0.9176078,29.5 L9.28919665,9.28919665 L29.5,0.9176078 L49.7108033,9.28919665 L58.0823922,29.5 Z" id="Polygon" stroke="#8AD63E" stroke-width="2"></path>
                <g id="Group-11-+-Group-10-Mask" opacity="0.5" transform="translate(2.000000, 2.000000)">
                    <mask id="mask-2" fill="white">
                        <use xlink:href="#path-1"></use>
                    </mask>
                    <g id="Combined-Shape" fill-rule="nonzero"></g>
                    <g id="Group-11" mask="url(#mask-2)" fill="#8AD63E" fill-rule="nonzero">
                        <g transform="translate(0.500000, -2.000000)" id="Rectangle">
                            <rect x="0.5" y="9" width="54" height="1"></rect>
                            <rect x="0.5" y="0" width="54" height="1"></rect>
                            <rect x="0.5" y="19" width="54" height="1"></rect>
                            <rect x="0.5" y="38" width="54" height="1"></rect>
                            <rect x="0.5" y="29" width="54" height="1"></rect>
                            <rect x="0.5" y="48" width="54" height="1"></rect>
                            <rect x="0.5" y="57" width="54" height="1"></rect>
                        </g>
                    </g>
                    <g id="Group-10" mask="url(#mask-2)" fill="#8AD63E" fill-rule="nonzero">
                        <g transform="translate(27.500000, 28.500000) rotate(90.000000) translate(-27.500000, -28.500000) translate(-1.000000, 0.500000)" id="Rectangle">
                            <rect x="0" y="7.5" width="57" height="1"></rect>
                            <rect x="0" y="0.5" width="57" height="1"></rect>
                            <rect x="0" y="17.5" width="57" height="1"></rect>
                            <rect x="0" y="37.5" width="57" height="1"></rect>
                            <rect x="0" y="27.5" width="57" height="1"></rect>
                            <rect x="0" y="47.5" width="57" height="1"></rect>
                            <rect x="0" y="54.5" width="57" height="1"></rect>
                        </g>
                    </g>
                </g>
                <path d="M36.357,30.142 L36.4530685,30.2714408 C36.8265899,30.7556482 37.2616264,31.1885169 37.745732,31.559093 C36.1350013,35.297896 35.0012454,39.9354525 34.3445712,45.4712058 C34.1137679,47.4168738 32.5114335,48.8983878 30.5740017,48.9949971 L30.3724248,49.0000132 L26.9032523,49.0000132 C24.7719056,49.0000132 23.0149025,47.3288303 22.9082627,45.2001531 C22.6344613,39.7349303 21.7477647,35.1890524 20.2481728,31.5625194 C20.7344547,31.192246 21.1718284,30.7574315 21.5470455,30.2707722 L21.642,30.143 L21.655318,30.1505179 C22.6618986,30.6983179 23.8060871,31 25,31 L25.2776895,30.9945498 C25.6679983,30.979211 26.0522478,30.9316492 26.4272871,30.8538108 L29,42 L31.572742,30.8538186 C32.036405,30.9500469 32.5141405,31 33,31 L33.2746244,30.9946687 C34.2598075,30.9563747 35.2060132,30.7127694 36.0627207,30.2957461 L36.357,30.142 Z" id="Path" fill="#8AD63E"></path>
                <path d="M29,11 C32.0308454,11 34.6117986,12.9262174 35.5854562,15.6212489 C36.3003199,15.2253565 37.1238425,15 38,15 C40.7614237,15 43,17.2385763 43,20 C43,20.3704696 42.9597087,20.7315288 42.8832691,21.0790344 C45.223218,21.4946603 47,23.5398353 47,26 C47,28.7614237 44.7614237,31 42,31 C39.5426574,31 37.4993529,29.227292 37.0791431,26.8909326 C36.1743392,28.1670516 34.6844424,29 33,29 C31.3642694,29 29.9119951,28.2145305 28.9997798,27.0001943 C28.0880049,28.2145305 26.6357306,29 25,29 C23.3155576,29 21.8256608,28.1670516 20.9197292,26.8905745 C20.5006471,29.227292 18.4573426,31 16,31 C13.2385763,31 11,28.7614237 11,26 C11,23.5398353 12.776782,21.4946603 15.1171191,21.0777018 C15.0402913,20.7315288 15,20.3704696 15,20 C15,17.2385763 17.2385763,15 20,15 C20.8761575,15 21.6996801,15.2253565 22.415766,15.6212676 C23.3882014,12.9262174 25.9691546,11 29,11 Z" id="Combined-Shape" fill="#8AD63E"></path>
            </g>
        </g>
    </g>
</svg>