<?xml version="1.0" encoding="UTF-8"?>
<svg width="64px" height="64px" viewBox="0 0 64 64" version="1.1" xmlns="http://www.w3.org/2000/svg" xmlns:xlink="http://www.w3.org/1999/xlink">
    <!-- Generator: Sketch 62 (91390) - https://sketch.com -->
    <title>icon-recipes</title>
    <desc>Created with Sketch.</desc>
    <g id="3.7" stroke="none" stroke-width="1" fill="none" fill-rule="evenodd">
        <g id="Icons/All-Recipes" fill="#E8569A">
            <path d="M33.961869,13.9992663 C34.0703349,14.6492823 34.2275807,15.3182884 34.4309987,15.9997015 L4.5638852,16 C3.67236646,16 3.34908022,16.0928256 3.0231543,16.2671327 C2.69722837,16.4414398 2.4414398,16.6972284 2.2671327,17.0231543 C2.10623385,17.324009 2.014763,17.6226145 2.00164263,18.3679772 L2,18.5638852 L2,46.4361148 C2,47.3276335 2.09282561,47.6509198 2.2671327,47.9768457 C2.4414398,48.3027716 2.69722837,48.5585602 3.0231543,48.7328673 C3.324009,48.8937662 3.6226145,48.985237 4.36797723,48.9983574 L4.5638852,49 L35.4361148,49 C36.3276335,49 36.6509198,48.9071744 36.9768457,48.7328673 C37.3027716,48.5585602 37.5585602,48.3027716 37.7328673,47.9768457 C37.8937662,47.675991 37.985237,47.3773855 37.9983574,46.6320228 L38,46.4361148 L38,24.7392663 L40,29.4602663 L40,54.8722296 C40,56.6552671 39.8143488,57.3018396 39.4657346,57.9536914 C39.1171204,58.6055433 38.6055433,59.1171204 37.9536914,59.4657346 C37.3018396,59.8143488 36.6552671,60 34.8722296,60 L5.1277704,60 C3.34473292,60 2.69816044,59.8143488 2.04630859,59.4657346 C1.39445674,59.1171204 0.882879593,58.6055433 0.534265408,57.9536914 C0.185651222,57.3018396 8.02470732e-17,56.6552671 -1.38112041e-16,54.8722296 L1.38112041e-16,19.1277704 C-8.02470732e-17,17.3447329 0.185651222,16.6981604 0.534265408,16.0463086 C0.882879593,15.3944567 1.39445674,14.8828796 2.04630859,14.5342654 C2.69816044,14.1856512 3.34473292,14 5.1277704,14 L33.961869,13.9992663 Z M44,30.1252663 L44,53.1069005 C44,54.6207296 43.1590514,55.9381445 41.9188263,56.6174733 C41.965939,56.2022353 41.9909012,55.7389101 41.9979132,55.2028159 L42,54.8722296 L42,31.1562663 L44,30.1252663 Z M47.999,28.0652663 L48,50.079038 C48,51.5661717 47.188449,52.8637576 45.9840629,53.5530795 C45.9945242,53.4048415 46,53.2565105 46,53.1069005 L45.999,29.0952663 L47.999,28.0652663 Z M30.2528973,34.2355454 C29.71027,35.5768611 28.8817007,36.8223675 27.7857097,37.8820188 C24.6372192,40.9261151 19.9018815,41.8369074 15.7878789,40.1896752 C12.9681496,39.0606655 10.8209268,36.8823708 9.74896679,34.237483 C11.6211575,36.0128824 15.5269,37.1690832 20.0000633,37.1690832 C24.4743045,37.1690832 28.3812985,36.0118952 30.2528973,34.2355454 Z M20,26 C26.0376104,26 31,27.9350439 31,30.5447254 C31,33.1541561 26.0363121,35.0894508 20,35.0894508 C13.9631736,35.0894508 9,33.1545455 9,30.5447254 C9,27.9347381 13.9623081,26 20,26 Z M44.5771787,5.44429856 C46.3086998,6.0745207 47.6132127,7.37401182 48.2568911,9.053459 L48.6565244,10.025318 L49.5615655,9.55139446 C51.1597263,8.66483722 52.9943379,8.50789397 54.725859,9.13811611 C56.4415741,9.76258531 57.7391658,11.0431753 58.4614818,12.7598993 C59.1305359,14.358749 59.1537514,16.2696909 58.5246334,17.9981785 C57.857922,19.8299529 55.8078907,21.6750545 53.0820759,23.0852181 L41.7882243,28.9052909 L41.2873138,27.7227609 L36.8485556,17.243867 C35.6676363,14.4132694 35.2832296,11.6821049 35.949941,9.85033046 C36.6090826,8.03935369 37.8729972,6.58768581 39.4128852,5.85757691 C41.011046,4.97101967 42.8456576,4.81407642 44.5771787,5.44429856 Z" id="Combined-Shape"></path>
        </g>
    </g>
</svg>