<?xml version="1.0" encoding="UTF-8"?>
<svg width="64px" height="64px" viewBox="0 0 64 64" version="1.1" xmlns="http://www.w3.org/2000/svg" xmlns:xlink="http://www.w3.org/1999/xlink">
    <!-- Generator: Sketch 63.1 (92452) - https://sketch.com -->
    <title>Icon-foodwaste</title>
    <desc>Created with Sketch.</desc>
    <g id="3.7" stroke="none" stroke-width="1" fill="none" fill-rule="evenodd">
        <g id="Icon-Food-Waste" transform="translate(0.000000, 4.000000)" fill="#CA3F24" fill-rule="nonzero">
            <path d="M54.4375729,16.672556 C56.08306,20.2752792 57,24.2805582 57,28.5 C57,44.2401154 44.2401154,57 28.5,57 C18.9299214,57 10.4615472,52.2830428 5.29297141,45.0472225 L7.0338357,44.0420352 C11.8495272,50.6817835 19.6704769,55 28.5,55 C43.1355459,55 55,43.1355459 55,28.5 C55,24.6449349 54.1768228,20.9821332 52.6966538,17.6777802 Z M33.5546576,28.8612861 C33.538591,37.1908018 37.6944825,44.1038169 43.1762691,45.4772272 C40.2194329,48.2435705 36.2301233,50 32.0391372,50 C31.4657616,50 30.8833645,49.9171983 30.2695359,49.7705765 C29.9206983,49.6872516 29.5705019,49.5854274 29.2060945,49.464818 L28.8364741,49.3379362 L28.3657872,49.1623297 L27.9054441,49.3345103 C27.2366709,49.5726596 26.6176906,49.7511647 25.9901982,49.8658005 C25.5658409,49.9433258 25.1504927,49.988276 24.7393287,49.9945179 C20.6031997,50.0573078 16.7014395,48.3260096 13.8330963,45.575776 C18.1630821,44.7402215 21.7328228,40.4673864 23.1925551,34.7133282 L33.555263,28.7292559 C33.5549449,28.7732264 33.554743,28.8172367 33.5546576,28.8612861 Z M53.0188525,14.0488898 C53.2949949,14.5271824 53.1311197,15.1387728 52.6528271,15.4149152 L5.02142989,42.9149152 C4.54313726,43.1910575 3.93154686,43.0271824 3.65540448,42.5488898 C3.37926211,42.0705971 3.54313726,41.4590067 4.02142989,41.1828644 L51.6528271,13.6828644 C52.1311197,13.406722 52.7427101,13.5705971 53.0188525,14.0488898 Z M28.5,0 C37.8725232,0 46.1883576,4.52422273 51.3827444,11.5079094 L49.6381468,12.5154205 C44.799692,6.12698297 37.1318003,2 28.5,2 C13.8644541,2 2,13.8644541 2,28.5 C2,32.1596588 2.74184146,35.6460512 4.08335061,38.8170035 L2.33864476,39.8246212 C0.834023547,36.3534947 5.61328761e-13,32.5241457 5.61328761e-13,28.5 C5.61328761e-13,12.7598846 12.7598846,0 28.5,0 Z M32.0391372,7 C36.4725809,7 40.6803384,8.96553453 43.6799738,12.0130214 L43.7584105,12.0945113 C39.9081146,12.8170379 36.6393078,16.2499533 34.8994667,21.0247263 L23.855838,27.4015392 C23.3579784,19.2562362 18.8669055,12.7539245 13.24,12.0217932 C16.1509811,8.92772593 20.3108174,6.93825361 24.7393287,7.00548214 C25.1504927,7.01172395 25.5658409,7.05667415 25.9901982,7.13419948 C26.6176906,7.24883532 27.2366709,7.42734039 27.9054441,7.66548972 L28.3657872,7.83767028 L28.8364741,7.66206382 C29.3368866,7.48451085 29.8044191,7.34052336 30.2695359,7.22942352 C30.8833645,7.08280171 31.4657616,7 32.0391372,7 Z" id="Combined-Shape"></path>
        </g>
    </g>
</svg>