<?xml version="1.0" encoding="UTF-8"?>
<svg width="64px" height="64px" viewBox="0 0 64 64" version="1.1" xmlns="http://www.w3.org/2000/svg" xmlns:xlink="http://www.w3.org/1999/xlink">
    <!-- Generator: Sketch 62 (91390) - https://sketch.com -->
    <title>icon-recipes</title>
    <desc>Created with Sketch.</desc>
    <defs>
        <path d="M45.7184192,6.50720424 L46.4067883,5.7523195 C47.6053477,4.37262502 49.275641,3.59767248 51.1182872,3.59767248 C52.944113,3.59767248 54.601438,4.35723096 55.8673472,5.72337715 C57.0428912,6.99697448 57.7182872,8.78473225 57.7182872,10.6241504 C57.7182872,12.573484 56.4229499,15.0084643 54.3438262,17.2658682 L45.7216593,26.5976725 L44.8465083,25.6577792 L37.0914472,17.3289846 C35.0136246,15.0729912 33.7182872,12.6380109 33.7182872,10.6886772 C33.7182872,8.761476 34.4094788,6.96507015 35.6067883,5.7523195 C36.8053477,4.37262502 38.475641,3.59767248 40.3182872,3.59767248 C42.1609335,3.59767248 43.8312267,4.37262502 45.0104913,5.73063817 L45.7184192,6.50720424 Z" id="path-1"></path>
        <filter x="-37.5%" y="-30.4%" width="175.0%" height="182.4%" filterUnits="objectBoundingBox" id="filter-3">
            <feMorphology radius="2" operator="dilate" in="SourceAlpha" result="shadowSpreadOuter1"></feMorphology>
            <feOffset dx="0" dy="2" in="shadowSpreadOuter1" result="shadowOffsetOuter1"></feOffset>
            <feGaussianBlur stdDeviation="2" in="shadowOffsetOuter1" result="shadowBlurOuter1"></feGaussianBlur>
            <feComposite in="shadowBlurOuter1" in2="SourceAlpha" operator="out" result="shadowBlurOuter1"></feComposite>
            <feColorMatrix values="0 0 0 0 0   0 0 0 0 0   0 0 0 0 0  0 0 0 0.05 0" type="matrix" in="shadowBlurOuter1"></feColorMatrix>
        </filter>
    </defs>
    <g id="3.7" stroke="none" stroke-width="1" fill="none" fill-rule="evenodd">
        <g id="Icons/All-Recipes">
            <g transform="translate(0.000000, 3.000000)">
                <path d="M47.5355339,50.6145719 C46.6307119,51.5193939 45.3807119,52.079038 44,52.079038 C43.6567929,52.079038 43.3144978,52.0437009 42.9785292,51.9735857 L22.0002971,47.5955199 C20.2202733,47.2240367 19.6193468,46.9126222 19.0110865,46.4724352 C18.3369511,45.9845755 17.8285687,45.3591428 17.4887201,44.5995583 C17.1820808,43.9141989 17,43.2623261 17,41.4439519 L17,26.5560481 C17,24.7376739 17.1820808,24.0858011 17.4887201,23.4004417 C17.8285687,22.6408572 18.3369511,22.0154245 19.0110865,21.5275648 C19.6193468,21.0873778 20.2202733,20.7759633 22.0002971,20.4044801 L42.9785292,16.0264143 C44.3301212,15.7443429 45.6680901,16.0368161 46.7386789,16.7377052 C47.8092677,17.4385942 48.6124763,18.5478991 48.8945477,19.8994912 C48.9646629,20.2354598 49,20.5777549 49,20.920962 L49,47.079038 C49,48.4597499 48.4403559,49.7097499 47.5355339,50.6145719 Z" id="Combined-Shape" stroke="#FFFFFF" stroke-width="2" fill="#E8569A"></path>
                <path d="M39.0057661,55.0070535 L12.0308876,49.5338897 C10.2423867,49.1710055 9.63781047,48.860824 9.02569342,48.421259 C8.34739078,47.9341656 7.83532706,47.3077709 7.492839,46.5461567 C7.18376932,45.8588571 7,45.2046753 7,43.3797314 L7,24.6202686 C7,22.7953247 7.18376932,22.1411429 7.492839,21.4538433 C7.83532706,20.6922291 8.34739078,20.0658344 9.02569342,19.578741 C9.63781047,19.139176 10.2423867,18.8289945 12.0308876,18.4661103 L39.0057661,12.9929465 C40.3589059,12.7183964 41.6952276,13.0183062 42.7619018,13.7251385 C43.828576,14.4319708 44.6256028,15.5457257 44.9001529,16.8988655 C44.9665507,17.2261114 45,17.5591855 45,17.8930995 L45,50.1069005 C45,51.4876124 44.4403559,52.7376124 43.5355339,53.6424344 C42.6307119,54.5472565 41.3807119,55.1069005 40,55.1069005 C39.6660861,55.1069005 39.3330119,55.0734512 39.0057661,55.0070535 Z" id="Combined-Shape" stroke="#FFFFFF" stroke-width="2" fill="#E8569A"></path>
                <path d="M38.4252903,57.3475478 C37.6736765,57.7495152 36.9384643,58 34.8722296,58 L5.1277704,58 C3.0615357,58 2.32632352,57.7495152 1.57470973,57.3475478 C0.746011758,56.9043553 0.0956447369,56.2539882 -0.34754779,55.4252903 C-0.749515242,54.6736765 -1,53.9384643 -1,51.8722296 L-1,16.1277704 C-1,14.0615357 -0.749515242,13.3263235 -0.34754779,12.5747097 C0.0956447369,11.7460118 0.746011758,11.0956447 1.57470973,10.6524522 C2.32632352,10.2504848 3.0615357,10 5.1277704,10 L34.8722296,10 C36.9384643,10 37.6736765,10.2504848 38.4252903,10.6524522 C39.2539882,11.0956447 39.9043553,11.7460118 40.3475478,12.5747097 C40.7495152,13.3263235 41,14.0615357 41,16.1277704 L41,51.8722296 C41,53.9384643 40.7495152,54.6736765 40.3475478,55.4252903 C39.9043553,56.2539882 39.2539882,56.9043553 38.4252903,57.3475478 Z" id="Combined-Shape" stroke="#FFFFFF" stroke-width="2" fill="#E8569A"></path>
                <path d="M4.5638852,13 L35.4361148,13 C36.3276335,13 36.6509198,13.0928256 36.9768457,13.2671327 C37.3027716,13.4414398 37.5585602,13.6972284 37.7328673,14.0231543 C37.9071744,14.3490802 38,14.6723665 38,15.5638852 L38,43.4361148 C38,44.3276335 37.9071744,44.6509198 37.7328673,44.9768457 C37.5585602,45.3027716 37.3027716,45.5585602 36.9768457,45.7328673 C36.6509198,45.9071744 36.3276335,46 35.4361148,46 L4.5638852,46 C3.67236646,46 3.34908022,45.9071744 3.0231543,45.7328673 C2.69722837,45.5585602 2.4414398,45.3027716 2.2671327,44.9768457 C2.09282561,44.6509198 2,44.3276335 2,43.4361148 L2,15.5638852 C2,14.6723665 2.09282561,14.3490802 2.2671327,14.0231543 C2.4414398,13.6972284 2.69722837,13.4414398 3.0231543,13.2671327 C3.34908022,13.0928256 3.67236646,13 4.5638852,13 Z" id="Rectangle" fill="#FFFFFF"></path>
                <path d="M30.2528973,31.2355454 C29.71027,32.5768611 28.8817007,33.8223675 27.7857097,34.8820188 C24.6372192,37.9261151 19.9018815,38.8369074 15.7878789,37.1896752 C12.9681496,36.0606655 10.8209268,33.8823708 9.74896679,31.237483 C11.6211575,33.0128824 15.5269,34.1690832 20.0000633,34.1690832 C24.4743045,34.1690832 28.3812985,33.0118952 30.2528973,31.2355454 Z M20,23 C26.0376104,23 31,24.9350439 31,27.5447254 C31,30.1541561 26.0363121,32.0894508 20,32.0894508 C13.9631736,32.0894508 9,30.1545455 9,27.5447254 C9,24.9347381 13.9623081,23 20,23 Z" id="Combined-Shape" fill="#E8569A"></path>
                <mask id="mask-2" fill="white">
                    <use xlink:href="#path-1"></use>
                </mask>
                <g id="Shape" transform="translate(45.718287, 15.097672) rotate(20.000000) translate(-45.718287, -15.097672) ">
                    <use fill="black" fill-opacity="1" filter="url(#filter-3)" xlink:href="#path-1"></use>
                    <path stroke="#FFFFFF" stroke-width="2" d="M58.7182872,10.6241504 C58.7182872,12.757632 57.3705789,15.4556705 55.0783081,17.9444964 L45.7244901,28.0681696 L44.1146435,26.3392291 L36.3558913,18.0064487 C34.0660831,15.5202921 32.7182872,12.822208 32.7182872,10.6886772 C32.7182872,8.49221287 33.5197643,6.45460193 34.8755977,5.06931578 C36.2644795,3.48557746 38.1928374,2.59767248 40.3182872,2.59767248 C42.4332658,2.59767248 44.3520735,3.47791488 45.7182733,5.0210621 C47.1038457,3.46755333 49.0145209,2.59767248 51.1182872,2.59767248 C53.2238766,2.59767248 55.1394191,3.46654113 56.6021749,5.0451233 C57.940411,6.49498308 58.7182872,8.52784792 58.7182872,10.6241504 Z" fill="#E8569A" fill-rule="evenodd"></path>
                </g>
            </g>
        </g>
    </g>
</svg>