<?xml version="1.0" encoding="UTF-8"?>
<svg width="64px" height="64px" viewBox="0 0 64 64" version="1.1" xmlns="http://www.w3.org/2000/svg" xmlns:xlink="http://www.w3.org/1999/xlink">
    <!-- Generator: Sketch 62 (91390) - https://sketch.com -->
    <title>icon-plan</title>
    <desc>Created with Sketch.</desc>
    <defs>
        <circle id="path-1" cx="47.5" cy="16.5" r="11.5"></circle>
        <filter x="-39.1%" y="-30.4%" width="178.3%" height="178.3%" filterUnits="objectBoundingBox" id="filter-2">
            <feMorphology radius="2" operator="dilate" in="SourceAlpha" result="shadowSpreadOuter1"></feMorphology>
            <feOffset dx="0" dy="2" in="shadowSpreadOuter1" result="shadowOffsetOuter1"></feOffset>
            <feGaussianBlur stdDeviation="2" in="shadowOffsetOuter1" result="shadowBlurOuter1"></feGaussianBlur>
            <feComposite in="shadowBlurOuter1" in2="SourceAlpha" operator="out" result="shadowBlurOuter1"></feComposite>
            <feColorMatrix values="0 0 0 0 0   0 0 0 0 0   0 0 0 0 0  0 0 0 0.05 0" type="matrix" in="shadowBlurOuter1"></feColorMatrix>
        </filter>
    </defs>
    <g id="3.7" stroke="none" stroke-width="1" fill="none" fill-rule="evenodd">
        <g id="Icons/All-Plans">
            <path d="M51.9308208,22.1708302 C52.6640926,23.6396895 53,24.9336025 53,28.1274306 L52.9999699,40.8803296 L52.9948249,41.5386811 C52.9469428,44.4880575 52.5613529,45.6501775 51.9308208,46.8291698 C51.4506434,47.7270237 50.819128,48.4945463 50.0519507,49.1190109 C49.2887536,49.7402358 48.4141754,50.2012619 47.4437124,50.4893121 C47.9141641,49.5945448 48.2414824,48.8173649 48.4604277,48.0642843 C48.8164067,46.8398651 48.9647144,45.4080728 48.9946695,43.3496282 L49,42.604672 L49.0000251,26.4163804 L48.9943686,25.6144736 C48.9640134,23.5727044 48.8127748,22.1494264 48.4590927,20.9359402 C48.2402001,20.1849179 47.9127336,19.4077838 47.441239,18.5124863 C48.411184,18.7994194 49.2855724,19.258936 50.049854,19.8801031 C50.8189234,20.5051616 51.4505575,21.2728157 51.9308208,22.1708302 Z" id="Combined-Shape" stroke="#FFFFFF" stroke-width="2" fill="#FAB800" fill-rule="evenodd"></path>
            <path d="M47.6930727,19.0814377 C48.5220925,20.63157 49,22.1588334 49,26.409289 L48.9999756,42.5976915 L48.9947498,43.342212 C48.941259,47.0213592 48.4729455,48.460327 47.6930727,49.9185623 C47.1421601,50.9486793 46.4276095,51.8379011 45.5652871,52.5731063 L42.3404614,55.3225522 L43.995957,51.4214898 C44.7492681,49.6463635 45,47.6767675 45,44.180574 L45.0000213,25.8259581 L44.9945821,24.989403 C44.9457851,21.4160964 44.571037,19.5605452 43.5461497,17.6441726 C43.444297,17.4537247 43.3373139,17.2674691 43.2252853,17.0855132 L40.8906213,13.2935715 L44.6224367,15.7231871 C45.9165522,16.565727 46.9523877,17.6964772 47.6930727,19.0814377 Z" id="Combined-Shape" stroke="#FFFFFF" stroke-width="2" fill="#FAB800" fill-rule="evenodd"></path>
            <g id="Group-15" stroke-width="1" fill-rule="evenodd" transform="translate(0.000000, 13.000000)">
                <path d="M12.819426,-5.17920154e-16 L31.180574,5.17920154e-16 C35.6381677,-3.00926524e-16 37.2545989,0.464128056 38.8842285,1.33566352 C40.5138581,2.20719898 41.792801,3.48614185 42.6643365,5.11577148 C43.5358719,6.74540111 44,8.3618323 44,12.819426 L44,31.180574 C44,35.6381677 43.5358719,37.2545989 42.6643365,38.8842285 C41.792801,40.5138581 40.5138581,41.792801 38.8842285,42.6643365 C37.2545989,43.5358719 35.6381677,44 31.180574,44 L12.819426,44 C8.3618323,44 6.74540111,43.5358719 5.11577148,42.6643365 C3.48614185,41.792801 2.20719898,40.5138581 1.33566352,38.8842285 C0.464128056,37.2545989 2.00617683e-16,35.6381677 -3.45280103e-16,31.180574 L3.45280103e-16,12.819426 C-2.00617683e-16,8.3618323 0.464128056,6.74540111 1.33566352,5.11577148 C2.20719898,3.48614185 3.48614185,2.20719898 5.11577148,1.33566352 C6.74540111,0.464128056 8.3618323,3.00926524e-16 12.819426,-5.17920154e-16 Z" id="Combined-Shape" fill="#FAB800"></path>
                <path d="M3.2819426,12 L40.7180574,12 C41.1638168,12 41.3254599,12.0464128 41.4884229,12.1335664 C41.6513858,12.2207199 41.7792801,12.3486142 41.8664336,12.5115771 C41.9535872,12.6745401 42,12.8361832 42,13.2819426 L42,30.4625166 C42,34.4743509 41.5822847,35.929139 40.7979028,37.3958057 C40.0135209,38.8624723 38.8624723,40.0135209 37.3958057,40.7979028 C35.929139,41.5822847 34.4743509,42 30.4625166,42 L13.5374834,42 C9.52564907,42 8.070861,41.5822847 6.60419433,40.7979028 C5.13752767,40.0135209 3.98647908,38.8624723 3.20209717,37.3958057 C2.41771525,35.929139 2,34.4743509 2,30.4625166 L2,13.2819426 C2,12.8361832 2.04641281,12.6745401 2.13356635,12.5115771 C2.2207199,12.3486142 2.34861419,12.2207199 2.51157715,12.1335664 C2.67454011,12.0464128 2.83618323,12 3.2819426,12 Z" id="Rectangle-3" fill="#FFFFFF" fill-rule="nonzero"></path>
                <circle id="Path" fill="#FAB800" fill-rule="nonzero" cx="11" cy="21.200001" r="2.5"></circle>
                <circle id="Path" fill="#FAB800" fill-rule="nonzero" cx="11" cy="32" r="2.5"></circle>
                <circle id="Path" fill="#FAB800" fill-rule="nonzero" cx="22" cy="21.200001" r="2.5"></circle>
                <circle id="Path" fill="#FAB800" fill-rule="nonzero" cx="22" cy="32" r="2.5"></circle>
                <circle id="Path" fill="#FAB800" fill-rule="nonzero" cx="33" cy="21.200001" r="2.5"></circle>
                <circle id="Path" fill="#FAB800" fill-rule="nonzero" cx="33" cy="32" r="2.5"></circle>
            </g>
            <g id="Oval">
                <use fill="black" fill-opacity="1" filter="url(#filter-2)" xlink:href="#path-1"></use>
                <circle stroke="#FFFFFF" stroke-width="2" fill="#FAB800" fill-rule="evenodd" cx="47.5" cy="16.5" r="12.5"></circle>
            </g>
            <path d="M47.5,10 C48.3284271,10 49,10.6715729 49,11.5 L49,22.5 C49,23.3284271 48.3284271,24 47.5,24 C46.6715729,24 46,23.3284271 46,22.5 L46,11.5 C46,10.6715729 46.6715729,10 47.5,10 Z" id="Rectangle" fill="#FFFFFF" fill-rule="nonzero"></path>
            <path d="M47.5,10 C48.3284271,10 49,10.6715729 49,11.5 L49,22.5 C49,23.3284271 48.3284271,24 47.5,24 C46.6715729,24 46,23.3284271 46,22.5 L46,11.5 C46,10.6715729 46.6715729,10 47.5,10 Z" id="Rectangle" fill="#FFFFFF" fill-rule="nonzero" transform="translate(47.500000, 17.000000) rotate(90.000000) translate(-47.500000, -17.000000) "></path>
        </g>
    </g>
</svg>