<?xml version="1.0" encoding="UTF-8"?>
<svg width="64px" height="64px" viewBox="0 0 64 64" version="1.1" xmlns="http://www.w3.org/2000/svg" xmlns:xlink="http://www.w3.org/1999/xlink">
    <!-- Generator: Sketch 62 (91390) - https://sketch.com -->
    <title>icon-timer</title>
    <desc>Created with Sketch.</desc>
    <g id="3.7" stroke="none" stroke-width="1" fill="none" fill-rule="evenodd">
        <g id="Icons/timer" fill="#CA3F24">
            <g id="Group-13" transform="translate(0.000000, 3.000000)">
                <path d="M27.6808309,36 C28.1063897,36.6666667 28.9575072,37.3333333 30.2341835,38 C31.5108598,38.6666667 32.787536,39 34.0642123,39 L38.1541722,39 C39.4914503,39 39.9763797,39.1392384 40.4652686,39.4006991 C40.9541574,39.6621597 41.3378403,40.0458426 41.5993009,40.5347314 C41.8607616,41.0236203 42,41.5085497 42,42.8458278 L42,51.1541722 C42,52.4914503 41.8607616,52.9763797 41.5993009,53.4652686 C41.3378403,53.9541574 40.9541574,54.3378403 40.4652686,54.5993009 C39.9763797,54.8607616 39.4914503,55 38.1541722,55 L16.8458278,55 C15.5085497,55 15.0236203,54.8607616 14.5347314,54.5993009 C14.0458426,54.3378403 13.6621597,53.9541574 13.4006991,53.4652686 C13.1392384,52.9763797 13,52.4914503 13,51.1541722 L13,42.8458278 C13,41.5085497 13.1392384,41.0236203 13.4006991,40.5347314 C13.6621597,40.0458426 14.0458426,39.6621597 14.5347314,39.4006991 C15.0236203,39.1392384 15.5085497,39 16.8458278,39 L21.9357877,39 C22.7869052,39 23.8508021,38.6666667 25.1274784,38 C26.4041547,37.3333333 27.2552722,36.6666667 27.6808309,36 Z M54.882684,32.0008987 C54.5697246,36.0123861 53.6357906,39.2114088 52.1431641,42.0023777 C50.2790466,45.4879744 47.5435299,48.2234911 44.0579332,50.0876086 L44,50.1174444 L44,42.8458278 C44,41.3246734 43.8362088,40.4764932 43.3629273,39.5915337 C42.9150671,38.7541079 42.2458921,38.0849329 41.4084663,37.6370727 C40.5235068,37.1637912 39.6753266,37 38.1541722,37 L34.0642123,37 C33.1206335,37 32.1592603,36.7489906 31.1599427,36.2271577 C30.2416663,35.7476436 29.6629104,35.3127562 29.4202969,34.9995915 L29.3666446,34.9238809 C28.6094368,33.7376635 26.9132161,33.6937295 26.0864518,34.7920789 L25.9950173,34.9238809 C25.792853,35.2405849 25.1965186,35.7076841 24.2017191,36.2271577 C23.1857045,36.7577097 22.4123887,37 21.9357877,37 L16.8458278,37 C15.3246734,37 14.4764932,37.1637912 13.5915337,37.6370727 C12.7541079,38.0849329 12.0849329,38.7541079 11.6370727,39.5915337 C11.1637912,40.4764932 11,41.3246734 11,42.8458278 L10.9998975,50.1184257 C10.9806011,50.10818 10.9613242,50.0979076 10.9420668,50.0876086 C7.45647007,48.2234911 4.72095338,45.4879744 2.85683586,42.0023777 C1.36420936,39.2114088 0.430275395,36.0123861 0.117316018,32.0008987 L54.882684,32.0008987 Z M33.8238125,2.94885101 C33.8726285,2.94989568 33.9254681,2.95091154 33.9823313,2.95189858 C45.648612,3.15440711 55,12.6695276 55,24.3375659 L55,28.8484973 C55,29.2393573 54.9950697,29.6231441 54.9852516,30.0001335 L0.014748361,30.0001335 C0.00493027422,29.6231441 -5.91947585e-15,29.2393573 -5.9673424e-15,28.8484973 L-5.63582337e-15,24.3433864 C-7.25472763e-07,12.6406301 9.40509894,3.11067858 21.1068377,2.95635659 C21.2820225,2.95404626 21.4293844,2.9515444 21.5489233,2.94885101 C24.0704225,2.89203783 25.084507,3.4033564 27.6197183,3.4033564 C30.1549296,3.4033564 31.1690141,2.89203783 33.8238125,2.94885101 Z M29,24 L26,24 L26,28 L29,28 L29,24 Z M42,24 L40,24 L40,28 L42,28 L42,24 Z M51,24 L50,24 L50,28 L51,28 L51,24 Z M15,24 L13,24 L13,28 L15,28 L15,24 Z M5,24 L4,24 L4,28 L5,28 L5,24 Z" id="Combined-Shape" fill-rule="nonzero"></path>
            </g>
        </g>
    </g>
</svg>