<?xml version="1.0" encoding="UTF-8"?>
<svg width="64px" height="64px" viewBox="0 0 64 64" version="1.1" xmlns="http://www.w3.org/2000/svg" xmlns:xlink="http://www.w3.org/1999/xlink">
    <!-- Generator: Sketch 63.1 (92452) - https://sketch.com -->
    <title>Icon-better</title>
    <desc>Created with Sketch.</desc>
    <g id="3.7" stroke="none" stroke-width="1" fill="none" fill-rule="evenodd">
        <g id="Icon-Better" transform="translate(0.000000, 4.000000)" fill="#FAB800">
            <g id="Group-3" transform="translate(-3.500000, -1.000000)">
                <path d="M30.7034005,40.6891964 L14.7996035,52.4077836 C14.5772934,52.571591 14.2642834,52.5241653 14.100476,52.3018552 C14.0054701,52.1729186 13.9779804,52.0062731 14.0265411,51.8536539 L19.8829773,33.4477115 C19.9446265,33.2539568 19.882806,33.0421652 19.7266066,32.911999 L4.52327043,20.2425522 C4.31113198,20.0657702 4.28246995,19.7504878 4.45925199,19.5383494 C4.5542489,19.4243531 4.69497271,19.3584416 4.84336263,19.3584416 L24.2136822,19.3584416 C24.4291316,19.3584416 24.6203538,19.2204315 24.6882247,19.0159517 L30.5254575,1.42968914 C30.612448,1.16760658 30.8954276,1.02566637 31.1575102,1.11265683 C31.3073009,1.16237539 31.4248239,1.27989836 31.4745425,1.42968914 L37.3117753,19.0159517 C37.3796462,19.2204315 37.5708684,19.3584416 37.7863178,19.3584416 L57.1566374,19.3584416 C57.4327797,19.3584416 57.6566374,19.5822992 57.6566374,19.8584416 C57.6566374,20.0068315 57.5907259,20.1475553 57.4767296,20.2425522 L42.2733934,32.911999 C42.117194,33.0421652 42.0553735,33.2539568 42.1170227,33.4477115 L47.9734589,51.8536539 C48.0571863,52.1167971 47.9117411,52.3979912 47.6485979,52.4817186 C47.4959786,52.5302793 47.3293331,52.5027896 47.2003965,52.4077836 L31.2965995,40.6891964 C31.1202215,40.5592336 30.8797785,40.5592336 30.7034005,40.6891964 Z" id="Star" fill-rule="nonzero"></path>
                <path d="M43.3116204,5.91092099 L41.3280862,13.8450576 C41.2611119,14.1129551 41.4239922,14.3844223 41.6918897,14.4513967 C41.7902583,14.4759889 41.8937791,14.4700926 41.9887192,14.43449 L49.5304356,11.6063464 C49.7889957,11.5093863 49.9199985,11.2211803 49.8230384,10.9626201 C49.7498565,10.7674682 49.5632961,10.6381818 49.3548738,10.6381818 L45.6376942,10.6381818 C45.3993536,10.6381818 45.1941462,10.469952 45.1474038,10.2362399 L44.286982,5.93413073 C44.232826,5.66335086 43.9694135,5.48774249 43.6986336,5.54189846 C43.5091623,5.57979272 43.358484,5.7234666 43.3116204,5.91092099 Z" id="Path-8" fill-rule="nonzero"></path>
                <path d="M12.1022698,5.91092099 L10.1187356,13.8450576 C10.0517612,14.1129551 10.2146416,14.3844223 10.482539,14.4513967 C10.5809077,14.4759889 10.6844285,14.4700926 10.7793686,14.43449 L18.3210849,11.6063464 C18.5796451,11.5093863 18.7106478,11.2211803 18.6136878,10.9626201 C18.5405058,10.7674682 18.3539455,10.6381818 18.1455232,10.6381818 L14.4283435,10.6381818 C14.190003,10.6381818 13.9847956,10.469952 13.9380532,10.2362399 L13.0776313,5.93413073 C13.0234754,5.66335086 12.7600628,5.48774249 12.4892829,5.54189846 C12.2998116,5.57979272 12.1491333,5.7234666 12.1022698,5.91092099 Z" id="Path-8" fill-rule="nonzero" transform="translate(15.395325, 9.261299) scale(-1, 1) translate(-15.395325, -9.261299) "></path>
                <path d="M28.1344721,50.5334344 L26.0608468,59.2141117 C25.9966875,59.4826973 26.1624078,59.7524403 26.4309933,59.8165995 C26.5362179,59.8417354 26.6467566,59.8320645 26.7460177,59.7890385 L34.9347348,56.2395324 C35.1880988,56.1297084 35.304461,55.8352864 35.1946371,55.5819224 C35.1156329,55.3996596 34.9362255,55.2814532 34.7375777,55.2807791 L30.3753724,55.2659763 C30.1340071,55.2651572 29.9276819,55.0920298 29.8849627,54.8544737 L29.1128957,50.5611105 C29.0640215,50.2893277 28.8040776,50.1086245 28.5322948,50.1574986 C28.3367819,50.1926573 28.1806264,50.3402217 28.1344721,50.5334344 Z" id="Path-8" fill-rule="nonzero" transform="translate(31.478186, 54.197645) scale(-1, 1) rotate(140.000000) translate(-31.478186, -54.197645) "></path>
                <path d="M50.746486,32.6983978 L48.6728607,41.3790751 C48.6087014,41.6476606 48.7744217,41.9174036 49.0430073,41.9815629 C49.1482318,42.0066987 49.2587705,41.9970278 49.3580317,41.9540018 L57.5467487,38.4044957 C57.8001127,38.2946718 57.916475,38.0002498 57.806651,37.7468858 C57.7276468,37.564623 57.5482394,37.4464166 57.3495916,37.4457425 L52.9873863,37.4309396 C52.7460211,37.4301205 52.5396959,37.2569931 52.4969766,37.019437 L51.7249096,32.7260739 C51.6760355,32.454291 51.4160916,32.2735878 51.1443087,32.322462 C50.9487959,32.3576207 50.7926404,32.505185 50.746486,32.6983978 Z" id="Path-8" fill-rule="nonzero" transform="translate(54.090200, 36.362608) scale(-1, 1) rotate(205.000000) translate(-54.090200, -36.362608) "></path>
                <path d="M4.85038215,32.6983978 L2.77675681,41.3790751 C2.71259755,41.6476606 2.87831781,41.9174036 3.14690337,41.9815629 C3.25212792,42.0066987 3.36266663,41.9970278 3.46192779,41.9540018 L11.6506448,38.4044957 C11.9040088,38.2946718 12.0203711,38.0002498 11.9105471,37.7468858 C11.8315429,37.564623 11.6521355,37.4464166 11.4534877,37.4457425 L7.09128242,37.4309396 C6.84991719,37.4301205 6.64359197,37.2569931 6.60087272,37.019437 L5.82880573,32.7260739 C5.77993156,32.454291 5.51998767,32.2735878 5.2482048,32.322462 C5.05269199,32.3576207 4.89653649,32.505185 4.85038215,32.6983978 Z" id="Path-8" fill-rule="nonzero" transform="translate(8.194097, 36.362608) rotate(205.000000) translate(-8.194097, -36.362608) "></path>
            </g>
        </g>
    </g>
</svg>