<?xml version="1.0" encoding="UTF-8"?>
<svg width="64px" height="64px" viewBox="0 0 64 64" version="1.1" xmlns="http://www.w3.org/2000/svg" xmlns:xlink="http://www.w3.org/1999/xlink">
    <!-- Generator: Sketch 62 (91390) - https://sketch.com -->
    <title>icon-plan</title>
    <desc>Created with Sketch.</desc>
    <g id="3.7" stroke="none" stroke-width="1" fill="none" fill-rule="evenodd">
        <g id="Icons/All-Plans" fill="#FAB800">
            <path d="M31.180574,13 C32.4817988,13 33.5409208,13.0395495 34.428941,13.1172377 C34.1484351,14.1978382 34,15.3315846 34,16.5 C34,19.7218165 35.1286093,22.6800322 37.0120408,25.00086 L3.2819426,25 C2.83618323,25 2.67454011,25.0464128 2.51157715,25.1335664 C2.34861419,25.2207199 2.2207199,25.3486142 2.13356635,25.5115771 C2.057307,25.6541697 2.01223978,25.7957518 2.00216452,26.1275433 L2,26.2819426 L2,43.4625166 C2,47.4743509 2.41771525,48.929139 3.20209717,50.3958057 C3.98647908,51.8624723 5.13752767,53.0135209 6.60419433,53.7979028 C8.02354917,54.5569821 9.43177942,54.9726691 13.1571376,54.9986977 L13.5374834,55 L30.4625166,55 C34.4743509,55 35.929139,54.5822847 37.3958057,53.7979028 C38.8624723,53.0135209 40.0135209,51.8624723 40.7979028,50.3958057 C41.5569821,48.9764508 41.9726691,47.5682206 41.9986977,43.8428624 L42,43.4625166 L42.0003586,28.8326645 C42.641962,29.1192155 43.3100292,29.357168 43.9998807,29.5418427 L44,44.180574 C44,48.6381677 43.5358719,50.2545989 42.6643365,51.8842285 C41.792801,53.5138581 40.5138581,54.792801 38.8842285,55.6643365 C37.2545989,56.5358719 35.6381677,57 31.180574,57 L12.819426,57 C8.3618323,57 6.74540111,56.5358719 5.11577148,55.6643365 C3.48614185,54.792801 2.20719898,53.5138581 1.33566352,51.8842285 C0.464128056,50.2545989 -4.97858386e-15,48.6381677 -5.52448164e-15,44.180574 L-4.83392144e-15,25.819426 C-5.37981922e-15,21.3618323 0.464128056,19.7454011 1.33566352,18.1157715 C2.20719898,16.4861419 3.48614185,15.207199 5.11577148,14.3356635 C6.74540111,13.4641281 8.3618323,13 12.819426,13 L31.180574,13 Z M47.5,30 C47.6677699,30 47.8348251,29.9969397 48.0011127,29.9908717 L48,42.590711 L47.9948555,43.3276746 C47.9451909,46.7436471 47.536883,48.0901654 46.8112595,49.4469635 C46.320536,50.3645366 45.6846875,51.1571894 44.9164964,51.8121395 C45.7104489,49.9412446 46,47.8702826 46,44.180574 L46.0005334,29.9176658 C46.4928621,29.9720702 46.9931694,30 47.5,30 Z M52.0005465,29.2316311 L52,40.8725694 L51.9949567,41.5224485 C51.9513116,44.2108379 51.625217,45.2801531 51.0490076,46.357571 C50.6327139,47.1359726 50.0858697,47.8019993 49.4206684,48.3434578 C49.7966079,47.0503827 49.9629081,45.5395815 49.9946442,43.3567494 L50,42.604672 L49.9998726,29.7689956 C50.686489,29.6404384 51.3547938,29.4599034 52.0005465,29.2316311 Z M11,42.5 C12.3807119,42.5 13.5,43.6192881 13.5,45 C13.5,46.3807119 12.3807119,47.5 11,47.5 C9.61928813,47.5 8.5,46.3807119 8.5,45 C8.5,43.6192881 9.61928813,42.5 11,42.5 Z M22,42.5 C23.3807119,42.5 24.5,43.6192881 24.5,45 C24.5,46.3807119 23.3807119,47.5 22,47.5 C20.6192881,47.5 19.5,46.3807119 19.5,45 C19.5,43.6192881 20.6192881,42.5 22,42.5 Z M33,42.5 C34.3807119,42.5 35.5,43.6192881 35.5,45 C35.5,46.3807119 34.3807119,47.5 33,47.5 C31.6192881,47.5 30.5,46.3807119 30.5,45 C30.5,43.6192881 31.6192881,42.5 33,42.5 Z M11,31.700001 C12.3807119,31.700001 13.5,32.8192891 13.5,34.200001 C13.5,35.5807129 12.3807119,36.700001 11,36.700001 C9.61928813,36.700001 8.5,35.5807129 8.5,34.200001 C8.5,32.8192891 9.61928813,31.700001 11,31.700001 Z M22,31.700001 C23.3807119,31.700001 24.5,32.8192891 24.5,34.200001 C24.5,35.5807129 23.3807119,36.700001 22,36.700001 C20.6192881,36.700001 19.5,35.5807129 19.5,34.200001 C19.5,32.8192891 20.6192881,31.700001 22,31.700001 Z M33,31.700001 C34.3807119,31.700001 35.5,32.8192891 35.5,34.200001 C35.5,35.5807129 34.3807119,36.700001 33,36.700001 C31.6192881,36.700001 30.5,35.5807129 30.5,34.200001 C30.5,32.8192891 31.6192881,31.700001 33,31.700001 Z" id="Combined-Shape"></path>
            <path d="M47.5,5 C53.8512746,5 59,10.1487254 59,16.5 C59,22.8512746 53.8512746,28 47.5,28 C41.1487254,28 36,22.8512746 36,16.5 C36,10.1487254 41.1487254,5 47.5,5 Z M47.5,10 C46.6715729,10 46,10.6715729 46,11.5 L46,11.5 L46,15.5 L42,15.5 C41.2203039,15.5 40.5795513,16.0948881 40.5068666,16.85554 L40.5,17 C40.5,17.8284271 41.1715729,18.5 42,18.5 L42,18.5 L46,18.5 L46,22.5 C46,23.2796961 46.5948881,23.9204487 47.35554,23.9931334 L47.5,24 C48.3284271,24 49,23.3284271 49,22.5 L49,22.5 L49,18.5 L53,18.5 C53.7796961,18.5 54.4204487,17.9051119 54.4931334,17.14446 L54.5,17 C54.5,16.1715729 53.8284271,15.5 53,15.5 L53,15.5 L49,15.5 L49,11.5 C49,10.7203039 48.4051119,10.0795513 47.64446,10.0068666 Z" id="Combined-Shape"></path>
        </g>
    </g>
</svg>