<?xml version="1.0" encoding="UTF-8"?>
<svg width="64px" height="64px" viewBox="0 0 64 64" version="1.1" xmlns="http://www.w3.org/2000/svg" xmlns:xlink="http://www.w3.org/1999/xlink">
    <!-- Generator: Sketch 62 (91390) - https://sketch.com -->
    <title>icon-timer</title>
    <desc>Created with Sketch.</desc>
    <defs>
        <path d="M25.1274784,38 C26.4041547,37.3333333 27.2552722,36.6666667 27.6808309,36 C28.1063897,36.6666667 28.9575072,37.3333333 30.2341835,38 C31.5108598,38.6666667 32.787536,39 34.0642123,39 L38.1541722,39 C39.4914503,39 39.9763797,39.1392384 40.4652686,39.4006991 C40.9541574,39.6621597 41.3378403,40.0458426 41.5993009,40.5347314 C41.8607616,41.0236203 42,41.5085497 42,42.8458278 L42,51.1541722 C42,52.4914503 41.8607616,52.9763797 41.5993009,53.4652686 C41.3378403,53.9541574 40.9541574,54.3378403 40.4652686,54.5993009 C39.9763797,54.8607616 39.4914503,55 38.1541722,55 L16.8458278,55 C15.5085497,55 15.0236203,54.8607616 14.5347314,54.5993009 C14.0458426,54.3378403 13.6621597,53.9541574 13.4006991,53.4652686 C13.1392384,52.9763797 13,52.4914503 13,51.1541722 L13,42.8458278 C13,41.5085497 13.1392384,41.0236203 13.4006991,40.5347314 C13.6621597,40.0458426 14.0458426,39.6621597 14.5347314,39.4006991 C15.0236203,39.1392384 15.5085497,39 16.8458278,39 L21.9357877,39 L21.9357877,39 C22.7869052,39 23.8508021,38.6666667 25.1274784,38 Z" id="path-1"></path>
        <filter x="-31.0%" y="-45.9%" width="162.1%" height="203.8%" filterUnits="objectBoundingBox" id="filter-2">
            <feMorphology radius="2" operator="dilate" in="SourceAlpha" result="shadowSpreadOuter1"></feMorphology>
            <feOffset dx="0" dy="2" in="shadowSpreadOuter1" result="shadowOffsetOuter1"></feOffset>
            <feGaussianBlur stdDeviation="2" in="shadowOffsetOuter1" result="shadowBlurOuter1"></feGaussianBlur>
            <feComposite in="shadowBlurOuter1" in2="SourceAlpha" operator="out" result="shadowBlurOuter1"></feComposite>
            <feColorMatrix values="0 0 0 0 0   0 0 0 0 0   0 0 0 0 0  0 0 0 0.05 0" type="matrix" in="shadowBlurOuter1"></feColorMatrix>
        </filter>
    </defs>
    <g id="3.7" stroke="none" stroke-width="1" fill="none" fill-rule="evenodd">
        <g id="Icons/timer">
            <g id="Group-13" transform="translate(0.000000, 3.000000)">
                <path d="M21.1068377,2.95635659 C21.2820225,2.95404626 21.4293844,2.9515444 21.5489233,2.94885101 C24.0704225,2.89203783 25.084507,3.4033564 27.6197183,3.4033564 C30.1549296,3.4033564 31.1690141,2.89203783 33.8238125,2.94885101 C33.8726285,2.94989568 33.9254681,2.95091154 33.9823313,2.95189858 C45.648612,3.15440711 55,12.6695276 55,24.3375659 L55,28.8484973 C55,34.3947381 54.0072817,38.516781 52.1431641,42.0023777 C50.2790466,45.4879744 47.5435299,48.2234911 44.0579332,50.0876086 C40.5723365,51.9517261 36.4502937,52.9444444 30.9040529,52.9444444 L24.0959471,52.9444444 C18.5497063,52.9444444 14.4276635,51.9517261 10.9420668,50.0876086 C7.45647007,48.2234911 4.72095338,45.4879744 2.85683586,42.0023777 C0.992718341,38.516781 -5.06191051e-16,34.3947381 4.82634926e-16,28.8484973 L0,24.3433864 C-7.25472764e-07,12.6406301 9.40509894,3.11067858 21.1068377,2.95635659 Z" id="Rectangle" fill="#CA5039" fill-rule="nonzero"></path>
                <g id="Combined-Shape" stroke-linejoin="round">
                    <use fill="black" fill-opacity="1" filter="url(#filter-2)" xlink:href="#path-1"></use>
                    <path stroke="#FFFFFF" stroke-width="2" d="M40.9368674,55.4811141 C40.3482166,55.795928 39.7746475,56 38.1541722,56 L16.8458278,56 C15.2253525,56 14.6517834,55.795928 14.0631326,55.4811141 C13.3973976,55.1250752 12.8749248,54.6026024 12.5188859,53.9368674 C12.204072,53.3482166 12,52.7746475 12,51.1541722 L12,42.8458278 C12,41.2253525 12.204072,40.6517834 12.5188859,40.0631326 C12.8749248,39.3973976 13.3973976,38.8749248 14.0631326,38.5188859 C14.6517834,38.204072 15.2253525,38 16.8458278,38 L21.9357877,38 C22.667234,38 23.5730743,37.6835612 24.6645988,37.1135789 C25.7334324,36.5554454 26.4788344,36.0244789 26.8379241,35.4619404 L27.6808309,34.1414697 L28.5237377,35.4619404 C28.8828275,36.0244789 29.6282295,36.5554454 30.6970631,37.1135789 C31.8194462,37.6996753 32.9407146,38 34.0642123,38 L38.1541722,38 C39.7746475,38 40.3482166,38.204072 40.9368674,38.5188859 C41.6026024,38.8749248 42.1250752,39.3973976 42.4811141,40.0631326 C42.795928,40.6517834 43,41.2253525 43,42.8458278 L43,51.1541722 C43,52.7746475 42.795928,53.3482166 42.4811141,53.9368674 C42.1250752,54.6026024 41.6026024,55.1250752 40.9368674,55.4811141 Z" fill="#CA5039" fill-rule="evenodd"></path>
                </g>
                <rect id="Rectangle" fill="#FFFFFF" fill-rule="nonzero" x="0" y="30" width="55" height="2"></rect>
                <rect id="Rectangle" fill="#FFFFFF" fill-rule="nonzero" x="26" y="24" width="3" height="4"></rect>
                <rect id="Rectangle" fill="#FFFFFF" fill-rule="nonzero" x="40" y="24" width="2" height="4"></rect>
                <rect id="Rectangle" fill="#FFFFFF" fill-rule="nonzero" x="50" y="24" width="1" height="4"></rect>
                <rect id="Rectangle" fill="#FFFFFF" fill-rule="nonzero" x="13" y="24" width="2" height="4"></rect>
                <rect id="Rectangle" fill="#FFFFFF" fill-rule="nonzero" x="4" y="24" width="1" height="4"></rect>
            </g>
        </g>
    </g>
</svg>