<?xml version="1.0" encoding="UTF-8"?>
<svg width="64px" height="64px" viewBox="0 0 64 64" version="1.1" xmlns="http://www.w3.org/2000/svg" xmlns:xlink="http://www.w3.org/1999/xlink">
    <title>icon-timer</title>
    <g id="3.7" stroke="none" stroke-width="1" fill="none" fill-rule="evenodd">
        <g id="Group" fill="#CA5039" fill-rule="nonzero">
            <g id="Combined-Shape">
                <path d="M27.6808309,39 C28.1063897,39.6666667 28.9575072,40.3333333 30.2341835,41 C31.5108598,41.6666667 32.787536,42 34.0642123,42 L38.1541722,42 C39.4914503,42 39.9763797,42.1392384 40.4652686,42.4006991 C40.9541574,42.6621597 41.3378403,43.0458426 41.5993009,43.5347314 C41.8607616,44.0236203 42,44.5085497 42,45.8458278 L42,54.1541722 C42,55.4914503 41.8607616,55.9763797 41.5993009,56.4652686 C41.3378403,56.9541574 40.9541574,57.3378403 40.4652686,57.5993009 C39.9763797,57.8607616 39.4914503,58 38.1541722,58 L16.8458278,58 C15.5085497,58 15.0236203,57.8607616 14.5347314,57.5993009 C14.0458426,57.3378403 13.6621597,56.9541574 13.4006991,56.4652686 C13.1392384,55.9763797 13,55.4914503 13,54.1541722 L13,45.8458278 C13,44.5085497 13.1392384,44.0236203 13.4006991,43.5347314 C13.6621597,43.0458426 14.0458426,42.6621597 14.5347314,42.4006991 C15.0236203,42.1392384 15.5085497,42 16.8458278,42 L21.9357877,42 C22.7869052,42 23.8508021,41.6666667 25.1274784,41 C26.4041547,40.3333333 27.2552722,39.6666667 27.6808309,39 Z M54.882684,35.0008987 C54.5697246,39.0123861 53.6357906,42.2114088 52.1431641,45.0023777 C50.2790466,48.4879744 47.5435299,51.2234911 44.0579332,53.0876086 L44,53.1174444 L44,45.8458278 C44,44.3246734 43.8362088,43.4764932 43.3629273,42.5915337 C42.9150671,41.7541079 42.2458921,41.0849329 41.4084663,40.6370727 C40.5235068,40.1637912 39.6753266,40 38.1541722,40 L34.0642123,40 C33.1206335,40 31.5,39.5 30,38.5 C29,37.8333333 28.25,36.9999564 27.75,35.9998693 C27.25,36.9999564 26.5,37.8333333 25.5,38.5 C24,39.5 22.4123887,40 21.9357877,40 L16.8458278,40 C15.3246734,40 14.4764932,40.1637912 13.5915337,40.6370727 C12.7541079,41.0849329 12.0849329,41.7541079 11.6370727,42.5915337 C11.1637912,43.4764932 11,44.3246734 11,45.8458278 L10.9998975,53.1184257 C10.9806011,53.10818 10.9613242,53.0979076 10.9420668,53.0876086 C7.45647007,51.2234911 4.72095338,48.4879744 2.85683586,45.0023777 C1.36420936,42.2114088 0.430275395,39.0123861 0.117316018,35.0008987 L54.882684,35.0008987 Z M58.8304459,35.000049 C58.4981148,38.2916627 57.6824,40.9522777 56.4288477,43.2962167 C55.0468764,45.8802784 53.1327649,48.0062862 50.7475401,49.6132131 C52.0835375,48.2701925 53.2201679,46.7282307 54.1431641,45.0023777 C55.635914,42.2111781 56.569879,39.0118573 56.8827616,34.9999039 L58.8304459,35.000049 Z M62.7788196,35.001335 C62.4474636,37.634534 61.7485822,39.8128396 60.7145313,41.7463466 C59.3741643,44.2526149 57.4706423,46.2741325 55.0744345,47.74043 C56.4062314,46.4635891 57.5300768,44.9767723 58.4288477,43.2962167 C59.6822723,40.9525166 60.4979485,38.292205 60.8303443,35.0010553 L62.7788196,35.001335 Z M54.4669043,12.8050917 C59.5740495,15.7696865 63,21.2977231 63,27.6144971 L63,31.2232423 C63,31.8372648 62.9847908,32.4294675 62.9546295,33.0015206 L60.9693651,33.0005121 C60.9829508,32.6611795 60.9920377,32.3155202 60.9965862,31.9632597 L61,31.4298837 L61,27.2568694 C61,21.5046373 58.4750663,16.3350222 54.4669043,12.8050917 Z M47.8300119,9.7800504 C54.4317175,12.8364351 59,19.5195971 59,27.2568694 L59,31.4298837 C59,31.9679301 58.9897569,32.4908345 58.9694047,32.9995218 L56.9852516,33.0001335 L56.9963076,32.4295169 L56.9963076,32.4295169 L57,31.8484973 L57,27.3375659 C57,20.0758759 53.3779387,13.6480728 47.8300119,9.7800504 Z M33.8238125,5.94885101 C33.8726285,5.94989568 33.9254681,5.95091154 33.9823313,5.95189858 C45.648612,6.15440711 55,15.6695276 55,27.3375659 L55,31.8484973 C55,32.2393573 54.9950697,32.6231441 54.9852516,33.0001335 L0.014748361,33.0001335 C0.00493027422,32.6231441 -1.89032733e-12,32.2393573 -1.8903752e-12,31.8484973 L-1.89004368e-12,27.3433864 C-7.25474647e-07,15.6406301 9.40509894,6.11067858 21.1068377,5.95635659 C21.2820225,5.95404626 21.4293844,5.9515444 21.5489233,5.94885101 C24.0704225,5.89203783 25.084507,6.4033564 27.6197183,6.4033564 C30.1549296,6.4033564 31.1690141,5.89203783 33.8238125,5.94885101 Z M29,27 L26,27 L26,31 L29,31 L29,27 Z M42,27 L40,27 L40,31 L42,31 L42,27 Z M51,27 L50,27 L50,31 L51,31 L51,27 Z M15,27 L13,27 L13,31 L15,31 L15,27 Z M5,27 L4,27 L4,31 L5,31 L5,27 Z"></path>
            </g>
        </g>
    </g>
</svg>