<?xml version="1.0" encoding="UTF-8"?>
<svg width="64px" height="64px" viewBox="0 0 64 64" version="1.1" xmlns="http://www.w3.org/2000/svg" xmlns:xlink="http://www.w3.org/1999/xlink">
    <!-- Generator: Sketch 63.1 (92452) - https://sketch.com -->
    <title>icon-plantbased</title>
    <desc>Created with Sketch.</desc>
    <g id="3.7" stroke="none" stroke-width="1" fill="none" fill-rule="evenodd">
        <g id="Icon-Plant-Based" transform="translate(0.000000, 5.000000)" fill="#8AD63E">
            <g id="Combined-Shape">
                <path d="M29.3155919,0.881180823 L30.7210286,3.95826106 C33.3127119,9.79042742 34.1877679,14.9588305 33.4767097,19.7056348 C33.0695135,20.0147713 32.6300049,20.3551714 32.1593676,20.7268604 L32.1593676,20.7268604 L31.4266729,21.3107499 C28.9125297,23.3317036 26.1512973,25.7217778 23.2267913,28.47026 C22.0358307,29.5895375 20.8558608,30.8083234 19.691077,32.1112899 C17.563986,34.4907259 15.5848268,37.0361008 13.803282,39.5813338 C13.179637,40.4723144 12.62487,41.3001911 12.1453887,42.0441189 L12.1453887,42.0441189 L11.9088381,42.4140651 L11.5488489,42.9921399 C11.2533032,43.4823008 11.41107,44.1192418 11.9012309,44.4147875 C12.3913917,44.7103332 13.0283327,44.5525664 13.3238784,44.0624055 C13.3718036,43.9829219 13.4432936,43.8668131 13.5375223,43.7167063 L13.5375223,43.7167063 L14.1265867,42.7989376 C14.371724,42.4240815 14.6352148,42.0291941 14.9162263,41.6169068 L14.9162263,41.6169068 L15.5013634,40.7699119 C17.2388173,38.28767 19.1687769,35.8055701 21.2363649,33.4926963 C22.3626567,32.2327882 23.5011193,31.0568751 24.6462711,29.9806491 C27.5306527,27.2698763 30.2516191,24.9146556 32.7252685,22.9262523 C33.589254,22.2317514 34.3600062,21.6331114 35.0270351,21.1317311 L35.0270351,21.1317311 L35.4209283,20.8379792 L35.8346478,20.5371393 C35.84273,20.5314253 35.8507056,20.5256166 35.8585742,20.5197159 C41.3893936,19.3869937 47.2600944,20.3694699 53.5125578,23.7606141 L56.2173627,25.2456451 C57.0649191,25.7109827 57.2620098,26.8455959 56.6213132,27.5711103 L53.9108254,30.6403851 L51.3964229,33.4346294 C44.0802525,41.4343521 38.2774807,45.6416407 30.5009812,47.089649 L30.0319948,47.1732267 C28.1475246,47.5304235 25.7412042,47.662877 22.2245256,47.6635436 L19.1707127,47.7792235 C16.9238469,47.8732784 15.625451,47.9591026 13.9546183,48.119995 L8.84406591,48.6383033 C8.00568244,49.5329582 7.14518692,50.3322215 6.31141421,50.9433714 L6.00009745,51.1635537 C5.3920743,51.5775753 4.84642886,52.0409722 4.34222262,52.5583136 C3.7871166,53.1278807 3.39942703,53.6106902 2.8135425,54.4387606 L2.47211591,54.9272727 L-6.21724894e-13,53.2049565 L0.412661956,52.6155085 C1.05807838,51.7069156 1.51820164,51.1368917 2.19014679,50.4474416 C2.72420756,49.899468 3.29864138,49.3958863 3.92652484,48.9359837 L4.30977348,48.6652779 C5.06477485,48.1511743 5.91348336,47.3629774 6.75395099,46.455061 L6.30532148,42.8832707 C5.36780572,34.2535272 5.57797716,25.6320305 8.29145259,19.460051 C10.2550886,15.0258311 13.0017276,12.0594671 19.0057903,7.03306523 L20.3545304,5.91862072 L20.4935429,5.79538579 L21.3852264,5.08741388 C22.1338889,4.4838191 22.9228386,3.8249552 23.9493597,2.95164499 L26.9694454,0.362698488 C27.7290765,-0.288963443 28.899221,-0.0303695229 29.3155919,0.881180823 Z" fill-rule="nonzero"></path>
            </g>
        </g>
    </g>
</svg>