<?xml version="1.0" encoding="UTF-8"?>
<svg width="381px" height="97px" viewBox="0 0 381 97" version="1.1" xmlns="http://www.w3.org/2000/svg" xmlns:xlink="http://www.w3.org/1999/xlink">
    <title>plantry copy</title>
    <defs>
        <polygon id="path-1" points="1.51220213e-15 0 60.4907125 0 60.4907125 67.5374342 1.51220213e-15 67.5374342"></polygon>
        <polygon id="path-3" points="0 0 49.4976907 0 49.4976907 65.293365 0 65.293365"></polygon>
    </defs>
    <g id="Plantry-website" stroke="none" stroke-width="1" fill="none" fill-rule="evenodd">
        <g id="Plantry-4.0-website-+-ipad" transform="translate(-530.000000, -79.000000)">
            <g id="Brand/Plantry-Logo-Solid-2" style="mix-blend-mode: multiply;" transform="translate(444.000000, 16.000000)">
                <g id="Brand/Plantry-Logo-Solid" transform="translate(89.576471, 63.529412)">
                    <g id="Brand/_/Lita-Logo-Outlined-Inverted-16-pt" transform="translate(0.354436, 0.835969)" fill="#000000" fill-rule="nonzero">
                        <path d="M54.4409729,0 C67.6170315,0 80.0496148,2.1619195 89.56539,6.13519144 C94.7753402,8.31058422 99.1286309,11.0273635 102.404251,14.3294088 C106.497097,18.4552721 108.881946,23.4894239 108.881946,29.0588372 C108.881946,30.200158 108.779316,31.3338248 108.576362,32.4519697 L108.576362,32.4519697 L108.545461,32.6102193 L108.500255,32.9823288 C107.020142,44.7504935 101.708432,55.762466 93.2570349,64.3038253 L93.2570349,64.3038253 L92.9464379,64.6152087 C77.3690303,80.1067154 53.9576689,84.7383847 33.6159527,76.3607709 C15.5676766,68.9276967 2.95766802,52.4754275 0.430454042,33.3320893 L0.430454042,33.3320893 L0.347927861,32.6731668 L0.33094824,32.5889319 C0.135598463,31.5556763 0.0260472111,30.5087939 0.00411421403,29.4545229 L0.00411421403,29.4545229 L-1.42108547e-14,29.0588372 C-1.42108547e-14,23.4892867 2.38472923,18.4549682 6.47751239,14.3290134 C9.75316732,11.0268096 14.1065134,8.31000669 19.3165756,6.13465868 C28.8321007,2.16165843 41.2645557,0 54.4409729,0 Z M14.7517553,45.540011 L14.8194692,45.6771765 C19.4669042,55.0454593 27.4246517,62.671064 37.5385095,66.8363957 C54.0470589,73.6353427 73.0488839,69.8760495 85.6830544,57.3115496 C89.180128,53.8337604 91.9987048,49.870942 94.1014728,45.6099446 C86.152857,53.0107969 71.3124829,57.7459855 54.4642687,57.7459855 C37.5609349,57.7459855 22.6801935,52.9815345 14.7517553,45.540011 Z M54.4409729,10.3004939 C30.2130992,10.3004939 10.3004939,18.2861209 10.3004939,29.0588372 L10.305,28.772 L10.3064532,28.8089074 C10.6992463,39.4175418 30.4588162,47.2449308 54.4409729,47.2449308 C78.4481676,47.2449308 98.227287,39.3982738 98.5767489,28.7729135 C98.2273787,18.1461343 78.4533311,10.3004939 54.4409729,10.3004939 Z" id="Combined-Shape"></path>
                    </g>
                    <g id="Group-17" transform="translate(124.319175, 6.551766)">
                        <g id="Group-3">
                            <mask id="mask-2" fill="white">
                                <use xlink:href="#path-1"></use>
                            </mask>
                            <g id="Clip-2"></g>
                            <path d="M60.4837544,16.8658391 C60.3058339,27.6768487 47.135037,40.7867781 23.8789586,44.4473428 C22.3840861,50.6613642 21.2437777,57.5568466 20.5431626,65.1333642 C20.5687014,67.3467289 19.8084958,68.1128936 16.0006572,67.0913407 C12.6091014,66.1549172 10.8005271,63.0902584 10.9022567,58.8337878 C11.0222892,54.4070584 12.3928727,47.7673899 13.6183106,43.3406605 C13.6183106,43.3406605 21.9937678,10.9919096 32.8839478,10.0554861 C34.2617673,9.88522729 35.8587951,10.0554861 36.8756659,10.9067802 C37.2740715,11.1621685 37.1889421,11.1621685 36.8726864,11.7580744 C35.1543492,14.3970861 29.2872301,22.2600642 25.6347527,36.9870268 C41.2359944,33.3268878 47.4061741,25.8044273 47.8245852,17.6320038 C48.1204099,10.651392 43.2616487,5.03285082 33.1372078,5.96927435 C18.379173,7.33134494 6.42359836,20.9520508 13.8115544,33.2953899 C13.9549974,33.5507781 14.0137367,33.8061664 13.740897,33.9764252 C12.2387885,35.3384958 9.59041248,36.2749193 6.84286072,36.5303075 C-8.09564846,37.8923781 1.48055907,3.27024635 35.0241012,0.205587529 C52.6948388,-1.41187129 60.7621275,6.73543906 60.4837544,16.8658391" id="Fill-1" fill="#000000" mask="url(#mask-2)"></path>
                        </g>
                        <path d="M54.8443832,62.1538348 C51.7009796,57.9824936 54.4229926,49.7253664 55.8497615,44.9581193 C58.4534446,36.1897899 61.4644719,27.5917193 64.0664523,18.8238155 C64.8658175,16.0145449 65.5970792,13.0350155 66.1585076,10.0554861 C66.2572578,8.26776847 68.2386448,8.01238024 70.787845,8.01238024 C75.0370796,8.01238024 77.2244799,9.88522729 76.4063862,13.7160508 C76.0356476,15.6740273 75.5031632,17.5468744 74.8944879,19.334592 C72.3469902,27.5917193 69.8067286,35.7641428 67.0025658,44.0216958 C65.5183345,48.5331289 63.6625133,55.0033899 64.5606286,56.194776 C65.6881676,57.641976 71.164117,52.3639525 76.0292629,39.7652252 C76.7490321,37.7221193 81.0008206,37.7221193 79.2386418,41.6380722 C74.3875422,52.4495075 62.8805996,72.5396231 54.8443832,62.1538348" id="Fill-4" fill="#000000"></path>
                        <path d="M93.480239,32.1037058 C87.6548334,32.5293529 79.6854435,56.3651625 83.1055176,56.1949037 C85.5815065,56.1097743 91.8334105,49.0440331 94.1680846,43.6813058 C94.4162369,42.9147155 94.6733277,42.0634213 94.9299929,41.2121272 C96.3788955,36.1899176 95.9634639,31.933447 93.480239,32.1037058 M104.933976,44.0218235 C103.45315,48.5332566 101.602436,55.0030919 102.501828,56.1949037 C103.630644,57.6421037 109.95278,52.3640802 114.807711,39.7653529 C115.158018,38.8289293 116.230223,38.3181529 117.157282,38.4032823 C117.905144,38.5735411 118.524886,39.169447 118.41209,40.2761293 C118.369099,40.7017764 118.24098,41.1274235 118.018792,41.6377743 C113.176631,52.4492096 100.834995,72.5397508 92.7902651,62.1539625 C91.4503282,60.2811155 91.2098376,57.6421037 91.4967237,54.8328331 C88.1932769,59.6852096 84.3373402,64.111939 80.9338663,64.111939 C78.4663903,64.111939 75.730331,62.5796096 73.5688952,59.6000802 C72.5260599,58.1528802 72.2017169,55.5138684 72.524783,52.3640802 C73.5318639,41.7233293 81.4680534,24.8677058 91.6695364,24.8677058 C94.7303644,24.8677058 96.9624576,26.3149058 98.4543505,28.3580117 C98.5914089,27.8472352 98.6437635,27.3364588 98.7897604,26.7405529 C98.8872336,24.9528352 100.912037,24.2717999 103.462088,24.2717999 C107.713025,24.2717999 109.909364,26.9108117 109.017634,30.6565058 C108.254023,33.9765529 107.261414,37.0412117 106.277743,40.0207411 C106.029166,40.7864802 105.5418,42.2336802 104.933976,44.0218235" id="Fill-6" fill="#000000"></path>
                        <path d="M156.288378,41.6379871 C151.369601,52.4494224 139.895008,72.5395379 131.92732,62.1537497 C128.691977,57.9824085 131.485924,49.7252812 132.905032,44.9580342 C133.589046,42.4041518 136.159529,34.657801 135.098391,33.3808598 C133.901897,31.7629753 125.145911,40.9569518 120.837512,54.0668812 C119.656767,58.153093 118.715236,61.5578438 118.524971,63.4306909 C118.327471,64.5373732 118.122309,64.8778909 115.654833,64.8778909 C107.316407,64.8778909 110.161007,54.4925283 112.498235,46.575493 C113.635989,42.9149283 115.604607,36.1045753 117.06713,31.7629753 C117.828187,29.2942224 117.973758,28.6987422 118.395149,26.2299892 C118.5769,24.4422716 120.473158,24.1868833 123.014697,24.2720128 C128.115651,24.2720128 129.54923,26.0597304 128.650264,29.8901283 C128.376998,30.9121069 128.120333,31.7629753 127.770451,32.6993989 C133.470291,25.1233069 140.123154,21.5478716 144.706096,27.5069304 C147.795868,31.4224577 145.482051,39.1692342 143.970578,44.0216106 C143.449586,45.8093283 140.495596,54.8330459 141.548646,56.1951165 C142.678314,57.6423165 148.14575,52.364293 153.075594,39.76514 C153.707255,37.7220342 157.959043,37.7220342 156.288378,41.6379871" id="Fill-8" fill="#000000"></path>
                        <path d="M151.445026,44.957949 C153.254877,38.829057 155.386943,32.8699982 157.195517,26.7406806 C153.428967,26.9960688 151.787246,28.1027512 151.787246,28.1027512 C148.65193,26.3150335 148.836661,21.1221394 157.847609,21.1221394 L158.697626,21.1221394 C158.996856,19.8451982 159.303747,18.4831276 159.517848,17.2061864 C159.621706,15.3333394 161.593729,15.1630806 164.143354,15.1630806 C168.39344,15.1630806 170.584671,17.0359276 169.783178,20.7816217 C169.731675,21.2923982 169.603981,21.7180453 169.467348,22.2288217 C170.725135,22.3990806 171.804576,22.6544688 172.722697,22.8247276 C173.802137,23.0801159 174.456783,23.3355041 174.217143,25.7191276 C173.986017,28.0176217 173.789794,28.27301 171.945465,28.0176217 C170.848573,27.9324923 169.50523,27.7622335 167.992055,27.5919747 C165.733146,34.8279747 165.255996,36.1896196 162.596127,44.0215255 C162.118551,45.3835961 158.263892,56.6206784 160.731368,56.6206784 C164.049286,56.6206784 170.475706,51.0872667 174.760695,39.7650549 C175.476207,37.721949 179.617753,37.1264688 177.948791,41.0419961 C174.439331,50.5764902 165.336443,64.9633608 155.891335,64.9633608 C153.934635,64.9633608 152.157133,64.0265116 150.47455,62.1536646 C147.135349,58.1530079 150.028472,49.7251961 151.445026,44.957949" id="Fill-10" fill="#000000"></path>
                        <path d="M183.060046,62.1538348 C179.90515,57.9824936 182.605029,49.7253664 184.019029,44.9581193 C184.80222,42.2339781 185.883789,39.0841899 186.530772,36.8708252 C187.084539,34.7425899 184.729008,34.4872016 183.266911,33.8061664 C184.031798,33.8061664 181.991246,33.8061664 180.988422,32.7846134 C179.881314,36.1897899 178.391124,40.0206134 176.696623,43.3406605 C175.377117,46.3201899 172.213708,45.6391546 173.125018,43.3406605 C174.802919,39.3395781 176.906467,33.6359075 178.346431,28.6132722 C178.482638,28.1024958 178.61927,27.5917193 178.84912,26.9958134 C179.164524,25.5486134 179.47099,24.1869685 179.675726,22.9947311 C179.855349,21.2074391 181.879301,20.5264038 184.428927,20.5264038 C188.679439,20.5264038 189.885722,23.7613214 187.869432,26.9111096 C185.853142,30.0608979 191.006025,29.5496958 192.170596,29.805084 C196.336829,29.805084 198.376956,32.3589664 197.483522,36.1897899 C196.888042,38.7436722 195.943531,41.382684 195.168854,44.0216958 C193.696966,48.5331289 191.773467,55.0033899 192.674988,56.194776 C193.805932,57.641976 199.352964,52.3639525 204.184484,39.7652252 C204.81359,37.7221193 209.065379,37.7221193 207.398971,41.6380722 C202.492111,52.4495075 191.12393,72.5396231 183.060046,62.1538348" id="Fill-12" fill="#000000"></path>
                        <g id="Group-16" transform="translate(198.428496, 23.250162)">
                            <mask id="mask-4" fill="white">
                                <use xlink:href="#path-3"></use>
                            </mask>
                            <g id="Clip-15"></g>
                            <path d="M15.5776232,45.9694567 C10.2855533,48.6935979 5.63961568,51.7582567 5.20588133,56.0994311 C5.1296905,56.8660214 5.82775168,58.3979252 6.84930462,58.3979252 C8.72172603,58.3979252 12.0830609,55.4188214 14.3108976,49.2895038 L15.5776232,45.9694567 Z M49.3054705,17.2812706 C43.6103129,30.1353861 37.701906,34.8175038 28.5585816,39.4996214 C27.7179286,41.9683744 26.7917206,44.4371273 25.8574253,46.9910096 C19.7468362,63.0800428 13.0565157,65.2934075 8.63021192,65.2934075 C5.22503544,65.2934075 -0.40244432,61.1220664 0.0227770919,56.8660214 C0.822142268,48.8638567 10.6588458,44.0966096 17.362787,40.861692 L19.6825634,33.7959508 C14.0274166,41.0319508 7.6550545,44.3519979 3.12787239,38.5631979 C0.124506739,34.5621155 2.42172392,26.9008941 3.8416825,22.0485176 C4.99050392,18.2176941 6.54624392,12.8545412 7.86404721,9.02371765 C8.62084768,6.55496471 8.78259356,5.7888 9.19887639,3.32004706 C9.29209309,1.53275506 11.2734802,1.27694118 13.8239573,1.27694118 C21.1263583,1.36249624 19.6821378,6.46983529 18.5013929,10.6411765 C17.3632126,14.3868706 15.8760018,18.2176941 14.7284573,22.0485176 C13.360002,26.389692 11.9919724,31.5825861 12.7406856,32.6041391 C14.0252884,34.2215979 22.6820983,25.0280471 26.9628307,11.9181176 C28.0665336,8.51294118 28.9999776,5.10776471 29.568642,1.95840212 C29.6610074,0.170258824 31.6330303,0 34.1835074,0 C40.474571,0 39.7305399,5.7888 38.5510719,9.96014118 C37.303926,13.9612235 35.7673402,18.3028235 34.5453074,22.0485176 C34.5453074,22.0485176 32.9410437,27.0711529 30.5548663,33.9662096 C37.1702729,29.8799979 42.1682206,24.9429176 45.2145766,16.5151059 C46.2067599,13.3653176 50.4423738,14.3868706 49.3054705,17.2812706 L49.3054705,17.2812706 Z" id="Fill-14" fill="#000000" mask="url(#mask-4)"></path>
                        </g>
                    </g>
                </g>
            </g>
        </g>
    </g>
</svg>