<?xml version="1.0" encoding="UTF-8"?>
<svg width="246px" height="100px" viewBox="0 0 246 100" version="1.1" xmlns="http://www.w3.org/2000/svg" xmlns:xlink="http://www.w3.org/1999/xlink">
    <title>plantry</title>
    <defs>
        <path d="M132.737339,35.6035388 L133.656661,35.6769625 L134.061162,35.787098 L134.502437,35.9339454 L134.870165,36.1542165 L135.237894,36.4111994 L135.568849,36.741606 L135.826259,37.0720126 L136.083669,37.4391311 L136.304306,37.8429613 L136.451398,38.2835035 L136.561716,38.7240456 L136.672035,40.045672 L136.635262,40.522926 L136.598489,40.9634682 L136.488171,41.4040103 L136.414625,41.8445524 L136.304306,42.2850946 L136.010124,43.0927551 L135.826259,43.4965854 L135.642395,43.8637039 L135.458531,44.2675342 L135.311439,44.6346526 L135.090802,45.0384829 L134.649528,45.7727198 L134.392118,46.1031264 L134.134708,46.4702449 L133.362478,47.4614647 L133.068295,47.7918713 L132.479929,48.4159726 L131.560608,49.3337687 L131.19288,49.5907517 L130.861924,49.8477346 L130.494195,50.0680056 L129.832284,50.5819715 L129.464555,50.8022425 L129.096827,51.0592255 L128.765871,51.2794965 L128.324597,51.5364794 L127.294957,52.0504453 L127.07432,52.2340045 L126.964001,52.4542756 L126.927228,52.7846822 L126.853683,53.1885124 L126.81691,53.6290546 L126.669818,54.4367152 L126.633045,54.8772573 L126.5595,55.6849179 L126.5595,56.12546 L126.633045,56.9331206 L126.706591,57.3369509 L126.853683,57.7407812 L127.07432,58.1078996 L127.368503,58.4015944 L127.699458,58.5851536 L128.10396,58.6952892 L128.508461,58.6952892 L128.949735,58.6218655 L129.354237,58.5484418 L129.795511,58.4383062 L130.16324,58.2914589 L130.494195,58.0711878 L131.45029,57.3736627 L131.891564,57.079968 L132.185747,56.7862732 L132.479929,56.4558666 L133.068295,55.8684771 L133.583115,55.2076639 L133.877298,54.8405455 L134.208254,54.4000033 L134.465664,53.8860375 L134.669014,53.5076914 L134.713318,53.3353598 L134.860409,52.8948177 L135.228138,52.0871571 L135.448775,51.6833268 L135.632639,51.2794965 L136.147459,50.5452596 L136.404869,50.214853 L136.956462,49.4806161 L137.213872,49.1134977 L137.544828,48.7830911 L138.86865,47.608312 L139.604107,47.0943462 L140.008609,46.8740752 L140.780839,46.3968212 L141.148567,46.1765501 L141.553069,45.9929909 L141.994343,45.8461435 L142.47239,45.6992961 L142.766573,45.6258724 L143.281393,45.4790251 L143.722667,45.4056014 L144.200714,45.3688895 L144.494897,45.3321777 L145.81872,45.3321777 L146.701269,45.4056014 L147.10577,45.4790251 L147.951546,45.6625843 L148.760549,45.8828553 L149.201823,45.9929909 L149.569551,46.1765501 L149.974053,46.3968212 L150.305009,46.6170922 L150.672737,46.8740752 L151.334648,47.388041 L151.555286,47.7184476 L151.592058,48.0121423 L151.48174,48.3425489 L151.22433,48.7096674 L150.893374,49.0767858 L150.488873,49.3704806 L150.084371,49.4806161 L149.643097,49.3337687 L149.16505,49.0767858 L148.90764,48.9299385 L148.39282,48.7096674 L147.988319,48.5261082 L147.547044,48.3425489 L147.10577,48.1957016 L146.664496,48.085566 L146.186449,48.0121423 L145.745174,47.9754305 L145.267127,47.9754305 L144.78908,48.0488542 L143.906532,48.1957016 L143.465257,48.3425489 L142.656254,48.7096674 L142.251753,48.9666503 L141.884025,49.2236332 L141.553069,49.517328 L141.148567,49.8844464 L140.854385,50.214853 L140.596975,50.5085478 L140.302792,50.8389544 L140.045382,51.2060728 L139.787972,51.6099031 L139.567335,51.9770216 L139.38347,52.3808519 L139.162833,52.7846822 L138.978969,53.1885124 L138.831877,53.5923427 L138.61124,54.4000033 L138.500922,54.8405455 L138.390603,55.2443758 L138.317058,55.648206 L138.280285,56.0887482 L138.280285,56.4925785 L138.317058,56.9331206 L138.35383,57.3369509 L138.464149,57.777493 L138.648013,58.1446115 L138.942196,58.4383062 L139.346697,58.5851536 L139.787972,58.6218655 L140.229246,58.4750181 L140.596975,58.2180352 L140.964703,57.9243404 L141.295659,57.6306457 L141.95757,56.9698325 L142.21498,56.6394259 L142.47239,56.2355956 L143.207847,55.0608165 L143.428484,54.6569862 L143.612349,54.2531559 L143.832986,53.8493257 L144.237487,53.0416651 L144.421352,52.6378348 L144.605216,52.1972926 L144.715534,51.7567505 L144.899399,51.3162084 L145.04649,50.9123781 L145.340673,50.0312938 L145.487764,49.6641754 L145.81872,49.4439043 L146.259994,49.3704806 L146.664496,49.3704806 L147.032224,49.4071924 L147.436726,49.4806161 L147.914773,49.5907517 L148.319274,49.7743109 L148.687003,49.9578701 L148.90764,50.2882767 L148.944413,50.692107 L148.834094,51.1326491 L148.687003,51.5731913 L148.539911,52.0504453 L148.319274,52.9315295 L148.172183,53.3720717 L148.025091,53.8493257 L147.914773,54.2898678 L147.841227,54.7671218 L147.62059,55.648206 L147.547044,56.0887482 L147.473499,56.4925785 L147.436726,56.8964088 L147.399953,57.2635272 L147.399953,57.6673575 L147.510271,58.0711878 L147.730909,58.3648826 L148.061864,58.5117299 L148.466366,58.4750181 L148.834094,58.4015944 L149.238596,58.1813233 L149.569551,57.9610523 L149.900507,57.6673575 L150.488873,57.0065443 L150.783056,56.7128495 L151.297876,56.0520363 L151.555286,55.6849179 L151.775923,55.3177994 L151.99656,54.9139691 L152.106878,54.7671218 L152.364288,54.4000033 L152.621698,53.8860375 L152.879108,53.4087835 L153.062973,53.0416651 L153.228014,52.8996914 L153.28361,52.7479703 L153.393928,52.3074282 L153.54102,51.9035979 L153.651338,51.4997676 L153.761657,51.0592255 L153.871976,50.6553952 L154.019067,50.2515649 L154.129386,49.8477346 L154.350023,48.9666503 L154.57066,48.1589897 L154.680978,47.7184476 L154.791297,47.3146173 L154.938388,46.910787 L155.048707,46.4702449 L155.195798,46.0664146 L155.453208,45.736008 L155.931255,45.5524487 L156.409303,45.4790251 L156.88735,45.4423132 L157.843444,45.4423132 L158.284718,45.5157369 L158.725993,45.6992961 L159.130494,45.9195672 L159.20404,46.3601093 L159.056948,47.1677699 L158.94663,47.5348884 L158.836311,47.9387186 L158.725993,48.3058371 L158.725993,48.4893963 L158.909857,48.4159726 L159.20404,48.1222779 L159.46145,47.8285831 L160.454317,46.9474988 L160.785272,46.6905159 L161.116228,46.4702449 L161.483957,46.2132619 L161.851685,45.9929909 L162.256187,45.8094317 L162.660688,45.6625843 L163.028417,45.5157369 L163.469691,45.3688895 L163.874192,45.3321777 L164.315467,45.3321777 L165.234788,45.4056014 L165.676062,45.5157369 L166.080564,45.6625843 L166.485065,45.8828553 L166.779248,46.2132619 L167.110204,46.5436685 L167.294068,46.910787 L167.441159,47.3513291 L167.588251,48.2324134 L167.588251,49.1134977 L167.514705,49.5907517 L167.441159,50.0312938 L167.294068,50.4718359 L167.183749,50.9123781 L167.036658,51.3896321 L166.926339,51.8301742 L166.816021,52.3074282 L166.374747,53.6290546 L166.154109,54.5835625 L166.043791,55.0241047 L165.896699,55.5013587 L165.786381,55.9419008 L165.749608,56.3457311 L165.676062,56.7495614 L165.565744,57.1166798 L165.492198,57.4837983 L165.455425,57.8876286 L165.528971,58.2914589 L165.676062,58.6218655 L166.043791,58.732001 L166.485065,58.6585773 L166.852794,58.4750181 L167.220522,58.254747 L167.588251,57.9610523 L167.992752,57.5205101 L168.507572,57.0065443 L168.764982,56.6761377 L169.794622,55.2076639 L170.346215,54.4000033 L170.603625,53.8860375 L170.861035,53.4087835 L171.044899,53.0416651 L171.183014,52.9226914 L171.191991,52.821394 L171.302309,52.3808519 L171.375855,51.9770216 L171.486173,51.5364794 L171.633265,50.6553952 L171.853902,49.7743109 L172.000993,49.3704806 L172.111312,48.9299385 L172.221631,48.5261082 L172.331949,48.085566 L172.368722,47.7184476 L172.331949,47.5348884 L171.927448,47.4247528 L171.596492,47.388041 L171.081672,47.2411936 L170.824262,46.9474988 L170.713944,46.5803804 L170.677171,46.1398383 L170.713944,45.736008 L170.824262,45.3688895 L171.008126,45.0017711 L171.302309,44.8182118 L171.743583,44.7815 L172.221631,44.7815 L172.515813,44.8182118 L172.920315,44.8182118 L173.140952,44.7447882 L173.288043,44.5612289 L173.435135,44.2308223 L173.545453,43.826992 L173.839636,43.0193315 L173.949955,42.5787893 L174.097046,42.174959 L174.207365,41.7711287 L174.354456,41.3672984 L174.501548,40.9267563 L174.648639,40.522926 L174.832503,40.1558076 L174.979595,39.7152654 L175.862143,37.2922837 L176.046008,36.8884534 L176.303418,36.5947586 L176.707919,36.4111994 L177.075648,36.3377757 L177.516922,36.3010639 L178.068515,36.3010639 L178.951063,36.4479112 L179.392338,36.5947586 L179.796839,36.7783179 L180.054249,37.0720126 L180.054249,37.4758429 L179.907157,37.8796732 L179.723293,38.3202153 L179.612975,38.7607575 L179.465883,39.2012996 L179.282019,39.6051299 L178.840745,40.9267563 L178.65688,41.3305866 L178.289152,42.2116709 L178.178833,42.652213 L177.590468,44.4143816 L177.516922,44.7447882 L177.516922,44.9283474 L177.700786,45.0384829 L178.031742,45.0384829 L178.509789,45.0751948 L179.42911,45.0751948 L180.348432,45.0017711 L180.826479,45.0017711 L181.194207,45.1119066 L181.451617,45.3321777 L181.561936,45.6992961 L181.525163,46.1031264 L181.48839,46.4702449 L181.341299,46.8740752 L181.194207,47.2044818 L180.900025,47.4614647 L180.532296,47.608312 L180.127795,47.6450239 L178.473016,47.7551594 L177.480149,47.7551594 L177.185966,47.7184476 L176.744692,47.7184476 L176.560828,47.8285831 L176.376963,48.0121423 L176.266645,48.3425489 L176.156326,48.7830911 L176.009235,49.1869214 L175.678279,50.5085478 L175.604733,50.9123781 L175.494415,51.3529202 L175.347323,51.7567505 L175.237005,52.1972926 L175.163459,52.6378348 L175.053141,53.0783769 L174.979595,53.4822072 L174.906049,53.9227493 L174.832503,54.3265796 L174.795731,54.7671218 L174.722185,55.1709521 L174.685412,55.6114942 L174.685412,56.4558666 L174.722185,56.8596969 L174.795731,57.2635272 L174.906049,57.6673575 L175.089913,58.034476 L175.384096,58.3281707 L175.715052,58.5484418 L176.119553,58.6585773 L176.524055,58.6952892 L176.965329,58.6585773 L177.36983,58.5484418 L177.774332,58.3648826 L178.14206,58.1446115 L178.509789,57.8876286 L179.1717,57.3002391 L179.465883,57.0065443 L179.760066,56.6761377 L180.054249,56.3824429 L180.311659,56.0520363 L180.569069,55.6849179 L180.863252,55.3545113 L181.120662,54.9873928 L181.561936,54.4000033 L181.819346,53.8860375 L181.860014,53.8086914 L181.966437,53.518919 L182.223847,53.0416651 L182.370939,52.7846822 L182.591576,52.3074282 L182.738667,51.9035979 L183.03285,51.169361 L183.216715,50.7288188 L183.584443,49.9211583 L184.025717,48.7096674 L184.136036,48.2691253 L184.430219,47.4614647 L184.540537,47.0576344 L184.650856,46.6170922 L184.687629,46.2132619 L184.614083,45.8094317 L184.466992,45.4056014 L184.283127,44.9650592 L184.172809,44.5612289 L184.06249,44.1206868 L184.06249,43.6801447 L184.099263,43.2396025 L184.246354,42.8357722 L184.430219,42.4319419 L184.724402,42.1015353 L185.09213,41.8078406 L185.496632,41.6242814 L185.901133,41.477434 L186.342407,41.477434 L186.746909,41.5875695 L187.077864,41.8078406 L187.298502,42.174959 L187.445593,42.5787893 L187.519139,43.0193315 L187.519139,43.4598736 L187.445593,43.9004157 L187.372047,44.2675342 L187.372047,44.5245171 L187.482366,44.7447882 L188.070731,45.2954658 L188.990053,46.2132619 L189.321009,46.4702449 L189.651964,46.7639396 L190.277103,47.3513291 L190.865469,48.0121423 L191.086106,48.3425489 L191.306743,48.7463792 L191.490607,49.1134977 L191.637699,49.517328 L191.711244,49.9578701 L191.674471,50.3617004 L191.52738,50.7655307 L191.343516,51.1326491 L191.086106,51.4997676 L190.791923,51.8301742 L189.504873,53.6657664 L189.284236,54.0695967 L188.916507,54.8772573 L188.769416,55.2810876 L188.622324,55.7216297 L188.512006,56.12546 L188.43846,56.5660022 L188.401687,57.0065443 L188.43846,57.4103746 L188.548779,57.8509167 L188.769416,58.2180352 L189.063599,58.5117299 L189.4681,58.6585773 L189.909374,58.6952892 L190.313876,58.6585773 L190.828696,58.4750181 L191.233197,58.2914589 L191.52738,58.1078996 L191.895108,57.8876286 L192.189291,57.6673575 L192.520247,57.3736627 L192.887976,57.0432561 L193.218931,56.7128495 L193.476341,56.3824429 L193.807297,55.9786126 L193.991161,55.7583416 L194.285344,55.3545113 L194.542754,54.9139691 L194.947256,54.4000033 L195.204666,53.8860375 L195.442014,53.4466914 L195.535621,53.0416651 L195.64594,52.6011229 L195.756258,52.1972926 L195.90335,51.7567505 L196.050441,51.3529202 L196.16076,50.9490899 L196.307851,50.5085478 L196.602034,49.7008872 L196.749125,49.2603451 L196.859444,48.8565148 L196.969763,48.4159726 L197.080081,48.0121423 L197.227173,47.608312 L197.337491,47.1677699 L197.484583,46.7639396 L197.594901,46.3233975 L197.778765,45.9929909 L198.146494,45.736008 L198.587768,45.6258724 L199.029043,45.5524487 L199.470317,45.5157369 L199.911591,45.5157369 L200.389638,45.5891606 L200.79414,45.6625843 L201.198641,45.8461435 L201.456051,46.1031264 L201.456051,46.5069567 L201.419278,46.910787 L201.30896,47.3513291 L201.198641,47.7551594 L200.978004,48.6362437 L200.830912,49.0767858 L200.720594,49.4806161 L200.499957,50.3249886 L200.352865,50.7655307 L200.205774,51.169361 L200.058682,51.6099031 L199.948364,52.0137334 L199.801273,52.5276992 L199.727727,52.821394 L199.617408,53.3353598 L199.470317,53.8126138 L199.396771,54.1063086 L199.24968,54.5835625 L199.139361,55.0241047 L198.99227,55.905189 L198.881951,56.3090192 L198.808405,56.7495614 L198.771633,57.1533917 L198.771633,57.5939338 L198.881951,57.9977641 L199.102588,58.3281707 L199.433544,58.4750181 L199.874818,58.5117299 L200.316092,58.4015944 L201.125095,57.9610523 L201.456051,57.6306457 L201.860552,57.2635272 L202.08119,57.0432561 L202.448918,56.6394259 L202.743101,56.2723074 L203.000511,55.8684771 L203.257921,55.427935 L203.405012,55.1342402 L203.699195,54.6936981 L203.919832,54.2898678 L204.14047,53.8493257 L204.692062,52.6378348 L204.875927,52.2707163 L204.986245,51.866886 L205.096564,51.5364794 L205.243655,51.1326491 L205.390747,50.692107 L205.979112,49.0767858 L206.089431,48.7096674 L206.420387,47.4981765 L206.567478,47.0943462 L206.677797,46.6905159 L206.824888,46.2866856 L207.008752,45.9195672 L207.339708,45.6992961 L207.744209,45.5524487 L208.185484,45.4790251 L209.104805,45.4790251 L209.546079,45.5524487 L209.987354,45.6625843 L210.428628,45.8461435 L210.649265,46.1398383 L210.686038,46.5436685 L210.575719,46.9474988 L210.465401,47.388041 L210.318309,47.7918713 L210.171218,48.2324134 L210.060899,48.6362437 L209.913808,49.0767858 L209.803489,49.5540398 L209.729944,49.8477346 L209.582852,50.3249886 L209.472534,50.7655307 L209.178351,51.5731913 L209.068032,52.0137334 L208.957714,52.4175637 L208.737076,53.298648 L208.589985,53.7024783 L208.479666,54.1430204 L208.369348,54.5468507 L208.259029,54.9873928 L208.148711,55.3912231 L208.038392,55.8317653 L207.891301,56.2355956 L207.744209,56.6761377 L207.633891,57.079968 L207.523572,57.5205101 L207.450027,57.9243404 L207.376481,58.3648826 L207.266162,58.8054247 L207.119071,59.2459668 L207.008752,59.6497971 L206.824888,60.384034 L206.861661,60.5308814 L207.008752,60.5675932 L207.302935,60.4207459 L207.780982,60.1637629 L208.295802,59.8333563 L208.773849,59.5029497 L209.546079,58.8054247 L209.766716,58.6218655 L210.134445,58.254747 L210.428628,57.9243404 L210.686038,57.5939338 L210.943448,57.3002391 L211.200858,56.9331206 L211.495041,56.5292903 L211.752451,56.12546 L211.973088,55.7583416 L212.230498,55.3545113 L212.855636,54.4000033 L213.113046,53.8860375 L213.370456,53.4087835 L213.554321,53.0416651 L213.811731,52.821394 L214.179459,52.821394 L214.583961,53.0416651 L214.804598,53.3720717 L214.804598,53.775902 L214.657506,54.1797323 L214.400096,54.5468507 L214.179459,54.8772573 L213.958822,55.2443758 L213.627866,55.9419008 L212.892409,57.2268154 L212.377589,57.9977641 L212.046634,58.4015944 L211.862769,58.6585773 L211.531814,59.0624076 L211.274404,59.3928142 L210.686038,60.0536274 L210.024126,60.6410169 L209.656398,60.9347117 L208.957714,61.4853894 L208.589985,61.7423723 L208.222257,61.9626433 L207.780982,62.2196263 L206.641024,62.7703039 L206.346841,62.9538631 L206.126204,63.1374224 L205.979112,63.3576934 L205.868794,63.6881 L205.758475,64.1286422 L205.611384,64.5324725 L205.501065,64.9730146 L205.390747,65.3768449 L205.243655,65.817387 L205.096564,66.2212173 L204.986245,66.6617595 L204.839154,67.0655898 L204.655289,67.46942 L204.434652,67.9099622 L204.214015,68.3137925 L204.030151,68.7176228 L203.515331,69.4518597 L203.257921,69.7822663 L202.963738,70.1126729 L202.632782,70.4430795 L202.301827,70.7367742 L201.897325,70.9937571 L201.529597,71.2140282 L201.088322,71.3975874 L200.683821,71.5444348 L200.242547,71.6178585 L199.7645,71.6912822 L199.323225,71.7647059 L198.440677,71.7647059 L197.96263,71.6912822 L197.668447,71.6178585 L197.1904,71.507723 L196.381397,71.2140282 L196.050441,70.9570453 L195.719486,70.6633505 L195.204666,70.0025373 L195.020801,69.6354189 L194.910483,69.2315886 L194.836937,68.7910465 L194.836937,68.3505043 L194.87371,67.9099622 L194.947256,67.46942 L195.057574,67.0655898 L195.241438,66.6250476 L195.425303,66.2579292 L195.64594,65.8540989 L195.940123,65.4869804 L196.234305,65.1565738 L196.565261,64.8628791 L197.043308,64.4957606 L198.036175,63.8349474 L198.403904,63.6146764 L199.212907,63.2475579 L200.058682,62.9538631 L200.53673,62.7703039 L200.830912,62.6234565 L201.30896,62.4398973 L201.713461,62.2930499 L202.485691,62.036067 L202.706328,61.8892196 L202.890192,61.6689486 L203.000511,61.338542 L203.11083,60.8979998 L203.221148,60.4941695 L203.331467,60.0536274 L203.772741,58.8421365 L203.919832,58.4015944 L204.214015,57.5939338 L204.250788,57.3369509 L204.14047,57.3736627 L203.919832,57.6306457 L203.699195,57.9243404 L203.405012,58.254747 L203.11083,58.6218655 L202.117962,59.6130853 L201.750234,59.90678 L201.382505,60.1637629 L200.978004,60.4207459 L200.573502,60.6410169 L200.132228,60.8245762 L199.24968,61.1182709 L198.808405,61.2284064 L198.367131,61.2651183 L197.889084,61.2651183 L197.631674,61.2284064 L197.116854,61.1916946 L196.602034,61.0815591 L196.197533,60.9347117 L195.829804,60.7144406 L195.535621,60.4207459 L195.278211,60.0903393 L195.057574,59.7599327 L194.87371,59.3928142 L194.726618,58.9889839 L194.653073,58.5484418 L194.6163,58.1446115 L194.6163,57.7040693 L194.638014,57.4666914 L194.395663,57.777493 L194.175026,58.1446115 L193.917616,58.4750181 L193.58666,58.8421365 L193.292477,59.1358313 L193.035067,59.4295261 L192.740884,59.7232208 L192.373156,59.9802037 L192.0422,60.2004748 L191.600926,60.4574577 L191.01256,60.7511525 L190.49774,60.9714235 L190.093239,61.0815591 L189.21069,61.2284064 L188.769416,61.2651183 L187.886867,61.1916946 L187.40882,61.1182709 L186.967546,61.0081354 L186.526272,60.8245762 L186.12177,60.6043051 L185.754042,60.3106103 L185.423086,60.0169156 L185.09213,59.6497971 L184.871493,59.2826787 L184.650856,58.8421365 L184.503764,58.4383062 L184.393446,57.9610523 L184.356673,57.5205101 L184.3199,57.0432561 L184.393446,56.6394259 L184.466992,56.12546 L184.57731,55.7216297 L184.687629,55.3912231 L184.797947,54.9873928 L184.981812,54.5835625 L185.86436,53.1150888 L186.12177,52.6745466 L186.268862,52.4175637 L186.526272,51.9770216 L186.746909,51.6099031 L186.967546,51.2794965 L187.188183,50.9858018 L187.445593,50.6186833 L187.703003,50.214853 L187.850094,49.8477346 L187.850094,49.4439043 L187.739776,49.0767858 L187.555912,48.7096674 L187.298502,48.3792608 L187.041092,48.085566 L186.746909,47.8285831 L186.489499,47.5348884 L186.268862,47.3513291 L186.158543,47.3146173 L186.048224,47.4247528 L185.937906,47.7184476 L185.34954,49.4806161 L185.239222,49.9211583 L184.945039,50.8022425 L184.724402,51.2794965 L184.57731,51.5731913 L184.356673,52.0504453 L184.172809,52.4909874 L183.988944,52.8948177 L183.80508,53.3353598 L183.584443,53.7024783 L183.443014,53.9586914 L183.363806,54.1797323 L183.106396,54.5468507 L182.959305,54.8772573 L182.481257,55.8317653 L182.26062,56.1988837 L182.00321,56.602714 L181.48839,57.3369509 L181.194207,57.7040693 L180.679387,58.4383062 L180.385205,58.7687128 L180.054249,59.0991194 L179.760066,59.4295261 L179.42911,59.7232208 L179.061382,60.0169156 L178.325925,60.5308814 L177.921423,60.7511525 L177.480149,60.9347117 L177.075648,61.0448472 L176.634373,61.1549828 L176.266645,61.2651183 L175.82537,61.338542 L175.310551,61.3752538 L174.391229,61.3018301 L173.986728,61.1916946 L173.545453,61.0448472 L173.140952,60.861288 L172.773223,60.6410169 L172.405495,60.384034 L172.074539,60.0903393 L171.817129,59.7232208 L171.596492,59.3561024 L171.228764,58.5484418 L171.118445,58.1078996 L170.971354,57.2268154 L170.934581,56.7862732 L170.934581,56.3457311 L170.921014,56.1856914 L170.603625,56.6394259 L170.382988,57.0065443 L169.868168,57.7407812 L169.610758,58.0711878 L169.022392,58.732001 L168.728209,59.0991194 L168.434026,59.3928142 L168.103071,59.686509 L167.772115,59.9434919 L167.514705,60.1270511 L167.036658,60.4574577 L166.632157,60.6777288 L166.227655,60.861288 L165.823154,61.0081354 L165.418652,61.1182709 L164.977378,61.2284064 L164.131602,61.3018301 L163.690328,61.3018301 L163.249054,61.2284064 L162.844552,61.0815591 L162.440051,60.8979998 L162.072322,60.6410169 L161.741367,60.3473222 L161.52073,59.9802037 L161.373638,59.5396616 L161.300092,59.0991194 L161.26332,58.6585773 L161.300092,58.2180352 L161.300092,57.777493 L161.336865,57.3369509 L161.447184,56.9331206 L161.557502,56.4925785 L161.631048,56.0520363 L161.962004,54.8405455 L162.072322,54.4000033 L162.145868,53.9594612 L162.29296,53.5556309 L162.403278,53.1518006 L162.513597,52.8581058 L162.660688,52.3074282 L162.771007,51.866886 L162.844552,51.4630557 L162.991644,51.0592255 L163.138735,50.5819715 L163.249054,50.1414293 L163.285827,49.6274635 L163.285827,49.1134977 L163.101962,48.7096674 L162.734234,48.3792608 L162.29296,48.3058371 L161.851685,48.3425489 L161.447184,48.4893963 L161.079455,48.6729555 L160.7485,48.8932266 L160.380771,49.1134977 L160.049815,49.3337687 L159.387904,49.8477346 L159.093721,50.1047175 L158.505355,50.692107 L157.990535,51.3529202 L157.769898,51.7200387 L157.549261,52.2707163 L157.438943,52.5644111 L157.218305,53.4454954 L157.034441,54.0328849 L156.924123,54.3265796 L156.813804,54.7671218 L156.666713,55.2076639 L156.556394,55.648206 L156.482848,56.0887482 L156.37253,56.5292903 L156.225438,56.9698325 L156.11512,57.4103746 L155.968028,57.8509167 L155.85771,58.2914589 L155.637073,59.209255 L155.416435,60.0903393 L155.269344,60.4941695 L155.048707,60.7878643 L154.717751,60.9347117 L154.31325,61.0815591 L153.504247,61.2284064 L153.099746,61.2284064 L152.290743,61.0815591 L151.923014,61.0081354 L151.555286,60.861288 L151.22433,60.6043051 L151.150784,60.2371866 L151.22433,59.8333563 L151.334648,59.3928142 L151.555286,58.5851536 L151.702377,58.1446115 L151.797014,57.7806914 L151.408194,58.2180352 L151.150784,58.5484418 L150.819828,58.8788484 L150.525646,59.209255 L149.863734,59.7966445 L149.496006,60.0536274 L148.760549,60.4941695 L148.356047,60.7144406 L147.951546,60.8979998 L147.547044,61.0448472 L147.10577,61.1182709 L146.664496,61.1549828 L146.223222,61.1549828 L145.81872,61.0815591 L145.414219,60.9347117 L145.04649,60.7511525 L144.715534,60.4574577 L144.494897,60.1637629 L144.27426,59.7599327 L144.163942,59.3928142 L144.053623,58.9889839 L144.01685,58.5484418 L144.01685,58.1446115 L144.090396,57.3369509 L144.090396,57.0432561 L144.01685,57.0065443 L143.832986,57.2635272 L143.391712,57.9977641 L143.134302,58.3648826 L142.545936,59.0256958 L142.288526,59.3561024 L141.994343,59.686509 L141.663387,60.0169156 L141.332432,60.2738985 L140.854385,60.5675932 L140.266019,60.861288 L139.787972,61.0448472 L139.346697,61.1549828 L138.905423,61.2284064 L138.500922,61.3018301 L138.059648,61.3018301 L137.655146,61.2651183 L137.250645,61.1916946 L136.80937,61.0815591 L136.441642,60.9347117 L136.03714,60.7511525 L135.706185,60.4941695 L135.412002,60.2004748 L135.154592,59.90678 L134.897182,59.5396616 L134.676545,59.209255 L134.49268,58.8054247 L134.382362,58.4383062 L134.272043,57.9977641 L134.161725,57.5939338 L134.128014,57.2356914 L133.987617,57.4470864 L133.730207,57.8142049 L133.472797,58.1446115 L132.884431,58.8054247 L132.590248,59.0991194 L132.259292,59.3928142 L131.928337,59.6497971 L131.634154,59.8333563 L131.266425,60.0903393 L130.825151,60.3473222 L130.457422,60.5308814 L130.052921,60.7144406 L129.574874,60.861288 L128.802644,61.0815591 L127.111093,61.2284064 L126.669818,61.2284064 L126.154998,61.1182709 L125.897588,61.0815591 L125.382768,60.9347117 L124.978267,60.7511525 L124.610538,60.5308814 L124.24281,60.2738985 L123.948627,59.9802037 L123.654444,59.6497971 L123.47058,59.2459668 L123.286716,58.7687128 L123.139624,58.3281707 L123.066078,57.9610523 L122.992533,57.557222 L122.95576,57.1166798 L122.95576,56.6761377 L122.918987,56.2355956 L122.918987,55.3545113 L122.992533,54.473427 L123.149309,53.5297813 C121.75772,53.8618551 120.978928,53.8564599 120.812934,53.5135956 C120.625689,53.1268373 121.523854,52.429632 123.507427,51.4219796 L123.72799,50.5452596 L123.801535,50.1047175 L123.911854,49.7008872 L124.058945,48.8198029 L124.169264,48.4159726 L124.426674,47.5716002 L124.536993,47.1677699 L124.684084,46.7272278 L124.794403,46.3233975 L124.941494,45.8828553 L125.125358,45.4790251 L125.27245,45.0751948 L125.419541,44.7080763 L125.566633,44.304246 L125.713724,43.8637039 L126.154998,42.652213 L126.338863,42.2483827 L126.522727,41.8812643 L126.890455,41.0736037 L127.07432,40.7064852 L127.368503,40.2659431 L127.515594,40.0089602 L127.773004,39.6051299 L127.993641,39.2012996 L128.214278,38.8341812 L128.471688,38.5037746 L128.729098,38.1366561 L129.023281,37.8062495 L129.317464,37.5125547 L129.611647,37.1821481 L129.942602,36.8884534 L130.273558,36.6314705 L130.641287,36.3744876 L131.119334,36.1175046 L131.376744,35.9706573 L131.854791,35.787098 L132.296065,35.6769625 L132.737339,35.6035388 Z M202.08119,64.4957606 L201.860552,64.4957606 L201.56637,64.642608 L201.235414,64.8261672 L200.830912,65.0464383 L200.463184,65.2667094 L200.058682,65.5236923 L199.690954,65.7806752 L199.029043,66.4414884 L198.73486,66.8086068 L198.440677,67.2124371 L198.256813,67.6529793 L198.22004,68.1302333 L198.367131,68.5707754 L198.698087,68.901182 L199.102588,69.0480294 L199.543863,69.0480294 L199.985137,68.8644701 L200.352865,68.6074872 L200.683821,68.3137925 L200.941231,67.946674 L201.198641,67.5428437 L201.419278,67.1390134 L201.713461,66.3313529 L201.787007,65.9642344 L201.897325,65.597116 L201.970871,65.1932857 L202.08119,64.7527435 L202.08119,64.4957606 Z M67.7116439,29.4117647 C74.2648368,29.4117647 80.4277025,30.4816561 85.0883462,32.4244595 C90.5162126,34.6870821 93.9336325,38.126355 93.9336325,42.5634156 C93.9336325,42.9802735 93.9034625,43.3883236 93.8442897,43.7874178 C93.8423191,43.814662 93.8400326,43.8419586 93.837427,43.8693041 C93.264253,49.8845618 90.6092949,55.5399451 86.2619265,59.856167 C78.7582271,67.3061067 67.4785042,69.533968 57.6780615,65.5044112 C48.6797768,61.8046702 42.4975309,53.4644773 41.5877205,43.867625 C41.5860566,43.8500738 41.5845241,43.8325427 41.5831223,43.8150328 C41.5212273,43.4071521 41.4896552,42.9898935 41.4896552,42.5634156 C41.4896552,38.1260914 44.9070273,34.6867376 50.3349273,32.4241963 C54.9954417,30.4815285 61.1582531,29.4117647 67.7116439,29.4117647 Z M88.8621513,49.6327008 C85.0012481,53.3956294 76.9415475,55.8469574 67.7116784,55.8469574 C58.4840327,55.8469574 50.4269139,53.3977207 46.5647896,49.6368053 C48.7761257,55.2396005 53.205611,59.8539884 59.0224036,62.2456249 C67.50914,65.7350373 77.2776228,63.8056614 83.7726135,57.3572037 C86.0335229,55.1124924 87.7427706,52.4740755 88.8621513,49.6327008 Z M113.418832,35.4566914 L114.301381,35.5301151 L114.705882,35.566827 L115.147156,35.6035388 L115.992932,35.787098 L116.434206,35.8605217 L116.838708,35.9339454 L117.279982,36.044081 L118.088985,36.3377757 L118.530259,36.5213349 L119.081852,36.741606 L119.559899,37.0353008 L120.001173,37.2555718 L120.368902,37.5125547 L121.030813,38.0265206 L121.361769,38.3202153 L121.950135,38.9076048 L122.244318,39.2380114 L122.501728,39.6051299 L122.759138,39.9355365 L122.979775,40.3393668 L123.126866,40.7064852 L123.31073,41.1103155 L123.457822,41.5141458 L123.56814,41.9179761 L123.641686,42.3218064 L123.715232,43.2028907 L123.715232,44.0472631 L123.678459,44.4878052 L123.641686,44.8916355 L123.494595,45.7727198 L123.384276,46.2132619 L123.163639,47.0209225 L122.79591,47.8285831 L122.575273,48.2324134 L122.391409,48.5995319 L122.170772,49.0033621 L121.655952,49.737599 L121.361769,50.0680056 L121.030813,50.3617004 L120.773403,50.5819715 L120.074719,51.2060728 L119.670218,51.4997676 L118.934761,51.9403097 L117.721256,52.4909874 L117.279982,52.6011229 L116.875481,52.7112585 L116.434206,52.821394 L115.992932,52.8948177 L115.514885,52.9682414 L115.220702,52.9682414 L114.705882,53.0416651 L114.191062,53.0049532 L113.602696,53.0049532 L113.014331,52.9682414 L112.573057,52.9315295 L112.131782,52.8581058 L111.616962,52.7846822 L110.844732,52.6011229 L110.513777,52.5276992 L110.219594,52.6011229 L110.072502,52.7479703 L109.925411,53.1150888 L109.815092,53.5556309 L109.741547,53.996173 L109.594455,54.4367152 L109.484137,54.8772573 L109.373818,55.3545113 L109.263499,55.7950534 L109.153181,56.2723074 L109.042862,56.7128495 L108.895771,57.1533917 L108.675134,58.034476 L108.601588,58.5117299 L108.013222,60.2738985 L107.792585,60.6777288 L107.424857,60.9347117 L106.983582,61.1182709 L106.505535,61.1916946 L106.027488,61.1916946 L105.549441,61.1549828 L105.071394,61.0448472 L104.666892,60.861288 L104.335937,60.5675932 L104.225618,60.1637629 L104.299164,59.7232208 L104.593347,58.8421365 L104.740438,58.4383062 L104.850757,57.9977641 L105.034621,57.5939338 L105.181712,57.1533917 L105.292031,56.7495614 L105.40235,56.3824429 L105.512668,55.9419008 L105.622987,55.427935 L105.696532,55.0241047 L105.806851,54.5835625 L105.880397,54.1430204 L106.027488,53.7024783 L106.137807,53.298648 L106.248125,52.8581058 L106.321671,52.4175637 L106.43199,51.9770216 L106.542308,51.5731913 L106.6894,51.1326491 L106.762945,50.692107 L106.873264,50.2515649 L107.020355,49.8477346 L107.130674,49.4071924 L107.277765,48.9666503 L107.388084,48.4526845 L107.46163,48.1957016 L107.571948,47.6817357 L107.71904,47.2779054 L107.902904,46.7639396 L107.97645,46.5069567 L108.160314,45.9929909 L108.270632,45.5524487 L108.417724,45.1486184 L108.601588,44.7080763 L108.785452,44.304246 L109.153181,43.5332973 L109.337045,43.0927551 L109.520909,42.6889249 L109.741547,42.3218064 L109.962184,41.9179761 L110.550549,41.2571629 L111.212461,40.6697734 L111.580189,40.4127905 L111.984691,40.1558076 L112.425965,40.0089602 L112.904012,39.9722483 L113.382059,40.0089602 L113.860106,40.1190957 L114.301381,40.3026549 L114.632336,40.5963497 L114.705882,40.9267563 L114.411699,41.2204511 L114.080744,41.5141458 L113.786561,41.8445524 L113.492378,42.2116709 L113.271741,42.6155012 L112.720148,43.826992 L112.536284,44.2675342 L112.389192,44.6713645 L112.242101,45.1119066 L112.095009,45.5157369 L111.764054,46.8373633 L111.616962,47.2411936 L111.469871,47.6817357 L111.359552,48.1222779 L111.212461,48.56282 L111.102142,48.9666503 L110.955051,49.4071924 L110.918278,49.7743109 L110.955051,49.994582 L111.138915,50.1414293 L111.469871,50.214853 L112.389192,50.3984122 L112.830466,50.4351241 L113.271741,50.4351241 L113.676242,50.3984122 L114.117516,50.3617004 L114.632336,50.3249886 L115.073611,50.214853 L115.514885,50.0680056 L115.956159,49.8844464 L116.360661,49.7008872 L117.096118,49.1869214 L117.758029,48.5995319 L118.052212,48.2691253 L118.346395,47.9020068 L118.567032,47.4981765 L118.787669,47.1310581 L118.971533,46.6905159 L119.118625,46.2866856 L119.302489,45.7727198 L119.376035,45.4790251 L119.486353,44.9650592 L119.596672,44.5245171 L119.633445,44.1206868 L119.633445,43.6801447 L119.596672,43.2396025 L119.523126,42.7990604 L119.449581,42.3952301 L119.339262,41.954688 L119.192171,41.5508577 L119.008306,41.1470274 L118.787669,40.7799089 L118.530259,40.4127905 L118.272849,40.0823839 L117.941893,39.7886891 L117.574165,39.5317062 L117.206436,39.3114351 L116.691616,39.0177404 L116.066478,38.7607575 L115.625204,38.5771982 L115.183929,38.4670627 L114.779428,38.3569272 L114.338154,38.2467916 L113.896879,38.173368 L113.455605,38.1366561 L113.014331,38.1366561 L112.131782,38.2100798 L111.580189,38.2467916 L111.322779,38.2835035 L110.771187,38.393639 L110.329912,38.4670627 L109.925411,38.5771982 L109.410591,38.7240456 L108.822225,38.9443167 L108.270632,39.1645878 L107.792585,39.3848588 L107.424857,39.6418417 L107.020355,39.8621128 L106.284898,40.3760786 L105.91717,40.6697734 L105.622987,41.00018 L105.108167,41.7344169 L104.740438,42.5420775 L104.593347,42.9459078 L104.483028,43.3864499 L104.409483,43.826992 L104.409483,44.2675342 L104.446255,44.7447882 L104.519801,45.1119066 L104.666892,45.5157369 L104.813984,46.0297027 L104.997848,46.433533 L105.108167,46.8373633 L105.071394,47.2411936 L104.813984,47.5716002 L104.519801,47.865295 L104.188845,48.085566 L103.784344,48.2324134 L103.379843,48.3058371 L102.975341,48.2691253 L102.607613,48.085566 L102.31343,47.865295 L101.982474,47.5716002 L101.725064,47.2411936 L101.430881,46.910787 L100.989607,46.2499738 L100.805743,45.8461435 L100.658651,45.4790251 L100.548333,45.0751948 L100.474787,44.6346526 L100.438014,44.2308223 L100.438014,43.7902802 L100.474787,43.3497381 L100.548333,42.9091959 L100.76897,42.0281116 L100.916061,41.6242814 L101.28379,40.8166208 L101.504427,40.4495023 L101.725064,40.045672 L102.019247,39.6785536 L102.31343,39.348147 L102.644385,39.0544522 L102.975341,38.7240456 L103.379843,38.393639 L103.85789,38.0632324 L104.88753,37.4024192 L105.40235,37.1454363 L105.91717,36.9251652 L106.395217,36.7048942 L106.836491,36.5213349 L107.277765,36.3744876 L107.682267,36.2276402 L108.197087,36.0807928 L109.373818,35.787098 L109.888638,35.7136744 L111.653735,35.5301151 L112.536284,35.4566914 L113.418832,35.4566914 Z M67.7116439,32.9361018 C55.2565472,32.9361018 45.0198493,37.034552 45.0198493,42.5634156 C45.0198493,48.0919251 55.2583326,52.1907294 67.7116439,52.1907294 C80.1638943,52.1907294 90.4034384,48.0911002 90.4034384,42.5634156 C90.4034384,37.0351999 80.1665725,32.9361018 67.7116439,32.9361018 Z M132.994749,38.5771982 L132.590248,38.5771982 L132.185747,38.7607575 L131.854791,39.0911641 L131.523835,39.4582825 L131.266425,39.825401 L131.045788,40.2292313 L130.825151,40.6697734 L130.641287,41.1103155 L130.42065,41.5508577 L130.236785,41.954688 L130.052921,42.3952301 L129.90583,42.8357722 L129.758738,43.2396025 L129.611647,43.6801447 L129.427782,44.083975 L128.692325,46.1031264 L128.545234,46.4702449 L128.251051,47.2779054 L128.10396,47.7184476 L127.773004,48.9299385 L127.736231,49.2236332 L127.773004,49.3704806 L127.883322,49.3337687 L128.140732,49.1869214 L128.471688,48.9299385 L129.354237,48.0488542 L129.685192,47.7551594 L129.942602,47.4614647 L130.236785,47.1310581 L130.457422,46.7639396 L130.714832,46.433533 L130.972242,46.0664146 L131.229652,45.736008 L131.45029,45.3688895 L131.634154,45.0017711 L131.854791,44.6346526 L132.259292,43.826992 L132.369611,43.5700091 L132.590248,43.129467 L132.737339,42.7623485 L132.847658,42.3585182 L132.957977,41.9913998 L133.105068,41.5875695 L133.436024,40.3760786 L133.472797,39.9722483 L133.472797,39.5684181 L133.436024,39.1645878 L133.288932,38.7974693 L132.994749,38.5771982 Z" id="path-1"></path>
        <filter x="-30.0%" y="-103.9%" width="160.0%" height="345.6%" filterUnits="objectBoundingBox" id="filter-2">
            <feOffset dx="0" dy="8" in="SourceAlpha" result="shadowOffsetOuter1"></feOffset>
            <feGaussianBlur stdDeviation="16" in="shadowOffsetOuter1" result="shadowBlurOuter1"></feGaussianBlur>
            <feColorMatrix values="0 0 0 0 0   0 0 0 0 0   0 0 0 0 0  0 0 0 0.5 0" type="matrix" in="shadowBlurOuter1"></feColorMatrix>
        </filter>
    </defs>
    <g id="Plantry-website" stroke="none" stroke-width="1" fill="none" fill-rule="evenodd">
        <g id="Plantry">
            <use fill="black" fill-opacity="1" filter="url(#filter-2)" xlink:href="#path-1"></use>
            <use fill="#FFFFFF" fill-rule="evenodd" xlink:href="#path-1"></use>
        </g>
    </g>
</svg>