<?xml version="1.0" encoding="UTF-8"?>
<svg width="381px" height="97px" viewBox="0 0 381 97" version="1.1" xmlns="http://www.w3.org/2000/svg" xmlns:xlink="http://www.w3.org/1999/xlink">
    <title>plantry</title>
    <defs>
        <polygon id="path-1" points="0 0 60.4514139 0 60.4514139 67.3561686 0 67.3561686"></polygon>
        <polygon id="path-3" points="0 0 49.4655339 0 49.4655339 65.1181223 0 65.1181223"></polygon>
    </defs>
    <g id="Plantry-website" stroke="none" stroke-width="1" fill="none" fill-rule="evenodd">
        <g id="Plantry-4.0-website-+-ipad" transform="translate(-530.000000, -79.000000)">
            <g id="Brand/Plantry-Logo-Solid-2" style="mix-blend-mode: multiply;" transform="translate(444.000000, 16.000000)">
                <g id="Brand/Plantry-Logo-Solid" transform="translate(89.576471, 63.529412)">
                    <g id="Brand/_/Lita-Logo-Outlined-Inverted-16-pt" transform="translate(0.354436, 0.835969)" fill="#000000" fill-rule="nonzero">
                        <path d="M54.4409729,0.572249663 C67.5455861,0.572249663 79.9040914,2.72128763 89.3448985,6.66325693 C94.4901958,8.81165418 98.7808825,11.4893639 101.997988,14.7324216 C105.990925,18.7575704 108.309696,23.6522405 108.309696,29.0588372 C108.309696,40.6894994 101.345707,55.1699901 93.1738002,63.5715327 L92.8538807,63.8976687 L92.5429166,64.2094498 C77.1290222,79.538345 53.962635,84.1215491 33.8338725,75.8316389 C26.9123028,72.981032 20.7991234,68.7899221 15.7618587,63.6228783 C7.80231527,55.4582665 0.572249663,40.6812286 0.572249663,29.0588372 C0.572249663,23.6520938 2.89090706,18.7572573 6.88378387,14.7320186 C10.1009192,11.4888087 14.3916557,8.81107863 19.5370592,6.66272748 C28.977616,2.72102864 41.3359967,0.572249663 54.4409729,0.572249663 Z M15.3790147,46.7681502 L15.5412675,47.0691341 C20.2680692,55.7993691 27.9303446,62.8793306 37.5385095,66.8363957 C54.0470589,73.6353427 73.0488839,69.8760495 85.6830544,57.3115496 C88.8473979,54.1646557 91.4562139,50.6206383 93.4818596,46.8179274 C84.9530684,53.2740028 70.6017682,57.32397 54.4642687,57.32397 C49.1244838,57.32397 43.9804243,56.8807033 39.178223,56.0536593 L38.3088951,55.899072 C28.9326901,54.1788493 20.9171552,50.9836719 15.3790147,46.7681502 Z M54.4409729,10.3004939 C30.6976567,10.3004939 11.0987243,17.96989 10.3242643,28.4158603 L10.3056442,28.7721408 L10.3056442,28.8089074 C10.6992463,39.4175418 30.4588162,47.2449308 54.4409729,47.2449308 C78.448573,47.2449308 98.2279551,39.3980088 98.5767666,28.7723752 C98.2274183,18.14615 78.4533552,10.3004939 54.4409729,10.3004939 Z" id="Shape"></path>
                    </g>
                    <g id="67%" transform="translate(123.882353, 6.352941)">
                        <g id="Group-3">
                            <mask id="mask-2" fill="white">
                                <use xlink:href="#path-1"></use>
                            </mask>
                            <g id="Clip-2"></g>
                            <path d="M60.4444603,16.8205724 C60.2666554,27.602566 47.104415,40.6773093 23.8634453,44.3280493 C22.369544,50.5253928 21.2299764,57.4023681 20.5298165,64.958551 C20.5553387,67.1659752 19.7956269,67.9300835 15.9902621,66.9112724 C12.6009097,65.9773621 10.7935104,62.9209286 10.8951739,58.6758821 C11.0151284,54.2610337 12.3848215,47.6391856 13.6094633,43.2243372 C13.6094633,43.2243372 21.9794792,10.9624082 32.8625843,10.0284979 C34.2395087,9.85869605 35.8354989,10.0284979 36.8517091,10.8775072 C37.2498559,11.13221 37.1647818,11.13221 36.8487315,11.7265165 C35.1315107,14.3584454 29.2682033,22.2003198 25.6180988,36.8877563 C41.2092048,33.2374408 47.3753761,25.7351701 47.7935153,17.5846807 C48.0891478,10.6228044 43.2335432,5.01934301 33.1156797,5.95325325 C18.3672327,7.31166814 6.41942519,20.895817 13.8025815,33.2060274 C13.9459314,33.4607302 14.0046325,33.715433 13.73197,33.8852349 C12.2308374,35.2436498 9.58418194,36.17756 6.83841516,36.4322628 C-8.09038901,37.7906777 1.4795972,3.26146925 35.0013473,0.205035747 C52.6606049,-1.40808193 60.7226526,6.71736162 60.4444603,16.8205724" id="Fill-1" fill="#000000" mask="url(#mask-2)"></path>
                        </g>
                        <path d="M55.4436342,61.9870184 C52.3022728,57.8268728 55.0225173,49.591907 56.4483594,44.8374549 C59.0503509,36.0926591 62.059422,27.5176651 64.6597121,18.7732938 C65.458558,15.9715631 66.1893445,13.0000305 66.7504083,10.0284979 C66.8490942,8.24557837 68.829194,7.99087558 71.3767382,7.99087558 C75.6232122,7.99087558 77.8091913,9.85869605 76.9916292,13.6792379 C76.6211314,15.6319593 76.0889929,17.4997798 75.480713,19.2826993 C72.9348704,27.5176651 70.3962591,35.6681544 67.593918,43.9035447 C66.110651,48.4028695 64.2560355,54.8557647 65.1535673,56.0439533 C66.2803738,57.4872691 71.7527657,52.2234114 76.6147509,39.6584982 C77.3340525,37.6208758 81.5830787,37.6208758 79.8220447,41.5263186 C74.9740967,52.3087368 63.4746298,72.3449319 55.4436342,61.9870184" id="Fill-4" fill="#000000"></path>
                        <path d="M94.0543897,32.0175418 C88.2327686,32.4420464 80.2685561,56.2138825 83.6864084,56.0440806 C86.1607887,55.9591797 92.4086311,48.9124024 94.7417885,43.5640683 C94.9897795,42.7995354 95.2467033,41.9505261 95.5032017,41.1015168 C96.951163,36.0927864 96.5360014,31.8477399 94.0543897,32.0175418 M105.500685,43.903672 C104.020821,48.4029969 102.17131,54.8554676 103.070118,56.0440806 C104.198201,57.4873964 110.516229,52.2235387 115.368006,39.6586255 C115.718085,38.7247153 116.789594,38.2153097 117.716051,38.3002106 C118.463427,38.4700125 119.082766,39.064319 118.970043,40.1680311 C118.927081,40.5925358 118.799044,41.0170404 118.577001,41.5260215 C113.737986,52.3084397 101.404367,72.3450593 93.3648641,61.9871457 C92.0257976,60.1193253 91.7854633,57.4873964 92.072163,54.6856657 C88.7708623,59.5250188 84.9174307,63.9398671 81.5161679,63.9398671 C79.0502949,63.9398671 76.3160132,62.4116504 74.1559816,59.4401178 C73.1138238,57.996802 72.7896915,55.3648732 73.1125477,52.2235387 C74.1189744,41.6113469 82.0500079,24.8009627 92.2448635,24.8009627 C95.3037029,24.8009627 97.534346,26.2442785 99.0252697,28.2819008 C99.162239,27.7724952 99.2145596,27.2630897 99.3604617,26.6687831 C99.4578716,24.8858636 101.481359,24.2066562 104.029754,24.2066562 C108.27793,24.2066562 110.472841,26.838585 109.58169,30.574226 C108.818575,33.8853622 107.826611,36.9417957 106.84358,39.9133283 C106.595164,40.6770122 106.108114,42.120328 105.500685,43.903672" id="Fill-6" fill="#000000"></path>
                        <path d="M156.821725,41.5262337 C151.906143,52.3086519 140.439004,72.344847 132.476493,61.9869335 C129.243252,57.8267879 132.035384,49.5918221 133.45357,44.83737 C134.13714,42.2903421 136.705953,34.5647819 135.645504,33.291268 C134.449787,31.6777258 125.69949,40.8470263 121.39389,53.9217696 C120.213912,57.9970143 119.272992,61.392627 119.082851,63.2604474 C118.88548,64.3641595 118.680451,64.7037633 116.214578,64.7037633 C107.881569,64.7037633 110.724321,54.3462742 113.06003,46.4504877 C114.197046,42.7997477 116.164384,36.0076733 117.625957,31.6777258 C118.38652,29.2155988 118.531997,28.6217168 118.953113,26.1595898 C119.134747,24.3766703 121.029772,24.1219675 123.56966,24.2068684 C128.6673,24.2068684 130.099948,25.989788 129.201566,29.8099053 C128.928478,30.829141 128.671979,31.6777258 128.322325,32.611636 C134.018462,25.0558777 140.667003,21.4900386 145.246967,27.4331038 C148.334732,31.3381221 146.022418,39.0641068 144.511927,43.9034598 C143.991274,45.6863793 141.039202,54.685878 142.091569,56.0442929 C143.220502,57.4876087 148.684387,52.223751 153.611028,39.6584133 C154.242278,37.6207909 158.491304,37.6207909 156.821725,41.5262337" id="Fill-8" fill="#000000"></path>
                        <path d="M151.981519,44.8372851 C153.790194,38.7248426 155.920875,32.7817775 157.728275,26.6689105 C153.964171,26.9236133 152.323517,28.0273254 152.323517,28.0273254 C149.190237,26.2444058 149.374848,21.0654491 158.379942,21.0654491 L159.229407,21.0654491 C159.528443,19.7919351 159.835135,18.4335202 160.049096,17.1600063 C160.152887,15.2921858 162.123628,15.1223839 164.671598,15.1223839 C168.918923,15.1223839 171.10873,16.9902044 170.307757,20.7258454 C170.256288,21.2352509 170.128676,21.6597556 169.992132,22.1691612 C171.249102,22.338963 172.327842,22.5936658 173.245366,22.7634677 C174.324106,23.0181705 174.978326,23.2728733 174.738842,25.6500993 C174.507866,27.9424245 174.31177,28.1971272 172.46864,27.9424245 C171.37246,27.8575235 170.02999,27.6877217 168.517798,27.5179198 C166.260357,34.7344989 165.783516,36.0924893 163.125376,43.9033749 C162.64811,45.2617898 158.795955,56.4687126 161.261828,56.4687126 C164.577591,56.4687126 170.999835,50.9501521 175.28204,39.6583284 C175.997088,37.620706 180.135944,37.026824 178.468066,40.9318423 C174.960886,50.4407465 165.863911,64.7890038 156.424939,64.7890038 C154.469511,64.7890038 152.693164,63.8546691 151.011674,61.9868486 C147.674642,57.9969294 150.565886,49.5917372 151.981519,44.8372851" id="Fill-10" fill="#000000"></path>
                        <g id="Group-14" transform="translate(198.934466, 23.187760)">
                            <mask id="mask-4" fill="white">
                                <use xlink:href="#path-3"></use>
                            </mask>
                            <g id="Clip-13"></g>
                            <path d="M15.567503,45.846078 C10.2788712,48.5629078 5.63595183,51.6193413 5.20249926,55.9488642 C5.12635793,56.7133971 5.8239656,58.2411893 6.84485488,58.2411893 C8.71605985,58.2411893 12.0752109,55.2700813 14.3016003,49.1572143 L15.567503,45.846078 Z M49.2734385,17.2348889 C43.5819808,30.0545049 37.6774125,34.7240561 28.5400281,39.3936073 C27.6999213,41.8557342 26.774315,44.3178612 25.8406267,46.8648892 C19.7340074,62.9107405 13.0480333,65.1181647 8.62460518,65.1181647 C5.22164093,65.1181647 -0.402182867,60.9580191 0.0227622944,56.7133971 C0.821608153,48.7327096 10.6519211,43.9782575 17.351507,40.7520222 L19.6697764,33.7052449 C14.0183035,40.921824 7.65008129,44.2329603 3.12584032,38.459697 C0.124425851,34.4693533 2.42015061,26.828694 3.8391867,21.989341 C4.98726177,18.1687991 6.54199106,12.8200405 7.85893823,8.99949864 C8.61524703,6.53737165 8.77688783,5.77326328 9.19290021,3.31113629 C9.28605636,1.52864125 11.2661562,1.27351396 13.8149764,1.27351396 C21.1126332,1.35883939 19.669351,6.45247072 18.4893732,10.6126163 C17.3519324,14.3482573 15.8656877,18.1687991 14.7188888,21.989341 C13.3513225,26.318864 11.9841816,31.4978207 12.7324084,32.5166319 C14.0161767,34.1297496 22.6673625,24.9608736 26.945314,11.8861303 C28.0482998,8.49009305 28.9811373,5.09405583 29.5494324,1.95314591 C29.6417378,0.169801861 31.6124794,0 34.1612997,0 C40.4482761,0 39.7047284,5.77326328 38.5260267,9.93340887 C37.279691,13.9237526 35.7441034,18.2537001 34.5228646,21.989341 C34.5228646,21.989341 32.9196431,26.9984959 30.5350159,33.8750468 C37.1461247,29.7998021 42.1408255,24.8759726 45.1852024,16.4707805 C46.1767411,13.3294461 50.4096032,14.3482573 49.2734385,17.2348889 L49.2734385,17.2348889 Z" id="Fill-12" fill="#000000" mask="url(#mask-4)"></path>
                        </g>
                        <path d="M203.623968,41.7602632 L208.628878,35.1061527 C208.628878,35.1061527 208.158844,32.8121296 207.449751,29.9063952 C207.085209,31.3857939 206.487563,32.8562781 205.692971,34.1599319 C205.133183,35.2292591 200.714009,40.3182208 200.482182,37.0210932 C200.801635,33.9841869 202.651146,31.2159921 201.758293,28.056404 C201.253379,25.1901485 198.45912,23.6674504 195.717606,23.8181495 C192.732356,24.1352545 190.862002,26.8868936 188.946558,28.9092338 C188.757694,29.1320987 188.743231,29.0302176 188.740679,28.8082017 C189.485077,23.8996544 184.785158,22.6269894 180.835168,23.1588938 C179.847883,23.2408232 179.141342,23.9132385 178.899732,24.8547899 C177.829925,28.9202709 177.367547,32.6359601 175.95319,36.8003508 C174.654959,40.6221662 172.982402,43.7881219 170.183464,48.2802301 C168.252282,51.3791141 165.687723,54.6363383 162.116737,55.9421146 C160.436524,56.3386019 160.486292,55.6449613 160.445882,55.0752761 C159.660648,57.6953188 158.525334,61.9136215 157.739675,64.6334228 C164.058554,63.6961166 167.961329,58.9442115 171.728835,54.4372456 C171.744999,54.5531354 171.770096,54.6686006 171.772223,54.7866129 C171.827096,57.5450442 171.568896,60.6532672 173.53028,62.7388586 C175.04077,64.3451842 178.035804,64.8652024 179.461646,64.4075864 C180.281335,64.144818 180.407245,63.5004199 180.47105,62.4187821 C180.921092,54.7700572 182.935647,46.9799724 186.830765,40.2800154 C187.593029,39.0714507 190.458751,34.5891061 191.954353,35.2330796 C192.440977,35.5510336 192.194688,36.0256298 192.018584,36.4624451 C190.935166,39.4348267 189.216669,42.3745214 189.397876,45.6304721 C189.406809,49.0511306 192.73108,50.4307707 196.162544,48.6648313 C199.009974,47.1994413 203.523581,41.9105378 203.623968,41.7602632" id="Fill-15" fill="#000000"></path>
                    </g>
                </g>
            </g>
        </g>
    </g>
</svg>