<?xml version="1.0" encoding="UTF-8"?>
<svg width="375px" height="93px" viewBox="0 0 375 93" version="1.1" xmlns="http://www.w3.org/2000/svg" xmlns:xlink="http://www.w3.org/1999/xlink">
    <title>plantry</title>
    <g id="Plantry-website" stroke="none" stroke-width="1" fill="none" fill-rule="evenodd">
        <g id="Plantry-4.0-website-+-ipad" transform="translate(-533.000000, -145.000000)" fill="#000000" fill-rule="nonzero">
            <g id="Brand/Plantry-Logo-Solid-2" transform="translate(443.647059, 82.000000)">
                <g id="Brand/Plantry-Logo-Solid" transform="translate(89.576471, 63.529412)">
                    <path d="M56.6134664,0 C70.7618582,0 84.0675304,2.31096538 94.1298945,6.50742085 C105.848698,11.3946856 113.226933,18.823515 113.226933,28.4075659 C113.226933,29.307979 113.161795,30.1893671 113.034041,31.0514107 C113.029786,31.1102582 113.02485,31.1692188 113.019224,31.228285 C111.781737,44.2212417 106.049663,56.4368697 96.6636631,65.759909 C80.4631208,81.8517787 56.1101162,86.6639592 34.9508884,77.9601164 C15.5235255,69.9686758 2.17601115,51.9538592 0.21172372,31.2246582 C0.208131328,31.1867476 0.204822736,31.1488805 0.201796132,31.111059 C0.0681645352,30.2300367 0,29.3287581 0,28.4075659 C0,18.8229456 7.37813152,11.3939415 19.0970075,6.50685221 C29.1590923,2.31068984 42.4646475,0 56.6134664,0 Z M102.277567,43.6772219 C93.9418491,51.8051477 76.5408962,57.1000161 56.6135409,57.1000161 C36.6909861,57.1000161 19.2956073,51.8096648 10.9572525,43.6860877 C15.7315434,55.7881253 25.2948349,65.7552031 37.8533327,70.9211379 C56.1762591,78.4582689 77.2664853,74.2908169 91.289218,60.3621482 C96.1705379,55.5135719 99.8608163,49.8145913 102.277567,43.6772219 Z M56.6134664,7.61256812 C29.7228211,7.61256812 7.62171516,16.4652206 7.62171516,28.4075659 C7.62171516,40.3491465 29.7266759,49.2025638 56.6134664,49.2025638 C83.4979665,49.2025638 105.605218,40.3473647 105.605218,28.4075659 C105.605218,16.46662 83.5037489,7.61256812 56.6134664,7.61256812 Z M197.004421,13.3742321 L198.989243,13.5328273 L199.862565,13.77072 L200.815279,14.0879103 L201.609208,14.5636959 L202.403136,15.1187789 L203.117672,15.8324572 L203.673422,16.5461355 L204.229172,17.3391113 L204.705529,18.2113847 L205.023101,19.1629558 L205.261279,20.1145268 L205.499458,22.9692398 L205.420065,24.0001084 L205.340672,24.9516794 L205.102494,25.9032505 L204.943708,26.8548215 L204.705529,27.8063925 L204.070386,29.5509393 L203.673422,30.4232128 L203.276458,31.2161886 L202.879493,32.0884621 L202.561922,32.8814379 L202.085565,33.7537113 L201.13285,35.339663 L200.5771,36.0533413 L200.02135,36.8463171 L198.3541,38.9873519 L197.718957,39.7010302 L196.448671,41.0490891 L194.46385,43.0315287 L193.669921,43.5866118 L192.955385,44.1416949 L192.161457,44.6174804 L190.732385,45.7276466 L189.938456,46.2034321 L189.144528,46.7585152 L188.429992,47.2343007 L187.477277,47.7893838 L185.254277,48.89955 L184.77792,49.2960379 L184.539741,49.7718234 L184.460348,50.4855017 L184.301563,51.3577751 L184.22217,52.3093461 L183.904598,54.053893 L183.825206,55.005464 L183.66642,56.7500109 L183.66642,57.7015819 L183.825206,59.4461288 L183.983991,60.3184022 L184.301563,61.1906756 L184.77792,61.9836515 L185.413063,62.6180321 L186.127599,63.0145201 L187.00092,63.2524128 L187.874242,63.2524128 L188.826956,63.0938176 L189.700278,62.9352225 L190.652992,62.6973297 L191.446921,62.3801394 L192.161457,61.9043539 L194.225671,60.3976998 L195.178385,59.7633191 L195.813528,59.1289384 L196.448671,58.4152602 L197.718957,57.1464988 L198.830457,55.7191423 L199.4656,54.9261664 L200.180136,53.9745954 L200.735886,52.8644292 L201.17794,52.0430417 L201.270573,51.6749655 L201.588144,50.7233944 L202.382073,48.9788476 L202.85843,48.1065742 L203.255394,47.2343007 L204.366894,45.648349 L204.922645,44.9346708 L206.113538,43.3487191 L206.669288,42.5557432 L207.383823,41.842065 L210.241967,39.3045423 L211.829824,38.1943761 L212.703145,37.7185906 L214.370396,36.687722 L215.164324,36.2119365 L216.037646,35.8154485 L216.99036,35.4982582 L218.022467,35.1810679 L218.65761,35.0224727 L219.769111,34.7052823 L220.721825,34.5466872 L221.753932,34.4673896 L222.389075,34.388092 L225.247218,34.388092 L227.152647,34.5466872 L228.025969,34.7052823 L229.852005,35.1017703 L231.598648,35.5775558 L232.551362,35.8154485 L233.345291,36.2119365 L234.218612,36.687722 L234.933148,37.1635075 L235.727077,37.7185906 L237.156148,38.8287567 L237.632505,39.542435 L237.711898,40.1768157 L237.47372,40.8904939 L236.91797,41.6834698 L236.203434,42.4764456 L235.330112,43.1108263 L234.456791,43.3487191 L233.504076,43.0315287 L232.471969,42.4764456 L231.916219,42.1592553 L230.804719,41.6834698 L229.931397,41.2869819 L228.978683,40.8904939 L228.025969,40.5733036 L227.073254,40.3354109 L226.041147,40.1768157 L225.088433,40.0975181 L224.056325,40.0975181 L223.024218,40.2561133 L221.118789,40.5733036 L220.166075,40.8904939 L218.419432,41.6834698 L217.54611,42.2385529 L216.752182,42.793636 L216.037646,43.4280167 L215.164324,44.2209925 L214.529181,44.9346708 L213.973431,45.5690514 L213.338288,46.2827297 L212.782538,47.0757056 L212.226788,47.947979 L211.750431,48.7409548 L211.353467,49.6132283 L210.87711,50.4855017 L210.480145,51.3577751 L210.162574,52.2300486 L209.686217,53.9745954 L209.448038,54.9261664 L209.209859,55.7984399 L209.051074,56.6707133 L208.971681,57.6222843 L208.971681,58.4945577 L209.051074,59.4461288 L209.130466,60.3184022 L209.368645,61.2699732 L209.765609,62.062949 L210.400752,62.6973297 L211.274074,63.0145201 L212.226788,63.0938176 L213.179503,62.7766273 L213.973431,62.2215442 L214.76736,61.5871635 L215.481896,60.9527829 L216.910967,59.5254263 L217.466717,58.8117481 L218.022467,57.9394746 L219.610325,55.4019519 L220.086682,54.5296785 L220.483646,53.6574051 L220.960004,52.7851316 L221.833325,51.0405848 L222.230289,50.1683114 L222.627254,49.2167403 L222.865432,48.2651693 L223.262397,47.3135983 L223.579968,46.4413249 L224.215111,44.5381828 L224.532683,43.745207 L225.247218,43.2694215 L226.199933,43.1108263 L227.073254,43.1108263 L227.867183,43.1901239 L228.740504,43.3487191 L229.772612,43.5866118 L230.645933,43.9830997 L231.439862,44.3795877 L231.916219,45.0932659 L231.995612,45.9655394 L231.757433,46.9171104 L231.439862,47.8686814 L231.12229,48.89955 L230.645933,50.802692 L230.328362,51.754263 L230.01079,52.7851316 L229.772612,53.7367027 L229.613826,54.7675713 L229.137469,56.6707133 L228.978683,57.6222843 L228.819897,58.4945577 L228.740504,59.3668312 L228.661112,60.159807 L228.661112,61.0320804 L228.89929,61.9043539 L229.375647,62.5387346 L230.090183,62.8559249 L230.963505,62.7766273 L231.757433,62.6180321 L232.630755,62.1422466 L233.345291,61.6664611 L234.059826,61.0320804 L235.330112,59.6047239 L235.965255,58.9703432 L237.076755,57.5429867 L237.632505,56.7500109 L238.108863,55.957035 L238.58522,55.0847616 L238.823398,54.7675713 L239.379148,53.9745954 L239.934899,52.8644292 L240.490649,51.8335606 L240.887613,51.0405848 L241.24394,50.7340417 L241.36397,50.4062041 L241.602149,49.4546331 L241.91972,48.5823597 L242.157899,47.7100862 L242.396077,46.7585152 L242.634256,45.8862418 L242.951827,45.0139683 L243.190006,44.1416949 L243.666363,42.2385529 L244.14272,40.494006 L244.380899,39.542435 L244.619078,38.6701616 L244.936649,37.7978881 L245.174828,36.8463171 L245.492399,35.9740437 L246.048149,35.2603654 L247.080257,34.8638775 L248.112364,34.7052823 L249.144471,34.6259848 L251.208686,34.6259848 L252.1614,34.7845799 L253.114114,35.1810679 L253.987436,35.6568534 L254.146222,36.6084244 L253.82865,38.3529712 L253.590472,39.1459471 L253.352293,40.0182205 L253.114114,40.8111964 L253.114114,41.2076843 L253.511079,41.0490891 L254.146222,40.4147084 L254.701972,39.7803278 L256.845579,37.8771857 L257.560115,37.3221026 L258.274651,36.8463171 L259.068579,36.291234 L259.862508,35.8154485 L260.735829,35.4189606 L261.609151,35.1017703 L262.40308,34.7845799 L263.355794,34.4673896 L264.229116,34.388092 L265.18183,34.388092 L267.166652,34.5466872 L268.119366,34.7845799 L268.992688,35.1017703 L269.866009,35.5775558 L270.501152,36.291234 L271.215688,37.0049123 L271.612652,37.7978881 L271.930224,38.7494592 L272.247795,40.6526012 L272.247795,42.5557432 L272.089009,43.5866118 L271.930224,44.5381828 L271.612652,45.4897539 L271.374474,46.4413249 L271.056902,47.4721935 L270.818724,48.4237645 L270.580545,49.4546331 L269.627831,52.3093461 L269.151473,54.3710833 L268.913295,55.3226544 L268.595723,56.353523 L268.357545,57.305094 L268.278152,58.1773674 L268.119366,59.0496408 L267.881187,59.8426167 L267.722402,60.6355925 L267.643009,61.507866 L267.801795,62.3801394 L268.119366,63.0938176 L268.913295,63.3317104 L269.866009,63.1731152 L270.659938,62.7766273 L271.453866,62.3008418 L272.247795,61.6664611 L273.121117,60.7148901 L274.232617,59.6047239 L274.788367,58.8910457 L277.011367,55.7191423 L278.20226,53.9745954 L278.75801,52.8644292 L279.31376,51.8335606 L279.710725,51.0405848 L280.00994,50.7840417 L280.028296,50.5647993 L280.266475,49.6132283 L280.42526,48.7409548 L280.663439,47.7893838 L280.98101,45.8862418 L281.457368,43.9830997 L281.774939,43.1108263 L282.013118,42.1592553 L282.251296,41.2869819 L282.489475,40.3354109 L282.568868,39.542435 L282.489475,39.1459471 L281.616153,38.9080543 L280.901618,38.8287567 L279.790117,38.5115664 L279.234367,37.8771857 L278.996189,37.0842099 L278.916796,36.1326389 L278.996189,35.2603654 L279.234367,34.4673896 L279.631332,33.6744137 L280.266475,33.2779258 L281.219189,33.1986282 L282.251296,33.1986282 L282.886439,33.2779258 L283.759761,33.2779258 L284.236118,33.1193307 L284.553689,32.7228427 L284.871261,32.0091645 L285.109439,31.136891 L285.744582,29.3923442 L285.982761,28.4407732 L286.300332,27.5684997 L286.538511,26.6962263 L286.856082,25.8239529 L287.173654,24.8723819 L287.491225,24.0001084 L287.88819,23.2071326 L288.205761,22.2555616 L290.11119,17.021921 L290.508154,16.1496475 L291.063904,15.5152669 L291.937226,15.1187789 L292.731155,14.9601838 L293.683869,14.8808862 L294.874762,14.8808862 L296.780191,15.1980765 L297.732905,15.5152669 L298.606227,15.9117548 L299.161977,16.5461355 L299.161977,17.4184089 L298.844405,18.2906823 L298.447441,19.2422533 L298.209262,20.1938244 L297.891691,21.1453954 L297.494727,22.0176688 L296.542012,24.8723819 L296.145048,25.7446553 L295.351119,27.6477973 L295.112941,28.5993683 L293.842655,32.4056524 L293.683869,33.1193307 L293.683869,33.5158186 L294.080833,33.7537113 L294.795369,33.7537113 L295.827476,33.8330089 L297.812298,33.8330089 L299.79712,33.6744137 L300.829227,33.6744137 L301.623156,33.9123065 L302.178906,34.388092 L302.417084,35.1810679 L302.337691,36.0533413 L302.258299,36.8463171 L301.940727,37.7185906 L301.623156,38.4322688 L300.988013,38.9873519 L300.194084,39.3045423 L299.320762,39.3838398 L295.748083,39.6217326 L293.604476,39.6217326 L292.969333,39.542435 L292.016619,39.542435 L291.619654,39.7803278 L291.22269,40.1768157 L290.984512,40.8904939 L290.746333,41.842065 L290.428761,42.7143384 L289.714226,45.5690514 L289.55544,46.4413249 L289.317261,47.3928959 L288.99969,48.2651693 L288.761511,49.2167403 L288.602726,50.1683114 L288.364547,51.1198824 L288.205761,51.9921558 L288.046975,52.9437268 L287.88819,53.8160002 L287.808797,54.7675713 L287.650011,55.6398447 L287.570618,56.5914157 L287.570618,58.4152602 L287.650011,59.2875336 L287.808797,60.159807 L288.046975,61.0320804 L288.44394,61.8250563 L289.079083,62.459437 L289.793619,62.9352225 L290.66694,63.1731152 L291.540262,63.2524128 L292.492976,63.1731152 L293.366298,62.9352225 L294.239619,62.5387346 L295.033548,62.062949 L295.827476,61.507866 L297.256548,60.2391046 L297.891691,59.6047239 L298.526834,58.8910457 L299.161977,58.256665 L299.717727,57.5429867 L300.273477,56.7500109 L300.90862,56.0363326 L301.46437,55.2433568 L302.417084,53.9745954 L302.972834,52.8644292 L303.06094,52.6990417 L303.290406,52.0714534 L303.846156,51.0405848 L304.163727,50.4855017 L304.640085,49.4546331 L304.957656,48.5823597 L305.592799,46.996408 L305.989763,46.044837 L306.783692,44.3002901 L307.736406,41.6834698 L307.974585,40.7318988 L308.609728,38.9873519 L308.847906,38.1150785 L309.086085,37.1635075 L309.165478,36.291234 L309.006692,35.4189606 L308.689121,34.5466872 L308.292156,33.5951162 L308.053978,32.7228427 L307.815799,31.7712717 L307.815799,30.8197007 L307.895192,29.8681297 L308.212763,28.9958563 L308.609728,28.1235828 L309.244871,27.4099046 L310.038799,26.7755239 L310.912121,26.379036 L311.785442,26.0618456 L312.738157,26.0618456 L313.611478,26.2997384 L314.326014,26.7755239 L314.802371,27.5684997 L315.119943,28.4407732 L315.278729,29.3923442 L315.278729,30.3439152 L315.119943,31.2954862 L314.961157,32.0884621 L314.961157,32.6435451 L315.199336,33.1193307 L316.469622,34.3087944 L318.454443,36.291234 L319.168979,36.8463171 L319.883515,37.4806978 L321.233194,38.7494592 L322.503479,40.1768157 L322.979837,40.8904939 L323.456194,41.7627674 L323.853158,42.5557432 L324.17073,43.4280167 L324.329515,44.3795877 L324.250122,45.2518611 L323.932551,46.1241345 L323.535587,46.9171104 L322.979837,47.7100862 L322.344694,48.4237645 L319.565943,52.3886437 L319.089586,53.2609172 L318.295657,55.005464 L317.978086,55.8777374 L317.660515,56.8293085 L317.422336,57.7015819 L317.26355,58.6531529 L317.184157,59.6047239 L317.26355,60.4769974 L317.501729,61.4285684 L317.978086,62.2215442 L318.613229,62.8559249 L319.48655,63.1731152 L320.439265,63.2524128 L321.312586,63.1731152 L322.424087,62.7766273 L323.297408,62.3801394 L323.932551,61.9836515 L324.72648,61.507866 L325.361623,61.0320804 L326.076158,60.3976998 L326.870087,59.6840215 L327.584623,58.9703432 L328.140373,58.256665 L328.854909,57.3843916 L329.251873,56.908606 L329.887016,56.0363326 L330.442766,55.0847616 L331.316088,53.9745954 L331.871838,52.8644292 L332.38494,51.9110417 L332.586373,51.0405848 L332.824552,50.0890138 L333.062731,49.2167403 L333.380302,48.2651693 L333.697874,47.3928959 L333.936052,46.5206225 L334.253624,45.5690514 L334.888767,43.8245046 L335.206338,42.8729336 L335.444517,42.0006601 L335.682695,41.0490891 L335.920874,40.1768157 L336.238445,39.3045423 L336.476624,38.3529712 L336.794195,37.4806978 L337.032374,36.5291268 L337.429338,35.8154485 L338.223267,35.2603654 L339.175981,35.0224727 L340.128696,34.8638775 L341.08141,34.7845799 L342.034124,34.7845799 L343.066232,34.9431751 L343.939553,35.1017703 L344.812875,35.4982582 L345.368625,36.0533413 L345.368625,36.9256147 L345.289232,37.7978881 L345.051053,38.7494592 L344.812875,39.6217326 L344.336518,41.5248746 L344.018946,42.4764456 L343.780768,43.3487191 L343.30441,45.1725635 L342.986839,46.1241345 L342.669267,46.996408 L342.351696,47.947979 L342.113517,48.8202524 L341.795946,49.9304186 L341.63716,50.5647993 L341.398982,51.6749655 L341.08141,52.7058341 L340.922624,53.3402147 L340.605053,54.3710833 L340.366874,55.3226544 L340.049303,57.2257964 L339.811124,58.0980698 L339.652338,59.0496408 L339.572946,59.9219143 L339.572946,60.8734853 L339.811124,61.7457587 L340.287481,62.459437 L341.002017,62.7766273 L341.954732,62.8559249 L342.907446,62.6180321 L344.654089,61.6664611 L345.368625,60.9527829 L346.241946,60.159807 L346.718304,59.6840215 L347.512232,58.8117481 L348.147375,58.0187722 L348.703125,57.1464988 L349.258875,56.1949278 L349.576447,55.5605471 L350.21159,54.6089761 L350.687947,53.7367027 L351.164304,52.7851316 L352.355197,50.1683114 L352.752161,49.3753355 L352.99034,48.5030621 L353.228519,47.7893838 L353.54609,46.9171104 L353.863662,45.9655394 L355.133947,42.4764456 L355.372126,41.6834698 L356.086662,39.0666495 L356.404233,38.1943761 L356.642412,37.3221026 L356.959983,36.4498292 L357.356948,35.6568534 L358.071483,35.1810679 L358.944805,34.8638775 L359.897519,34.7052823 L361.882341,34.7052823 L362.835055,34.8638775 L363.78777,35.1017703 L364.740484,35.4982582 L365.216841,36.1326389 L365.296234,37.0049123 L365.058056,37.8771857 L364.819877,38.8287567 L364.502306,39.7010302 L364.184734,40.6526012 L363.946556,41.5248746 L363.628984,42.4764456 L363.390805,43.5073142 L363.23202,44.1416949 L362.914448,45.1725635 L362.67627,46.1241345 L362.041127,47.8686814 L361.802948,48.8202524 L361.56477,49.6925258 L361.088412,51.5956679 L360.770841,52.4679413 L360.532662,53.4195123 L360.294484,54.2917858 L360.056305,55.2433568 L359.818127,56.1156302 L359.579948,57.0672012 L359.262376,57.9394746 L358.944805,58.8910457 L358.706626,59.7633191 L358.468448,60.7148901 L358.309662,61.5871635 L358.150876,62.5387346 L357.912698,63.4903056 L357.595126,64.4418766 L357.356948,65.31415 L356.959983,66.9001017 L357.039376,67.217292 L357.356948,67.2965896 L357.992091,66.9793993 L359.024198,66.4243162 L360.135698,65.7106379 L361.167805,64.9969597 L362.835055,63.4903056 L363.311413,63.0938176 L364.105341,62.3008418 L364.740484,61.5871635 L365.296234,60.8734853 L365.851984,60.2391046 L366.407734,59.4461288 L367.042877,58.5738553 L367.598627,57.7015819 L368.074985,56.908606 L368.630735,56.0363326 L369.980413,53.9745954 L370.536163,52.8644292 L371.091914,51.8335606 L371.488878,51.0405848 L372.044628,50.5647993 L372.838557,50.5647993 L373.711878,51.0405848 L374.188235,51.754263 L374.188235,52.6265365 L373.870664,53.4988099 L373.314914,54.2917858 L372.838557,55.005464 L372.362199,55.7984399 L371.647664,57.305094 L370.059806,60.0805094 L368.948306,61.7457587 L368.23377,62.6180321 L367.836806,63.1731152 L367.12227,64.0453887 L366.56652,64.7590669 L365.296234,66.1864234 L363.867163,67.4551848 L363.073234,68.0895655 L361.56477,69.2790292 L360.770841,69.8341123 L359.976912,70.3098978 L359.024198,70.8649809 L356.563019,72.0544447 L355.927876,72.4509326 L355.451519,72.8474206 L355.133947,73.3232061 L354.895769,74.0368843 L354.65759,74.9884553 L354.340019,75.8607288 L354.10184,76.8122998 L353.863662,77.6845732 L353.54609,78.6361442 L353.228519,79.5084177 L352.99034,80.4599887 L352.672769,81.3322621 L352.275804,82.2045355 L351.799447,83.1561066 L351.32309,84.02838 L350.926125,84.9006534 L349.814625,86.4866051 L349.258875,87.2002834 L348.623732,87.9139616 L347.909197,88.6276399 L347.194661,89.2620206 L346.321339,89.8171037 L345.527411,90.2928892 L344.574696,90.6893771 L343.701375,91.0065674 L342.74866,91.1651626 L341.716553,91.3237578 L340.763839,91.4823529 L338.85841,91.4823529 L337.826303,91.3237578 L337.19116,91.1651626 L336.159052,90.9272698 L334.412409,90.2928892 L333.697874,89.7378061 L332.983338,89.1034254 L331.871838,87.6760689 L331.474873,86.883093 L331.236695,86.0108196 L331.077909,85.0592486 L331.077909,84.1076776 L331.157302,83.1561066 L331.316088,82.2045355 L331.554266,81.3322621 L331.95123,80.3806911 L332.348195,79.5877152 L332.824552,78.7154418 L333.459695,77.922466 L334.094838,77.2087877 L334.809374,76.574407 L335.841481,75.7814312 L337.985088,74.3540747 L338.779017,73.8782892 L340.52566,73.0853133 L342.351696,72.4509326 L343.383803,72.0544447 L344.018946,71.7372544 L345.051053,71.3407664 L345.924375,71.0235761 L347.591625,70.468493 L348.067982,70.1513027 L348.464947,69.6755172 L348.703125,68.9618389 L348.941304,68.0102679 L349.179482,67.1379945 L349.417661,66.1864234 L350.370375,63.5696032 L350.687947,62.6180321 L351.32309,60.8734853 L351.402483,60.3184022 L351.164304,60.3976998 L350.687947,60.9527829 L350.21159,61.5871635 L349.576447,62.3008418 L348.941304,63.0938176 L346.797696,65.2348524 L346.003768,65.8692331 L345.209839,66.4243162 L344.336518,66.9793993 L343.463196,67.4551848 L342.510482,67.8516727 L340.605053,68.4860534 L339.652338,68.7239462 L338.699624,68.8032437 L337.667517,68.8032437 L337.111767,68.7239462 L336.000267,68.6446486 L334.888767,68.4067558 L334.015445,68.0895655 L333.221516,67.61378 L332.586373,66.9793993 L332.030623,66.265721 L331.554266,65.5520428 L331.157302,64.7590669 L330.83973,63.8867935 L330.680945,62.9352225 L330.601552,62.062949 L330.601552,61.111378 L330.64794,60.5980417 L330.125195,61.2699732 L329.648837,62.062949 L329.093087,62.7766273 L328.378551,63.5696032 L327.743409,64.2039838 L327.187659,64.8383645 L326.552516,65.4727452 L325.758587,66.0278283 L325.044051,66.5036138 L324.091337,67.0586969 L322.821051,67.6930776 L321.709551,68.1688631 L320.836229,68.4067558 L318.9308,68.7239462 L317.978086,68.8032437 L316.072657,68.6446486 L315.04055,68.4860534 L314.087836,68.2481606 L313.135121,67.8516727 L312.2618,67.3758872 L311.467871,66.7415065 L310.753335,66.1071259 L310.038799,65.31415 L309.562442,64.5211742 L309.086085,63.5696032 L308.768514,62.6973297 L308.530335,61.6664611 L308.450942,60.7148901 L308.371549,59.6840215 L308.530335,58.8117481 L308.689121,57.7015819 L308.927299,56.8293085 L309.165478,56.1156302 L309.403656,55.2433568 L309.800621,54.3710833 L311.70605,51.19918 L312.2618,50.2476089 L312.579371,49.6925258 L313.135121,48.7409548 L313.611478,47.947979 L314.087836,47.2343007 L314.564193,46.59992 L315.119943,45.8069442 L315.675693,44.9346708 L315.993264,44.1416949 L315.993264,43.2694215 L315.755086,42.4764456 L315.358121,41.6834698 L314.802371,40.9697915 L314.246621,40.3354109 L313.611478,39.7803278 L313.055728,39.1459471 L312.579371,38.7494592 L312.341193,38.6701616 L312.103014,38.9080543 L311.864835,39.542435 L310.594549,43.3487191 L310.356371,44.3002901 L309.721228,46.2034321 L309.244871,47.2343007 L308.927299,47.8686814 L308.450942,48.89955 L308.053978,49.851121 L307.657013,50.7233944 L307.260049,51.6749655 L306.783692,52.4679413 L306.47994,53.0220417 L306.307335,53.4988099 L305.751585,54.2917858 L305.434013,55.005464 L304.401906,57.0672012 L303.925549,57.8601771 L303.369799,58.7324505 L302.258299,60.3184022 L301.623156,61.111378 L300.511655,62.6973297 L299.876513,63.411008 L299.161977,64.1246862 L298.526834,64.8383645 L297.812298,65.4727452 L297.018369,66.1071259 L295.430512,67.217292 L294.55719,67.6930776 L293.604476,68.0895655 L292.731155,68.3274582 L291.77844,68.565351 L290.984512,68.8032437 L290.031797,68.9618389 L288.920297,69.0411365 L286.935475,68.8825413 L286.062154,68.6446486 L285.109439,68.3274582 L284.236118,67.9309703 L283.442189,67.4551848 L282.648261,66.9001017 L281.933725,66.265721 L281.377975,65.4727452 L280.901618,64.6797693 L280.107689,62.9352225 L279.86951,61.9836515 L279.551939,60.0805094 L279.472546,59.1289384 L279.472546,58.1773674 L279.44294,57.8330417 L278.75801,58.8117481 L278.281653,59.6047239 L277.170153,61.1906756 L276.614403,61.9043539 L275.344117,63.3317104 L274.708974,64.1246862 L274.073831,64.7590669 L273.359295,65.3934476 L272.644759,65.9485307 L272.089009,66.3450186 L271.056902,67.0586969 L270.183581,67.5344824 L269.310259,67.9309703 L268.436938,68.2481606 L267.563616,68.4860534 L266.610902,68.7239462 L264.784866,68.8825413 L263.832151,68.8825413 L262.879437,68.7239462 L262.006115,68.4067558 L261.132794,68.0102679 L260.338865,67.4551848 L259.624329,66.8208041 L259.147972,66.0278283 L258.830401,65.0762573 L258.671615,64.1246862 L258.592222,63.1731152 L258.671615,62.2215442 L258.671615,61.2699732 L258.751008,60.3184022 L258.989186,59.4461288 L259.227365,58.4945577 L259.386151,57.5429867 L260.100687,54.9261664 L260.338865,53.9745954 L260.497651,53.0230244 L260.815222,52.150751 L261.053401,51.2784775 L261.29158,50.6440969 L261.609151,49.4546331 L261.84733,48.5030621 L262.006115,47.6307886 L262.323687,46.7585152 L262.641258,45.7276466 L262.879437,44.7760756 L262.95883,43.6659094 L262.95883,42.5557432 L262.561865,41.6834698 L261.767937,40.9697915 L260.815222,40.8111964 L259.862508,40.8904939 L258.989186,41.2076843 L258.195258,41.6041722 L257.480722,42.0799577 L256.686793,42.5557432 L255.972258,43.0315287 L254.543186,44.1416949 L253.908043,44.696778 L252.637757,45.9655394 L251.526257,47.3928959 L251.0499,48.1858717 L250.573543,49.3753355 L250.335364,50.0097162 L249.859007,51.9128582 L249.462042,53.1816196 L249.223864,53.8160002 L248.985685,54.7675713 L248.668114,55.7191423 L248.429935,56.6707133 L248.27115,57.6222843 L248.032971,58.5738553 L247.715399,59.5254263 L247.477221,60.4769974 L247.159649,61.4285684 L246.921471,62.3801394 L246.445114,64.362579 L245.968756,66.265721 L245.651185,67.1379945 L245.174828,67.7723751 L244.460292,68.0895655 L243.58697,68.4067558 L241.840327,68.7239462 L240.967006,68.7239462 L239.220363,68.4067558 L238.426434,68.2481606 L237.632505,67.9309703 L236.91797,67.3758872 L236.759184,66.5829114 L236.91797,65.7106379 L237.156148,64.7590669 L237.632505,63.0145201 L237.950077,62.062949 L238.15494,61.2760417 L237.314934,62.2215442 L236.759184,62.9352225 L236.044648,63.6489007 L235.409505,64.362579 L233.980434,65.6313404 L233.186505,66.1864234 L231.598648,67.1379945 L230.725326,67.61378 L229.852005,68.0102679 L228.978683,68.3274582 L228.025969,68.4860534 L227.073254,68.565351 L226.12054,68.565351 L225.247218,68.4067558 L224.373897,68.0895655 L223.579968,67.6930776 L222.865432,67.0586969 L222.389075,66.4243162 L221.912718,65.5520428 L221.674539,64.7590669 L221.436361,63.8867935 L221.356968,62.9352225 L221.356968,62.062949 L221.515754,60.3184022 L221.515754,59.6840215 L221.356968,59.6047239 L220.960004,60.159807 L220.007289,61.7457587 L219.451539,62.5387346 L218.181253,63.9660911 L217.625503,64.6797693 L216.99036,65.3934476 L216.275824,66.1071259 L215.561289,66.662209 L214.529181,67.2965896 L213.258896,67.9309703 L212.226788,68.3274582 L211.274074,68.565351 L210.321359,68.7239462 L209.448038,68.8825413 L208.495324,68.8825413 L207.622002,68.8032437 L206.74868,68.6446486 L205.795966,68.4067558 L205.002037,68.0895655 L204.128716,67.6930776 L203.41418,67.1379945 L202.779037,66.5036138 L202.223287,65.8692331 L201.667537,65.0762573 L201.19118,64.362579 L200.794216,63.4903056 L200.556037,62.6973297 L200.317858,61.7457587 L200.07968,60.8734853 L200.00894,60.0980417 L199.703779,60.5562949 L199.148029,61.3492708 L198.592279,62.062949 L197.321993,63.4903056 L196.68685,64.1246862 L195.972314,64.7590669 L195.257778,65.31415 L194.622635,65.7106379 L193.828707,66.265721 L192.875992,66.8208041 L192.082064,67.217292 L191.208742,67.61378 L190.176635,67.9309703 L188.509385,68.4067558 L184.857313,68.7239462 L183.904598,68.7239462 L182.793098,68.4860534 L182.237348,68.4067558 L181.125848,68.0895655 L180.252527,67.6930776 L179.458598,67.217292 L178.664669,66.662209 L178.029526,66.0278283 L177.394383,65.31415 L176.997419,64.4418766 L176.600455,63.411008 L176.282883,62.459437 L176.124098,61.6664611 L175.965312,60.7941877 L175.885919,59.8426167 L175.885919,58.8910457 L175.806526,57.9394746 L175.806526,56.0363326 L175.965312,54.1331906 L176.304474,52.0947531 C173.299596,52.812197 171.617952,52.8005976 171.259543,52.0599547 C170.855224,51.2244419 172.794956,49.7181792 177.078739,47.5411665 L177.553169,45.648349 L177.711955,44.696778 L177.950133,43.8245046 L178.267705,41.9213625 L178.505884,41.0490891 L179.061634,39.2252447 L179.299812,38.3529712 L179.617384,37.4014002 L179.855562,36.5291268 L180.173134,35.5775558 L180.570098,34.7052823 L180.88767,33.8330089 L181.205241,33.0400331 L181.522812,32.1677596 L181.840384,31.2161886 L182.793098,28.5993683 L183.190063,27.7270949 L183.587027,26.9341191 L184.380956,25.1895722 L184.77792,24.3965963 L185.413063,23.4450253 L185.730634,22.8899422 L186.286384,22.0176688 L186.762742,21.1453954 L187.239099,20.3524195 L187.794849,19.6387413 L188.350599,18.8457654 L188.985742,18.1320872 L189.620885,17.4977065 L190.256028,16.7840282 L190.970564,16.1496475 L191.685099,15.5945645 L192.479028,15.0394814 L193.511135,14.4843983 L194.066885,14.1672079 L195.098993,13.77072 L196.051707,13.5328273 L197.004421,13.3742321 Z M346.718304,75.7814312 L346.241946,75.7814312 L345.606803,76.0986215 L344.892268,76.4951094 L344.018946,76.970895 L343.225017,77.4466805 L342.351696,78.0017636 L341.557767,78.5568466 L340.128696,79.9842032 L339.493553,80.777179 L338.85841,81.6494524 L338.461446,82.6010235 L338.382053,83.6318921 L338.699624,84.5834631 L339.41416,85.2971413 L340.287481,85.6143317 L341.240196,85.6143317 L342.19291,85.2178438 L342.986839,84.6627607 L343.701375,84.02838 L344.257125,83.2354041 L344.812875,82.3631307 L345.289232,81.4908573 L345.924375,79.7463104 L346.083161,78.9533346 L346.321339,78.1603587 L346.480125,77.2880853 L346.718304,76.3365143 L346.718304,75.7814312 Z M155.295622,13.0570417 L157.201051,13.2156369 L158.074372,13.2949345 L159.027087,13.3742321 L160.853123,13.77072 L161.805837,13.9293152 L162.679159,14.0879103 L163.631873,14.3258031 L165.378516,14.9601838 L166.33123,15.3566717 L167.522123,15.8324572 L168.554231,16.4668379 L169.506945,16.9426234 L170.300874,17.4977065 L171.729945,18.6078727 L172.444481,19.2422533 L173.714767,20.5110147 L174.34991,21.224693 L174.90566,22.0176688 L175.46141,22.7313471 L175.937767,23.6036205 L176.255339,24.3965963 L176.652303,25.2688698 L176.969875,26.1411432 L177.208053,27.0134166 L177.366839,27.8856901 L177.525625,29.7888321 L177.525625,31.6126765 L177.446232,32.5642476 L177.366839,33.436521 L177.049267,35.339663 L176.811089,36.291234 L176.334732,38.0357809 L175.540803,39.7803278 L175.064446,40.6526012 L174.667481,41.445577 L174.191124,42.3178505 L173.079624,43.9038022 L172.444481,44.6174804 L171.729945,45.2518611 L171.174195,45.7276466 L169.665731,47.0757056 L168.792409,47.7100862 L167.204552,48.6616572 L164.584587,49.851121 L163.631873,50.0890138 L162.758551,50.3269065 L161.805837,50.5647993 L160.853123,50.7233944 L159.821015,50.8819896 L159.185873,50.8819896 L158.074372,51.0405848 L156.962872,50.9612872 L155.692586,50.9612872 L154.422301,50.8819896 L153.469586,50.802692 L152.516872,50.6440969 L151.405372,50.4855017 L149.738121,50.0890138 L149.023586,49.9304186 L148.388443,50.0890138 L148.070871,50.4062041 L147.7533,51.19918 L147.515121,52.150751 L147.356335,53.102322 L147.038764,54.053893 L146.800585,55.005464 L146.562407,56.0363326 L146.324228,56.9879036 L146.08605,58.0187722 L145.847871,58.9703432 L145.5303,59.9219143 L145.053942,61.8250563 L144.895157,62.8559249 L143.624871,66.662209 L143.148514,67.5344824 L142.354585,68.0895655 L141.40187,68.4860534 L140.369763,68.6446486 L139.337656,68.6446486 L138.305549,68.565351 L137.273441,68.3274582 L136.40012,67.9309703 L135.685584,67.2965896 L135.447406,66.4243162 L135.606191,65.4727452 L136.241334,63.5696032 L136.558906,62.6973297 L136.797084,61.7457587 L137.194049,60.8734853 L137.51162,59.9219143 L137.749799,59.0496408 L137.987977,58.256665 L138.226156,57.305094 L138.464334,56.1949278 L138.62312,55.3226544 L138.861299,54.3710833 L139.020085,53.4195123 L139.337656,52.4679413 L139.575835,51.5956679 L139.814013,50.6440969 L139.972799,49.6925258 L140.210977,48.7409548 L140.449156,47.8686814 L140.766728,46.9171104 L140.925513,45.9655394 L141.163692,45.0139683 L141.481263,44.1416949 L141.719442,43.1901239 L142.037013,42.2385529 L142.275192,41.1283867 L142.433978,40.5733036 L142.672156,39.4631374 L142.989728,38.590864 L143.386692,37.4806978 L143.545478,36.9256147 L143.942442,35.8154485 L144.180621,34.8638775 L144.498192,33.9916041 L144.895157,33.0400331 L145.292121,32.1677596 L146.08605,30.5025104 L146.483014,29.5509393 L146.879978,28.6786659 L147.356335,27.8856901 L147.832693,27.0134166 L149.102979,25.5860601 L150.53205,24.3172988 L151.325979,23.7622157 L152.1993,23.2071326 L153.152015,22.8899422 L154.184122,22.8106447 L155.216229,22.8899422 L156.248336,23.127835 L157.201051,23.5243229 L157.915587,24.1587036 L158.074372,24.8723819 L157.439229,25.5067625 L156.724694,26.1411432 L156.089551,26.8548215 L155.454408,27.6477973 L154.978051,28.5200707 L153.787158,31.136891 L153.390193,32.0884621 L153.072622,32.9607355 L152.75505,33.9123065 L152.437479,34.7845799 L151.722943,37.639293 L151.405372,38.5115664 L151.0878,39.4631374 L150.849622,40.4147084 L150.53205,41.3662795 L150.293872,42.2385529 L149.9763,43.1901239 L149.896907,43.9830997 L149.9763,44.4588853 L150.373264,44.7760756 L151.0878,44.9346708 L153.072622,45.3311587 L154.025336,45.4104563 L154.978051,45.4104563 L155.851372,45.3311587 L156.804087,45.2518611 L157.915587,45.1725635 L158.868301,44.9346708 L159.821015,44.6174804 L160.77373,44.2209925 L161.647051,43.8245046 L163.234909,42.7143384 L164.66398,41.445577 L165.299123,40.7318988 L165.934266,39.9389229 L166.410623,39.0666495 L166.886981,38.2736737 L167.283945,37.3221026 L167.601516,36.4498292 L167.998481,35.339663 L168.157266,34.7052823 L168.395445,33.5951162 L168.633624,32.6435451 L168.713016,31.7712717 L168.713016,30.8197007 L168.633624,29.8681297 L168.474838,28.9165587 L168.316052,28.0442852 L168.077874,27.0927142 L167.760302,26.2204408 L167.363338,25.3481674 L166.886981,24.5551915 L166.33123,23.7622157 L165.77548,23.0485374 L165.060945,22.4141567 L164.267016,21.8590736 L163.473087,21.3832881 L162.361587,20.7489075 L161.011908,20.1938244 L160.059194,19.7973364 L159.10648,19.5594437 L158.233158,19.3215509 L157.280444,19.0836582 L156.327729,18.925063 L155.375015,18.8457654 L154.422301,18.8457654 L152.516872,19.0043606 L151.325979,19.0836582 L150.770229,19.1629558 L149.579336,19.4008485 L148.626621,19.5594437 L147.7533,19.7973364 L146.6418,20.1145268 L145.371514,20.5903123 L144.180621,21.0660978 L143.148514,21.5418833 L142.354585,22.0969664 L141.481263,22.5727519 L139.893406,23.6829181 L139.099477,24.3172988 L138.464334,25.030977 L137.352834,26.6169287 L136.558906,28.3614756 L136.241334,29.233749 L136.003156,30.18532 L135.84437,31.136891 L135.84437,32.0884621 L135.923763,33.1193307 L136.082548,33.9123065 L136.40012,34.7845799 L136.717691,35.8947461 L137.114656,36.7670195 L137.352834,37.639293 L137.273441,38.5115664 L136.717691,39.2252447 L136.082548,39.8596253 L135.368013,40.3354109 L134.494691,40.6526012 L133.62137,40.8111964 L132.748048,40.7318988 L131.954119,40.3354109 L131.318976,39.8596253 L130.604441,39.2252447 L130.048691,38.5115664 L129.413548,37.7978881 L128.460833,36.3705316 L128.063869,35.4982582 L127.746298,34.7052823 L127.508119,33.8330089 L127.349333,32.8814379 L127.26994,32.0091645 L127.26994,31.0575935 L127.349333,30.1060224 L127.508119,29.1544514 L127.984476,27.2513094 L128.302048,26.379036 L129.095976,24.6344891 L129.572333,23.8415133 L130.048691,22.9692398 L130.683834,22.176264 L131.318976,21.4625857 L132.033512,20.828205 L132.748048,20.1145268 L133.62137,19.4008485 L134.653477,18.6871703 L136.876477,17.2598137 L137.987977,16.7047306 L139.099477,16.2289451 L140.131585,15.7531596 L141.084299,15.3566717 L142.037013,15.0394814 L142.910335,14.722291 L144.021835,14.4051007 L146.562407,13.77072 L147.673907,13.6121248 L151.484764,13.2156369 L153.390193,13.0570417 L155.295622,13.0570417 Z M197.560171,19.7973364 L196.68685,19.7973364 L195.813528,20.1938244 L195.098993,20.9075026 L194.384457,21.7004785 L193.828707,22.4934543 L193.352349,23.3657277 L192.875992,24.3172988 L192.479028,25.2688698 L192.002671,26.2204408 L191.605706,27.0927142 L191.208742,28.0442852 L190.891171,28.9958563 L190.573599,29.8681297 L190.256028,30.8197007 L189.859063,31.6919741 L188.271206,36.0533413 L187.953635,36.8463171 L187.318492,38.590864 L187.00092,39.542435 L186.286384,42.1592553 L186.206992,42.793636 L186.286384,43.1108263 L186.524563,43.0315287 L187.080313,42.7143384 L187.794849,42.1592553 L189.700278,40.2561133 L190.414813,39.6217326 L190.970564,38.9873519 L191.605706,38.2736737 L192.082064,37.4806978 L192.637814,36.7670195 L193.193564,35.9740437 L193.749314,35.2603654 L194.225671,34.4673896 L194.622635,33.6744137 L195.098993,32.8814379 L195.972314,31.136891 L196.210493,30.5818079 L196.68685,29.6302369 L197.004421,28.8372611 L197.2426,27.9649877 L197.480779,27.1720118 L197.79835,26.2997384 L198.512886,23.6829181 L198.592279,22.8106447 L198.592279,21.9383712 L198.512886,21.0660978 L198.195314,20.2731219 L197.560171,19.7973364 Z" id="Plantry"></path>
                </g>
            </g>
        </g>
    </g>
</svg>