<?xml version="1.0" encoding="UTF-8"?>
<svg width="112px" height="112px" viewBox="0 0 112 112" version="1.1" xmlns="http://www.w3.org/2000/svg" xmlns:xlink="http://www.w3.org/1999/xlink">
    <title>qrcode</title>
    <g id="Plantry-website" stroke="none" stroke-width="1" fill="none" fill-rule="evenodd">
        <g id="Plantry-4.0-website-+-ipad" transform="translate(-285.000000, -503.000000)">
            <g id="qrcode" transform="translate(285.000000, 503.000000)">
                <path d="M56,0 C86.927946,-5.68137151e-15 112,25.072054 112,56 C112,86.927946 86.927946,112 56,112 C25.072054,112 3.78758101e-15,86.927946 0,56 C-3.78758101e-15,25.072054 25.072054,5.68137151e-15 56,0 Z" id="Button" fill="#FFFFFF"></path>
                <path d="M68.9999914,84.9999709 L68.9999914,86.9999709 L67.0000559,86.9999693 L67.0000559,88.9999693 L64.999993,88.9999693 L64.999993,84.9999709 L68.9999914,84.9999709 Z M74.9999867,82.9999724 L74.9999867,86.9999709 L72.9999883,86.9999693 L72.9999883,88.9999693 L68.9999898,88.9999693 L68.9999898,86.9999693 L70.9999883,86.9999709 L70.9999883,82.9999724 L74.9999867,82.9999724 Z M62.9999961,86.9999693 L62.9999961,88.9999693 L60.9999961,88.9999693 L60.9999961,86.9999693 L62.9999961,86.9999693 Z M45.0000731,86.9999693 L45.0000731,88.9999693 L39.0000133,88.9999693 L39.0000133,86.9999693 L45.0000731,86.9999693 Z M53.0000039,74.9999787 L53.0000023,76.9999771 L55.0000023,76.9999771 L55.0000023,78.9999771 L53.0000039,78.9999756 L53.0000039,80.9999756 L51.0000055,80.999974 L51.0000055,86.9999709 L53.0000039,86.9999693 L53.0000039,88.9999693 L47.000007,88.9999693 L47.000007,84.9999709 L45.0000086,84.9999724 L45.0000086,82.9999724 L47.000007,82.999974 L47.000007,80.999974 L49.0000055,80.9999756 L49.0000055,78.9999756 L51.0000039,78.9999771 L51.0000039,76.9999771 L49.0000055,76.9999787 L49.0000055,74.9999787 L53.0000039,74.9999787 Z M36.9999891,74.9999851 L36.9999891,88.9999742 L23,88.9999742 L23,74.9999851 L36.9999891,74.9999851 Z M80.999982,86.9999693 L80.999982,88.9999693 L78.999982,88.9999693 L78.999982,86.9999693 L80.999982,86.9999693 Z M86.9999773,86.9999693 L86.9999773,88.9999693 L84.9999773,88.9999693 L84.9999773,86.9999693 L86.9999773,86.9999693 Z M58.9999992,84.9999709 L58.9999992,86.9999709 L53.0000023,86.9999709 L53.0000023,84.9999709 L58.9999992,84.9999709 Z M34.8999907,77.0999835 L25.1000629,77.0999835 L25.1000629,86.8999113 L34.8999907,86.8999113 L34.8999907,77.0999835 Z M74.9999867,60.9999896 L74.9999867,64.9999881 L76.9999851,64.9999865 L76.9999836,68.9999834 L78.9999836,68.9999834 L78.9999836,70.9999834 L80.999982,70.9999818 L80.9999804,72.9999803 L82.9999804,72.9999803 L82.9999804,74.9999803 L86.9999773,74.9999787 L86.9999773,78.9999771 L84.9999773,78.9999771 L84.9999773,76.9999771 L80.999982,76.9999771 L80.999982,78.9999771 L82.9999804,78.9999756 L82.9999789,80.999974 L84.9999789,80.999974 L84.9999789,82.999974 L82.9999789,82.999974 L82.9999804,84.9999724 L78.999982,84.9999724 L78.9999836,80.9999756 L76.9999851,80.999974 L76.9999851,82.999974 L74.9999851,82.999974 L74.9999867,80.9999756 L70.9999883,80.9999756 L70.9999883,70.9999818 L74.9999851,70.9999834 L74.9999851,68.9999834 L72.9999867,68.9999849 L72.9999867,60.9999896 L74.9999867,60.9999896 Z M88.9999758,82.9999724 L88.9999758,84.9999724 L86.9999758,84.9999724 L86.9999758,82.9999724 L88.9999758,82.9999724 Z M60.9999977,82.9999724 L60.9999977,84.9999724 L58.9999977,84.9999724 L58.9999977,82.9999724 L60.9999977,82.9999724 Z M43.0000117,82.9999724 L43.0000117,84.9999724 L41.0000117,84.9999724 L41.0000117,82.9999724 L43.0000117,82.9999724 Z M33.0000227,78.9999756 L33.0000227,84.9999756 L27.0000227,84.9999756 L27.0000227,78.9999756 L33.0000227,78.9999756 Z M64.9999945,80.999974 L64.9999945,82.999974 L62.9999945,82.999974 L62.9999945,80.999974 L64.9999945,80.999974 Z M41.0000133,80.999974 L41.0000133,82.999974 L39.0000133,82.999974 L39.0000133,80.999974 L41.0000133,80.999974 Z M51.0000055,66.9999849 L51.0000055,70.9999834 L49.000007,70.9999818 L49.000007,72.9999818 L47.000007,72.9999818 L47.000007,70.9999818 L45.0000102,70.9999818 L45.0000102,72.9999818 L47.0000086,72.9999803 L47.0000086,74.9999803 L43.0000117,74.9999787 L43.0000102,76.9999771 L45.0000102,76.9999771 L45.0000102,78.9999771 L47.0000086,78.9999756 L47.0000086,80.9999756 L45.0000102,80.999974 L45.0000102,82.999974 L43.0000102,82.999974 L43.0000102,78.9999756 L39.0000133,78.9999771 L39.0000133,76.9999771 L41.0000117,76.9999787 L41.0000117,74.9999787 L39.0000133,74.9999803 L39.0000133,72.9999803 L41.0000117,72.9999818 L41.0000117,70.9999818 L45.0000086,70.9999834 L45.0000086,68.9999834 L49.0000055,68.9999849 L49.0000055,66.9999849 L51.0000055,66.9999849 Z M55.0000023,80.999974 L55.0000023,82.999974 L53.0000023,82.999974 L53.0000023,80.999974 L55.0000023,80.999974 Z M68.9999914,80.999974 L68.9999914,82.999974 L66.9999914,82.999974 L66.9999914,80.999974 L68.9999914,80.999974 Z M70.9999898,50.9999975 L70.9999898,54.9999959 L68.9999898,54.9999959 L68.9999914,52.9999975 L66.999993,52.9999959 L66.9999914,54.9999943 L68.9999914,54.9999943 L68.9999898,56.9999928 L74.9999867,56.9999928 L74.9999867,58.9999928 L72.9999867,58.9999928 L72.9999883,60.9999912 L70.9999883,60.9999912 L70.9999898,64.9999881 L68.9999914,64.9999865 L68.9999914,66.9999865 L64.999993,66.9999865 L64.9999945,64.9999881 L60.9999961,64.9999881 L60.9999977,66.9999865 L62.9999961,66.9999849 L62.9999945,68.9999834 L66.999993,68.9999834 L66.999993,72.9999818 L68.9999914,72.9999803 L68.9999914,74.9999803 L66.999993,74.9999787 L66.999993,80.9999756 L64.999993,80.9999756 L64.9999945,78.9999771 L62.9999961,78.9999756 L62.9999961,80.9999756 L60.9999961,80.9999756 L60.9999961,76.9999771 L62.9999945,76.9999787 L62.9999945,74.9999787 L58.9999977,74.9999803 L58.9999977,72.9999803 L62.9999945,72.9999818 L62.9999961,70.9999834 L58.9999977,70.9999834 L58.9999977,66.9999849 L55.0000023,66.9999849 L55.0000023,68.9999849 L53.0000023,68.9999849 L53.0000039,64.9999881 L49.0000055,64.9999881 L49.000007,66.9999865 L45.0000086,66.9999865 L45.0000086,64.9999865 L43.0000102,64.9999881 L43.0000102,62.9999881 L45.0000102,62.9999881 L45.0000086,60.9999896 L51.0000055,60.9999896 L51.0000055,62.9999896 L56.999,62.999 L56.9999992,60.9999896 L58.9999977,60.9999912 L58.9999977,58.9999912 L60.9999977,58.9999912 L60.9999961,60.9999896 L62.9999961,60.9999896 L62.9999945,58.9999912 L64.999993,58.9999928 L64.999993,56.9999928 L60.9999961,56.9999943 L60.9999961,54.9999943 L62.9999945,54.9999959 L62.9999945,52.9999959 L66.9999914,52.9999975 L66.9999914,50.9999975 L70.9999898,50.9999975 Z M57.0000008,78.9999756 L57.0000008,80.9999756 L55.0000008,80.9999756 L55.0000008,78.9999756 L57.0000008,78.9999756 Z M78.9999836,72.9999818 L72.9999867,72.9999818 L72.9999883,78.9999771 L78.999982,78.9999771 L78.9999836,72.9999818 Z M57.0000008,68.9999834 L57,70.999 L58.9999992,70.9999818 L58.9999992,72.9999818 L57,72.999 L57.0000008,76.9999787 L55.0000008,76.9999787 L55.0000008,72.9999803 L53.0000023,72.9999818 L53.0000023,70.9999818 L55.0000008,70.9999834 L55.0000008,68.9999834 L57.0000008,68.9999834 Z M76.9999851,74.9999787 L76.9999851,76.9999787 L74.9999851,76.9999787 L74.9999851,74.9999787 L76.9999851,74.9999787 Z M88.9999758,70.9999818 L88.9999758,74.9999787 L86.9999758,74.9999787 L86.9999758,70.9999818 L88.9999758,70.9999818 Z M64.999993,72.9999803 L62.9999961,72.9999803 L62.9999961,74.9999803 L64.9999945,74.9999787 L64.999993,72.9999803 Z M25.0000258,70.9999818 L25.0000258,72.9999818 L23.0000258,72.9999818 L23.0000258,70.9999818 L25.0000258,70.9999818 Z M31.0000211,60.9999896 L31.0000196,66.9999849 L33.0000196,66.9999849 L33.0000196,68.9999849 L35.000018,68.9999834 L35.0000164,70.9999818 L37.0000164,70.9999818 L37.0000164,72.9999818 L29.0000211,72.9999818 L29.0000211,70.9999818 L31.0000196,70.9999834 L31.0000196,68.9999834 L29.0000211,68.9999849 L29.0000227,66.9999865 L27.0000242,66.9999849 L27.0000242,70.9999834 L25.0000242,70.9999834 L25.0000242,68.9999834 L23.0000258,68.9999834 L23.0000258,66.9999204 L25.0000242,66.9999865 L25.0000242,64.9999865 L27.0000227,64.9999881 L27.0000227,62.9999881 L29.0000211,62.9999896 L29.0000211,60.9999896 L31.0000211,60.9999896 Z M82.9999804,68.9999834 L82.9999804,70.9999834 L80.9999804,70.9999834 L80.9999804,68.9999834 L82.9999804,68.9999834 Z M86.9999773,60.9999896 L86.9999773,64.9999881 L88.9999758,64.9999865 L88.9999758,68.9999834 L86.9999758,68.9999834 L86.9999758,66.9999204 L84.9999773,66.9999865 L84.9999789,68.9999849 L82.9999789,68.9999849 L82.9999789,66.9999849 L84.9999789,66.9999849 L84.9999773,60.9999896 L86.9999773,60.9999896 Z M80.999982,66.9999849 L80.999982,68.9999849 L78.999982,68.9999849 L78.999982,66.9999849 L80.999982,66.9999849 Z M37.0000164,66.9999849 L37.0000164,68.9999849 L35.0000164,68.9999849 L35.0000164,66.9999849 L37.0000164,66.9999849 Z M35.000018,60.9999896 L35.000018,62.9999896 L37.0000164,62.9999881 L37.0000149,60.9999896 L39.0000149,60.9999896 L39.0000149,62.9999896 L41.0000133,62.9999881 L41.0000117,64.9999865 L43.0000117,64.9999865 L43.0000117,66.9999865 L37.0000149,66.9999865 L37.0000164,64.9999881 L33.000018,64.9999881 L33.000018,60.9999896 L35.000018,60.9999896 Z M43.0000117,60.9999896 L43.0000117,62.9999896 L41.0000117,62.9999896 L41.0000117,60.9999896 L43.0000117,60.9999896 Z M78.9999836,60.9999896 L78.9999836,62.9999896 L76.9999836,62.9999896 L76.9999836,60.9999896 L78.9999836,60.9999896 Z M27.0000242,60.9999896 L27.0000242,62.9999896 L25.0000242,62.9999896 L25.0000242,60.9999896 L27.0000242,60.9999896 Z M70.9999898,58.9999928 L66.999993,58.9999912 L66.999993,62.9999896 L68.9999898,62.9999896 L68.9999898,60.9999896 L70.9999898,60.9999896 L70.9999898,58.9999928 Z M37.0000164,58.9999912 L37.0000164,60.9999912 L35.0000164,60.9999912 L35.0000164,58.9999912 L37.0000164,58.9999912 Z M31.0000211,39.0000068 L31.0000196,41.0000053 L33.0000196,41.0000053 L33.000018,39.0000068 L37.0000164,39.0000068 L37.0000164,41.0000068 L35.000018,41.0000053 L35.000018,43.0000053 L37.0000164,43.0000037 L37.0000149,41.0000053 L39.0000149,41.0000053 L39.0000149,43.0000053 L43.0000102,43.0000053 L43.0000102,41.0000053 L45.0000102,41.0000053 L45.0000086,43.0000037 L47.0000086,43.0000037 L47.0000086,45.0000037 L33.000018,45.0000037 L33.0000196,47.0000022 L29.0000227,47.0000006 L29.0000227,49.0000006 L27.0000227,49.0000006 L27.0000242,50.999999 L31.0000211,50.9999975 L31.0000211,52.9999975 L29.0000211,52.9999975 L29.0000227,58.9999928 L25.0000258,58.9999912 L25.0000258,60.9999912 L23.0000258,60.9999912 L23.0000258,56.9999928 L25.0000242,56.9999943 L25.0000242,54.9999943 L27.0000227,54.9999959 L27.0000227,52.9999959 L25.0000242,52.9999975 L25.0000242,48.999999 L27.0000242,48.999999 L27.0000227,45.0000022 L25.0000242,45.0000037 L25.0000242,41.0000053 L29.0000211,41.0000068 L29.0000211,39.0000068 L31.0000211,39.0000068 Z M84.9999789,58.9999912 L84.9999789,60.9999912 L82.9999789,60.9999912 L82.9999789,58.9999912 L84.9999789,58.9999912 Z M88.9999758,58.9999912 L88.9999758,60.9999912 L86.9999758,60.9999912 L86.9999758,58.9999912 L88.9999758,58.9999912 Z M53.0000039,58.9999912 L53.0000039,60.9999912 L51.0000039,60.9999912 L51.0000039,58.9999912 L53.0000039,58.9999912 Z M86.9999773,47.0000006 L86.999,48.999 L88.9999758,48.999999 L88.9999758,50.999999 L86.9999773,50.9999975 L86.9999773,58.9999928 L84.9999773,58.9999928 L84.9999773,47.0000006 L86.9999773,47.0000006 Z M49.000007,47.0000006 L49.0000055,48.999999 L51.0000055,48.999999 L51.0000055,52.9999975 L49.0000055,52.9999975 L49.0000055,50.9999975 L47.000007,50.999999 L47.0000086,54.9999959 L51.0000055,54.9999943 L51.0000039,52.9999959 L55.0000023,52.9999959 L55.0000023,54.9999959 L53.0000023,54.9999959 L53.0000039,56.9999943 L51.0000039,56.9999943 L51.0000055,58.9999928 L43.0000102,58.9999928 L43.0000102,56.9999928 L39.0000133,56.9999943 L39.0000149,58.9999928 L37.0000149,58.9999928 L37.0000149,56.9999928 L35.0000164,56.9999943 L35.0000164,54.9999943 L41.0000117,54.9999959 L41.0000117,52.9999959 L45.0000086,52.9999975 L45.0000086,50.9999975 L47.0000086,50.9999975 L47.000007,47.0000006 L49.000007,47.0000006 Z M33.0000196,56.9999928 L33.0000196,58.9999928 L31.0000196,58.9999928 L31.0000196,56.9999928 L33.0000196,56.9999928 Z M60.9999977,52.9999959 L60.9999977,54.9999959 L58.9999992,54.9999943 L58.9999992,56.9999943 L57.0000008,56.9999928 L57.0000008,58.9999928 L55.0000008,58.9999928 L55.0000008,56.9999928 L56.9999992,56.9999943 L56.9999992,52.9999959 L60.9999977,52.9999959 Z M82.9999804,54.9999943 L82.9999804,58.9999928 L80.9999804,58.9999928 L80.9999804,56.9999928 L78.9999836,56.9999928 L78.9999836,58.9999928 L76.9999836,58.9999928 L76.9999836,56.9999928 L78.999982,56.9999943 L78.999982,54.9999943 L82.9999804,54.9999943 Z M70.9999898,37.0000084 L70.9999898,39.0000084 L74.9999867,39.0000068 L74.9999851,41.0000053 L76.9999851,41.0000053 L76.9999836,39.0000068 L78.9999836,39.0000068 L78.9999836,43.0000053 L80.999982,43.0000037 L80.9999804,45.0000022 L82.9999804,45.0000022 L82.9999804,50.999999 L80.999982,50.9999975 L80.999982,52.9999975 L76.9999851,52.9999959 L76.9999851,56.9999943 L74.9999851,56.9999943 L74.9999851,52.9999959 L72.9999867,52.9999975 L72.9999867,50.9999975 L74.9999867,50.9999975 L74.999,49 L72.9999867,49.0000006 L72.9999867,47.0000006 L76.9999851,47.0000006 L76.9999836,48.999999 L80.999982,48.999999 L80.999982,47.0000022 L78.999982,47.0000022 L78.999982,45.0000022 L76.9999836,45.0000037 L76.9999851,43.0000053 L72.9999867,43.0000053 L72.9999883,41.0000068 L68.9999914,41.0000053 L68.9999914,43.0000053 L66.9999914,43.0000053 L66.9999914,41.0000053 L68.9999898,41.0000068 L68.9999898,37.0000084 L70.9999898,37.0000084 Z M47.000007,54.9999943 L45.0000102,54.9999943 L45.0000102,56.9999943 L47.000007,56.9999943 L47.000007,54.9999943 Z M33.0000196,52.9999959 L33.0000196,54.9999959 L31.0000196,54.9999959 L31.0000196,52.9999959 L33.0000196,52.9999959 Z M37.0000164,50.9999975 L37.0000164,52.9999975 L35.0000164,52.9999975 L35.0000164,50.9999975 L37.0000164,50.9999975 Z M37.0000164,47.0000006 L37.0000164,49.0000006 L35,49 L35.000018,50.999999 L31.0000196,50.999999 L31.0000196,48.999999 L33.0000196,48.999999 L33.000018,47.0000006 L37.0000164,47.0000006 Z M43.0000117,47.0000006 L43.0000117,50.999999 L39.0000133,50.999999 L39.0000133,48.999999 L41.0000133,48.999999 L41.0000117,47.0000006 L43.0000117,47.0000006 Z M57.0000008,48.999999 L57.0000008,50.999999 L53.0000023,50.999999 L53.0000023,48.999999 L57.0000008,48.999999 Z M70.9999898,45.0000022 L70.9999898,47.0000022 L68.9999898,47.0000022 L68.9999914,49.0000006 L66.999,49 L66.999993,50.999999 L64.999993,50.999999 L64.999,49 L62.9999945,49.0000006 L62.9999945,45.0000022 L70.9999898,45.0000022 Z M57.0000008,41.0000053 L57,43 L58.9999992,43.0000037 L58.9999992,47.0000022 L56.9999992,47.0000022 L56.9999992,45.0000022 L55.0000023,45.0000022 L55.0000023,47.0000022 L51.0000039,47.0000022 L51.0000039,45.0000022 L55.0000008,45.0000037 L55.0000008,41.0000053 L57.0000008,41.0000053 Z M88.9999758,41.0000053 L88.9999758,47.0000006 L86.9999758,47.0000006 L86.9999758,41.0000053 L88.9999758,41.0000053 Z M62.9999961,43.0000037 L62.9999961,45.0000037 L60.9999961,45.0000037 L60.9999961,43.0000037 L62.9999961,43.0000037 Z M29.0000211,43.0000037 L27.0000242,43.0000037 L27.0000242,45.0000037 L29.0000227,45.0000022 L29.0000211,43.0000037 Z M84.9999789,43.0000037 L84.9999789,45.0000037 L82.9999789,45.0000037 L82.9999789,43.0000037 L84.9999789,43.0000037 Z M55.0000023,39.0000068 L55.0000023,41.0000068 L49.000007,41.0000053 L49.000007,43.0000053 L47.000007,43.0000053 L47.000007,39.0000068 L55.0000023,39.0000068 Z M64.9999945,41.0000053 L64.9999945,43.0000053 L62.9999945,43.0000053 L62.9999945,41.0000053 L64.9999945,41.0000053 Z M60.9999977,33.0000115 L60.9999961,37.0000084 L62.9999961,37.0000084 L62.9999945,33.0000115 L66.999993,33.0000115 L66.999993,35.0000115 L64.999993,35.0000115 L64.999993,37.0000084 L66.999993,37.0000084 L66.999993,41.0000068 L64.999993,41.0000068 L64.999993,39.0000068 L62.9999945,39.0000084 L62.9999961,41.0000068 L58.9999977,41.0000068 L58.9999977,39.0000068 L56.9999992,39.0000084 L56.9999992,37.0000084 L55.0000008,37.00001 L55.0000008,35.00001 L57.0000008,35.00001 L57.0000008,37.00001 L58.9999992,37.0000084 L58.9999977,33.0000115 L60.9999977,33.0000115 Z M41.0000133,39.0000068 L41.0000133,41.0000068 L39.0000133,41.0000068 L39.0000133,39.0000068 L41.0000133,39.0000068 Z M25.0000258,39.0000068 L25.0000258,41.0000068 L23.0000258,41.0000068 L23.0000258,39.0000068 L25.0000258,39.0000068 Z M72.9999883,35.00001 L72.9999883,37.00001 L70.9999883,37.00001 L70.9999883,35.00001 L72.9999883,35.00001 Z M55.0000023,23.0000194 L55.0000008,25.0000178 L58.9999992,25.0000178 L58.9999992,33.0000131 L55.0000008,33.0000131 L55.0000008,31.0000131 L53.0000023,31.0000147 L53.0000023,29.0000147 L51.0000039,29.0000162 L51.0000039,33.0000115 L53.0000039,33.0000115 L53.0000039,37.00001 L51.0000039,37.00001 L51.0000039,35.00001 L49.0000055,35.0000115 L49.000007,37.00001 L47.000007,37.00001 L47.000007,35.00001 L49.000007,35.00001 L49.000007,33.0000131 L47.000007,33.0000131 L47.0000086,35.0000115 L45.0000086,35.0000115 L45.0000086,33.0000115 L47.0000086,33.0000115 L47.000007,31.0000131 L49.0000055,31.0000147 L49.0000055,29.0000147 L51.0000055,29.0000147 L51.0000039,27.0000162 L53.0000023,27.0000178 L53.0000023,23.0000194 L55.0000023,23.0000194 Z M68.9999914,35.00001 L68.9999914,37.00001 L66.9999914,37.00001 L66.9999914,35.00001 L68.9999914,35.00001 Z M43.0000117,29.0000147 L43.0000102,31.0000131 L45.0000102,31.0000131 L45.0000102,33.0000131 L43.0000117,33.0000115 L43.0000117,35.0000115 L41.0000133,35.00001 L41.0000133,37.00001 L39.0000133,37.00001 L39.0000133,33.0000115 L41.0000117,33.0000131 L41.0000117,29.0000147 L43.0000117,29.0000147 Z M45.0000102,35.00001 L45.0000102,37.00001 L43.0000102,37.00001 L43.0000102,35.00001 L45.0000102,35.00001 Z M37.0000149,23 L37.0000149,36.9999891 L23.0000258,36.9999891 L23.0000258,23 L37.0000149,23 Z M89,23 L89,36.9999891 L75.0000109,36.9999891 L75.0000109,23 L89,23 Z M34.899952,25.0999984 L25.1000242,25.0999984 L25.1000242,34.8999907 L34.899952,34.8999907 L34.899952,25.0999984 Z M86.8999371,25.0999984 L77.0999448,25.0999984 L77.0999448,34.8999907 L86.8999371,34.8999907 L86.8999371,25.0999984 Z M72.9999883,29.0000147 L72.9999883,33.0000131 L66.9999914,33.0000131 L66.9999914,31.0000131 L70.9999883,31.0000147 L70.9999883,29.0000147 L72.9999883,29.0000147 Z M62.9999961,31.0000131 L62.9999961,33.0000131 L60.9999961,33.0000131 L60.9999961,31.0000131 L62.9999961,31.0000131 Z M84.999982,27.0000162 L84.999982,33.0000162 L78.999982,33.0000162 L78.999982,27.0000162 L84.999982,27.0000162 Z M33.0000227,27.0000162 L33.0000227,33.0000162 L27.0000227,33.0000162 L27.0000227,27.0000162 L33.0000227,27.0000162 Z M56.9999992,29.0000147 L55.0000023,29.0000147 L55.0000023,31.0000147 L56.9999992,31.0000147 L56.9999992,29.0000147 Z M47.0000086,29.0000147 L47.0000086,31.0000147 L45.0000086,31.0000147 L45.0000086,29.0000147 L47.0000086,29.0000147 Z M55.0000008,27.0000162 L53.0000039,27.0000162 L53.0000039,29.0000162 L55.0000008,29.0000162 L55.0000008,27.0000162 Z M70.9999898,23.0000194 L70.9999898,27.0000178 L64.9999945,27.0000162 L64.9999945,29.0000162 L60.9999961,29.0000162 L60.9999961,27.0000162 L62.9999945,27.0000178 L62.9999945,25.0000178 L64.999993,25.0000194 L64.999993,23.0000194 L70.9999898,23.0000194 Z M43.0000117,25.0000178 L43.0000117,27.0000178 L41.0000117,27.0000178 L41.0000117,25.0000178 L43.0000117,25.0000178 Z M62.9999961,23.0000194 L62.9999961,25.0000194 L58.9999977,25.0000194 L58.9999977,23.0000194 L62.9999961,23.0000194 Z M45.0000731,23.0000194 L45.0000731,25.0000194 L43.0000102,25.0000194 L43.0000102,23.0000194 L45.0000731,23.0000194 Z" id="Combined-Shape" fill="#000000"></path>
            </g>
        </g>
    </g>
</svg>