<?xml version="1.0" encoding="UTF-8"?>
<svg width="24px" height="24px" viewBox="0 0 24 24" version="1.1" xmlns="http://www.w3.org/2000/svg" xmlns:xlink="http://www.w3.org/1999/xlink">
    <title>socialYouTube</title>
    <g id="Page-1" stroke="none" stroke-width="1" fill="none" fill-rule="evenodd">
        <g id="Artboard" transform="translate(-288.000000, -413.000000)" fill="#000000" fill-rule="nonzero">
            <g id="Fill-1" transform="translate(288.000000, 413.000000)">
                <path d="M12.2797696,3.70091836 C13.1265019,3.70512433 14.0664892,3.71888429 14.9991469,3.74633093 L15.6956943,3.76954674 C17.5294367,3.83820634 18.8027283,3.94400798 19.5489044,4.14390225 C21.0144887,4.53560328 22.1642115,5.6854035 22.5556478,7.14971844 C22.7430741,7.8491529 22.8562655,8.75572903 22.9265751,9.84743829 C22.9627273,10.408779 22.9836051,10.9606744 22.9935429,11.4704939 L22.9990128,11.8444594 L22.9990128,12.1751912 C22.9930894,12.7638509 22.9717654,13.4507893 22.9265752,14.1524739 C22.8562645,15.2442149 22.7430718,16.1507814 22.555962,16.8489596 C22.1641832,18.3145542 21.0143175,19.4645747 19.5502214,19.8555971 C18.8526731,20.0425377 17.6969657,20.1472038 16.0550215,20.2161751 L15.6957237,20.2304253 C14.7730094,20.2649875 13.8178207,20.2848239 12.9256527,20.2940815 L12.2698351,20.299106 L11.7200851,20.299106 C10.8733676,20.2948736 9.93339676,20.2811081 9.00075273,20.2536504 L8.30421506,20.2304253 C6.47045219,20.1617363 5.19715017,20.0558902 4.45144062,19.8560418 C2.98568247,19.4645747 1.83581676,18.3145542 1.44436585,16.8501844 C1.28937609,16.2718571 1.18616169,15.5547334 1.11406774,14.7011911 C1.08052547,14.3040739 1.055166,13.8919246 1.03674555,13.475131 L1.00578089,12.4997354 C1.00158426,12.2876283 1,12.1172311 1,11.9999259 L1.00578177,11.5000907 C1.0078804,11.3940317 1.01063223,11.2775448 1.01416579,11.1520527 C1.03185703,10.5237592 1.06376393,9.89422933 1.11408495,9.29852286 C1.18617712,8.44508673 1.28938495,7.72802272 1.44403803,7.15089224 C1.83578846,5.6854035 2.98551129,4.53560328 4.44996883,4.14420375 C5.14745001,3.95735477 6.30311058,3.8527329 7.94496631,3.78379093 L8.3042445,3.7695468 C9.22693091,3.73499849 10.1820906,3.71517005 11.0691422,3.70592879 L11.720089,3.70091836 L12.2797696,3.70091836 Z M11.7300237,5.70089369 C10.5918373,5.70654754 6.18652985,5.74951683 4.96750216,6.07608347 C4.19303618,6.28307198 3.58318311,6.89307322 3.37619459,7.66739104 C3.10377782,8.68399164 3.02862836,10.5001503 3.00789748,11.4248057 L3.00098718,12.1553997 C3.00715709,12.7788579 3.05188891,15.1223497 3.37619459,16.3324608 C3.58318311,17.1067786 4.19303618,17.716928 4.96750216,17.9237684 C5.88177293,18.1687898 8.58832608,18.254225 10.3646331,18.2840148 L11.7300237,18.299106 L13.0813322,18.2920264 C14.7880131,18.2712403 18.0166414,18.1960145 19.0324978,17.9237684 C19.8069638,17.716928 20.4168169,17.1067786 20.6238054,16.3324608 C20.8969049,15.3134199 20.9717471,13.4906519 20.9922574,12.5681349 L20.9990128,12.1553997 L20.9990128,11.8444594 L20.9877399,11.2486421 C20.9616174,10.2845579 20.8798362,8.62284273 20.6238054,7.66739104 C20.4168169,6.89307322 19.8069638,6.28307198 19.0324978,6.07608347 C17.864263,5.76312378 13.7696373,5.71062067 12.4286619,5.70181258 L11.7300237,5.70089369 Z M10.2,9.29988888 L14.876281,12.0000741 L10.2,14.699963 L10.2,9.29988888 Z"></path>
            </g>
        </g>
    </g>
</svg>