<?xml version="1.0" encoding="UTF-8"?>
<svg width="24px" height="24px" viewBox="0 0 24 24" version="1.1" xmlns="http://www.w3.org/2000/svg" xmlns:xlink="http://www.w3.org/1999/xlink">
    <title>socialInstagram</title>
    <g id="Plantry-website" stroke="none" stroke-width="1" fill="none" fill-rule="evenodd">
        <g id="Artboard" transform="translate(-307.000000, -192.000000)" fill="#FFFFFF" fill-rule="nonzero">
            <g id="socialInstagram" transform="translate(308.040000, 193.040000)">
                <path d="M15.4933265,0.0660563885 C16.6259327,0.117740843 17.4109201,0.287409204 18.1490747,0.574073244 C19.6176083,1.14150072 20.7784682,2.30233523 21.3453196,3.76931769 C21.6324895,4.50874645 21.8022502,5.2942402 21.8539455,6.42662647 C21.9041422,7.52848066 21.9167511,8.01946366 21.9193854,9.86416322 L21.919385,12.0554962 C21.9167495,13.9003942 21.9041365,14.3916158 21.8539413,15.4930278 C21.8022502,16.6253231 21.6324895,17.4108169 21.345925,18.1486827 C20.7785298,19.6172512 19.6176314,20.7781242 18.1507655,21.3448349 C17.4104625,21.6324892 16.625367,21.8022451 15.4924533,21.8539436 C14.390417,21.9041463 13.8996633,21.9167524 12.0548435,21.9193857 L9.86331398,21.9193853 C8.01829718,21.9167509 7.52731423,21.9041412 6.42578442,21.8539429 C5.29347102,21.8022532 4.50796623,21.6324974 3.77005197,21.3459267 C2.30151836,20.7784992 1.1406585,19.6176647 0.573807118,18.1506823 C0.28654388,17.4110132 0.116870495,16.6260368 0.0651981388,15.4937442 C0.0175798088,14.4573001 0.00427516449,13.9726985 0.000980520153,12.302591 L0.000614689469,9.8638221 C0.0032493794,8.01856912 0.015859833,7.52761961 0.0660578959,6.4265512 C0.117743781,5.29396317 0.287417166,4.50898674 0.574089448,3.77084319 C1.14153179,2.30233523 2.30239164,1.14150072 3.7693998,0.574664158 C4.50907981,0.287409204 5.29406728,0.117740843 6.42674868,0.0660529567 C7.52872078,0.0158531012 8.01946507,0.00324749322 9.86428339,0.000614278349 L12.0559085,0.000614959305 C13.9011217,0.00325058263 14.3923298,0.0158637822 15.4933265,0.0660563885 Z M10.96,1.91999996 L10.6626002,1.9200298 L9.64597767,1.92096932 C8.01224547,1.92422195 7.53999023,1.93733086 6.51419809,1.98406037 C5.59295476,2.02609966 5.01277115,2.15150141 4.46293376,2.36502943 C3.49921635,2.73740071 2.73741241,3.49918802 2.36444452,4.46440347 C2.15150478,5.01269826 2.02610161,5.5928631 1.98406366,6.51403674 C1.93733712,7.53895909 1.92422416,8.01135823 1.92096992,9.64547172 L1.92002983,10.6623211 C1.92000917,10.7583768 1.91999996,10.8574766 1.91999996,10.9597817 L1.92002838,11.2606221 L1.92093464,12.2876845 C1.92294076,13.3365561 1.92885332,13.905139 1.94482024,14.4396714 L1.9522967,14.667973 C1.96042459,14.8967918 1.97056051,15.1310654 1.98318842,15.4059203 C2.02522832,16.3271369 2.15063149,16.9073017 2.36416219,17.457122 C2.73653912,18.4208119 3.49834306,19.1825992 4.46358592,19.5555614 C5.0116459,19.7684007 5.59235327,19.8938976 6.51326569,19.9359369 C7.53861936,19.9826637 8.01106991,19.9957761 9.64498727,19.9990301 L10.661706,19.9999701 C10.7577488,19.9999908 10.8568354,20 10.9591267,20 L11.2565236,19.9999702 L12.2731384,19.9990306 C13.9068617,19.995778 14.3791365,19.9826689 15.4049662,19.9359379 C16.3263862,19.8938878 16.9065533,19.768441 17.4571036,19.5545194 C18.4208213,19.1821943 19.1826193,18.420413 19.5555554,17.4551598 C19.7683973,16.907117 19.8938956,16.3264284 19.9359356,15.4055427 C19.9826592,14.3803041 19.9957745,13.9076403 19.9990297,12.2738088 L19.9990302,9.64587169 C19.9957764,8.01222577 19.9826647,7.53975967 19.935939,6.51409539 C19.8938956,5.59313489 19.7683973,5.01244631 19.5549645,4.46287798 C19.1825875,3.49918802 18.4207836,2.73740071 17.4555407,2.36443852 C16.9072288,2.15150141 16.3270452,2.02609966 15.4058448,1.98406233 C14.3809908,1.93734094 13.9083564,1.92422562 12.274256,1.92097033 L11.2574417,1.92002985 C11.1613916,1.92000918 11.062298,1.91999996 10.96,1.91999996 Z M10.96,4.95999998 C14.2737085,4.95999998 16.96,7.64629148 16.96,10.96 C16.96,14.2737085 14.2737085,16.96 10.96,16.96 C7.64629148,16.96 4.95999998,14.2737085 4.95999998,10.96 C4.95999998,7.64629148 7.64629148,4.95999998 10.96,4.95999998 Z M10.96,6.95999998 C8.75086098,6.95999998 6.95999998,8.75086098 6.95999998,10.96 C6.95999998,13.169139 8.75086098,14.96 10.96,14.96 C13.169139,14.96 14.96,13.169139 14.96,10.96 C14.96,8.75086098 13.169139,6.95999998 10.96,6.95999998 Z M16.926545,3.72999996 C17.616901,3.72999996 18.176545,4.28964402 18.176545,4.97999996 C18.176545,5.6703559 17.616901,6.22999996 16.926545,6.22999996 C16.2361891,6.22999996 15.676545,5.6703559 15.676545,4.97999996 C15.676545,4.28964402 16.2361891,3.72999996 16.926545,3.72999996 Z" id="Shape"></path>
            </g>
        </g>
    </g>
</svg>