<?xml version="1.0" encoding="UTF-8"?>
<svg width="24px" height="24px" viewBox="0 0 24 24" version="1.1" xmlns="http://www.w3.org/2000/svg" xmlns:xlink="http://www.w3.org/1999/xlink">
    <title>socialYouTube</title>
    <g id="Plantry-website" stroke="none" stroke-width="1" fill="none" fill-rule="evenodd">
        <g id="Artboard" transform="translate(-355.000000, -192.000000)" fill="#FFFFFF" fill-rule="nonzero">
            <g id="socialYouTube" transform="translate(356.000000, 195.700918)">
                <path d="M11.2797696,2.84217094e-14 C12.1265019,0.00420596982 13.0664892,0.0179659252 13.9991469,0.0454125699 L14.6956943,0.0686283812 C16.5294367,0.137287982 17.8027283,0.243089616 18.5489044,0.442983891 C20.0144887,0.834684917 21.1642115,1.98448514 21.5556478,3.44880008 C21.7430741,4.14823454 21.8562655,5.05481067 21.9265751,6.14651993 C21.9627273,6.70786061 21.9836051,7.25975607 21.9935429,7.76957557 L21.9990128,8.14354109 L21.9990128,8.47427287 C21.9930894,9.06293259 21.9717654,9.74987099 21.9265752,10.4515555 C21.8562645,11.5432965 21.7430718,12.4498631 21.555962,13.1480412 C21.1641832,14.6136358 20.0143175,15.7636563 18.5502214,16.1546788 C17.8526731,16.3416193 16.6969657,16.4462855 15.0550215,16.5152568 L14.6957237,16.529507 C13.7730094,16.5640692 12.8178207,16.5839055 11.9256527,16.5931631 L11.2698351,16.5981876 L10.7200851,16.5981876 C9.87336765,16.5939553 8.93339676,16.5801898 8.00075273,16.5527321 L7.30421506,16.5295069 C5.47045219,16.4608179 4.19715017,16.3549718 3.45144062,16.1551234 C1.98568247,15.7636563 0.835816756,14.6136358 0.444365848,13.149266 C0.28937609,12.5709387 0.186161686,11.8538151 0.114067744,11.0002728 C0.0805254719,10.6031555 0.0551660043,10.1910062 0.0367455497,9.7742126 L0.0057808945,8.79881699 C0.00158425632,8.5867099 0,8.41631271 0,8.29900756 L0.00578176536,7.79917231 C0.00788040037,7.69311336 0.010632229,7.57662643 0.0141657863,7.45113435 C0.0318570319,6.82284081 0.0637639337,6.19331097 0.114084948,5.5976045 C0.186177117,4.74416837 0.289384948,4.02710436 0.444038027,3.44997388 C0.835788461,1.98448514 1.98551129,0.834684917 3.44996883,0.443285386 C4.14745001,0.256436409 5.30311058,0.151814537 6.94496631,0.0828725664 L7.3042445,0.0686284446 C8.22693091,0.0340801281 9.18209058,0.0142516932 10.0691422,0.00501042873 L10.720089,2.84217094e-14 L11.2797696,2.84217094e-14 Z M10.7300237,1.99997533 C9.59183734,2.00562918 5.18652985,2.04859847 3.96750216,2.37516511 C3.19303618,2.58215362 2.58318311,3.19215486 2.37619459,3.96647268 C2.10377782,4.98307328 2.02862836,6.79923196 2.00789748,7.72388737 L2.00098718,8.45448131 C2.00715709,9.0779395 2.05188891,11.4214314 2.37619459,12.6315424 C2.58318311,13.4058603 3.19303618,14.0160097 3.96750216,14.22285 C4.88177293,14.4678715 7.58832608,14.5533066 9.36463312,14.5830965 L10.7300237,14.5981876 L12.0813322,14.5911081 C13.7880131,14.570322 17.0166414,14.4950961 18.0324978,14.22285 C18.8069638,14.0160097 19.4168169,13.4058603 19.6238054,12.6315424 C19.8969049,11.6125015 19.9717471,9.78973353 19.9922574,8.86721651 L19.9990128,8.45448131 L19.9990128,8.14354109 L19.9877399,7.54772372 C19.9616174,6.58363956 19.8798362,4.92192437 19.6238054,3.96647268 C19.4168169,3.19215486 18.8069638,2.58215362 18.0324978,2.37516511 C16.864263,2.06220542 12.7696373,2.00970231 11.4286619,2.00089423 L10.7300237,1.99997533 Z M9.2,5.59897052 L13.876281,8.29915572 L9.2,10.9990446 L9.2,5.59897052 Z" id="Fill-1"></path>
            </g>
        </g>
    </g>
</svg>