<?xml version="1.0" encoding="UTF-8"?>
<svg width="24px" height="24px" viewBox="0 0 24 24" version="1.1" xmlns="http://www.w3.org/2000/svg" xmlns:xlink="http://www.w3.org/1999/xlink">
    <title>socialDon</title>
    <g id="Plantry-website" stroke="none" stroke-width="1" fill="none" fill-rule="evenodd">
        <g id="Artboard" transform="translate(-163.000000, -192.000000)" fill-rule="nonzero">
            <g id="socialDon" transform="translate(163.000000, 192.000000)">
                <path d="M11.6653256,0 C13.7086533,0.00834739953 15.1496239,0.0868837438 16.199538,0.205638492 L16.5991481,0.255214331 L17.0171528,0.320243197 C20.032865,0.86910278 22.4790211,3.21082799 22.8882171,6.22886949 C22.9416171,6.76487575 22.96788,7.39749051 22.9734995,8.122915 C22.9784173,8.75774367 22.9678179,9.40811149 22.9455778,10.154171 L22.9337679,10.5248273 L22.8884658,12.567193 C22.651085,16.2730697 20.3950563,18.4478637 17.0994564,19.0738304 L17.0842743,19.0773235 L17.1122743,19.3769599 L17.1112195,20.9490358 C17.0711372,21.3125175 17.0622301,21.3932912 16.9734082,21.6100453 L16.8751131,21.8389012 C16.6805396,22.1468791 16.637301,22.2153186 16.4551932,22.3768545 L16.2583234,22.5458711 C15.8326461,22.8510561 15.3770148,23.063077 14.8164453,23.2587992 L14.7134453,23.2944631 L14.2052577,23.4574699 C13.9409331,23.5396659 13.673672,23.6118597 13.394685,23.6760379 C11.0255745,24.2097441 8.55334222,24.0807119 6.23864737,23.2979968 C3.66654693,22.40512 1.4191099,20.3093109 0.808768815,17.8343404 C0.540821645,16.7327428 0.352021245,15.6137136 0.243093295,14.4782471 C0.180017643,13.7940306 0.143260282,13.2105004 0.109088722,12.3481479 L0.00482603592,9.22237406 C-0.0211461987,7.97259762 0.0559223718,6.86737279 0.279567294,5.83759133 C0.934528068,2.8918755 3.53653128,0.725665885 6.60015906,0.277680073 L6.97908278,0.216255036 L7.41870447,0.155816276 L7.85835551,0.111268839 C8.55971558,0.0500777744 9.45988005,0.0122909685 10.6388219,0.00211442434 Z M11.6571553,1.99990412 L11.0021657,1.99990412 C8.82730425,2.00834153 7.85300637,2.10701919 7.33948319,2.18280468 L6.66494907,2.29384939 C4.57233885,2.6813596 2.6986728,4.17230671 2.23189126,6.27167788 C1.99935676,7.34249839 1.97454075,8.52967787 2.01773895,9.61867787 L2.07940012,11.4913359 C2.10990719,12.4269507 2.14862008,13.3614522 2.2346487,14.2946522 C2.33377177,15.3277804 2.50668972,16.3526778 2.75210767,17.3616522 C3.21166151,19.2251394 5.07194099,20.7759086 6.89453073,21.4086009 C8.8458897,22.0683958 10.9444025,22.1779086 12.9551461,21.7249342 C13.1763256,21.6740368 13.3950948,21.6149342 13.6113769,21.5476778 C14.0994281,21.3940624 14.6720435,21.2222419 15.0929922,20.9204471 C15.0987615,20.9162163 15.1035051,20.9107547 15.1068384,20.9044471 L15.1107198,20.8945753 L15.1122743,19.3769599 L15.1076076,19.3578317 L15.0950179,19.3425753 L15.0770435,19.3341394 C15.0704794,19.3327035 15.0636845,19.3327291 15.0571461,19.3342163 L14.5726097,19.4412293 C13.4387895,19.6742948 12.2832006,19.7908381 11.1242743,19.7887291 C9.00770288,19.7887291 8.32791887,18.8662155 8.10103926,18.3777869 L8.05627432,18.2733958 C7.91517175,17.8884471 7.82555637,17.4869086 7.78973586,17.0789599 L7.7934538,17.0589855 L7.8058897,17.0428573 L7.82437688,17.0340368 C7.83114611,17.0325496 7.83817175,17.0327035 7.8448897,17.0344214 L8.32137498,17.140753 C9.43640332,17.3724555 10.5731685,17.4892259 11.7134281,17.4889342 C12.0268384,17.4889342 12.3393256,17.4889342 12.6527615,17.4807548 C13.9634025,17.4443958 15.3448128,17.3780368 16.6343256,17.1289599 L16.9108389,17.0715337 C18.8759377,16.6474285 20.7018244,15.4169607 20.8925563,12.4393445 L20.9190972,10.9832796 C20.9301969,10.4065623 21.0504687,7.95686056 20.8980691,6.42713942 C20.6058127,4.27822148 18.7124281,2.58472917 16.4679666,2.25657533 L16.0198326,2.19827883 C15.4391743,2.13191019 14.3569835,2.03942308 12.5617125,2.00926102 L11.6571553,1.99990412 Z M14.6352743,5.18088301 C15.5801204,5.18088301 16.3420435,5.50993429 16.9247615,6.15078044 C17.4878897,6.79254967 17.7694281,7.65913941 17.7694281,8.75057531 L17.767582,14.0892163 L15.6288384,14.0892163 L15.6288384,8.90783171 C15.6288384,7.81701121 15.1692743,7.26070352 14.2345307,7.26070352 C13.2069666,7.26070352 12.6922743,7.91883172 12.6922743,9.21870351 L12.6922743,12.0548317 L10.5663769,12.0548317 L10.5663769,9.21870351 C10.5663769,7.91883172 10.0507615,7.26070352 9.02319739,7.26070352 C8.09396662,7.26070352 7.62981278,7.81701121 7.6288897,8.90783171 L7.6288897,14.0892163 L5.49196663,14.0892163 L5.49196663,8.75057531 C5.49196663,7.6597548 5.77353073,6.79316506 6.3366333,6.15078044 C6.91750509,5.50993429 7.6794538,5.18088301 8.62522303,5.18088301 C9.71986405,5.18088301 10.5470692,5.5971907 11.0985307,6.42895993 L11.6307102,7.31252403 L12.1637871,6.42895993 C12.7152487,5.5971907 13.5424538,5.18088301 14.6352743,5.18088301 Z" id="Combined-Shape" fill="#FFFFFF"></path>
                <g id="Group" transform="translate(2.000274, 1.999324)">
                    <path d="M9.30981176,-0.999992637 C12.5144135,-0.987695178 13.9241895,-0.826572447 14.4657281,-0.752981566 C15.9726897,-0.533460197 17.1969525,0.0810279547 18.1289881,0.958460068 C19.07134,1.84560409 19.7134099,3.00437197 19.888673,4.29305481 C20.0240635,5.6455561 19.9627402,7.62314102 19.9310722,8.58826956 C19.917382,9.21589326 19.8979209,10.3777878 19.8902368,10.5039452 C19.7839232,12.1636626 19.2323314,13.3575387 18.4616248,14.2213499 C17.5274499,15.268377 16.2450162,15.8389882 14.9171619,16.0911899 C14.7375496,16.1261749 14.5579417,16.1579141 14.3784774,16.1867464 L14.018,16.238 L14.1270486,19.2900606 C13.6370654,19.8804761 12.8781793,20.1883754 12.1816736,20.4161157 L11.9749246,20.4822354 C11.663769,20.579233 11.4227416,20.644081 11.1746412,20.7011625 C8.98471011,21.1945037 6.6991956,21.0751809 4.56631474,20.3539753 C2.43310167,19.6134535 0.314022785,17.7634873 -0.219836066,15.5986727 C-0.4765237,14.5433659 -0.657379628,13.4714044 -0.761403312,12.3871261 C-0.86742853,11.2370119 -0.903477893,10.0849876 -0.938954598,8.93131683 C-0.951992199,8.50734569 -0.965024117,8.08315236 -0.981749516,7.65899093 C-1.02821443,6.48763928 -0.995622631,5.2114648 -0.744545031,4.05531107 C-0.462418315,2.78643335 0.241269481,1.69796706 1.19795413,0.873332892 C2.17907636,0.0276342429 3.42665014,-0.537345209 4.73398594,-0.730654597 C5.34104354,-0.835066832 6.28515323,-1 9.30981176,-0.999992637 Z M7.307,16.323 L7.34600694,16.3568836 C7.41479981,16.4090072 7.49506686,16.459507 7.58852483,16.5056674 C7.94157983,16.6800468 8.43797705,16.7894056 9.12581976,16.7894072 C10.2849768,16.7915166 11.4405872,16.6675009 12.5718251,16.4197538 L12.749,16.378 L12.2407047,16.4148792 C11.8885273,16.4368722 11.5391514,16.4526574 11.1936904,16.4649447 L10.6785745,16.4810909 C10.3564338,16.4894975 10.0352692,16.4896107 9.71340963,16.4896107 C9.0226962,16.4897874 8.33319268,16.4494415 7.64850711,16.3689967 L7.307,16.323 Z" id="Shape" stroke="#FFFFFF" stroke-width="2"></path>
                    <path d="M15.7673077,12.0898928 L13.6285641,12.0898928 L13.6285641,6.90850818 C13.6285641,5.81768767 13.169,5.26137998 12.2342564,5.26137998 C11.2066923,5.26137998 10.692,5.91950818 10.692,7.21937997 L10.692,10.0555082 L8.56610256,10.0555082 L8.56610256,7.21937997 C8.56610256,5.91950818 8.05048718,5.26137998 7.02292308,5.26137998 C6.09369232,5.26137998 5.62953847,5.81768767 5.62861539,6.90850818 L5.62861539,12.0898928 L3.49169233,12.0898928 L3.49169233,6.75125177 C3.49169233,5.66043126 3.77325643,4.79384152 4.33635899,4.15145691 C4.91723078,3.51061076 5.6791795,3.18155948 6.62494872,3.18155948 C7.71958975,3.18155948 8.54679487,3.59786717 9.09825641,4.42963639 L9.63043589,5.31320049 L10.1635128,4.42963639 C10.7149744,3.59786717 11.5421795,3.18155948 12.635,3.18155948 C13.5798461,3.18155948 14.3417692,3.51061076 14.9244872,4.15145691 C15.4876154,4.79322614 15.7691538,5.65981588 15.7691538,6.75125177 L15.7673077,12.0898928 Z" id="Path" fill="#FFFFFF"></path>
                </g>
            </g>
        </g>
    </g>
</svg>