<?xml version="1.0" encoding="UTF-8"?>
<svg width="24px" height="24px" viewBox="0 0 24 24" version="1.1" xmlns="http://www.w3.org/2000/svg" xmlns:xlink="http://www.w3.org/1999/xlink">
    <title>socialTwitter</title>
    <g id="Plantry-website" stroke="none" stroke-width="1" fill="none" fill-rule="evenodd">
        <g id="Artboard" transform="translate(-211.000000, -192.000000)" fill="#FFFFFF" fill-rule="nonzero">
            <g id="socialTwitter" transform="translate(212.493719, 195.100000)">
                <path d="M19.5062808,3.670282 C18.8609446,3.97396963 18.1776474,4.1637744 17.4563893,4.23969631 C18.1776474,3.78416486 18.7470617,3.10086768 19.0507494,2.26572668 C18.3674522,2.68329718 17.6082331,2.98698482 16.7730921,3.13882863 C16.1277559,2.45553145 15.178732,2 14.1537863,2 C12.1798166,2 10.5854565,3.59436009 10.5854565,5.60629067 C10.5854565,5.87201735 10.6234175,6.17570499 10.6613784,6.44143167 C7.66246304,6.2516269 5.04315718,4.84707158 3.25899233,2.64533623 C2.95530469,3.17678959 2.76549992,3.78416486 2.76549992,4.46746204 C2.76549992,5.72017354 3.41083614,6.82104121 4.35986,7.46637744 C3.79044569,7.46637744 3.22103137,7.27657267 2.72753896,7.01084599 C2.72753896,8.79501085 3.98025046,10.2375271 5.6125715,10.5791757 C5.30888387,10.6550976 5.00519623,10.6930586 4.66354764,10.6930586 C4.43578191,10.6930586 4.20801619,10.6550976 3.98025046,10.6171367 C4.43578191,12.0596529 5.76441532,13.0845987 7.32081445,13.1225597 C6.10606391,14.0715835 4.54966478,14.6789588 2.87938278,14.6789588 C2.57569515,14.6789588 2.30996846,14.6789588 2.00628083,14.6409978 C3.60064092,15.6659436 5.46072768,16.2733189 7.51061922,16.2733189 C13.2047624,16.2733189 16.6592092,12.1735358 17.4943502,7.9978308 C17.6082331,7.35249458 17.684155,6.6691974 17.684155,6.02386117 L17.684155,5.56832972 C18.4433741,5.03687636 19.0507494,4.39154013 19.5062808,3.670282 Z M21.1972586,4.73826798 C20.7774112,5.40302638 20.2660339,6.00765894 19.6716704,6.54037742 C19.6440544,7.12317854 19.5709421,7.73824193 19.4555116,8.39006307 C18.3295073,14.0200847 13.7109646,18.2733189 7.51061922,18.2733189 C5.1388953,18.2733189 2.89784323,17.5917618 0.924765646,16.3233548 C-0.86574796,15.1723103 0.1422099,12.3924245 2.2543503,12.6564421 C2.33229615,12.6661853 2.41224817,12.6720834 2.50946147,12.6753239 C2.58261343,12.6777623 2.64940226,12.6786439 2.78117221,12.6788839 C2.48007056,12.2367599 2.23963801,11.7468169 2.07308513,11.2193994 C2.00326089,10.9982893 1.97352154,10.7778371 1.9786168,10.5640892 C1.19285045,9.59077087 0.727538963,8.3522245 0.727538963,7.01084599 C0.727538963,6.64377757 0.822596383,6.30896564 0.985612367,6.02259618 C0.841677991,5.52480143 0.765499918,5.00228908 0.765499918,4.46746204 C0.765499918,3.45926751 1.03214829,2.51118441 1.52250604,1.65305835 C2.22032794,0.431870019 3.92734564,0.293409314 4.81285798,1.38616923 C5.85418206,2.67120746 7.22669257,3.59876502 8.79174826,4.08204954 C9.44735021,1.72076561 11.5915863,0 14.1537863,0 C15.2641738,0 16.3392417,0.339682003 17.243035,0.938286008 C17.5062446,0.836526614 17.7610155,0.710005922 18.0078494,0.559163014 C19.4532893,-0.324161373 21.1717251,0.865198129 21.0511892,2.40004541 C21.5579795,3.01428355 21.7158153,3.91721992 21.1972586,4.73826798 Z" id="Shape"></path>
            </g>
        </g>
    </g>
</svg>