<?xml version="1.0" encoding="UTF-8"?>
<svg width="24px" height="24px" viewBox="0 0 24 24" version="1.1" xmlns="http://www.w3.org/2000/svg" xmlns:xlink="http://www.w3.org/1999/xlink">
    <title>socialDon@2x</title>
    <g id="Plantry-website" stroke="none" stroke-width="1" fill="none" fill-rule="evenodd">
        <g id="About-assets" transform="translate(-56.000000, -221.000000)" fill="#000000" fill-rule="nonzero">
            <path d="M68.1653256,221 C70.2086533,221.008347 71.6496239,221.086884 72.699538,221.205638 L73.0991481,221.255214 L73.5171528,221.320243 C76.532865,221.869103 78.9790211,224.210828 79.3882171,227.228869 C79.4416171,227.764876 79.46788,228.397491 79.4734995,229.122915 C79.4784173,229.757744 79.4678179,230.408111 79.4455778,231.154171 L79.4337679,231.524827 L79.3884658,233.567193 C79.151085,237.27307 76.8950563,239.447864 73.5994564,240.07383 L73.5842743,240.077324 L73.6122743,240.37696 L73.6112195,241.949036 C73.5711372,242.312518 73.5622301,242.393291 73.4734082,242.610045 L73.3751131,242.838901 C73.1805396,243.146879 73.137301,243.215319 72.9551932,243.376854 L72.7583234,243.545871 C72.3326461,243.851056 71.8770148,244.063077 71.3164453,244.258799 L71.2134453,244.294463 L70.7052577,244.45747 C70.4409331,244.539666 70.173672,244.61186 69.894685,244.676038 C67.5255745,245.209744 65.0533422,245.080712 62.7386474,244.297997 C60.1665469,243.40512 57.9191099,241.309311 57.3087688,238.83434 C57.0408216,237.732743 56.8520212,236.613714 56.7430933,235.478247 C56.6800176,234.794031 56.6432603,234.2105 56.6090887,233.348148 L56.504826,230.222374 C56.4788538,228.972598 56.5559224,227.867373 56.7795673,226.837591 C57.4345281,223.891875 60.0365313,221.725666 63.1001591,221.27768 L63.4790828,221.216255 L63.9187045,221.155816 L64.3583555,221.111269 C65.0597156,221.050078 65.9598801,221.012291 67.1388219,221.002114 Z M68.1571553,222.999904 L67.5021657,222.999904 C65.3273043,223.008342 64.3530064,223.107019 63.8394832,223.182805 L63.1649491,223.293849 C61.0723389,223.68136 59.1986728,225.172307 58.7318913,227.271678 C58.4993568,228.342498 58.4745407,229.529678 58.517739,230.618678 L58.5794001,232.491336 C58.6099072,233.426951 58.6486201,234.361452 58.7346487,235.294652 C58.8337718,236.32778 59.0066897,237.352678 59.2521077,238.361652 C59.7116615,240.225139 61.571941,241.775909 63.3945307,242.408601 C65.3458897,243.068396 67.4444025,243.177909 69.4551461,242.724934 C69.6763256,242.674037 69.8950948,242.614934 70.1113769,242.547678 C70.5994281,242.394062 71.1720435,242.222242 71.5929922,241.920447 C71.5987615,241.916216 71.6035051,241.910755 71.6068384,241.904447 L71.6107198,241.894575 L71.6122743,240.37696 L71.6076076,240.357832 L71.5950179,240.342575 L71.5770435,240.334139 C71.5704794,240.332703 71.5636845,240.332729 71.5571461,240.334216 L71.0726097,240.441229 C69.9387895,240.674295 68.7832006,240.790838 67.6242743,240.788729 C65.5077029,240.788729 64.8279189,239.866216 64.6010393,239.377787 L64.5562743,239.273396 C64.4151718,238.888447 64.3255564,238.486909 64.2897359,238.07896 L64.2934538,238.058986 L64.3058897,238.042857 L64.3243769,238.034037 C64.3311461,238.03255 64.3381718,238.032703 64.3448897,238.034421 L64.821375,238.140753 C65.9364033,238.372455 67.0731685,238.489226 68.2134281,238.488934 C68.5268384,238.488934 68.8393256,238.488934 69.1527615,238.480755 C70.4634025,238.444396 71.8448128,238.378037 73.1343256,238.12896 L73.4108389,238.071534 C75.3759377,237.647429 77.2018244,236.416961 77.3925563,233.439345 L77.4190972,231.98328 C77.4301969,231.406562 77.5504687,228.956861 77.3980691,227.427139 C77.1058127,225.278221 75.2124281,223.584729 72.9679666,223.256575 L72.5198326,223.198279 C71.9391743,223.13191 70.8569835,223.039423 69.0617125,223.009261 L68.1571553,222.999904 Z M71.1352743,226.180883 C72.0801204,226.180883 72.8420435,226.509934 73.4247615,227.15078 C73.9878897,227.79255 74.2694281,228.659139 74.2694281,229.750575 L74.267582,235.089216 L72.1288384,235.089216 L72.1288384,229.907832 C72.1288384,228.817011 71.6692743,228.260704 70.7345307,228.260704 C69.7069666,228.260704 69.1922743,228.918832 69.1922743,230.218704 L69.1922743,233.054832 L67.0663769,233.054832 L67.0663769,230.218704 C67.0663769,228.918832 66.5507615,228.260704 65.5231974,228.260704 C64.5939666,228.260704 64.1298128,228.817011 64.1288897,229.907832 L64.1288897,235.089216 L61.9919666,235.089216 L61.9919666,229.750575 C61.9919666,228.659755 62.2735307,227.793165 62.8366333,227.15078 C63.4175051,226.509934 64.1794538,226.180883 65.125223,226.180883 C66.2198641,226.180883 67.0470692,226.597191 67.5985307,227.42896 L68.1307102,228.312524 L68.6637871,227.42896 C69.2152487,226.597191 70.0424538,226.180883 71.1352743,226.180883 Z" id="socialDon"></path>
        </g>
    </g>
</svg>