<?xml version="1.0" encoding="UTF-8"?>
<svg width="24px" height="24px" viewBox="0 0 24 24" version="1.1" xmlns="http://www.w3.org/2000/svg" xmlns:xlink="http://www.w3.org/1999/xlink">
    <title>socialEmail</title>
    <g id="Plantry-website" stroke="none" stroke-width="1" fill="none" fill-rule="evenodd">
        <g id="Artboard" transform="translate(-115.000000, -192.000000)" fill="#FFFFFF" fill-rule="nonzero">
            <g id="socialEmail" transform="translate(89.500000, 192.800000)">
                <path d="M45.2587891,2.92 C47.295427,2.92 48.3943791,3.93961923 48.4677473,5.89096 L48.4716797,6.103594 L48.4716797,16.8446094 C48.4716797,18.8598158 47.4546596,19.9488078 45.6920626,20.0240226 L45.4931641,20.0282034 L29.7412109,20.0282034 C27.704573,20.0282034 26.6056209,19.0085836 26.5322527,17.0572429 L26.5283203,16.8446094 L26.5283203,6.103594 C26.5283203,4.07897067 27.5453404,2.99872311 29.3079374,2.924145 L29.5068359,2.92 L45.2587891,2.92 Z M40.1708984,12.586797 L39.6337891,13.11414 C38.9306641,13.8074994 38.2373047,14.100468 37.5146484,14.100468 C36.8432617,14.100468 36.2129042,13.8542934 35.5633997,13.279201 L35.3857422,13.11414 L34.8583984,12.586797 L29.2626953,18.1336724 C29.3603516,18.1532036 29.4666884,18.1683945 29.5788122,18.1763517 L29.7509766,18.1825004 L45.2490234,18.1825004 C45.3727214,18.1825004 45.4877387,18.1738197 45.596969,18.1564585 L45.7568359,18.1239064 L40.1708984,12.586797 Z M28.3544922,6.240312 L28.3544922,16.6688284 L33.6669922,11.414922 L28.3544922,6.240312 Z M46.6455078,6.269609 L41.3623047,11.414922 L46.6455078,16.6492974 L46.6455078,6.269609 Z M45.2490234,4.755937 L29.7509766,4.755937 C29.6402995,4.755937 29.5339627,4.76461841 29.4348597,4.779086 L29.2919922,4.804766 L36.4013672,11.786015 C36.8115234,12.17664 37.1533203,12.362187 37.5146484,12.362187 C37.835829,12.362187 38.1415774,12.2232984 38.4936222,11.911227 L38.6279297,11.786015 L45.7275391,4.814531 C45.6298828,4.78848933 45.5278863,4.77112856 45.418656,4.762448 L45.2490234,4.755937 Z" id="Shape"></path>
            </g>
        </g>
    </g>
</svg>