<?xml version="1.0" encoding="UTF-8"?>
<svg width="24px" height="24px" viewBox="0 0 24 24" version="1.1" xmlns="http://www.w3.org/2000/svg" xmlns:xlink="http://www.w3.org/1999/xlink">
    <title>socialEmail</title>
    <g id="Page-1" stroke="none" stroke-width="1" fill="none" fill-rule="evenodd">
        <g id="Artboard" transform="translate(-104.000000, -413.000000)" fill="#000000" fill-rule="nonzero">
            <g id="Shape" transform="translate(104.000000, 413.000000)">
                <path d="M19.7587891,3.72 C21.795427,3.72 22.8943791,4.73961923 22.9677473,6.69096 L22.9716797,6.903594 L22.9716797,17.6446094 C22.9716797,19.6598158 21.9546596,20.7488078 20.1920626,20.8240226 L19.9931641,20.8282034 L4.24121094,20.8282034 C2.20457301,20.8282034 1.10562087,19.8085836 1.03225275,17.8572429 L1.02832031,17.6446094 L1.02832031,6.903594 C1.02832031,4.87897067 2.0453404,3.79872311 3.8079374,3.724145 L4.00683594,3.72 L19.7587891,3.72 Z M14.6708984,13.386797 L14.1337891,13.91414 C13.4306641,14.6074994 12.7373047,14.900468 12.0146484,14.900468 C11.3432617,14.900468 10.7129042,14.6542934 10.0633997,14.079201 L9.88574219,13.91414 L9.35839844,13.386797 L3.76269531,18.9336724 C3.86035156,18.9532036 3.96668837,18.9683945 4.07881221,18.9763517 L4.25097656,18.9825004 L19.7490234,18.9825004 C19.8727214,18.9825004 19.9877387,18.9738197 20.096969,18.9564585 L20.2568359,18.9239064 L14.6708984,13.386797 Z M2.85449219,7.040312 L2.85449219,17.4688284 L8.16699219,12.214922 L2.85449219,7.040312 Z M21.1455078,7.069609 L15.8623047,12.214922 L21.1455078,17.4492974 L21.1455078,7.069609 Z M19.7490234,5.555937 L4.25097656,5.555937 C4.14029948,5.555937 4.03396267,5.56461841 3.93485966,5.579086 L3.79199219,5.604766 L10.9013672,12.586015 C11.3115234,12.97664 11.6533203,13.162187 12.0146484,13.162187 C12.335829,13.162187 12.6415774,13.0232984 12.9936222,12.711227 L13.1279297,12.586015 L20.2275391,5.614531 C20.1298828,5.58848933 20.0278863,5.57112856 19.918656,5.562448 L19.7490234,5.555937 Z"></path>
            </g>
        </g>
    </g>
</svg>