<?xml version="1.0" encoding="UTF-8"?>
<svg width="24px" height="24px" viewBox="0 0 24 24" version="1.1" xmlns="http://www.w3.org/2000/svg" xmlns:xlink="http://www.w3.org/1999/xlink">
    <title>socialInstagram</title>
    <g id="Page-1" stroke="none" stroke-width="1" fill="none" fill-rule="evenodd">
        <g id="Artboard" transform="translate(-242.000000, -413.000000)" fill="#000000" fill-rule="nonzero">
            <g id="Shape" transform="translate(242.000000, 413.000000)">
                <path d="M16.5333266,1.10605641 C17.6659327,1.15774086 18.4509202,1.32740923 19.1890747,1.61407327 C20.6576083,2.18150074 21.8184682,3.34233525 22.3853196,4.80931771 C22.6724895,5.54874647 22.8422503,6.33424022 22.8939455,7.46662649 C22.9441422,8.56848068 22.9567511,9.05946368 22.9593854,10.9041632 L22.9593851,13.0954962 C22.9567495,14.9403943 22.9441365,15.4316159 22.8939414,16.5330278 C22.8422503,17.6653231 22.6724895,18.4508169 22.385925,19.1886827 C21.8185298,20.6572512 20.6576314,21.8181242 19.1907655,22.384835 C18.4504625,22.6724893 17.665367,22.8422451 16.5324533,22.8939436 C15.4304171,22.9441464 14.9396633,22.9567524 13.0948435,22.9593857 L10.903314,22.9593854 C9.0582972,22.9567509 8.56731425,22.9441412 7.46578445,22.8939429 C6.33347104,22.8422532 5.54796625,22.6724975 4.81005199,22.3859267 C3.34151838,21.8184993 2.18065852,20.6576647 1.61380714,19.1906823 C1.3265439,18.4510132 1.15687052,17.6660368 1.10519816,16.5337442 C1.05757983,15.4973002 1.04427519,15.0126985 1.04098054,13.342591 L1.04061471,10.9038221 C1.0432494,9.05856914 1.05585985,8.56761963 1.10605792,7.46655122 C1.1577438,6.3339632 1.32741719,5.54898676 1.61408947,4.81084321 C2.18153181,3.34233525 3.34239166,2.18150074 4.80939982,1.61466418 C5.54907983,1.32740923 6.3340673,1.15774086 7.4667487,1.10605298 C8.5687208,1.05585312 9.05946509,1.04324751 10.9042834,1.0406143 L13.0959085,1.04061498 C14.9411217,1.0432506 15.4323298,1.0558638 16.5333266,1.10605641 Z M12,2.95999998 L11.7026003,2.96002983 L11.7026003,2.96002983 L10.6859777,2.96096934 C9.05224549,2.96422197 8.57999025,2.97733088 7.55419811,3.02406039 C6.63295479,3.06609968 6.05277117,3.19150143 5.50293378,3.40502945 C4.53921637,3.77740073 3.77741243,4.53918804 3.40444454,5.5044035 C3.1915048,6.05269829 3.06610163,6.63286313 3.02406368,7.55403676 C2.97733714,8.57895911 2.96422418,9.05135826 2.96096994,10.6854717 L2.96002985,11.7023212 C2.96000919,11.7983768 2.95999998,11.8974766 2.95999998,11.9997817 L2.9600284,12.3006221 L2.9600284,12.3006221 L2.96093466,13.3276845 C2.96294079,14.3765561 2.96885334,14.945139 2.98482026,15.4796714 L2.99229672,15.707973 C3.00042461,15.9367919 3.01056053,16.1710654 3.02318844,16.4459203 C3.06522834,17.3671369 3.19063151,17.9473017 3.40416221,18.497122 C3.77653914,19.460812 4.53834309,20.2225993 5.50358594,20.5955615 C6.05164592,20.8084007 6.63235329,20.9338976 7.55326571,20.9759369 C8.57861938,21.0226638 9.05106993,21.0357761 10.6849873,21.0390301 L11.701706,21.0399702 C11.7977488,21.0399908 11.8968354,21.04 11.9991267,21.04 L12.2965236,21.0399702 L12.2965236,21.0399702 L13.3131384,21.0390307 C14.9468617,21.035778 15.4191365,21.0226689 16.4449662,20.9759379 C17.3663863,20.9338878 17.9465533,20.808441 18.4971036,20.5945195 C19.4608213,20.2221944 20.2226193,19.460413 20.5955555,18.4951599 C20.8083973,17.947117 20.9338957,17.3664285 20.9759356,16.4455428 C21.0226592,15.4203041 21.0357745,14.9476404 21.0390297,13.3138089 L21.0390302,10.6858717 C21.0357764,9.05222579 21.0226647,8.57975969 20.975939,7.55409541 C20.9338957,6.63313492 20.8083973,6.05244633 20.5949645,5.502878 C20.2225876,4.53918804 19.4607836,3.77740073 18.4955408,3.40443854 C17.9472288,3.19150143 17.3670452,3.06609968 16.4458448,3.02406235 C15.4209908,2.97734096 14.9483564,2.96422564 13.314256,2.96097035 L12.2974417,2.96002987 C12.2013916,2.9600092 12.102298,2.95999998 12,2.95999998 Z M12,6 C15.3137085,6 18,8.6862915 18,12 C18,15.3137085 15.3137085,18 12,18 C8.6862915,18 6,15.3137085 6,12 C6,8.6862915 8.6862915,6 12,6 Z M12,8 C9.790861,8 8,9.790861 8,12 C8,14.209139 9.790861,16 12,16 C14.209139,16 16,14.209139 16,12 C16,9.790861 14.209139,8 12,8 Z M17.9665451,4.76999998 C18.656901,4.76999998 19.2165451,5.32964404 19.2165451,6.01999998 C19.2165451,6.71035592 18.656901,7.26999998 17.9665451,7.26999998 C17.2761891,7.26999998 16.7165451,6.71035592 16.7165451,6.01999998 C16.7165451,5.32964404 17.2761891,4.76999998 17.9665451,4.76999998 Z"></path>
            </g>
        </g>
    </g>
</svg>