<?xml version="1.0" encoding="UTF-8"?>
<svg width="24px" height="24px" viewBox="0 0 24 24" version="1.1" xmlns="http://www.w3.org/2000/svg" xmlns:xlink="http://www.w3.org/1999/xlink">
    <title>socialFacebook</title>
    <g id="Page-1" stroke="none" stroke-width="1" fill="none" fill-rule="evenodd">
        <g id="Artboard" transform="translate(-196.000000, -413.000000)">
            <g id="Path-11" transform="translate(196.000000, 413.000000)">
                <path d="M14.9427792,2.00072143 C15.4975664,2.00219616 16.0637948,2.00556339 16.3263317,2.00725437 L16.4375215,2.00798904 C16.4632826,2.00816422 16.4771102,2.00826253 16.4771102,2.00826253 L16.5554869,2.00884271 C16.7067999,2.00998731 17.060601,2.01277794 17.4700003,2.01678926 L17.4700003,2.01678926 L17.4700003,7.14289772 L16.463594,7.13645033 C16.2528177,7.13510002 15.8911867,7.13294554 15.549356,7.132042 C15.1998477,7.14822858 14.9297566,7.13921514 14.7831348,7.27682887 C14.6604776,7.39195038 14.7206835,7.60677491 14.7206798,7.82978314 C14.7196509,8.20783531 14.7175855,8.61224461 14.715419,8.96875926 L14.715419,8.96875926 L17.2370748,9.02536197 L16.571714,13.9391089 L14.7211368,13.9391089 L14.733279,14.8766184 L14.7186267,21.9930005 L9.12629108,21.9930005 L9.12629108,13.9391089 L6,13.9391089 L6,9 L9.12618355,9 L9.12602998,7.57191426 C9.16927005,5.82772158 9.64329543,4.60316133 10.2783745,3.75670684 C11.1691444,2.56945899 12.4024461,2.0769851 13.4986634,2.0100938 C13.5754317,2.00540939 13.784457,2.00185228 14.065919,2.00069179 L14.065919,2.00069179 Z" stroke="#FFC800" stroke-width="2" stroke-linecap="round" stroke-linejoin="round"></path>
                <path d="M13.7081014,12.9391089 L15.697996,12.9391089 L16.095975,10 L13.7081014,10 C13.7081014,10 13.7206835,8.46274087 13.7206835,7.82706143 C13.7206835,6.65295089 14.0754415,6.20419635 14.8026794,6.13613677 C14.9131631,6.125797 16.4700003,6.13647085 16.4700003,6.13647085 L16.4700003,3.00823725 C16.4700003,3.00823725 13.8633031,2.98970343 13.5595702,3.00823725 C12.051935,3.10023332 10.2132273,4.24357077 10.1262911,6.59300591 C10.1126904,6.96056268 10.1262911,7.59334193 10.1262911,7.5983969 L10.1262911,10 L7,10 L7,12.9391089 L10.1262911,12.9391089 L10.1262911,20.9930005 L13.7206835,20.9930005 L13.7332656,14.8820645 L13.7081014,12.9391089 Z M15.7331531,14.9388043 L15.7206793,20.9971184 C15.7184083,22.1000778 14.8236452,22.9930005 13.7206835,22.9930005 L10.1262911,22.9930005 C9.02172159,22.9930005 8.12629108,22.09757 8.12629108,20.9930005 L8.12629108,14.9391089 L7,14.9391089 C5.8954305,14.9391089 5,14.0436784 5,12.9391089 L5,10 C5,8.8954305 5.8954305,8 7,8 L8.12629108,8 L8.12629108,7.5983969 C8.12593212,7.60417872 8.12593212,7.60417872 8.12346408,7.44512714 C8.1211804,7.28175838 8.11994474,7.11810757 8.12030753,6.96264912 C8.12069884,6.79496666 8.12292688,6.64693261 8.1276589,6.51905045 C8.2452429,3.34136534 10.6531511,1.18186728 13.4377565,1.01195034 C13.6302424,1.00020483 14.124202,0.998340149 15.0061924,1.00089373 C15.2558803,1.00161664 15.5213689,1.00273641 15.7933036,1.00414547 C16.0927977,1.00569734 16.3382103,1.00724966 16.4842201,1.0082878 C17.5832126,1.01610173 18.4700003,1.9092169 18.4700003,3.00823725 L18.4700003,6.13647085 C18.4700003,7.14103173 17.7296456,7.97169246 16.766214,8.11470964 C17.6292376,8.42121356 18.2087485,9.30195071 18.077888,10.2683669 L17.679909,13.2074758 C17.5471862,14.1876452 16.7186188,14.9217171 15.7331531,14.9388043 Z" fill="#000000" fill-rule="nonzero"></path>
            </g>
        </g>
    </g>
</svg>