<?xml version="1.0" encoding="UTF-8"?>
<svg width="24px" height="24px" viewBox="0 0 24 24" version="1.1" xmlns="http://www.w3.org/2000/svg" xmlns:xlink="http://www.w3.org/1999/xlink">
    <title>socialTwitter</title>
    <g id="Page-1" stroke="none" stroke-width="1" fill="none" fill-rule="evenodd">
        <g id="Artboard" transform="translate(-150.000000, -413.000000)" fill="#000000" fill-rule="nonzero">
            <g id="Shape" transform="translate(150.000000, 413.000000)">
                <path d="M21,6.7702819 C20.3546638,7.07396954 19.6713666,7.26377431 18.9501085,7.33969622 C19.6713666,6.88416476 20.2407809,6.20086758 20.5444685,5.36572659 C19.8611714,5.78329708 19.1019523,6.08698472 18.2668113,6.23882854 C17.6214751,5.55553136 16.6724512,5.0999999 15.6475054,5.0999999 C13.6735358,5.0999999 12.0791757,6.69435999 12.0791757,8.70629058 C12.0791757,8.97201726 12.1171367,9.27570489 12.1550976,9.54143157 C9.15618221,9.3516268 6.53687636,7.94707149 4.7527115,5.74533613 C4.44902386,6.27678949 4.25921909,6.88416476 4.25921909,7.56746194 C4.25921909,8.82017344 4.90455531,9.92104112 5.85357918,10.5663773 C5.28416486,10.5663773 4.71475054,10.3765726 4.22125813,10.1108459 C4.22125813,11.8950108 5.47396963,13.337527 7.10629067,13.6791756 C6.80260304,13.7550975 6.4989154,13.7930585 6.15726681,13.7930585 C5.92950108,13.7930585 5.70173536,13.7550975 5.47396963,13.7171366 C5.92950108,15.1596528 7.25813449,16.1845986 8.81453362,16.2225596 C7.59978308,17.1715834 6.04338395,17.7789587 4.37310195,17.7789587 C4.06941432,17.7789587 3.80368764,17.7789587 3.5,17.7409977 C5.09436009,18.7659435 6.95444685,19.3733188 9.00433839,19.3733188 C14.6984816,19.3733188 18.1529284,15.2735357 18.9880694,11.0978307 C19.1019523,10.4524945 19.1778742,9.7691973 19.1778742,9.12386108 L19.1778742,8.66832962 C19.9370933,8.13687626 20.5444685,7.49154003 21,6.7702819 Z M22.6909778,7.83826788 C22.2711304,8.50302629 21.7597531,9.10765885 21.1653896,9.64037733 C21.1377736,10.2231784 21.0646612,10.8382418 20.9492308,11.490063 C19.8232264,17.1200846 15.2046838,21.3733188 9.00433839,21.3733188 C6.63261447,21.3733188 4.3915624,20.6917617 2.41848482,19.4233547 C0.627971211,18.2723102 1.63592907,15.4924244 3.74806947,15.756442 C3.82601532,15.7661852 3.90596734,15.7720833 4.00318064,15.7753238 C4.0763326,15.7777622 4.14312143,15.7786438 4.27489138,15.7788838 C3.97378973,15.3367598 3.73335719,14.8468168 3.5668043,14.3193993 C3.49698006,14.0982892 3.46724072,13.877837 3.47233597,13.6640891 C2.68656962,12.6907708 2.22125813,11.4522244 2.22125813,10.1108459 C2.22125813,9.74377748 2.31631555,9.40896555 2.47933154,9.12259609 C2.33539716,8.62480133 2.25921909,8.10228898 2.25921909,7.56746194 C2.25921909,6.55926742 2.52586746,5.61118432 3.01622521,4.75305825 C3.71404712,3.53186992 5.42106481,3.39340922 6.30657715,4.48616913 C7.34790123,5.77120736 8.72041174,6.69876493 10.2854674,7.18204945 C10.9410694,4.82076552 13.0853055,3.0999999 15.6475054,3.0999999 C16.757893,3.0999999 17.8329609,3.43968191 18.7367542,4.03828591 C18.9999637,3.93652652 19.2547347,3.81000583 19.5015685,3.65916292 C20.9470084,2.77583853 22.6654443,3.96519803 22.5449084,5.50004532 C23.0516987,6.11428345 23.2095345,7.01721982 22.6909778,7.83826788 Z"></path>
            </g>
        </g>
    </g>
</svg>