<?xml version="1.0" encoding="UTF-8"?>
<svg width="24px" height="24px" viewBox="0 0 24 24" version="1.1" xmlns="http://www.w3.org/2000/svg" xmlns:xlink="http://www.w3.org/1999/xlink">
    <title>socialFacebook</title>
    <g id="Plantry-website" stroke="none" stroke-width="1" fill="none" fill-rule="evenodd">
        <g id="Artboard" transform="translate(-259.000000, -192.000000)">
            <g id="socialFacebook" transform="translate(264.000000, 192.999892)">
                <path d="M9.94277915,1.00082911 C10.5984368,1.00257197 11.2700743,1.00695808 11.4375215,1.00809672 L11.5554869,1.00895039 C11.7067999,1.01009499 12.060601,1.01288562 12.4700003,1.01689694 L12.4700003,6.14481947 C12.1028022,6.14083853 11.684569,6.13797252 11.4635992,6.13655804 C11.2318116,6.13507431 10.7829709,6.13240891 10.4036383,6.13184215 C10.1334537,6.1446927 9.90898037,6.12923329 9.78937775,6.25152384 C9.67110802,6.37245154 9.72068352,6.5902327 9.72067982,6.82989082 C9.71965087,7.20794299 9.71758554,7.61235229 9.71541897,7.96886694 L12.2370748,8.02546965 L11.571714,12.9392166 L9.7211368,12.9392166 L9.73327897,13.8767261 L9.71862669,20.9931082 L4.12629108,20.9931082 L4.12629108,12.9392166 L1,12.9392166 L1,8.00010768 L4.12618355,8.00010768 L4.12602998,6.57202194 C4.16927005,4.82782926 4.64329543,3.60326901 5.27837445,2.75681452 C6.16914437,1.56956667 7.40244611,1.07709278 8.49866337,1.01020148 C8.57543167,1.00551707 8.78445701,1.00195996 9.06591904,1.00079947 Z" id="Path-11" stroke="#FFFFFF" stroke-width="2" stroke-linecap="round" stroke-linejoin="round"></path>
                <path d="M8.70810141,11.9392166 L10.697996,11.9392166 L11.095975,9.00010768 L8.70810141,9.00010768 C8.70810141,9.00010768 8.72068352,7.46284855 8.72068352,6.82716911 C8.72068352,5.65305857 9.07544151,5.20430403 9.8026794,5.13624445 C9.9131631,5.12590468 11.4700003,5.13657853 11.4700003,5.13657853 L11.4700003,2.00834493 C11.4700003,2.00834493 8.86330314,1.98981111 8.5595702,2.00834493 C7.051935,2.100341 5.21322732,3.24367846 5.12629108,5.59311359 C5.11269037,5.96067036 5.12629108,6.59344961 5.12629108,6.59850458 L5.12629108,9.00010768 L2,9.00010768 L2,11.9392166 L5.12629108,11.9392166 L5.12629108,19.9931082 L8.72068352,19.9931082 L8.73326564,13.8821722 L8.70810141,11.9392166 Z M10.7331531,13.938912 L10.7206793,19.9972261 C10.7184083,21.1001854 9.82364523,21.9931082 8.72068352,21.9931082 L5.12629108,21.9931082 C4.02172159,21.9931082 3.12629108,21.0976777 3.12629108,19.9931082 L3.12629108,13.9392166 L2,13.9392166 C0.8954305,13.9392166 0,13.0437861 0,11.9392166 L0,9.00010768 C0,7.89553818 0.8954305,7.00010768 2,7.00010768 L3.12629108,7.00010768 L3.12629108,6.59850458 C3.12593212,6.6042864 3.12593212,6.6042864 3.12346408,6.44523482 C3.1211804,6.28186606 3.11994474,6.11821525 3.12030753,5.9627568 C3.12069884,5.79507434 3.12292688,5.64704029 3.1276589,5.51915813 C3.2452429,2.34147302 5.65315105,0.181974964 8.43775655,0.0120580212 C8.63024243,0.000312511048 9.12420203,-0.00155217108 10.0061924,0.00100141019 C10.2558803,0.00172431866 10.5213689,0.0028440933 10.7933036,0.00425315514 C11.0927977,0.00580501883 11.3382103,0.00735734338 11.4842201,0.00839548416 C12.5832126,0.0162094066 13.4700003,0.909324576 13.4700003,2.00834493 L13.4700003,5.13657853 C13.4700003,6.14113941 12.7296456,6.97180014 11.766214,7.11481732 C12.6292376,7.42132124 13.2087485,8.30205839 13.077888,9.2684746 L12.679909,12.2075835 C12.5471862,13.1877529 11.7186188,13.9218248 10.7331531,13.938912 Z" id="Path-11" fill="#FFFFFF" fill-rule="nonzero"></path>
            </g>
        </g>
    </g>
</svg>